<?xml version="1.0" standalone="no"?>
<!DOCTYPE svg PUBLIC "-//W3C//DTD SVG 1.1//EN" "http://www.w3.org/Graphics/SVG/1.1/DTD/svg11.dtd" >
<svg xmlns="http://www.w3.org/2000/svg">
<metadata>
Created by FontPrep 20130207 at Fri Jun  6 19:52:10 2014
 By Omar Martinez
Copyright (c) 2012 by TypeTogether. All rights reserved.
</metadata>
<defs>
<font id="2d546e14fd484986647adb533612e561" horiz-adv-x='1024' >
  <font-face 
    font-family="AdelleSans-Bold"
    font-weight="700"
    font-stretch="normal"
    units-per-em="2048"
    panose-1="2 0 5 3 0 0 0 2 0 4"
    ascent="1546"
    descent="-502"
    x-height="1067"
    cap-height="1483"
    bbox="-328 -600 2560 2230"
    underline-thickness="102"
    underline-position="-102"
    unicode-range="U+0020-FB06"
  />
<missing-glyph horiz-adv-x="1024" 
 />
    <glyph glyph-name="ij" unicode="ij" horiz-adv-x="1093" 
d="M828 1585q90 0 138 -48t48 -137t-49 -139q-49 -51 -137 -51t-138 50q-49 50 -49 140q0 89 49 137t138 48zM981 -84q1 -193 -101 -283t-275 -90t-257 58l23 231q88 -41 168 -41q133 0 133 160v1116h309v-1151zM465 1395q0 -89 -49 -139t-137 -50t-138 49q-49 49 -49 139
t48 138q48 49 138 49t138 -49q49 -49 49 -137zM432 1067v-1067h-309v1067h309z" />
    <glyph glyph-name="ff" unicode="ff" horiz-adv-x="1431" 
d="M465 1174v-107h375v123q0 190 104 284t272 95q168 0 250 -39l-10 -219q-76 27 -150 27t-116 -38q-41 -37 -41 -139v-94h283v-225h-283v-842h-309v842h-375v-842h-309v842h-144v225h144v123q0 193 97 286t256 93t241 -39l-13 -215q-173 55 -237 -15q-35 -37 -35 -126z" />
    <glyph glyph-name="fi" unicode="fi" horiz-adv-x="1267" 
d="M1184 1409q0 -90 -49 -139t-139 -49t-137 49q-48 49 -48 139t48 138t137 48q88 0 138 -48t50 -138zM1151 1067v-1067h-309v842h-377v-842h-309v842h-144v225h144v123q0 193 97 286t273 93q104 0 191 -29l-10 -225q-63 18 -119 18q-122 0 -123 -162v-104h686z" />
    <glyph glyph-name="fl" unicode="fl" horiz-adv-x="1267" 
d="M1151 1546v-1546h-309v1546h309zM465 1171v-104h254v-225h-254v-842h-309v842h-144v225h144v123q0 193 97 286t256 93t241 -39l-13 -217q-173 55 -237 -15q-35 -37 -35 -127z" />
    <glyph glyph-name="ffi" unicode="ffi" horiz-adv-x="1951" 
d="M1870 1409q0 -90 -50 -139t-138 -49t-137 49q-48 49 -48 139t48 138t137 48q88 0 138 -48t50 -138zM1837 1067v-1067h-309v842h-377v-842h-309v842h-377v-842h-309v842h-144v225h144v123q0 193 97 286t255 93t242 -39l-13 -215q-173 55 -237 -15q-35 -37 -35 -126v-107
h377v123q0 193 97 286t273 93q104 0 191 -29l-10 -225q-63 18 -119 18q-122 0 -123 -162v-104h686z" />
    <glyph glyph-name="ffl" unicode="ffl" horiz-adv-x="1951" 
d="M1837 1546v-1546h-309v1546h309zM1151 1171v-104h254v-225h-254v-842h-309v842h-377v-842h-309v842h-144v225h144v123q0 193 97 286t255 93t242 -39l-13 -215q-173 55 -237 -15q-35 -37 -35 -126v-107h377v123q0 193 97 286t256 93t241 -39l-13 -217q-173 55 -237 -15
q-35 -37 -35 -127z" />
    <glyph glyph-name="f_k" unicode="fk" horiz-adv-x="1878" 
d="M1151 1546v-854l352 375h344l-354 -383l381 -684h-342l-277 487l-104 -100v-387h-309v1546h309zM465 1169v-102h254v-225h-254v-842h-309v842h-144v225h144v123q0 193 97 286t256 93t241 -39l-13 -219q-173 55 -237 -15q-35 -37 -35 -127z" />
    <glyph glyph-name="f_b" unicode="fb" horiz-adv-x="1935" 
d="M1335 223q199 0 199 326q0 293 -188 293q-107 0 -197 -82v-467q94 -70 186 -70zM842 0v1546h303v-575q121 119 309 119t297 -128t109 -416t-120 -429t-312 -141t-306 114h-6l-14 -90h-260zM465 1171v-104h254v-225h-254v-842h-309v842h-144v225h144v123q0 193 97 286
t256 93t241 -39l-13 -217q-173 55 -237 -15q-35 -37 -35 -127z" />
    <glyph glyph-name="f_h" unicode="fh" horiz-adv-x="1918" 
d="M1810 729v-729h-309v674q0 164 -141 164q-115 0 -209 -84v-754h-309v1546h307v-577q154 121 328 121q173 0 253 -88t80 -273zM465 1171v-104h254v-225h-254v-842h-309v842h-144v225h144v123q0 193 97 286t256 93t241 -39l-13 -217q-173 55 -237 -15q-35 -37 -35 -127z
" />
    <glyph glyph-name="f_t" unicode="ft" horiz-adv-x="1511" 
d="M1191 -25q-179 0 -264 83t-85 264v520h-377v-842h-309v842h-144v225h144v123q0 193 97 286t255 93t242 -39l-13 -217q-173 55 -237 -15q-35 -37 -35 -127v-104h377v315l309 41v-356h283v-225h-283v-480q0 -74 27 -108q28 -34 110 -35q82 0 164 49l45 -213
q-127 -80 -306 -80z" />
    <glyph glyph-name="f_j" unicode="fj" horiz-adv-x="1263" 
d="M1184 1414q0 -89 -49 -138t-137 -49t-138 50q-49 50 -49 138t49 137q49 50 137 50q87 0 137 -50t50 -138zM1151 -84q1 -193 -101 -283t-275 -90t-257 58l23 225q88 -41 168 -41q133 0 133 160v897h-377v-842h-309v842h-144v225h144v123q0 193 97 286t273 93
q106 0 197 -29l-12 -225q-78 18 -129 18t-84 -36t-33 -126v-104h686v-1151z" />
    <glyph glyph-name="f_f_j" unicode="ffj" horiz-adv-x="1947" 
d="M1868 1414q0 -89 -49 -138t-137 -49t-138 50q-49 50 -49 138t49 137q49 50 137 50q87 0 137 -50t50 -138zM1835 -84q1 -193 -101 -283t-275 -90t-257 58l23 225q88 -41 168 -41q133 0 133 160v897h-377v-842h-309v842h-375v-842h-309v842h-144v225h144v123q0 193 97 286
t255 93t242 -39l-13 -215q-173 55 -237 -15q-35 -37 -35 -126v-107h375v123q0 193 97 286t273 93q106 0 197 -29l-12 -225q-78 18 -129 18t-84 -36t-33 -126v-104h686v-1151z" />
    <glyph glyph-name="f_f_k" unicode="ffk" horiz-adv-x="2562" 
d="M1837 1546v-854l352 375h344l-354 -383l381 -684h-342l-276 487l-105 -100v-387h-309v1546h309zM1151 1169v-102h254v-225h-254v-842h-309v842h-377v-842h-309v842h-144v225h144v123q0 193 97 286t255 93t242 -39l-13 -215q-173 55 -237 -15q-35 -37 -35 -126v-107h377
v123q0 193 97 286t256 93t241 -39l-13 -219q-173 55 -237 -15q-35 -37 -35 -127z" />
    <glyph glyph-name="f_f_b" unicode="ffb" horiz-adv-x="2621" 
d="M2021 223q199 0 199 326q0 293 -188 293q-107 0 -197 -82v-467q94 -70 186 -70zM1528 0v1546h303v-575q121 119 309 119t297 -128t109 -416t-120 -429t-312 -141t-306 114h-6l-14 -90h-260zM1151 1171v-104h254v-225h-254v-842h-309v842h-377v-842h-309v842h-144v225h144
v123q0 193 97 286t255 93t242 -39l-13 -215q-173 55 -237 -15q-35 -37 -35 -126v-107h377v123q0 193 97 286t256 93t241 -39l-13 -217q-173 55 -237 -15q-35 -37 -35 -127z" />
    <glyph glyph-name="f_f_h" unicode="ffh" horiz-adv-x="2605" 
d="M2497 729v-729h-310v674q0 164 -141 164q-115 0 -209 -84v-754h-309v1546h307v-577q154 121 328 121t254 -88t80 -273zM1151 1171v-104h254v-225h-254v-842h-309v842h-377v-842h-309v842h-144v225h144v123q0 193 97 286t255 93t242 -39l-13 -215q-173 55 -237 -15
q-35 -37 -35 -126v-107h377v123q0 193 97 286t256 93t241 -39l-13 -217q-173 55 -237 -15q-35 -37 -35 -127z" />
    <glyph glyph-name="f_f_t" unicode="fft" horiz-adv-x="2197" 
d="M1151 1171v-104h377v315l309 41v-356h283v-225h-283v-480q0 -74 27 -108q28 -34 110 -35q82 0 164 49l45 -213q-127 -80 -306 -80t-264 83t-85 264v520h-377v-842h-309v842h-377v-842h-309v842h-144v225h144v123q0 193 97 286t255 93t242 -39l-13 -215q-173 55 -237 -15
q-35 -37 -35 -126v-107h377v123q0 193 97 286t256 93t241 -39l-13 -217q-173 55 -237 -15q-35 -37 -35 -127z" />
    <glyph glyph-name="f_iacute" unicode="f&#xed;" horiz-adv-x="1267" 
d="M1358 1522l-277 -351l-207 19l152 332h332zM1151 1067v-1067h-309v842h-377v-842h-309v842h-144v225h144v123q0 193 97 286t273 93q106 0 197 -29l-12 -225q-78 18 -129 18t-84 -36t-33 -126v-104h686z" />
    <glyph glyph-name="t_t" unicode="tt" horiz-adv-x="1533" 
d="M1206 -25q-170 0 -256 83t-86 264v518h-381v-475q0 -76 24 -111t88 -35t146 37l47 -217q-120 -63 -282 -63q-332 -1 -332 346v518h-160v227h160v315l309 41v-356h381v315l310 41v-356h282v-227h-282v-475q0 -74 28 -109t108 -35q81 0 167 49l43 -215q-46 -31 -134 -55
t-180 -25z" />
    <glyph glyph-name=".notdef" horiz-adv-x="1024" 
 />
    <glyph glyph-name=".null" horiz-adv-x="0" 
 />
    <glyph glyph-name="nonmarkingreturn" horiz-adv-x="681" 
 />
    <glyph glyph-name="space" unicode=" " horiz-adv-x="356" 
 />
    <glyph glyph-name="exclam" unicode="!" horiz-adv-x="593" 
d="M481 140q0 -165 -183 -165t-183 165t183 165t183 -165zM428 403h-258l-39 1080h336z" />
    <glyph glyph-name="quotedbl" unicode="&#x22;" horiz-adv-x="878" 
d="M776 952h-276v531h276v-531zM379 952h-277v531h277v-531z" />
    <glyph glyph-name="numbersign" unicode="#" horiz-adv-x="1243" 
d="M688 498l33 225h-176l-35 -225h178zM823 0h-211l43 285h-178l-43 -285h-213l43 285h-203l43 213h193l35 225h-205l43 215h192l41 276h213l-41 -276h177l41 276h213l-41 -276h206l-41 -215h-196l-35 -225h207l-41 -213h-197z" />
    <glyph glyph-name="dollar" unicode="$" horiz-adv-x="1126" 
d="M567 1217q-184 0 -184 -156q0 -76 63 -123q63 -48 170 -76t154 -44q46 -16 110 -51q64 -34 100 -75q89 -101 89 -273q0 -171 -111 -283t-288 -140v-164h-262v164q-340 45 -379 410l270 51q19 -125 71 -179t166 -54q230 -1 230 165q0 70 -54 119q-18 18 -66 38t-140 44
q-183 49 -299 129q-139 96 -137 307q0 164 98 269t256 143v184h260v-182q330 -41 352 -385l-274 -33q-14 100 -58 148t-137 47z" />
    <glyph glyph-name="percent" unicode="%" horiz-adv-x="1701" 
d="M518 -27h-272l897 1510h270zM1298 156q64 0 93 47q27 47 27 147t-27 144q-27 43 -91 43q-119 0 -118 -187q0 -102 26 -148t90 -46zM1649 362q1 -180 -91 -284t-271 -103q-179 -1 -260 99t-81 271t90 272t271 102q342 0 342 -357zM276 1143q0 -103 26 -149t92 -46
q64 0 91 47t27 147t-27 144q-27 43 -90 43q-119 0 -119 -186zM743 1155q0 -179 -91 -283t-270 -104t-260 99t-81 270t90 273t270 101q342 0 342 -356z" />
    <glyph glyph-name="ampersand" unicode="&#x26;" horiz-adv-x="1521" 
d="M604 1098q0 -70 55 -174q85 44 123 71q66 48 66 131q0 49 -30 79t-85 30t-92 -34q-37 -33 -37 -103zM391 440q1 -110 67 -174t170 -65q104 0 171 32q-150 137 -322 388q-86 -71 -86 -181zM1106 1143q0 -238 -328 -377l-28 -12q119 -164 270 -328q59 113 59 307h273
q8 -264 -133 -454q113 -70 225 -33l33 -234q-74 -27 -170 -30q-154 0 -312 98q-139 -104 -393 -104t-390 118q-136 119 -136 303q0 285 299 412q-72 121 -72 248q0 174 125 276q125 103 298 103q172 0 276 -70t104 -223z" />
    <glyph glyph-name="quotesingle" unicode="'" horiz-adv-x="481" 
d="M379 952h-277v531h277v-531z" />
    <glyph glyph-name="parenleft" unicode="(" horiz-adv-x="743" 
d="M86 576q0 456 326 907h319q-151 -223 -233 -434t-82 -468t78 -463t217 -431h-324q-301 433 -301 889z" />
    <glyph glyph-name="parenright" unicode=")" horiz-adv-x="743" 
d="M625 594q0 -457 -326 -907h-319q152 223 233 434q82 211 82 468t-78 463t-217 431h324q301 -432 301 -889z" />
    <glyph glyph-name="asterisk" unicode="*" horiz-adv-x="976" 
d="M555 1546l37 -250l231 56l43 -148l-219 -110l148 -222l-117 -92l-201 189l-194 -195l-119 94l145 226l-223 108l45 148l236 -58l41 254h147z" />
    <glyph glyph-name="plus" unicode="+" 
d="M705 248h-246v293h-273v243h273v285h246v-285h274v-243h-274v-293z" />
    <glyph glyph-name="comma" unicode="," horiz-adv-x="499" 
d="M-14 -256l129 526h323l-200 -551z" />
    <glyph glyph-name="hyphen" unicode="-" horiz-adv-x="641" 
d="M596 465h-555v264h555v-264z" />
    <glyph glyph-name="period" unicode="." horiz-adv-x="514" 
d="M449 157q-1 -181 -191 -181t-190 180q0 182 190 182t191 -181z" />
    <glyph glyph-name="slash" unicode="/" horiz-adv-x="907" 
d="M301 -188h-283l576 1734h280z" />
    <glyph glyph-name="zero" unicode="0" horiz-adv-x="1198" 
d="M393 742q0 -290 42 -408t164 -117q122 0 165 119t43 412q0 294 -40 406t-161 112t-167 -117t-46 -407zM594 -25q-295 1 -413 191t-118 576t127 576t421 191q294 0 409 -185t115 -573t-123 -582t-418 -194z" />
    <glyph glyph-name="one" unicode="1" horiz-adv-x="905" 
d="M702 0h-307v1114q-47 -25 -152 -44t-165 -19l-15 262q293 23 429 170h210v-1483z" />
    <glyph glyph-name="two" unicode="2" horiz-adv-x="1110" 
d="M569 1509q217 0 331 -99q114 -98 114 -266t-71 -290t-249 -315l-241 -267v-6h583v-266h-946v258l318 371q188 217 241 301t53 180q0 156 -165 156q-95 0 -141 -54t-62 -165l-279 47q25 211 161 313t353 102z" />
    <glyph glyph-name="three" unicode="3" horiz-adv-x="1136" 
d="M522 215q96 0 155 55q58 55 58 168t-59 162t-180 49h-146v234h96q129 0 199 60t70 165q0 164 -168 164q-92 0 -138 -45t-67 -140l-266 54q37 195 172 281q136 86 338 87q202 0 318 -94t116 -266q0 -135 -81 -223t-198 -127v-8q309 -72 310 -371q-1 -205 -143 -325
t-360 -120t-350 92q-134 92 -157 291l276 52q13 -98 61 -146t144 -49z" />
    <glyph glyph-name="four" unicode="4" horiz-adv-x="1222" 
d="M719 582v618l-391 -618h391zM1018 0h-299v332h-664v219l588 932h377v-901h166v-250h-168v-332z" />
    <glyph glyph-name="five" unicode="5" horiz-adv-x="1146" 
d="M967 1483v-266h-555l-35 -371q113 98 285 98t282 -112q109 -112 109 -346q1 -236 -143 -373t-388 -138q-196 1 -326 91t-157 290l268 56q27 -193 215 -193q96 0 160 66q63 66 63 194q0 227 -196 228q-115 0 -217 -99l-201 84l55 791h781z" />
    <glyph glyph-name="six" unicode="6" horiz-adv-x="1183" 
d="M620 211q86 0 133 67q46 68 46 182t-40 167q-41 53 -143 53t-206 -92q4 -115 17 -189t60 -131t133 -57zM649 1270q-82 0 -142 -73q-110 -133 -114 -398q127 113 315 113t296 -110q109 -110 108 -319q0 -250 -139 -379t-365 -129q-295 0 -409 214q-103 193 -103 516
q0 242 70 432q41 111 103 191q63 80 169 130q106 51 242 51q352 0 424 -344l-275 -75q-16 100 -57 140t-123 40z" />
    <glyph glyph-name="seven" unicode="7" horiz-adv-x="1087" 
d="M63 1217v266h973v-238l-565 -1247h-328l572 1219h-652z" />
    <glyph glyph-name="eight" unicode="8" horiz-adv-x="1165" 
d="M602 1286q-82 0 -132 -38t-50 -108t51 -124q51 -52 160 -105q156 94 155 228q0 147 -184 147zM346 395q0 -184 223 -184q109 0 166 51q57 50 57 116t-20 105q-33 65 -148 119q-38 18 -104 43q-84 -47 -129 -104t-45 -146zM562 -25q-255 0 -387 111t-132 276
q0 268 285 398q-227 109 -228 342q0 190 140 299t367 109q228 0 352 -95q124 -94 124 -252q0 -119 -60 -201t-185 -155q152 -70 218 -160t66 -241q0 -182 -152 -307q-153 -124 -408 -124z" />
    <glyph glyph-name="nine" unicode="9" horiz-adv-x="1181" 
d="M571 1272q-182 0 -182 -236t176 -237q115 0 213 92q-8 176 -34 251q-27 74 -69 102t-104 28zM532 211q127 0 194 132t71 337q-121 -106 -313 -106t-301 109q-107 111 -107 341t143 358t371 127q289 0 400 -214q102 -195 102 -515q0 -805 -568 -805q-398 1 -461 353
l275 82q18 -104 64 -152t130 -47z" />
    <glyph glyph-name="colon" unicode=":" horiz-adv-x="544" 
d="M463 859q-1 -181 -191 -181t-190 181t190 181t191 -181zM463 157q-1 -181 -191 -181t-190 180q0 182 190 182t191 -181z" />
    <glyph glyph-name="semicolon" unicode=";" horiz-adv-x="532" 
d="M492 859q0 -181 -190 -181t-191 181q1 181 191 181t190 -181zM-10 -256l129 526h323l-200 -551z" />
    <glyph glyph-name="less" unicode="&#x3c;" 
d="M942 170l-801 281v290l801 287v-256l-534 -174l534 -176v-252z" />
    <glyph glyph-name="equal" unicode="=" 
d="M979 647h-791v246h791v-246zM979 260h-791v246h791v-246z" />
    <glyph glyph-name="greater" unicode="&#x3e;" 
d="M999 455l-800 -281v250l534 174l-534 174v256l800 -287v-286z" />
    <glyph glyph-name="question" unicode="?" horiz-adv-x="1120" 
d="M467 305q182 0 182 -165t-182 -165t-182 165t182 165zM625 403h-308v375q408 33 408 291q0 178 -178 178q-95 0 -147 -51t-70 -162l-301 47q25 199 162 311q138 112 355 112t361 -100q144 -99 144 -339q0 -375 -426 -475v-187z" />
    <glyph glyph-name="at" unicode="@" horiz-adv-x="1751" 
d="M885 653q-78 -1 -124 -65t-46 -195q0 -244 141 -243q80 -1 150 81v375q-43 47 -121 47zM883 -395q-352 0 -577 197q-224 198 -224 568t232 596q232 228 612 228q334 0 538 -184t203 -500q0 -264 -106 -396q-105 -132 -289 -132t-238 104q-80 -102 -228 -102t-226 104
t-78 289t93 311t249 125q111 0 176 -72l16 60h166v-539q0 -53 18 -82q18 -28 75 -28q56 0 97 58q66 96 66 286q0 238 -134 374t-413 136q-157 0 -279 -54q-220 -97 -298 -340q-35 -106 -35 -225q0 -301 163 -447t443 -147q197 0 365 84l63 -174q-154 -98 -450 -98z" />
    <glyph glyph-name="A" unicode="A" horiz-adv-x="1452" 
d="M897 612l-184 574h-8l-183 -574h375zM514 1483h393l525 -1483h-347l-122 360h-494l-115 -360h-325z" />
    <glyph glyph-name="B" unicode="B" horiz-adv-x="1304" 
d="M467 870h117q214 0 270 96q25 42 25 103q-1 109 -61 139t-187 31h-164v-369zM467 244h162q143 0 215 40t72 154t-67 153q-67 40 -190 40h-192v-387zM692 0h-540v1483h587q449 0 449 -363q0 -139 -79 -225t-202 -121v-4q344 -41 344 -362q0 -408 -559 -408z" />
    <glyph glyph-name="C" unicode="C" horiz-adv-x="1423" 
d="M762 -25q-684 0 -684 750q0 360 186 572t529 212q259 0 415 -131t168 -401l-289 -25q-14 158 -85 228t-214 69q-385 0 -385 -508q-1 -266 91 -386q92 -119 257 -119t237 68t99 198l285 -49q-23 -168 -121 -280t-222 -155t-267 -43z" />
    <glyph glyph-name="D" unicode="D" horiz-adv-x="1482" 
d="M467 254h156q245 0 353 126t108 381t-105 361q-104 106 -334 107h-178v-975zM637 0h-485v1483h520q375 1 555 -187t180 -537q-1 -349 -193 -554t-577 -205z" />
    <glyph glyph-name="E" unicode="E" horiz-adv-x="1193" 
d="M467 612v-346h661v-266h-976v1483h940v-264h-625v-349h588v-258h-588z" />
    <glyph glyph-name="F" unicode="F" horiz-adv-x="1132" 
d="M467 582v-582h-315v1483h933v-264h-618v-377h569v-260h-569z" />
    <glyph glyph-name="G" unicode="G" horiz-adv-x="1513" 
d="M791 1249q-385 0 -385 -516q0 -254 90 -379t284 -125q143 0 224 73q80 73 79 185v54h-270v231h582v-772h-230l-35 182q-46 -96 -164 -151t-259 -56q-322 0 -476 200q-153 201 -153 555t185 566t534 213q255 0 411 -125t174 -393l-295 -28q-13 133 -81 209t-215 77z" />
    <glyph glyph-name="H" unicode="H" horiz-adv-x="1501" 
d="M1352 1483v-1483h-318v608h-567v-608h-315v1483h315v-602h567v602h318z" />
    <glyph glyph-name="I" unicode="I" horiz-adv-x="618" 
d="M467 1483v-1483h-315v1483h315z" />
    <glyph glyph-name="J" unicode="J" horiz-adv-x="1085" 
d="M631 408v1075h317v-1067q0 -440 -467 -441q-436 0 -450 420l303 45q10 -110 39 -158t107 -48t115 40q36 40 36 134z" />
    <glyph glyph-name="K" unicode="K" horiz-adv-x="1378" 
d="M465 1483v-635l575 635h336l-542 -617l534 -866h-369l-391 621l-143 -156v-465h-313v1483h313z" />
    <glyph glyph-name="L" unicode="L" horiz-adv-x="1163" 
d="M467 1483v-1217h635v-266h-950v1483h315z" />
    <glyph glyph-name="M" unicode="M" horiz-adv-x="1873" 
d="M1724 1483v-1483h-294v1163h-9l-350 -1163h-285l-337 1165h-9v-1165h-288v1483h471l313 -1084h8l311 1084h469z" />
    <glyph glyph-name="N" unicode="N" horiz-adv-x="1525" 
d="M1376 0h-364l-572 1047v-1047h-288v1483h376l562 -1051v1051h286v-1483z" />
    <glyph glyph-name="O" unicode="O" horiz-adv-x="1556" 
d="M779 242q376 0 376 500t-360 501q-183 0 -287 -125t-105 -377q0 -499 376 -499zM768 -25q-352 0 -521 205t-169 552t187 562t533 215q346 -1 514 -207q169 -206 169 -558q-1 -352 -181 -560q-180 -209 -532 -209z" />
    <glyph glyph-name="P" unicode="P" horiz-adv-x="1271" 
d="M465 733h127q137 1 214 57t77 198t-69 192t-198 49h-151v-496zM465 479v-479h-313v1483h561q262 0 378 -131t115 -332q0 -541 -579 -541h-162z" />
    <glyph glyph-name="Q" unicode="Q" horiz-adv-x="1556" 
d="M784 236q80 0 142 20l-232 246l191 170l219 -248q53 109 53 321q0 498 -362 498q-183 0 -287 -125t-104 -380q0 -254 98 -378q100 -124 282 -124zM768 -25q-352 0 -521 205t-169 552t187 562t533 215q346 -1 514 -207q169 -206 169 -545t-170 -546l168 -180l-197 -166
l-170 184q-158 -74 -344 -74z" />
    <glyph glyph-name="R" unicode="R" horiz-adv-x="1314" 
d="M465 811h162q268 0 268 223q1 104 -63 150t-193 45h-174v-418zM465 563v-563h-313v1483h577q258 0 375 -118t117 -300q0 -307 -256 -424l335 -641h-339l-293 563h-203z" />
    <glyph glyph-name="S" unicode="S" horiz-adv-x="1220" 
d="M621 1266q-226 0 -228 -158q0 -117 153 -172q68 -26 150 -48t164 -52t151 -75q69 -44 111 -125t41 -192q0 -236 -162 -352t-405 -117q-541 0 -573 471l286 43q23 -127 84 -195t211 -69q246 0 246 183q0 61 -43 103q-43 43 -111 65t-150 41q-192 45 -315 123
q-68 44 -110 126q-43 82 -43 197q0 209 153 328q154 119 377 119t364 -85q159 -93 175 -350l-289 -33q-10 112 -64 168t-173 56z" />
    <glyph glyph-name="T" unicode="T" horiz-adv-x="1218" 
d="M770 0h-317v1217h-437v266h1186v-266h-432v-1217z" />
    <glyph glyph-name="U" unicode="U" horiz-adv-x="1449" 
d="M727 240q156 0 214 76t58 264v903h316v-948q0 -559 -598 -560q-305 -1 -445 137t-139 431v940h318v-897q0 -182 60 -264t216 -82z" />
    <glyph glyph-name="V" unicode="V" horiz-adv-x="1355" 
d="M901 0h-426l-481 1483h354l338 -1172h12l338 1172h326z" />
    <glyph glyph-name="W" unicode="W" horiz-adv-x="1974" 
d="M1640 0h-403l-240 1022h-8l-237 -1022h-416l-320 1483h330l209 -1143h8l264 1143h338l273 -1149h10l192 1149h318z" />
    <glyph glyph-name="X" unicode="X" horiz-adv-x="1333" 
d="M1311 1483l-463 -733l487 -750h-364l-324 494l-309 -494h-340l479 748l-457 735h353l303 -502l307 502h328z" />
    <glyph glyph-name="Y" unicode="Y" horiz-adv-x="1241" 
d="M795 0h-318v555l-514 928h346l326 -635h10l313 635h320l-483 -924v-559z" />
    <glyph glyph-name="Z" unicode="Z" horiz-adv-x="1212" 
d="M1153 266v-266h-1098v231l703 988h-684v264h1050v-236l-690 -981h719z" />
    <glyph glyph-name="bracketleft" unicode="[" horiz-adv-x="651" 
d="M578 -293h-465v1776h465v-201h-166v-1374h166v-201z" />
    <glyph glyph-name="backslash" unicode="\" horiz-adv-x="913" 
d="M895 -188h-283l-573 1734h280z" />
    <glyph glyph-name="bracketright" unicode="]" horiz-adv-x="651" 
d="M539 -293h-465v201h166v1374h-166v201h465v-1776z" />
    <glyph glyph-name="asciicircum" unicode="^" horiz-adv-x="1398" 
d="M1266 612h-295l-273 484l-266 -484h-291l404 748h313z" />
    <glyph glyph-name="underscore" unicode="_" horiz-adv-x="1024" 
d="M1024 -371h-1024v226h1024v-226z" />
    <glyph glyph-name="grave" unicode="`" horiz-adv-x="1024" 
d="M471 1171l-276 351h331l152 -332z" />
    <glyph glyph-name="a" unicode="a" horiz-adv-x="1142" 
d="M684 453h-49q-123 -4 -189 -35t-65 -107q0 -117 125 -116q108 -1 178 69v189zM985 713v-447q0 -45 12 -63q25 -37 115 -6l8 -179q-82 -41 -196 -41q-188 0 -219 136q-104 -137 -318 -138q-94 0 -161 29q-66 29 -98 75q-58 84 -58 181q0 377 612 373v39q0 102 -29 148
t-114 46t-119 -34t-51 -113l-263 51q51 319 451 320q217 0 323 -90t105 -287z" />
    <glyph glyph-name="b" unicode="b" horiz-adv-x="1212" 
d="M614 223q199 0 199 326q0 293 -188 293q-107 0 -197 -82v-467q94 -70 186 -70zM121 0v1546h303v-575q121 119 309 119t297 -128t109 -416t-120 -429q-119 -141 -311 -141t-307 114h-6l-14 -90h-260z" />
    <glyph glyph-name="c" unicode="c" horiz-adv-x="1114" 
d="M584 -25q-258 1 -386 147t-128 407t142 411t402 150q195 0 313 -106t132 -298l-277 -41q-10 107 -49 157t-132 50t-150 -66t-57 -240t52 -252q52 -77 150 -77t145 47t62 148l260 -50q-27 -195 -155 -291t-324 -96z" />
    <glyph glyph-name="d" unicode="d" horiz-adv-x="1210" 
d="M399 532q0 -312 205 -313q100 0 182 76v489q-80 59 -172 60q-215 0 -215 -312zM1094 1546v-1546h-258l-19 104l-6 2q-119 -131 -315 -131t-309 130q-111 130 -111 417t131 427q131 141 312 141t278 -91v547h297z" />
    <glyph glyph-name="e" unicode="e" horiz-adv-x="1120" 
d="M731 653q0 213 -156 213q-74 0 -124 -52t-52 -161h332zM395 457q8 -242 202 -242q91 0 131 39t56 113l260 -64q-30 -152 -148 -240t-282 -88q-307 0 -427 163q-119 163 -117 392q0 274 146 416t378 144q232 0 344 -130q113 -130 113 -364q0 -84 -7 -139h-649z" />
    <glyph glyph-name="f" unicode="f" horiz-adv-x="749" 
d="M465 1161v-94h283v-225h-283v-842h-309v842h-144v225h144v123q0 193 104 286t273 93t251 -39l-12 -219q-76 27 -150 27t-116 -38q-41 -37 -41 -139z" />
    <glyph glyph-name="g" unicode="g" horiz-adv-x="1146" 
d="M809 -154q0 76 -131 84l-297 19q-63 -47 -64 -103q0 -109 261 -108q113 0 172 24t59 84zM756 711q0 162 -183 161q-88 0 -141 -40t-53 -121q0 -164 190 -164q84 0 136 43q51 43 51 121zM542 1090q204 0 302 -66q74 162 196 162q41 0 86 -19v-202q-94 8 -176 -17
q88 -100 88 -239q0 -175 -130 -279t-339 -104q-96 0 -178 22q-39 -39 -39 -65q0 -51 97 -56l303 -18q180 -12 269 -82t89 -225q0 -186 -153 -274t-418 -89q-500 0 -500 248q0 74 52 125t140 68v8q-156 45 -155 180q0 74 40 125t126 113q-156 90 -156 277t126 297t330 110z
" />
    <glyph glyph-name="h" unicode="h" horiz-adv-x="1193" 
d="M1085 729v-729h-309v674q0 164 -141 164q-115 0 -209 -84v-754h-309v1546h307v-577q154 121 328 121t254 -88t79 -273z" />
    <glyph glyph-name="i" unicode="i" horiz-adv-x="548" 
d="M465 1395q0 -89 -49 -139t-137 -50t-138 49q-49 49 -49 139t48 138q48 49 138 49t138 -49q49 -49 49 -137zM432 1067v-1067h-309v1067h309z" />
    <glyph glyph-name="j" unicode="j" horiz-adv-x="544" 
d="M465 1400q0 -89 -49 -139q-49 -51 -137 -51q-87 0 -137 50t-50 140q0 89 49 137t139 48t137 -48q48 -48 48 -137zM432 -84q0 -193 -102 -283t-274 -90q-173 0 -257 58l23 231q88 -41 168 -41q133 0 133 160v1116h309v-1151z" />
    <glyph glyph-name="k" unicode="k" horiz-adv-x="1155" 
d="M430 1546v-852l352 373h342l-354 -383l381 -684h-342l-277 487l-102 -100v-387h-309v1546h309z" />
    <glyph glyph-name="l" unicode="l" horiz-adv-x="548" 
d="M432 1546v-1546h-309v1546h309z" />
    <glyph glyph-name="m" unicode="m" horiz-adv-x="1748" 
d="M1331 686q1 154 -109 154q-54 0 -107 -22q-52 -22 -81 -52l2 -27v-739h-309v686q0 154 -111 154q-55 0 -107 -22t-83 -54v-764h-309v1067h262l14 -100q147 123 338 123t258 -134q129 133 332 134q319 0 319 -355v-735h-309v686z" />
    <glyph glyph-name="n" unicode="n" horiz-adv-x="1193" 
d="M1085 729v-729h-309v676q0 164 -141 164q-115 0 -209 -84v-756h-309v1067h274l17 -106q140 129 328 129t268 -88t81 -273z" />
    <glyph glyph-name="o" unicode="o" horiz-adv-x="1202" 
d="M600 205q108 0 160 77q51 77 51 254q0 176 -48 248t-155 72t-161 -76t-54 -248t49 -250q50 -77 158 -77zM590 -25q-520 0 -520 553q0 264 138 412t407 150q269 0 393 -144t125 -406q1 -261 -133 -413t-410 -152z" />
    <glyph glyph-name="p" unicode="p" horiz-adv-x="1212" 
d="M612 223q201 0 201 326q0 159 -46 227q-47 68 -145 68t-196 -82v-467q27 -25 81 -49t105 -23zM121 -434v1501h262l18 -109q131 132 325 132t302 -127q109 -127 109 -416t-121 -430q-120 -141 -302 -141t-294 102v-512h-299z" />
    <glyph glyph-name="q" unicode="q" horiz-adv-x="1208" 
d="M399 532q0 -312 205 -311q98 0 182 74v485q-74 63 -176 64q-211 0 -211 -312zM1094 1067v-1501h-295v526q-121 -117 -307 -117q-416 0 -416 541q0 154 39 268q70 206 247 275q78 31 166 31q182 0 283 -121l29 98h254z" />
    <glyph glyph-name="r" unicode="r" horiz-adv-x="804" 
d="M426 0h-309v1067h264l22 -168q131 190 336 191l54 -3v-301q-221 20 -367 -96v-690z" />
    <glyph glyph-name="s" unicode="s" horiz-adv-x="1026" 
d="M526 1090q344 0 426 -283l-254 -80q-23 74 -63 110q-41 36 -121 35q-135 0 -135 -94q0 -53 50 -75q51 -21 153 -39t154 -32q156 -44 205 -145q30 -61 30 -151q0 -176 -131 -268t-334 -92t-317 77q-114 78 -142 215l252 82q23 -76 69 -119t144 -43q154 0 154 101
q0 55 -43 75t-145 37t-153 33q-164 49 -212 152q-31 63 -31 155q0 169 127 259t317 90z" />
    <glyph glyph-name="t" unicode="t" horiz-adv-x="843" 
d="M514 -25q-170 0 -255 83t-85 264v520h-160v225h160v315l309 41v-356h283v-225h-283v-477q0 -74 27 -109q28 -35 110 -35t164 49l43 -219q-45 -29 -132 -53t-181 -23z" />
    <glyph glyph-name="u" unicode="u" horiz-adv-x="1183" 
d="M113 332v735h309v-674q0 -88 31 -127t104 -39q109 0 203 84v756h309v-1067h-266l-23 115q-121 -137 -340 -138q-327 1 -327 355z" />
    <glyph glyph-name="v" unicode="v" horiz-adv-x="1097" 
d="M729 0h-360l-377 1067h334l227 -770h8l227 770h318z" />
    <glyph glyph-name="w" unicode="w" horiz-adv-x="1665" 
d="M674 0h-367l-315 1067h309l195 -750h4l188 750h303l189 -745h6l186 745h301l-317 -1067h-348l-172 696h-5z" />
    <glyph glyph-name="x" unicode="x" horiz-adv-x="1087" 
d="M1065 1067l-348 -518l358 -549h-330l-217 330l-211 -330h-297l349 535l-355 532h334l207 -326l213 326h297z" />
    <glyph glyph-name="y" unicode="y" horiz-adv-x="1077" 
d="M270 -457q-152 0 -241 45l22 224q102 -33 162 -33q106 0 152 115l32 83l-405 1090h334l223 -743h6l215 743h317q-242 -674 -423 -1171q-70 -195 -156 -274t-238 -79z" />
    <glyph glyph-name="z" unicode="z" horiz-adv-x="954" 
d="M911 248v-248h-856v219l492 617h-488v231h824v-219l-475 -600h503z" />
    <glyph glyph-name="braceleft" unicode="{" horiz-adv-x="690" 
d="M623 -90v-207h-156q-317 0 -317 266q0 59 14 187t14 204q0 147 -131 148h-43v188h43q131 0 131 148q0 78 -14 211t-14 188q0 266 317 266h156v-206h-45q-56 0 -76 -25t-20 -79t14 -184q16 -130 16 -209t-41 -125t-131 -81q90 -33 131 -78q41 -46 41 -124t-15 -202
t-15 -180t21 -81q22 -26 83 -25h37z" />
    <glyph glyph-name="bar" unicode="|" horiz-adv-x="573" 
d="M428 -293h-281v1839h281v-1839z" />
    <glyph glyph-name="braceright" unicode="}" horiz-adv-x="690" 
d="M68 1303v206h155q317 0 318 -266q-1 -59 -15 -186t-14 -205q0 -147 131 -147h43v-189h-43q-131 0 -131 -147q0 -78 14 -211t15 -189q0 -266 -318 -266h-155v207h45q55 0 75 24t20 79t-14 185q-16 130 -16 208t41 125q41 46 131 81q-90 33 -131 78q-41 46 -41 124t16 202
t15 180q0 55 -22 81t-83 26h-36z" />
    <glyph glyph-name="asciitilde" unicode="~" horiz-adv-x="1228" 
d="M360 922q72 0 265 -45t231 -45t50 18q13 20 14 72l170 -9q16 -131 -35 -216t-166 -85q-78 0 -274 45t-232 45q-70 0 -57 -96l-183 6q-16 138 41 224t176 86z" />
    <glyph glyph-name="uni00A0" unicode="&#xa0;" horiz-adv-x="356" 
 />
    <glyph glyph-name="exclamdown" unicode="&#xa1;" horiz-adv-x="593" 
d="M121 925q0 165 183 165t183 -165t-183 -165t-183 165zM174 662h258l39 -1080h-336z" />
    <glyph glyph-name="cent" unicode="&#xa2;" horiz-adv-x="1099" 
d="M467 1456h260v-213q135 -25 219 -121t96 -245l-278 -41q-10 96 -45 140t-120 44t-138 -58t-53 -210t46 -224t141 -72t136 42q41 41 57 137l259 -47q-19 -148 -109 -240t-227 -119v-229h-260v229q-178 35 -270 165q-91 130 -91 334t99 338t278 173v217z" />
    <glyph glyph-name="sterling" unicode="&#xa3;" horiz-adv-x="1214" 
d="M33 246h121q76 66 107 122q32 56 32 126t-35 145h-197v225h134q-82 143 -82 248q0 178 138 288q139 110 361 110t340 -93q118 -92 150 -299l-275 -47q-16 101 -59 155t-145 54q-188 0 -189 -172q0 -80 82 -244h395v-225h-338q23 -57 23 -123q0 -147 -125 -270h215
q123 0 170 41t66 153l260 -45q-16 -207 -128 -301t-339 -94h-682v246z" />
    <glyph glyph-name="currency" unicode="&#xa4;" 
d="M558 334q101 0 155 67q53 67 53 175t-53 169t-155 61t-154 -64q-54 -65 -54 -170t53 -172q54 -66 155 -66zM98 566q0 120 54 220l-185 183l170 172l174 -172q109 67 257 67t247 -61l168 164l160 -168l-172 -174q47 -98 47 -218t-60 -235l185 -182l-170 -170l-178 176
q-105 -62 -245 -62t-247 66q-23 -26 -95 -98l-83 -82l-164 168l186 186q-49 100 -49 220z" />
    <glyph glyph-name="yen" unicode="&#xa5;" horiz-adv-x="1175" 
d="M1014 854v-192h-264v-142h264v-192h-264v-328h-310v328h-260v192h260v142h-260v192h170l-325 629h331l244 -518h8l236 518h309l-319 -629h180z" />
    <glyph glyph-name="brokenbar" unicode="&#xa6;" horiz-adv-x="573" 
d="M428 854h-281v692h281v-692zM428 -293h-281v795h281v-795z" />
    <glyph glyph-name="section" unicode="&#xa7;" horiz-adv-x="1165" 
d="M815 465q0 47 -37 80t-81 49t-127 41t-130 43q-80 -51 -80 -128t76 -114t162 -61q87 -24 125 -39q92 55 92 129zM84 483q0 176 184 297q-118 111 -118 284t138 281q138 107 334 107t317 -93q120 -93 138 -290l-266 -31q-8 98 -52 146t-132 49q-88 0 -134 -36
q-47 -36 -47 -100q0 -65 48 -109t120 -64q141 -39 310 -112q72 -32 120 -102t48 -171q0 -178 -185 -310q117 -104 117 -279q0 -176 -129 -282t-335 -106q-432 0 -466 379l268 30q8 -98 52 -146t133 -48q88 0 135 38q47 37 47 109t-66 115q-67 43 -161 67t-190 58
q-96 32 -162 112t-66 207z" />
    <glyph glyph-name="dieresis" unicode="&#xa8;" horiz-adv-x="1024" 
d="M934 1391q0 -78 -49 -124t-132 -46t-133 46t-51 124q1 78 51 125t133 47t132 -47t49 -125zM453 1391q-1 -78 -51 -124t-132 -46t-133 46t-51 124t51 125t133 47t132 -47t51 -125z" />
    <glyph glyph-name="copyright" unicode="&#xa9;" horiz-adv-x="1642" 
d="M831 285q-188 -1 -276 107t-88 289t98 291t275 109q127 1 214 -69t95 -205l-150 -16q-8 83 -49 119t-125 36t-137 -64t-53 -202q0 -262 196 -262q150 -1 181 157l145 -26q-13 -97 -71 -161t-121 -84t-134 -19zM823 137q255 -1 401 145t146 403t-149 399
q-150 142 -394 142q-245 0 -397 -148t-152 -403t145 -397q144 -142 400 -141zM1542 692q0 -320 -200 -518t-532 -199q-332 0 -520 193q-188 192 -188 510t207 514t527 194q320 0 514 -187q192 -187 192 -507z" />
    <glyph glyph-name="ordfeminine" unicode="&#xaa;" horiz-adv-x="813" 
d="M465 860q-170 0 -170 -80q0 -61 74 -61q55 0 96 37v104zM698 1044v-274q0 -37 16 -47t62 2l6 -135q-61 -27 -131 -27q-139 0 -164 96q-78 -98 -207 -98q-129 1 -178 59t-49 133q0 153 149 199q114 37 261 37v27q-1 55 -17 82t-73 26q-82 0 -97 -94l-204 37
q39 225 319 225q154 0 231 -59q76 -60 76 -189z" />
    <glyph glyph-name="guillemotleft" unicode="&#xab;" horiz-adv-x="950" 
d="M881 211h-248l-176 315l182 310h250l-180 -301zM500 211h-248l-176 315l182 310h250l-180 -301z" />
    <glyph glyph-name="logicalnot" unicode="&#xac;" 
d="M967 348h-228v195h-565v243h793v-438z" />
    <glyph glyph-name="uni00AD" unicode="&#xad;" horiz-adv-x="636" 
d="M596 465h-555v264h555v-264z" />
    <glyph glyph-name="registered" unicode="&#xae;" horiz-adv-x="952" 
d="M440 997h27q72 0 72 54q0 49 -62 49h-37v-103zM440 928v-146h-96v389h145q147 0 148 -112q0 -76 -72 -103l105 -174h-109l-86 146h-35zM768 968q0 136 -81 212t-208 76t-210 -82q-83 -80 -83 -214t79 -210t212 -76t212 79t79 215zM484 1352q174 0 280 -104t106 -279
q0 -174 -110 -284t-292 -110q-182 1 -284 107t-102 279t114 282t288 109z" />
    <glyph glyph-name="macron" unicode="&#xaf;" horiz-adv-x="1024" 
d="M829 1231h-636v209h636v-209z" />
    <glyph glyph-name="degree" unicode="&#xb0;" horiz-adv-x="733" 
d="M610 1294q0 -110 -66 -176t-174 -66t-176 66q-68 64 -67 172q0 108 71 176t173 68q103 0 171 -66t68 -174zM268 1291q0 -47 29 -75t73 -28t72 30t27 76q0 46 -29 75q-28 30 -70 30t-72 -31t-30 -77z" />
    <glyph glyph-name="plusminus" unicode="&#xb1;" 
d="M705 295h-246v246h-273v243h273v285h246v-285h274v-243h-274v-246zM979 0h-793v244h793v-244z" />
    <glyph glyph-name="twosuperior" unicode="&#xb2;" horiz-adv-x="829" 
d="M426 1657q154 0 234 -66t79 -174q0 -108 -60 -190t-218 -215l-66 -68v-8h359v-221h-670v221l199 199q109 109 147 161t37 97q0 70 -70 69q-88 0 -102 -116l-234 30q14 139 113 210q98 71 252 71z" />
    <glyph glyph-name="threesuperior" unicode="&#xb3;" horiz-adv-x="843" 
d="M386 895q97 0 97 98q0 55 -26 79q-27 24 -90 24h-103v176h64q143 0 143 121q0 73 -78 73t-100 -96l-225 41q45 246 352 246q152 1 234 -57t83 -166q0 -154 -178 -222v-6q201 -41 201 -219q0 -135 -104 -211t-252 -76q-329 0 -359 254l234 43q10 -102 107 -102z" />
    <glyph glyph-name="acute" unicode="&#xb4;" horiz-adv-x="1024" 
d="M834 1522l-277 -351l-207 19l154 332h330z" />
    <glyph glyph-name="mu" unicode="&#xb5;" horiz-adv-x="1288" 
d="M166 -360v1427h309v-676q0 -90 25 -129t88 -39q102 0 209 88v756h309v-1067h-256l-10 111h-11q-158 -150 -362 -113l-2 -2l20 -356h-319z" />
    <glyph glyph-name="paragraph" unicode="&#xb6;" horiz-adv-x="1230" 
d="M870 -272v1562h-135v-1562h-215v772q-221 14 -332 137t-110 336q0 385 351 482q101 28 226 28h428l2 -1755h-215z" />
    <glyph glyph-name="periodcentered" unicode="&#xb7;" horiz-adv-x="487" 
d="M420 634q0 -163 -175 -163t-175 163t175 163t175 -163z" />
    <glyph glyph-name="cedilla" unicode="&#xb8;" horiz-adv-x="1024" 
d="M408 -346q102 0 102 76q0 45 -31 59t-100 16l33 256l147 -16l-18 -137q174 -31 174 -189q0 -109 -75 -165t-181 -58q-106 0 -180 29l30 143q57 -14 99 -14z" />
    <glyph glyph-name="onesuperior" unicode="&#xb9;" horiz-adv-x="671" 
d="M553 711h-272v643q-29 -14 -100 -26t-107 -11l-11 213q199 14 291 106h199v-925z" />
    <glyph glyph-name="ordmasculine" unicode="&#xba;" horiz-adv-x="851" 
d="M428 1122q-64 0 -94 -45t-31 -151t27 -151q28 -46 95 -46t95 45q28 44 29 154q0 110 -28 152q-29 42 -93 42zM416 561q-365 0 -365 363q0 174 96 271q97 97 287 97t278 -94t89 -266q0 -172 -94 -272t-291 -99z" />
    <glyph glyph-name="guillemotright" unicode="&#xbb;" horiz-adv-x="950" 
d="M444 836h250l183 -314l-179 -311h-245l172 313zM63 836h250l183 -314l-179 -311h-245l172 313z" />
    <glyph glyph-name="onequarter" unicode="&#xbc;" horiz-adv-x="2072" 
d="M1606 393v307l-201 -307h201zM1868 0h-262v188h-426v183l360 555h326v-533h106v-205h-104v-188zM586 571h-273v643q-29 -14 -99 -25t-108 -11l-10 213q199 14 291 106h199v-926zM762 -25h-285l725 1508h283z" />
    <glyph glyph-name="onehalf" unicode="&#xbd;" horiz-adv-x="2072" 
d="M1622 942q154 0 234 -66t79 -174q0 -108 -60 -190t-218 -215l-66 -68v-8h359v-221h-670v221l199 199q109 109 146 161q38 52 38 97q0 70 -70 70q-88 0 -102 -117l-234 31q14 140 113 210q98 70 252 70zM592 571h-273v643q-29 -14 -99 -25t-107 -11l-11 213
q199 14 291 106h199v-926zM752 -25h-285l725 1508h283z" />
    <glyph glyph-name="threequarters" unicode="&#xbe;" horiz-adv-x="2072" 
d="M422 756q98 0 98 98q0 55 -26 79q-27 24 -91 23h-102v177h64q143 0 143 120q0 74 -78 74t-100 -96l-226 41q45 246 353 246q153 0 235 -58t82 -166q0 -154 -178 -221v-6q201 -41 201 -219q1 -135 -103 -211t-254 -76q-329 0 -358 254l233 43q9 -102 107 -102zM1630 393
v307l-200 -307h200zM1892 0h-262v188h-426v183l361 555h325v-533h107v-205h-105v-188zM827 -25h-284l725 1508h282z" />
    <glyph glyph-name="questiondown" unicode="&#xbf;" horiz-adv-x="1097" 
d="M641 760q-182 0 -182 165t182 165t182 -165t-182 -165zM483 662h308v-375q-408 -33 -408 -291q0 -178 178 -178q94 0 147 51q52 51 70 162l301 -47q-25 -199 -163 -311q-138 -111 -356 -111t-352 94q-151 104 -151 344q0 375 426 475v187z" />
    <glyph glyph-name="Agrave" unicode="&#xc0;" horiz-adv-x="1452" 
d="M668 1573l-299 303h331l187 -287zM897 612l-184 574h-8l-183 -574h375zM514 1483h393l525 -1483h-347l-122 360h-494l-115 -360h-325z" />
    <glyph glyph-name="Aacute" unicode="&#xc1;" horiz-adv-x="1452" 
d="M1047 1876l-299 -303l-220 16l187 287h332zM897 612l-184 574h-8l-183 -574h375zM514 1483h393l525 -1483h-347l-122 360h-494l-115 -360h-325z" />
    <glyph glyph-name="Acircumflex" unicode="&#xc2;" horiz-adv-x="1452" 
d="M860 1575l-147 147l-154 -149l-209 14l219 291h287l209 -291zM897 612l-184 574h-8l-183 -574h375zM514 1483h393l525 -1483h-347l-122 360h-494l-115 -360h-325z" />
    <glyph glyph-name="Atilde" unicode="&#xc3;" horiz-adv-x="1452" 
d="M555 1905q72 0 167 -44t133 -44t51 19t14 71l155 -9q16 -128 -32 -208t-140 -80t-190 45t-135 45q-70 0 -58 -96l-168 6q-16 133 40 214q57 81 163 81zM897 612l-184 574h-8l-183 -574h375zM514 1483h393l525 -1483h-347l-122 360h-494l-115 -360h-325z" />
    <glyph glyph-name="Adieresis" unicode="&#xc4;" horiz-adv-x="1452" 
d="M1130 1757q0 -78 -49 -124t-132 -46t-133 46t-50 124t50 125t133 47t132 -47t49 -125zM649 1757q0 -78 -50 -124t-132 -46t-133 46t-51 124t51 125t133 47t132 -47t50 -125zM897 612l-184 574h-8l-183 -574h375zM514 1483h393l525 -1483h-347l-122 360h-494l-115 -360
h-325z" />
    <glyph glyph-name="Aring" unicode="&#xc5;" horiz-adv-x="1452" 
d="M813 1635q0 105 -104 106q-49 0 -80 -27t-31 -78q0 -106 108 -106t107 105zM897 612l-184 574h-8l-183 -574h375zM709 1872q111 0 185 -62t73 -170q0 -106 -56 -167l521 -1473h-347l-122 360h-494l-115 -360h-325l479 1468q-55 61 -55 168q1 108 73 172t183 64z" />
    <glyph glyph-name="AE" unicode="&#xc6;" horiz-adv-x="2054" 
d="M1004 836v381h-89l-184 -381h273zM1319 590v-324h663v-266h-978v586h-365l-279 -586h-333l723 1483h1194v-266h-625v-371h588v-256h-588z" />
    <glyph glyph-name="Ccedilla" unicode="&#xc7;" horiz-adv-x="1423" 
d="M676 -346q102 0 102 76q0 45 -30 59q-31 14 -101 16l23 175q-592 49 -592 745q0 360 186 572t529 212q259 0 415 -131t168 -401l-289 -25q-14 158 -85 228t-214 69q-385 0 -385 -508q-1 -266 91 -386q92 -119 257 -119t237 68t99 198l285 -49q-20 -156 -108 -265
q-88 -110 -200 -156t-247 -55l-8 -69q174 -31 174 -189q0 -109 -75 -165t-181 -58q-106 0 -180 29l31 143q57 -14 98 -14z" />
    <glyph glyph-name="Egrave" unicode="&#xc8;" horiz-adv-x="1193" 
d="M588 1573l-299 303h332l186 -287zM467 612v-346h661v-266h-976v1483h940v-264h-625v-349h588v-258h-588z" />
    <glyph glyph-name="Eacute" unicode="&#xc9;" horiz-adv-x="1193" 
d="M967 1876l-299 -303l-219 16l186 287h332zM467 612v-346h661v-266h-976v1483h940v-264h-625v-349h588v-258h-588z" />
    <glyph glyph-name="Ecircumflex" unicode="&#xca;" horiz-adv-x="1193" 
d="M780 1575l-147 147l-154 -149l-209 14l219 291h287l209 -291zM467 612v-346h661v-266h-976v1483h940v-264h-625v-349h588v-258h-588z" />
    <glyph glyph-name="Edieresis" unicode="&#xcb;" horiz-adv-x="1193" 
d="M1051 1757q1 -78 -49 -124t-133 -46t-133 46t-50 124t50 125t133 47t133 -47t49 -125zM569 1757q0 -78 -50 -124t-132 -46t-133 46t-51 124t51 125t133 47t132 -47t50 -125zM467 612v-346h661v-266h-976v1483h940v-264h-625v-349h588v-258h-588z" />
    <glyph glyph-name="Igrave" unicode="&#xcc;" horiz-adv-x="618" 
d="M268 1573l-299 303h332l186 -287zM467 1483v-1483h-315v1483h315z" />
    <glyph glyph-name="Iacute" unicode="&#xcd;" horiz-adv-x="618" 
d="M647 1876l-299 -303l-219 16l186 287h332zM467 1483v-1483h-315v1483h315z" />
    <glyph glyph-name="Icircumflex" unicode="&#xce;" horiz-adv-x="618" 
d="M461 1575l-148 147l-153 -149l-209 14l219 291h287l209 -291zM467 1483v-1483h-315v1483h315z" />
    <glyph glyph-name="Idieresis" unicode="&#xcf;" horiz-adv-x="618" 
d="M731 1757q0 -78 -49 -124t-132 -46t-133 46t-50 124t50 125t133 47t132 -47t49 -125zM250 1757q0 -78 -50 -124t-132 -46t-134 46q-51 46 -51 124t51 125q52 47 134 47t132 -47t50 -125zM467 1483v-1483h-315v1483h315z" />
    <glyph glyph-name="Eth" unicode="&#xd0;" horiz-adv-x="1482" 
d="M467 254h156q245 0 353 126t108 381t-105 361q-104 106 -334 107h-178v-340h350v-264h-350v-371zM637 0h-485v625h-138v264h138v594h520q375 1 555 -187t180 -537q-1 -349 -193 -554t-577 -205z" />
    <glyph glyph-name="Ntilde" unicode="&#xd1;" horiz-adv-x="1525" 
d="M608 1905q72 0 167 -44t133 -44t51 19t14 71l155 -9q16 -128 -32 -208t-154 -80q-78 0 -176 45t-135 45q-70 0 -58 -96l-167 6q-16 133 39 214q57 81 163 81zM1376 0h-364l-572 1047v-1047h-288v1483h376l562 -1051v1051h286v-1483z" />
    <glyph glyph-name="Ograve" unicode="&#xd2;" horiz-adv-x="1556" 
d="M758 1573l-299 303h332l186 -287zM779 242q376 0 376 500t-360 501q-183 0 -287 -125t-105 -377q0 -499 376 -499zM768 -25q-352 0 -521 205t-169 552t187 562t533 215q346 -1 514 -207q169 -206 169 -558q-1 -352 -181 -560q-180 -209 -532 -209z" />
    <glyph glyph-name="Oacute" unicode="&#xd3;" horiz-adv-x="1556" 
d="M1137 1876l-299 -303l-220 16l187 287h332zM779 242q376 0 376 500t-360 501q-183 0 -287 -125t-105 -377q0 -499 376 -499zM768 -25q-352 0 -521 205t-169 552t187 562t533 215q346 -1 514 -207q169 -206 169 -558q-1 -352 -181 -560q-180 -209 -532 -209z" />
    <glyph glyph-name="Ocircumflex" unicode="&#xd4;" horiz-adv-x="1556" 
d="M950 1575l-147 147l-154 -149l-209 14l219 291h287l209 -291zM779 242q376 0 376 500t-360 501q-183 0 -287 -125t-105 -377q0 -499 376 -499zM768 -25q-352 0 -521 205t-169 552t187 562t533 215q346 -1 514 -207q169 -206 169 -558q-1 -352 -181 -560
q-180 -209 -532 -209z" />
    <glyph glyph-name="Otilde" unicode="&#xd5;" horiz-adv-x="1556" 
d="M645 1905q72 0 167 -44t133 -44t51 19t14 71l155 -9q17 -128 -31 -208t-155 -80q-78 0 -176 45t-135 45q-70 0 -58 -96l-168 6q-16 133 40 214q57 81 163 81zM779 242q376 0 376 500t-360 501q-183 0 -287 -125t-105 -377q0 -499 376 -499zM768 -25q-352 0 -521 205
t-169 552t187 562t533 215q346 -1 514 -207q169 -206 169 -558q-1 -352 -181 -560q-180 -209 -532 -209z" />
    <glyph glyph-name="Odieresis" unicode="&#xd6;" horiz-adv-x="1556" 
d="M1221 1757q1 -78 -49 -124t-133 -46t-133 46t-50 124t50 125t133 47t133 -47t49 -125zM739 1757q0 -78 -50 -124t-132 -46t-133 46t-51 124t51 125t133 47t132 -47t50 -125zM779 242q376 0 376 500t-360 501q-183 0 -287 -125t-105 -377q0 -499 376 -499zM768 -25
q-352 0 -521 205t-169 552t187 562t533 215q346 -1 514 -207q169 -206 169 -558q-1 -352 -181 -560q-180 -209 -532 -209z" />
    <glyph glyph-name="multiply" unicode="&#xd7;" 
d="M786 279l-202 202l-203 -202l-172 178l203 200l-203 203l172 178l203 -202l202 202l172 -178l-202 -203l202 -200z" />
    <glyph glyph-name="Oslash" unicode="&#xd8;" horiz-adv-x="1556" 
d="M780 242q375 0 375 503q0 227 -80 355l-356 -856q20 -2 61 -2zM403 752q0 -242 82 -369l357 856q-29 4 -47 4q-184 0 -288 -125q-104 -124 -104 -366zM768 -25q-82 0 -156 13l-55 -135h-293l94 229q-281 186 -280 653q0 344 187 559t536 215q80 0 147 -12l56 129h290
l-94 -225q281 -188 281 -637q-1 -371 -181 -580t-532 -209z" />
    <glyph glyph-name="Ugrave" unicode="&#xd9;" horiz-adv-x="1449" 
d="M682 1573l-299 303h332l186 -287zM727 240q156 0 214 76t58 264v903h316v-948q0 -559 -598 -560q-305 -1 -445 137t-139 431v940h318v-897q0 -182 60 -264t216 -82z" />
    <glyph glyph-name="Uacute" unicode="&#xda;" horiz-adv-x="1449" 
d="M1077 1876l-299 -303l-219 16l186 287h332zM727 240q156 0 214 76t58 264v903h316v-948q0 -559 -598 -560q-305 -1 -445 137t-139 431v940h318v-897q0 -182 60 -264t216 -82z" />
    <glyph glyph-name="Ucircumflex" unicode="&#xdb;" horiz-adv-x="1449" 
d="M874 1575l-147 147l-154 -149l-208 14l219 291h286l209 -291zM727 240q156 0 214 76t58 264v903h316v-948q0 -559 -598 -560q-305 -1 -445 137t-139 431v940h318v-897q0 -182 60 -264t216 -82z" />
    <glyph glyph-name="Udieresis" unicode="&#xdc;" horiz-adv-x="1449" 
d="M1145 1757q0 -78 -49 -124t-132 -46t-134 46q-50 46 -50 124t50 125t134 47t132 -47q49 -47 49 -125zM664 1757q0 -78 -50 -124t-133 -46q-82 0 -133 46t-51 124t51 125t133 47q83 0 133 -47t50 -125zM727 240q156 0 214 76t58 264v903h316v-948q0 -559 -598 -560
q-305 -1 -445 137t-139 431v940h318v-897q0 -182 60 -264t216 -82z" />
    <glyph glyph-name="Yacute" unicode="&#xdd;" horiz-adv-x="1241" 
d="M969 1876l-299 -303l-219 16l186 287h332zM795 0h-318v555l-514 928h346l326 -635h10l313 635h320l-483 -924v-559z" />
    <glyph glyph-name="Thorn" unicode="&#xde;" horiz-adv-x="1271" 
d="M465 516h127q141 0 216 52t75 188t-70 186q-70 49 -197 49h-151v-475zM465 262v-262h-313v1483h313v-238h248q272 0 390 -142q105 -130 103 -310q0 -530 -579 -531h-162z" />
    <glyph glyph-name="germandbls" unicode="&#xdf;" horiz-adv-x="1343" 
d="M426 0h-309v1051q0 522 542 522q238 1 371 -103t133 -290q0 -139 -67 -225q-68 -85 -158 -119v-7q154 -33 243 -123t89 -282q0 -194 -112 -322t-340 -127q-228 0 -343 148l117 188q84 -109 199 -108q168 0 167 237q0 244 -278 244h-72v221h35q211 -1 211 223t-205 224
q-111 0 -167 -60t-56 -221v-1071z" />
    <glyph glyph-name="agrave" unicode="&#xe0;" horiz-adv-x="1142" 
d="M512 1171l-276 351h331l152 -332zM684 453h-49q-123 -4 -189 -35t-65 -107q0 -117 125 -116q108 -1 178 69v189zM985 713v-447q0 -45 12 -63q25 -37 115 -6l8 -179q-82 -41 -196 -41q-188 0 -219 136q-104 -137 -318 -138q-94 0 -161 29q-66 29 -98 75q-58 84 -58 181
q0 377 612 373v39q0 102 -29 148t-114 46t-119 -34t-51 -113l-263 51q51 319 451 320q217 0 323 -90t105 -287z" />
    <glyph glyph-name="aacute" unicode="&#xe1;" horiz-adv-x="1142" 
d="M874 1522l-276 -351l-207 19l154 332h329zM684 453h-49q-123 -4 -189 -35t-65 -107q0 -117 125 -116q108 -1 178 69v189zM985 713v-447q0 -45 12 -63q25 -37 115 -6l8 -179q-82 -41 -196 -41q-188 0 -219 136q-104 -137 -318 -138q-94 0 -161 29q-66 29 -98 75
q-58 84 -58 181q0 377 612 373v39q0 102 -29 148t-114 46t-119 -34t-51 -113l-263 51q51 319 451 320q217 0 323 -90t105 -287z" />
    <glyph glyph-name="acircumflex" unicode="&#xe2;" horiz-adv-x="1142" 
d="M909 1190l-204 -10l-150 192l-156 -194l-206 12l215 336h294zM684 453h-49q-123 -4 -189 -35t-65 -107q0 -117 125 -116q108 -1 178 69v189zM985 713v-447q0 -45 12 -63q25 -37 115 -6l8 -179q-82 -41 -196 -41q-188 0 -219 136q-104 -137 -318 -138q-94 0 -161 29
q-66 29 -98 75q-58 84 -58 181q0 377 612 373v39q0 102 -29 148t-114 46t-119 -34t-51 -113l-263 51q51 319 451 320q217 0 323 -90t105 -287z" />
    <glyph glyph-name="atilde" unicode="&#xe3;" horiz-adv-x="1142" 
d="M395 1499q72 0 167 -45t133 -45t51 19t14 71l155 -8q17 -129 -31 -209t-155 -80q-78 0 -176 45t-135 45q-70 0 -58 -96l-167 6q-16 133 39 215q57 82 163 82zM684 453h-49q-123 -4 -189 -35t-65 -107q0 -117 125 -116q108 -1 178 69v189zM985 713v-447q0 -45 12 -63
q25 -37 115 -6l8 -179q-82 -41 -196 -41q-188 0 -219 136q-104 -137 -318 -138q-94 0 -161 29q-66 29 -98 75q-58 84 -58 181q0 377 612 373v39q0 102 -29 148t-114 46t-119 -34t-51 -113l-263 51q51 319 451 320q217 0 323 -90t105 -287z" />
    <glyph glyph-name="adieresis" unicode="&#xe4;" horiz-adv-x="1142" 
d="M975 1391q0 -78 -49 -124t-132 -46t-134 46q-50 46 -50 124t50 125t134 47t132 -47q49 -47 49 -125zM494 1391q0 -78 -50 -124t-133 -46q-82 0 -133 46t-51 124t51 125t133 47q83 0 133 -47t50 -125zM684 453h-49q-123 -4 -189 -35t-65 -107q0 -117 125 -116
q108 -1 178 69v189zM985 713v-447q0 -45 12 -63q25 -37 115 -6l8 -179q-82 -41 -196 -41q-188 0 -219 136q-104 -137 -318 -138q-94 0 -161 29q-66 29 -98 75q-58 84 -58 181q0 377 612 373v39q0 102 -29 148t-114 46t-119 -34t-51 -113l-263 51q51 319 451 320
q217 0 323 -90t105 -287z" />
    <glyph glyph-name="aring" unicode="&#xe5;" horiz-adv-x="1142" 
d="M552 1290q91 0 91 92q0 86 -90 86q-41 0 -67 -24t-25 -64q0 -90 91 -90zM784 1382q0 -102 -63 -158t-167 -56t-168 54q-62 54 -62 156t65 161q66 58 165 58t165 -56q65 -57 65 -159zM684 453h-49q-123 -4 -189 -35t-65 -107q0 -117 125 -116q108 -1 178 69v189zM985 713
v-447q0 -45 12 -63q25 -37 115 -6l8 -179q-82 -41 -196 -41q-188 0 -219 136q-104 -137 -318 -138q-94 0 -161 29q-66 29 -98 75q-58 84 -58 181q0 377 612 373v39q0 102 -29 148t-114 46t-119 -34t-51 -113l-263 51q51 319 451 320q217 0 323 -90t105 -287z" />
    <glyph glyph-name="ae" unicode="&#xe6;" horiz-adv-x="1716" 
d="M1171 866q-74 0 -124 -52t-52 -161h332q6 213 -156 213zM506 195q51 -1 109 23t100 58q-27 72 -37 177h-43q-123 -4 -189 -35t-65 -107q0 -116 125 -116zM991 467q4 -252 201 -252q92 0 132 39t56 113l260 -64q-30 -152 -148 -240t-304 -88q-270 0 -397 160
q-166 -160 -392 -160q-98 0 -168 29q-71 29 -103 75q-58 83 -58 191q0 301 391 347q94 11 221 12v43q0 102 -29 148t-114 46t-119 -34t-51 -113l-263 51q51 319 451 320q213 0 303 -146q52 68 146 107t200 39q221 0 331 -132t110 -362q0 -74 -7 -129h-649z" />
    <glyph glyph-name="ccedilla" unicode="&#xe7;" horiz-adv-x="1114" 
d="M500 -346q102 0 102 76q0 45 -31 59t-100 16l23 177q-213 25 -319 166q-105 142 -105 368q0 274 142 424t402 150q195 0 313 -106t132 -298l-277 -41q-10 107 -49 157t-132 50t-150 -66t-57 -240t52 -252q52 -77 150 -77t145 47t62 148l260 -50q-25 -180 -137 -275
t-285 -110l-8 -69q174 -31 174 -189q0 -109 -75 -165t-181 -58q-106 0 -180 29l30 143q57 -14 99 -14z" />
    <glyph glyph-name="egrave" unicode="&#xe8;" horiz-adv-x="1120" 
d="M543 1171l-277 351h332l152 -332zM731 653q0 213 -156 213q-74 0 -124 -52t-52 -161h332zM395 457q8 -242 202 -242q91 0 131 39t56 113l260 -64q-30 -152 -148 -240t-282 -88q-307 0 -427 163q-119 163 -117 392q0 274 146 416t378 144q232 0 344 -130
q113 -130 113 -364q0 -84 -7 -139h-649z" />
    <glyph glyph-name="eacute" unicode="&#xe9;" horiz-adv-x="1120" 
d="M905 1522l-276 -351l-207 19l153 332h330zM731 653q0 213 -156 213q-74 0 -124 -52t-52 -161h332zM395 457q8 -242 202 -242q91 0 131 39t56 113l260 -64q-30 -152 -148 -240t-282 -88q-307 0 -427 163q-119 163 -117 392q0 274 146 416t378 144q232 0 344 -130
q113 -130 113 -364q0 -84 -7 -139h-649z" />
    <glyph glyph-name="ecircumflex" unicode="&#xea;" horiz-adv-x="1120" 
d="M940 1190l-205 -10l-149 192l-156 -194l-207 12l215 336h295zM731 653q0 213 -156 213q-74 0 -124 -52t-52 -161h332zM395 457q8 -242 202 -242q91 0 131 39t56 113l260 -64q-30 -152 -148 -240t-282 -88q-307 0 -427 163q-119 163 -117 392q0 274 146 416t378 144
q232 0 344 -130q113 -130 113 -364q0 -84 -7 -139h-649z" />
    <glyph glyph-name="edieresis" unicode="&#xeb;" horiz-adv-x="1120" 
d="M1006 1391q0 -78 -50 -124t-132 -46q-83 0 -133 46t-50 124t50 125t133 47q82 0 132 -47t50 -125zM524 1391q0 -78 -50 -124t-132 -46t-133 46t-51 124t51 125t133 47t132 -47t50 -125zM731 653q0 213 -156 213q-74 0 -124 -52t-52 -161h332zM395 457q8 -242 202 -242
q91 0 131 39t56 113l260 -64q-30 -152 -148 -240t-282 -88q-307 0 -427 163q-119 163 -117 392q0 274 146 416t378 144q232 0 344 -130q113 -130 113 -364q0 -84 -7 -139h-649z" />
    <glyph glyph-name="igrave" unicode="&#xec;" horiz-adv-x="548" 
d="M236 1171l-277 351h332l151 -332zM432 1067v-1067h-309v1067h309z" />
    <glyph glyph-name="iacute" unicode="&#xed;" horiz-adv-x="548" 
d="M598 1522l-276 -351l-207 19l153 332h330zM432 1067v-1067h-309v1067h309z" />
    <glyph glyph-name="icircumflex" unicode="&#xee;" horiz-adv-x="548" 
d="M633 1190l-205 -10l-149 192l-156 -194l-207 12l215 336h295zM432 1067v-1067h-309v1067h309z" />
    <glyph glyph-name="idieresis" unicode="&#xef;" horiz-adv-x="548" 
d="M698 1391q0 -78 -49 -124t-132 -46t-133 46t-50 124t50 125t133 47t132 -47t49 -125zM217 1391q0 -78 -50 -124t-132 -46t-133 46t-52 124q0 78 52 125t133 47q82 0 132 -47t50 -125zM432 1067v-1067h-309v1067h309z" />
    <glyph glyph-name="eth" unicode="&#xf0;" horiz-adv-x="1204" 
d="M387 516q0 -326 207 -326q117 0 171 108t54 327q0 55 -10 133q-87 68 -199 68t-168 -71q-55 -71 -55 -239zM1133 653q1 -317 -133 -497t-406 -180t-402 142q-130 144 -129 382q0 238 119 388q119 148 344 148q127 0 246 -55l8 10q-58 150 -206 242t-291 115l110 249
q195 -35 340 -127l221 144l136 -193l-170 -108q213 -250 213 -660z" />
    <glyph glyph-name="ntilde" unicode="&#xf1;" horiz-adv-x="1193" 
d="M434 1499q72 0 167 -45t133 -45t51 19t14 71l155 -8q16 -129 -32 -209t-154 -80q-78 0 -176 45t-135 45q-70 0 -58 -96l-168 6q-16 133 40 215q57 82 163 82zM1085 729v-729h-309v676q0 164 -141 164q-115 0 -209 -84v-756h-309v1067h274l17 -106q140 129 328 129
t268 -88t81 -273z" />
    <glyph glyph-name="ograve" unicode="&#xf2;" horiz-adv-x="1202" 
d="M573 1171l-276 351h332l151 -332zM600 205q108 0 160 77q51 77 51 254q0 176 -48 248t-155 72t-161 -76t-54 -248t49 -250q50 -77 158 -77zM590 -25q-520 0 -520 553q0 264 138 412t407 150q269 0 393 -144t125 -406q1 -261 -133 -413t-410 -152z" />
    <glyph glyph-name="oacute" unicode="&#xf3;" horiz-adv-x="1202" 
d="M936 1522l-277 -351l-206 19l153 332h330zM600 205q108 0 160 77q51 77 51 254q0 176 -48 248t-155 72t-161 -76t-54 -248t49 -250q50 -77 158 -77zM590 -25q-520 0 -520 553q0 264 138 412t407 150q269 0 393 -144t125 -406q1 -261 -133 -413t-410 -152z" />
    <glyph glyph-name="ocircumflex" unicode="&#xf4;" horiz-adv-x="1202" 
d="M971 1190l-205 -10l-150 192l-155 -194l-207 12l215 336h295zM600 205q108 0 160 77q51 77 51 254q0 176 -48 248t-155 72t-161 -76t-54 -248t49 -250q50 -77 158 -77zM590 -25q-520 0 -520 553q0 264 138 412t407 150q269 0 393 -144t125 -406q1 -261 -133 -413
t-410 -152z" />
    <glyph glyph-name="otilde" unicode="&#xf5;" horiz-adv-x="1202" 
d="M457 1499q72 0 167 -45t133 -45t51 19t13 71l156 -8q16 -129 -32 -209t-154 -80q-79 0 -177 45t-135 45q-70 0 -57 -96l-168 6q-16 133 40 215q57 82 163 82zM600 205q108 0 160 77q51 77 51 254q0 176 -48 248t-155 72t-161 -76t-54 -248t49 -250q50 -77 158 -77z
M590 -25q-520 0 -520 553q0 264 138 412t407 150q269 0 393 -144t125 -406q1 -261 -133 -413t-410 -152z" />
    <glyph glyph-name="odieresis" unicode="&#xf6;" horiz-adv-x="1202" 
d="M1036 1391q0 -78 -49 -124t-132 -46t-133 46t-50 124t50 125t133 47t132 -47t49 -125zM555 1391q0 -78 -50 -124t-132 -46t-133 46t-52 124q0 78 52 125t133 47q82 0 132 -47t50 -125zM600 205q108 0 160 77q51 77 51 254q0 176 -48 248t-155 72t-161 -76t-54 -248
t49 -250q50 -77 158 -77zM590 -25q-520 0 -520 553q0 264 138 412t407 150q269 0 393 -144t125 -406q1 -261 -133 -413t-410 -152z" />
    <glyph glyph-name="divide" unicode="&#xf7;" 
d="M739 997q1 -149 -161 -149t-162 149q0 68 42 110t120 42t120 -42t41 -110zM979 535h-793v245h793v-245zM739 317q1 -151 -161 -151t-162 151q0 68 42 110t120 42t120 -42t41 -110z" />
    <glyph glyph-name="oslash" unicode="&#xf8;" horiz-adv-x="1202" 
d="M610 856q-109 0 -163 -76t-54 -212q0 -137 15 -203l217 491h-15zM604 205q207 1 207 307q0 152 -25 221l-231 -524q33 -4 49 -4zM590 -25q-66 0 -133 11l-58 -133h-217l88 202q-201 129 -200 473q0 264 138 412t410 150q63 0 107 -9l53 119h215l-80 -180
q219 -125 220 -469q1 -272 -133 -424t-410 -152z" />
    <glyph glyph-name="ugrave" unicode="&#xf9;" horiz-adv-x="1183" 
d="M549 1171l-277 351h332l152 -332zM113 332v735h309v-674q0 -88 31 -127t104 -39q109 0 203 84v756h309v-1067h-266l-23 115q-121 -137 -340 -138q-327 1 -327 355z" />
    <glyph glyph-name="uacute" unicode="&#xfa;" horiz-adv-x="1183" 
d="M911 1522l-276 -351l-207 19l154 332h329zM113 332v735h309v-674q0 -88 31 -127t104 -39q109 0 203 84v756h309v-1067h-266l-23 115q-121 -137 -340 -138q-327 1 -327 355z" />
    <glyph glyph-name="ucircumflex" unicode="&#xfb;" horiz-adv-x="1183" 
d="M946 1190l-205 -10l-149 192l-156 -194l-207 12l215 336h295zM113 332v735h309v-674q0 -88 31 -127t104 -39q109 0 203 84v756h309v-1067h-266l-23 115q-121 -137 -340 -138q-327 1 -327 355z" />
    <glyph glyph-name="udieresis" unicode="&#xfc;" horiz-adv-x="1183" 
d="M1012 1391q0 -78 -49 -124t-133 -46t-133 46q-50 46 -50 124t50 125t133 47q82 0 132 -47t50 -125zM530 1391q0 -78 -50 -124t-132 -46t-133 46t-51 124t51 125t133 47t132 -47t50 -125zM113 332v735h309v-674q0 -88 31 -127t104 -39q109 0 203 84v756h309v-1067h-266
l-23 115q-121 -137 -340 -138q-327 1 -327 355z" />
    <glyph glyph-name="yacute" unicode="&#xfd;" horiz-adv-x="1077" 
d="M860 1522l-276 -351l-207 19l153 332h330zM270 -457q-152 0 -241 45l22 224q102 -33 162 -33q106 0 152 115l32 83l-405 1090h334l223 -743h6l215 743h317q-242 -674 -423 -1171q-70 -195 -156 -274t-238 -79z" />
    <glyph glyph-name="thorn" unicode="&#xfe;" horiz-adv-x="1212" 
d="M614 223q201 0 201 326q0 159 -46 227q-47 68 -145 68t-196 -82v-467q27 -25 81 -49t105 -23zM121 -434v1980h303v-575q121 119 309 119t297 -127t109 -416t-121 -430t-302 -141t-294 102v-512h-301z" />
    <glyph glyph-name="ydieresis" unicode="&#xff;" horiz-adv-x="1077" 
d="M961 1391q1 -78 -49 -124t-133 -46t-133 46t-50 124t50 125t133 47t133 -47t49 -125zM479 1391q0 -78 -50 -124t-132 -46t-133 46t-51 124t51 125t133 47t132 -47t50 -125zM270 -457q-152 0 -241 45l22 224q102 -33 162 -33q106 0 152 115l32 83l-405 1090h334l223 -743
h6l215 743h317q-242 -674 -423 -1171q-70 -195 -156 -274t-238 -79z" />
    <glyph glyph-name="Amacron" unicode="&#x100;" horiz-adv-x="1452" 
d="M1032 1606h-649v211h649v-211zM897 612l-184 574h-8l-183 -574h375zM514 1483h393l525 -1483h-347l-122 360h-494l-115 -360h-325z" />
    <glyph glyph-name="amacron" unicode="&#x101;" horiz-adv-x="1142" 
d="M870 1231h-637v209h637v-209zM684 453h-49q-123 -4 -189 -35t-65 -107q0 -117 125 -116q108 -1 178 69v189zM985 713v-447q0 -45 12 -63q25 -37 115 -6l8 -179q-82 -41 -196 -41q-188 0 -219 136q-104 -137 -318 -138q-94 0 -161 29q-66 29 -98 75q-58 84 -58 181
q0 377 612 373v39q0 102 -29 148t-114 46t-119 -34t-51 -113l-263 51q51 319 451 320q217 0 323 -90t105 -287z" />
    <glyph glyph-name="Abreve" unicode="&#x102;" horiz-adv-x="1452" 
d="M720 1763q68 0 104 31t50 107l197 -13q-33 -313 -357 -313t-345 309l204 21q12 -76 46 -109t101 -33zM897 612l-184 574h-8l-183 -574h375zM514 1483h393l525 -1483h-347l-122 360h-494l-115 -360h-325z" />
    <glyph glyph-name="abreve" unicode="&#x103;" horiz-adv-x="1142" 
d="M549 1165q-330 0 -342 324l205 22q8 -85 44 -121t106 -36t106 34q37 34 49 121l196 -14q-12 -168 -107 -249t-257 -81zM684 453h-49q-123 -4 -189 -35t-65 -107q0 -117 125 -116q108 -1 178 69v189zM985 713v-447q0 -45 12 -63q25 -37 115 -6l8 -179q-82 -41 -196 -41
q-188 0 -219 136q-104 -137 -318 -138q-94 0 -161 29q-66 29 -98 75q-58 84 -58 181q0 377 612 373v39q0 102 -29 148t-114 46t-119 -34t-51 -113l-263 51q51 319 451 320q217 0 323 -90t105 -287z" />
    <glyph glyph-name="Aogonek" unicode="&#x104;" horiz-adv-x="1452" 
d="M897 612l-184 574h-8l-183 -574h375zM971 -291q0 162 207 291h-93l-122 360h-494l-115 -360h-325l485 1483h393l525 -1483q-231 -106 -232 -240q0 -68 64 -67q61 0 98 84l133 -62q-33 -98 -111 -152q-78 -55 -186 -55t-167 52q-60 52 -60 149z" />
    <glyph glyph-name="aogonek" unicode="&#x105;" horiz-adv-x="1142" 
d="M684 453h-49q-123 -4 -189 -35t-65 -107q0 -117 125 -116q108 -1 178 69v189zM70 260q0 377 612 373v39q0 102 -29 148t-114 46t-119 -34t-51 -113l-263 51q51 319 451 320q217 0 323 -90t105 -287v-447q0 -45 12 -63q25 -37 115 -6l8 -179q-94 -24 -170 -108t-76 -151
t64 -66q61 0 98 84l133 -62q-33 -98 -111 -152q-78 -55 -184 -55q-108 0 -168 52t-61 149q0 143 174 281q-94 25 -114 123q-104 -137 -318 -138q-94 0 -161 29q-66 29 -98 75q-58 84 -58 181z" />
    <glyph glyph-name="Cacute" unicode="&#x106;" horiz-adv-x="1423" 
d="M1128 1876l-299 -303l-219 16l187 287h331zM762 -25q-684 0 -684 750q0 360 186 572t529 212q259 0 415 -131t168 -401l-289 -25q-14 158 -85 228t-214 69q-385 0 -385 -508q-1 -266 91 -386q92 -119 257 -119t237 68t99 198l285 -49q-23 -168 -121 -280t-222 -155
t-267 -43z" />
    <glyph glyph-name="cacute" unicode="&#x107;" horiz-adv-x="1114" 
d="M934 1522l-277 -351l-206 19l153 332h330zM584 -25q-258 1 -386 147t-128 407t142 411t402 150q195 0 313 -106t132 -298l-277 -41q-10 107 -49 157t-132 50t-150 -66t-57 -240t52 -252q52 -77 150 -77t145 47t62 148l260 -50q-27 -195 -155 -291t-324 -96z" />
    <glyph glyph-name="Ccircumflex" unicode="&#x108;" horiz-adv-x="1423" 
d="M942 1575l-147 147l-154 -149l-209 14l219 291h287l209 -291zM762 -25q-684 0 -684 750q0 360 186 572t529 212q259 0 415 -131t168 -401l-289 -25q-14 158 -85 228t-214 69q-385 0 -385 -508q-1 -266 91 -386q92 -119 257 -119t237 68t99 198l285 -49
q-23 -168 -121 -280t-222 -155t-267 -43z" />
    <glyph glyph-name="ccircumflex" unicode="&#x109;" horiz-adv-x="1114" 
d="M969 1190l-205 -10l-150 192l-155 -194l-207 12l215 336h295zM584 -25q-258 1 -386 147t-128 407t142 411t402 150q195 0 313 -106t132 -298l-277 -41q-10 107 -49 157t-132 50t-150 -66t-57 -240t52 -252q52 -77 150 -77t145 47t62 148l260 -50q-27 -195 -155 -291
t-324 -96z" />
    <glyph glyph-name="Cdotaccent" unicode="&#x10a;" horiz-adv-x="1423" 
d="M789 1962q89 0 137 -48t49 -137q0 -89 -49 -139q-50 -50 -138 -51q-88 0 -136 50q-48 49 -48 139t48 138t137 48zM762 -25q-684 0 -684 750q0 360 186 572t529 212q259 0 415 -131t168 -401l-289 -25q-14 158 -85 228t-214 69q-385 0 -385 -508q-1 -266 91 -386
q92 -119 257 -119t237 68t99 198l285 -49q-23 -168 -121 -280t-222 -155t-267 -43z" />
    <glyph glyph-name="cdotaccent" unicode="&#x10b;" horiz-adv-x="1114" 
d="M612 1581q88 0 138 -49t49 -138q0 -88 -49 -138q-50 -50 -138 -50t-136 49t-48 139t48 138q48 49 136 49zM584 -25q-258 1 -386 147t-128 407t142 411t402 150q195 0 313 -106t132 -298l-277 -41q-10 107 -49 157t-132 50t-150 -66t-57 -240t52 -252q52 -77 150 -77
t145 47t62 148l260 -50q-27 -195 -155 -291t-324 -96z" />
    <glyph glyph-name="Ccaron" unicode="&#x10c;" horiz-adv-x="1423" 
d="M641 1880l147 -147l154 149l209 -14l-219 -291h-287l-209 291zM762 -25q-684 0 -684 750q0 360 186 572t529 212q259 0 415 -131t168 -401l-289 -25q-14 158 -85 228t-214 69q-385 0 -385 -508q-1 -266 91 -386q92 -119 257 -119t237 68t99 198l285 -49
q-23 -168 -121 -280t-222 -155t-267 -43z" />
    <glyph glyph-name="ccaron" unicode="&#x10d;" horiz-adv-x="1114" 
d="M256 1507l209 11l149 -191l156 193l203 -13l-215 -336h-295zM584 -25q-258 1 -386 147t-128 407t142 411t402 150q195 0 313 -106t132 -298l-277 -41q-10 107 -49 157t-132 50t-150 -66t-57 -240t52 -252q52 -77 150 -77t145 47t62 148l260 -50q-27 -195 -155 -291
t-324 -96z" />
    <glyph glyph-name="Dcaron" unicode="&#x10e;" horiz-adv-x="1482" 
d="M528 1880l148 -147l153 149l209 -14l-219 -291h-287l-208 291zM467 254h156q245 0 353 126t108 381t-105 361q-104 106 -334 107h-178v-975zM637 0h-485v1483h520q375 1 555 -187t180 -537q-1 -349 -193 -554t-577 -205z" />
    <glyph glyph-name="dcaron" unicode="&#x10f;" horiz-adv-x="1472" 
d="M1178 1151l67 395h283l-135 -413zM399 532q0 -312 205 -313q100 0 182 76v489q-80 59 -172 60q-215 0 -215 -312zM1094 1546v-1546h-258l-19 104l-6 2q-119 -131 -315 -131t-309 130q-111 130 -111 417t131 427q131 141 312 141t278 -91v547h297z" />
    <glyph glyph-name="Dcroat" unicode="&#x110;" horiz-adv-x="1482" 
d="M467 254h156q245 0 353 126t108 381t-105 361q-104 106 -334 107h-178v-340h350v-264h-350v-371zM637 0h-485v625h-138v264h138v594h520q375 1 555 -187t180 -537q-1 -349 -193 -554t-577 -205z" />
    <glyph glyph-name="dcroat" unicode="&#x111;" horiz-adv-x="1210" 
d="M614 827q-215 0 -215 -304t205 -304q100 0 182 76v473q-80 59 -172 59zM438 1180v206h359v160h297v-160h131v-206h-131v-1180h-258l-19 104l-6 2q-119 -131 -315 -131t-309 129q-111 129 -111 411t131 420t311 138t279 -90v197h-359z" />
    <glyph glyph-name="Emacron" unicode="&#x112;" horiz-adv-x="1193" 
d="M952 1606h-649v211h649v-211zM467 612v-346h661v-266h-976v1483h940v-264h-625v-349h588v-258h-588z" />
    <glyph glyph-name="emacron" unicode="&#x113;" horiz-adv-x="1120" 
d="M901 1231h-637v209h637v-209zM731 653q0 213 -156 213q-74 0 -124 -52t-52 -161h332zM395 457q8 -242 202 -242q91 0 131 39t56 113l260 -64q-30 -152 -148 -240t-282 -88q-307 0 -427 163q-119 163 -117 392q0 274 146 416t378 144q232 0 344 -130q113 -130 113 -364
q0 -84 -7 -139h-649z" />
    <glyph glyph-name="Ebreve" unicode="&#x114;" horiz-adv-x="1193" 
d="M640 1763q68 0 104 31t51 107l196 -13q-33 -313 -357 -313t-345 309l205 21q12 -76 46 -109t100 -33zM467 612v-346h661v-266h-976v1483h940v-264h-625v-349h588v-258h-588z" />
    <glyph glyph-name="ebreve" unicode="&#x115;" horiz-adv-x="1120" 
d="M580 1165q-330 0 -342 324l204 22q8 -85 44 -121t106 -36t107 34t49 121l196 -14q-12 -168 -107 -249t-257 -81zM731 653q0 213 -156 213q-74 0 -124 -52t-52 -161h332zM395 457q8 -242 202 -242q91 0 131 39t56 113l260 -64q-30 -152 -148 -240t-282 -88
q-307 0 -427 163q-119 163 -117 392q0 274 146 416t378 144q232 0 344 -130q113 -130 113 -364q0 -84 -7 -139h-649z" />
    <glyph glyph-name="Edotaccent" unicode="&#x116;" horiz-adv-x="1193" 
d="M813 1777q0 -89 -49 -139t-137 -51q-88 0 -137 50q-48 49 -48 139t48 138t138 48t137 -48q48 -48 48 -137zM467 612v-346h661v-266h-976v1483h940v-264h-625v-349h588v-258h-588z" />
    <glyph glyph-name="edotaccent" unicode="&#x117;" horiz-adv-x="1120" 
d="M770 1394q0 -88 -49 -138t-137 -50t-137 49q-48 49 -48 139t48 138q49 49 137 49t137 -49t49 -138zM731 653q0 213 -156 213q-74 0 -124 -52t-52 -161h332zM395 457q8 -242 202 -242q91 0 131 39t56 113l260 -64q-30 -152 -148 -240t-282 -88q-307 0 -427 163
q-119 163 -117 392q0 274 146 416t378 144q232 0 344 -130q113 -130 113 -364q0 -84 -7 -139h-649z" />
    <glyph glyph-name="Eogonek" unicode="&#x118;" horiz-adv-x="1193" 
d="M637 -291q0 156 188 291h-673v1483h940v-264h-625v-349h588v-258h-588v-346h661v-266h-102q-84 -80 -122 -132t-38 -108q0 -68 64 -67q61 0 98 84l133 -62q-33 -98 -111 -152q-78 -55 -185 -55q-108 0 -168 52t-60 149z" />
    <glyph glyph-name="eogonek" unicode="&#x119;" horiz-adv-x="1120" 
d="M731 653q0 213 -156 213q-74 0 -124 -52t-52 -161h332zM395 457q8 -242 202 -242q91 0 131 39t56 113l260 -64q-31 -165 -212 -291t-181 -252q0 -68 64 -67q61 0 98 84l133 -62q-32 -98 -110 -152q-78 -55 -186 -55t-168 52t-60 149q0 141 158 266q-268 4 -390 160
q-120 157 -120 413t146 398t378 144q232 0 344 -130q113 -130 113 -364q0 -84 -7 -139h-649z" />
    <glyph glyph-name="Ecaron" unicode="&#x11a;" horiz-adv-x="1193" 
d="M479 1880l148 -147l153 149l209 -14l-219 -291h-287l-209 291zM467 612v-346h661v-266h-976v1483h940v-264h-625v-349h588v-258h-588z" />
    <glyph glyph-name="ecaron" unicode="&#x11b;" horiz-adv-x="1120" 
d="M227 1507l209 11l150 -191l155 193l203 -13l-215 -336h-295zM731 653q0 213 -156 213q-74 0 -124 -52t-52 -161h332zM395 457q8 -242 202 -242q91 0 131 39t56 113l260 -64q-30 -152 -148 -240t-282 -88q-307 0 -427 163q-119 163 -117 392q0 274 146 416t378 144
q232 0 344 -130q113 -130 113 -364q0 -84 -7 -139h-649z" />
    <glyph glyph-name="Gcircumflex" unicode="&#x11c;" horiz-adv-x="1513" 
d="M942 1575l-147 147l-154 -149l-209 14l219 291h287l209 -291zM791 1249q-385 0 -385 -516q0 -254 90 -379t284 -125q143 0 224 73q80 73 79 185v54h-270v231h582v-772h-230l-35 182q-46 -96 -164 -151t-259 -56q-322 0 -476 200q-153 201 -153 555t185 566t534 213
q255 0 411 -125t174 -393l-295 -28q-13 133 -81 209t-215 77z" />
    <glyph glyph-name="gcircumflex" unicode="&#x11d;" horiz-adv-x="1146" 
d="M928 1190l-205 -10l-150 192l-155 -194l-207 12l215 336h295zM809 -154q0 76 -131 84l-297 19q-63 -47 -64 -103q0 -109 261 -108q113 0 172 24t59 84zM756 711q0 162 -183 161q-88 0 -141 -40t-53 -121q0 -164 190 -164q84 0 136 43q51 43 51 121zM542 1090
q204 0 302 -66q74 162 196 162q41 0 86 -19v-202q-94 8 -176 -17q88 -100 88 -239q0 -175 -130 -279t-339 -104q-96 0 -178 22q-39 -39 -39 -65q0 -51 97 -56l303 -18q180 -12 269 -82t89 -225q0 -186 -153 -274t-418 -89q-500 0 -500 248q0 74 52 125t140 68v8
q-156 45 -155 180q0 74 40 125t126 113q-156 90 -156 277t126 297t330 110z" />
    <glyph glyph-name="Gbreve" unicode="&#x11e;" horiz-adv-x="1513" 
d="M802 1763q68 0 104 31t50 107l197 -13q-33 -313 -357 -313t-345 309l204 21q12 -76 46 -109t101 -33zM791 1249q-385 0 -385 -516q0 -254 90 -379t284 -125q143 0 224 73q80 73 79 185v54h-270v231h582v-772h-230l-35 182q-46 -96 -164 -151t-259 -56q-322 0 -476 200
q-153 201 -153 555t185 566t534 213q255 0 411 -125t174 -393l-295 -28q-13 133 -81 209t-215 77z" />
    <glyph glyph-name="gbreve" unicode="&#x11f;" horiz-adv-x="1146" 
d="M567 1165q-330 0 -342 324l205 22q8 -85 44 -121t106 -36t106 34t49 121l197 -14q-12 -168 -108 -249t-257 -81zM809 -154q0 76 -131 84l-297 19q-63 -47 -64 -103q0 -109 261 -108q113 0 172 24t59 84zM756 711q0 162 -183 161q-88 0 -141 -40t-53 -121q0 -164 190 -164
q84 0 136 43q51 43 51 121zM542 1090q204 0 302 -66q74 162 196 162q41 0 86 -19v-202q-94 8 -176 -17q88 -100 88 -239q0 -175 -130 -279t-339 -104q-96 0 -178 22q-39 -39 -39 -65q0 -51 97 -56l303 -18q180 -12 269 -82t89 -225q0 -186 -153 -274t-418 -89
q-500 0 -500 248q0 74 52 125t140 68v8q-156 45 -155 180q0 74 40 125t126 113q-156 90 -156 277t126 297t330 110z" />
    <glyph glyph-name="Gdotaccent" unicode="&#x120;" horiz-adv-x="1513" 
d="M789 1962q89 0 137 -48t49 -137q0 -89 -49 -139q-50 -50 -138 -51q-88 0 -136 50q-48 49 -48 139t48 138t137 48zM791 1249q-385 0 -385 -516q0 -254 90 -379t284 -125q143 0 224 73q80 73 79 185v54h-270v231h582v-772h-230l-35 182q-46 -96 -164 -151t-259 -56
q-322 0 -476 200q-153 201 -153 555t185 566t534 213q255 0 411 -125t174 -393l-295 -28q-13 133 -81 209t-215 77z" />
    <glyph glyph-name="gdotaccent" unicode="&#x121;" horiz-adv-x="1146" 
d="M571 1581q87 0 137 -49t50 -138q0 -88 -49 -138t-137 -50t-137 49q-48 49 -48 139t48 138q48 49 136 49zM809 -154q0 76 -131 84l-297 19q-63 -47 -64 -103q0 -109 261 -108q113 0 172 24t59 84zM756 711q0 162 -183 161q-88 0 -141 -40t-53 -121q0 -164 190 -164
q84 0 136 43q51 43 51 121zM542 1090q204 0 302 -66q74 162 196 162q41 0 86 -19v-202q-94 8 -176 -17q88 -100 88 -239q0 -175 -130 -279t-339 -104q-96 0 -178 22q-39 -39 -39 -65q0 -51 97 -56l303 -18q180 -12 269 -82t89 -225q0 -186 -153 -274t-418 -89
q-500 0 -500 248q0 74 52 125t140 68v8q-156 45 -155 180q0 74 40 125t126 113q-156 90 -156 277t126 297t330 110z" />
    <glyph glyph-name="Gcommaaccent" unicode="&#x122;" horiz-adv-x="1513" 
d="M537 -530l94 391h287l-170 -422zM791 1249q-385 0 -385 -516q0 -254 90 -379t284 -125q143 0 224 73q80 73 79 185v54h-270v231h582v-772h-230l-35 182q-46 -96 -164 -151t-259 -56q-322 0 -476 200q-153 201 -153 555t185 566t534 213q255 0 411 -125t174 -393l-295 -28
q-13 133 -81 209t-215 77z" />
    <glyph glyph-name="gcommaaccent" unicode="&#x123;" horiz-adv-x="1146" 
d="M784 1559l-94 -394h-287l170 424zM809 -154q0 76 -131 84l-297 19q-63 -47 -64 -103q0 -109 261 -108q113 0 172 24t59 84zM756 711q0 162 -183 161q-88 0 -141 -40t-53 -121q0 -164 190 -164q84 0 136 43q51 43 51 121zM542 1090q204 0 302 -66q74 162 196 162
q41 0 86 -19v-202q-94 8 -176 -17q88 -100 88 -239q0 -175 -130 -279t-339 -104q-96 0 -178 22q-39 -39 -39 -65q0 -51 97 -56l303 -18q180 -12 269 -82t89 -225q0 -186 -153 -274t-418 -89q-500 0 -500 248q0 74 52 125t140 68v8q-156 45 -155 180q0 74 40 125t126 113
q-156 90 -156 277t126 297t330 110z" />
    <glyph glyph-name="Hcircumflex" unicode="&#x124;" horiz-adv-x="1501" 
d="M903 1575l-147 147l-154 -149l-209 14l219 291h287l209 -291zM1352 1483v-1483h-318v608h-567v-608h-315v1483h315v-602h567v602h318z" />
    <glyph glyph-name="hcircumflex" unicode="&#x125;" horiz-adv-x="1193" 
d="M422 1620l-148 147l-153 -149l-209 14l219 291h287l209 -291zM1085 729v-729h-309v674q0 164 -141 164q-115 0 -209 -84v-754h-309v1546h307v-577q154 121 328 121t254 -88t79 -273z" />
    <glyph glyph-name="Hbar" unicode="&#x126;" horiz-adv-x="1501" 
d="M467 881h567v178h-567v-178zM1352 1483v-193h135v-231h-135v-1059h-318v608h-567v-608h-315v1059h-138v231h138v193h315v-193h567v193h318z" />
    <glyph glyph-name="hbar" unicode="&#x127;" horiz-adv-x="1193" 
d="M-2 1180v206h119v160h307v-160h358v-206h-358v-226q154 121 328 121t254 -88t79 -272v-715h-309v659q0 164 -141 164q-115 0 -209 -84v-739h-309v1180h-119z" />
    <glyph glyph-name="Itilde" unicode="&#x128;" horiz-adv-x="618" 
d="M156 1905q72 0 167 -44t133 -44t51 19t13 71l156 -9q16 -128 -32 -208t-155 -80q-78 0 -176 45t-135 45q-70 0 -57 -96l-168 6q-16 133 40 214q57 81 163 81zM467 1483v-1483h-315v1483h315z" />
    <glyph glyph-name="itilde" unicode="&#x129;" horiz-adv-x="548" 
d="M119 1499q72 0 167 -45t133 -45t51 19t13 71l156 -8q16 -129 -32 -209t-154 -80q-79 0 -177 45t-135 45q-70 0 -57 -96l-168 6q-16 133 40 215q57 82 163 82zM432 1067v-1067h-309v1067h309z" />
    <glyph glyph-name="Imacron" unicode="&#x12a;" horiz-adv-x="618" 
d="M633 1606h-649v211h649v-211zM467 1483v-1483h-315v1483h315z" />
    <glyph glyph-name="imacron" unicode="&#x12b;" horiz-adv-x="548" 
d="M594 1231h-637v209h637v-209zM432 1067v-1067h-309v1067h309z" />
    <glyph glyph-name="Ibreve" unicode="&#x12c;" horiz-adv-x="618" 
d="M320 1763q67 0 104 31t51 107l197 -13q-34 -313 -358 -313t-345 309l205 21q12 -76 46 -109t100 -33zM467 1483v-1483h-315v1483h315z" />
    <glyph glyph-name="ibreve" unicode="&#x12d;" horiz-adv-x="548" 
d="M272 1165q-330 0 -342 324l205 22q8 -85 44 -121t106 -36q71 0 107 34t48 121l197 -14q-11 -168 -107 -249t-258 -81zM432 1067v-1067h-309v1067h309z" />
    <glyph glyph-name="Iogonek" unicode="&#x12e;" horiz-adv-x="618" 
d="M31 -291q0 141 207 291h-86v1483h315v-1483q-111 -70 -159 -125t-48 -115q0 -68 64 -67q61 0 98 84l133 -62q-33 -98 -111 -152q-78 -55 -186 -55t-167 52q-60 52 -60 149z" />
    <glyph glyph-name="iogonek" unicode="&#x12f;" horiz-adv-x="548" 
d="M465 1395q0 -89 -49 -139t-137 -50t-138 49q-49 49 -49 139t48 138q48 49 138 49t138 -49q49 -49 49 -137zM-6 -291q0 158 219 291h-90v1067h309v-1067q-111 -70 -160 -125t-49 -115q0 -68 64 -67q61 0 98 84l133 -62q-32 -98 -110 -152q-78 -55 -186 -55t-168 52
t-60 149z" />
    <glyph glyph-name="Idotaccent" unicode="&#x130;" horiz-adv-x="618" 
d="M308 1962q90 0 138 -48t48 -137t-50 -139t-137 -51q-88 0 -136 50q-48 49 -48 139t48 138t137 48zM467 1483v-1483h-315v1483h315z" />
    <glyph glyph-name="dotlessi" unicode="&#x131;" horiz-adv-x="548" 
d="M432 1067v-1067h-309v1067h309z" />
    <glyph glyph-name="IJ" unicode="&#x132;" horiz-adv-x="1703" 
d="M1249 408v1075h318v-1067q0 -440 -467 -441q-436 0 -451 420l303 45q10 -110 39 -158t108 -48t115 40t35 134zM467 1483v-1483h-315v1483h315z" />
    <glyph glyph-name="Jcircumflex" unicode="&#x134;" horiz-adv-x="1085" 
d="M938 1575l-147 147l-154 -149l-209 14l219 291h287l209 -291zM631 408v1075h317v-1067q0 -440 -467 -441q-436 0 -450 420l303 45q10 -110 39 -158t107 -48t115 40q36 40 36 134z" />
    <glyph glyph-name="jcircumflex" unicode="&#x135;" horiz-adv-x="544" 
d="M633 1190l-205 -10l-149 192l-156 -194l-207 12l215 336h295zM432 -84q0 -193 -102 -283t-274 -90q-173 0 -257 58l23 231q88 -41 168 -41q133 0 133 160v1116h309v-1151z" />
    <glyph glyph-name="Kcommaaccent" unicode="&#x136;" horiz-adv-x="1378" 
d="M494 -530l94 391h286l-169 -422zM465 1483v-635l575 635h336l-542 -617l534 -866h-369l-391 621l-143 -156v-465h-313v1483h313z" />
    <glyph glyph-name="kcommaaccent" unicode="&#x137;" horiz-adv-x="1155" 
d="M377 -530l94 391h287l-170 -422zM430 1546v-852l352 373h342l-354 -383l381 -684h-342l-277 487l-102 -100v-387h-309v1546h309z" />
    <glyph glyph-name="kgreenlandic" unicode="&#x138;" horiz-adv-x="1155" 
d="M430 1067v-373l352 373h342l-354 -383l381 -684h-342l-277 487l-102 -100v-387h-309v1067h309z" />
    <glyph glyph-name="Lacute" unicode="&#x139;" horiz-adv-x="1163" 
d="M643 1876l-299 -303l-219 16l186 287h332zM467 1483v-1217h635v-266h-950v1483h315z" />
    <glyph glyph-name="lacute" unicode="&#x13a;" horiz-adv-x="548" 
d="M602 1919l-299 -303l-219 16l186 287h332zM432 1546v-1546h-309v1546h309z" />
    <glyph glyph-name="Lcommaaccent" unicode="&#x13b;" horiz-adv-x="1163" 
d="M418 -530l94 391h287l-170 -422zM467 1483v-1217h635v-266h-950v1483h315z" />
    <glyph glyph-name="lcommaaccent" unicode="&#x13c;" horiz-adv-x="548" 
d="M63 -530l95 391h286l-170 -422zM432 1546v-1546h-309v1546h309z" />
    <glyph glyph-name="Lcaron" unicode="&#x13d;" horiz-adv-x="1163" 
d="M639 1087l68 396h282l-135 -414zM467 1483v-1217h635v-266h-950v1483h315z" />
    <glyph glyph-name="lcaron" unicode="&#x13e;" horiz-adv-x="811" 
d="M516 1151l68 395h282l-135 -413zM432 1546v-1546h-309v1546h309z" />
    <glyph glyph-name="Ldot" unicode="&#x13f;" horiz-adv-x="1163" 
d="M1071 837q0 -89 -49 -139t-137 -51q-88 0 -136 50q-49 49 -49 139t48 138t138 48q89 0 137 -48t48 -137zM467 1483v-1217h635v-266h-950v1483h315z" />
    <glyph glyph-name="ldot" unicode="&#x140;" horiz-adv-x="815" 
d="M864 821q0 -88 -47 -136t-133 -48t-134 48t-48 136t48 135q48 48 134 48t133 -48t47 -135zM432 1546v-1546h-309v1546h309z" />
    <glyph glyph-name="Lslash" unicode="&#x141;" horiz-adv-x="1163" 
d="M467 1483v-580l399 162v-260l-399 -162v-377h635v-266h-950v516l-160 -63v258l160 63v709h315z" />
    <glyph glyph-name="lslash" unicode="&#x142;" horiz-adv-x="571" 
d="M438 1546v-506l133 66v-272l-133 -66v-768h-309v647l-129 -61v272l129 62v626h309z" />
    <glyph glyph-name="Nacute" unicode="&#x143;" horiz-adv-x="1525" 
d="M1151 1876l-299 -303l-219 16l186 287h332zM1376 0h-364l-572 1047v-1047h-288v1483h376l562 -1051v1051h286v-1483z" />
    <glyph glyph-name="nacute" unicode="&#x144;" horiz-adv-x="1193" 
d="M950 1522l-276 -351l-207 19l154 332h329zM1085 729v-729h-309v676q0 164 -141 164q-115 0 -209 -84v-756h-309v1067h274l17 -106q140 129 328 129t268 -88t81 -273z" />
    <glyph glyph-name="Ncommaaccent" unicode="&#x145;" horiz-adv-x="1525" 
d="M547 -530l94 391h287l-170 -422zM1376 0h-364l-572 1047v-1047h-288v1483h376l562 -1051v1051h286v-1483z" />
    <glyph glyph-name="ncommaaccent" unicode="&#x146;" horiz-adv-x="1193" 
d="M379 -530l94 391h287l-170 -422zM1085 729v-729h-309v676q0 164 -141 164q-115 0 -209 -84v-756h-309v1067h274l17 -106q140 129 328 129t268 -88t81 -273z" />
    <glyph glyph-name="Ncaron" unicode="&#x147;" horiz-adv-x="1525" 
d="M639 1880l147 -147l154 149l209 -14l-219 -291h-287l-209 291zM1376 0h-364l-572 1047v-1047h-288v1483h376l562 -1051v1051h286v-1483z" />
    <glyph glyph-name="ncaron" unicode="&#x148;" horiz-adv-x="1193" 
d="M270 1507l209 11l150 -191l155 193l203 -13l-215 -336h-295zM1085 729v-729h-309v676q0 164 -141 164q-115 0 -209 -84v-756h-309v1067h274l17 -106q140 129 328 129t268 -88t81 -273z" />
    <glyph glyph-name="napostrophe" unicode="&#x149;" horiz-adv-x="1310" 
d="M-51 1044l90 365h264l-156 -391zM1202 729v-729h-309v676q0 164 -141 164q-115 0 -209 -84v-756h-310v1067h275l16 -106q140 129 328 129t269 -88t81 -273z" />
    <glyph glyph-name="Eng" unicode="&#x14a;" horiz-adv-x="1525" 
d="M979 -457q-84 -1 -162 17t-112 41l32 237q99 -41 173 -41t112 33t37 121v59l-619 1037v-1047h-288v1483h376l562 -948v948h286v-1567q0 -190 -108 -282q-109 -91 -289 -91z" />
    <glyph glyph-name="eng" unicode="&#x14b;" horiz-adv-x="1193" 
d="M710 -457q-173 0 -257 58l22 231q86 -41 168 -41q133 0 133 160v725q0 164 -141 164q-115 0 -209 -84v-756h-309v1067h274l17 -106q140 129 328 129t269 -88t80 -273v-813q0 -193 -101 -283t-274 -90z" />
    <glyph glyph-name="Omacron" unicode="&#x14c;" horiz-adv-x="1556" 
d="M1122 1606h-649v211h649v-211zM779 242q376 0 376 500t-360 501q-183 0 -287 -125t-105 -377q0 -499 376 -499zM768 -25q-352 0 -521 205t-169 552t187 562t533 215q346 -1 514 -207q169 -206 169 -558q-1 -352 -181 -560q-180 -209 -532 -209z" />
    <glyph glyph-name="omacron" unicode="&#x14d;" horiz-adv-x="1202" 
d="M932 1231h-637v209h637v-209zM600 205q108 0 160 77q51 77 51 254q0 176 -48 248t-155 72t-161 -76t-54 -248t49 -250q50 -77 158 -77zM590 -25q-520 0 -520 553q0 264 138 412t407 150q269 0 393 -144t125 -406q1 -261 -133 -413t-410 -152z" />
    <glyph glyph-name="Obreve" unicode="&#x14e;" horiz-adv-x="1556" 
d="M810 1763q68 0 104 31t51 107l196 -13q-33 -313 -357 -313t-345 309l205 21q12 -76 46 -109t100 -33zM779 242q376 0 376 500t-360 501q-183 0 -287 -125t-105 -377q0 -499 376 -499zM768 -25q-352 0 -521 205t-169 552t187 562t533 215q346 -1 514 -207
q169 -206 169 -558q-1 -352 -181 -560q-180 -209 -532 -209z" />
    <glyph glyph-name="obreve" unicode="&#x14f;" horiz-adv-x="1202" 
d="M610 1165q-330 0 -342 324l205 22q8 -85 44 -121t106 -36q71 0 107 34t48 121l197 -14q-11 -168 -107 -249t-258 -81zM600 205q108 0 160 77q51 77 51 254q0 176 -48 248t-155 72t-161 -76t-54 -248t49 -250q50 -77 158 -77zM590 -25q-520 0 -520 553q0 264 138 412
t407 150q269 0 393 -144t125 -406q1 -261 -133 -413t-410 -152z" />
    <glyph glyph-name="Ohungarumlaut" unicode="&#x150;" horiz-adv-x="1556" 
d="M1346 1884l-314 -311l-207 16l189 295h332zM932 1874l-219 -301l-199 24l102 277h316zM779 242q376 0 376 500t-360 501q-183 0 -287 -125t-105 -377q0 -499 376 -499zM768 -25q-352 0 -521 205t-169 552t187 562t533 215q346 -1 514 -207q169 -206 169 -558
q-1 -352 -181 -560q-180 -209 -532 -209z" />
    <glyph glyph-name="ohungarumlaut" unicode="&#x151;" horiz-adv-x="1202" 
d="M1165 1530l-299 -359l-207 19l175 340h331zM754 1522l-209 -351l-197 25l90 326h316zM600 205q108 0 160 77q51 77 51 254q0 176 -48 248t-155 72t-161 -76t-54 -248t49 -250q50 -77 158 -77zM590 -25q-520 0 -520 553q0 264 138 412t407 150q269 0 393 -144t125 -406
q1 -261 -133 -413t-410 -152z" />
    <glyph glyph-name="OE" unicode="&#x152;" horiz-adv-x="2197" 
d="M780 240q172 0 273 117q100 118 102 370q6 516 -360 516q-183 0 -287 -125t-105 -377q0 -501 377 -501zM2132 0h-946v137q-72 -76 -182 -119t-236 -43q-352 0 -521 205t-169 551t187 562t521 216q248 0 400 -157v131h907v-264h-625v-349h588v-258h-588v-348h664v-264z
" />
    <glyph glyph-name="oe" unicode="&#x153;" horiz-adv-x="1841" 
d="M1296 866q-74 0 -124 -51t-52 -162h332q2 213 -156 213zM600 205q108 0 160 79q51 79 51 254q0 174 -48 246t-155 72t-161 -76t-54 -248t49 -250q50 -77 158 -77zM1317 -25q-244 0 -359 185q-125 -184 -384 -184q-260 0 -382 149q-122 151 -122 407t139 407t387 151
t375 -179q123 179 350 179t339 -132t112 -360q0 -86 -7 -141h-649q4 -129 58 -185t157 -57q145 0 174 152l260 -64q-29 -152 -147 -240t-301 -88z" />
    <glyph glyph-name="Racute" unicode="&#x154;" horiz-adv-x="1314" 
d="M958 1876l-299 -303l-219 16l187 287h331zM465 811h162q268 0 268 223q1 104 -63 150t-193 45h-174v-418zM465 563v-563h-313v1483h577q258 0 375 -118t117 -300q0 -307 -256 -424l335 -641h-339l-293 563h-203z" />
    <glyph glyph-name="racute" unicode="&#x155;" horiz-adv-x="804" 
d="M770 1522l-276 -351l-207 19l153 332h330zM426 0h-309v1067h264l22 -168q131 190 336 191l54 -3v-301q-221 20 -367 -96v-690z" />
    <glyph glyph-name="Rcommaaccent" unicode="&#x156;" horiz-adv-x="1314" 
d="M467 -530l94 391h287l-170 -422zM465 811h162q268 0 268 223q1 104 -63 150t-193 45h-174v-418zM465 563v-563h-313v1483h577q258 0 375 -118t117 -300q0 -307 -256 -424l335 -641h-339l-293 563h-203z" />
    <glyph glyph-name="rcommaaccent" unicode="&#x157;" horiz-adv-x="804" 
d="M55 -530l95 391h286l-170 -422zM426 0h-309v1067h264l22 -168q131 190 336 191l54 -3v-301q-221 20 -367 -96v-690z" />
    <glyph glyph-name="Rcaron" unicode="&#x158;" horiz-adv-x="1314" 
d="M471 1880l147 -147l154 149l209 -14l-219 -291h-287l-209 291zM465 811h162q268 0 268 223q1 104 -63 150t-193 45h-174v-418zM465 563v-563h-313v1483h577q258 0 375 -118t117 -300q0 -307 -256 -424l335 -641h-339l-293 563h-203z" />
    <glyph glyph-name="rcaron" unicode="&#x159;" horiz-adv-x="804" 
d="M92 1507l209 11l150 -191l155 193l203 -13l-215 -336h-295zM426 0h-309v1067h264l22 -168q131 190 336 191l54 -3v-301q-221 20 -367 -96v-690z" />
    <glyph glyph-name="Sacute" unicode="&#x15a;" horiz-adv-x="1220" 
d="M954 1876l-299 -303l-219 16l187 287h331zM621 1266q-226 0 -228 -158q0 -117 153 -172q68 -26 150 -48t164 -52t151 -75q69 -44 111 -125t41 -192q0 -236 -162 -352t-405 -117q-541 0 -573 471l286 43q23 -127 84 -195t211 -69q246 0 246 183q0 61 -43 103
q-43 43 -111 65t-150 41q-192 45 -315 123q-68 44 -110 126q-43 82 -43 197q0 209 153 328q154 119 377 119t364 -85q159 -93 175 -350l-289 -33q-10 112 -64 168t-173 56z" />
    <glyph glyph-name="sacute" unicode="&#x15b;" horiz-adv-x="1026" 
d="M838 1522l-277 -351l-207 19l154 332h330zM526 1090q344 0 426 -283l-254 -80q-23 74 -63 110q-41 36 -121 35q-135 0 -135 -94q0 -53 50 -75q51 -21 153 -39t154 -32q156 -44 205 -145q30 -61 30 -151q0 -176 -131 -268t-334 -92t-317 77q-114 78 -142 215l252 82
q23 -76 69 -119t144 -43q154 0 154 101q0 55 -43 75t-145 37t-153 33q-164 49 -212 152q-31 63 -31 155q0 169 127 259t317 90z" />
    <glyph glyph-name="Scircumflex" unicode="&#x15c;" horiz-adv-x="1220" 
d="M768 1575l-147 147l-154 -149l-209 14l219 291h287l209 -291zM621 1266q-226 0 -228 -158q0 -117 153 -172q68 -26 150 -48t164 -52t151 -75q69 -44 111 -125t41 -192q0 -236 -162 -352t-405 -117q-541 0 -573 471l286 43q23 -127 84 -195t211 -69q246 0 246 183
q0 61 -43 103q-43 43 -111 65t-150 41q-192 45 -315 123q-68 44 -110 126q-43 82 -43 197q0 209 153 328q154 119 377 119t364 -85q159 -93 175 -350l-289 -33q-10 112 -64 168t-173 56z" />
    <glyph glyph-name="scircumflex" unicode="&#x15d;" horiz-adv-x="1026" 
d="M872 1190l-204 -10l-150 192l-156 -194l-206 12l215 336h295zM526 1090q344 0 426 -283l-254 -80q-23 74 -63 110q-41 36 -121 35q-135 0 -135 -94q0 -53 50 -75q51 -21 153 -39t154 -32q156 -44 205 -145q30 -61 30 -151q0 -176 -131 -268t-334 -92t-317 77
q-114 78 -142 215l252 82q23 -76 69 -119t144 -43q154 0 154 101q0 55 -43 75t-145 37t-153 33q-164 49 -212 152q-31 63 -31 155q0 169 127 259t317 90z" />
    <glyph glyph-name="Scedilla" unicode="&#x15e;" horiz-adv-x="1220" 
d="M530 -346q102 0 103 76q0 45 -31 59t-100 16l22 175q-471 29 -501 466l286 43q23 -127 84 -195t211 -69q246 0 246 183q0 61 -43 103q-43 43 -111 65t-150 41q-192 45 -315 123q-68 44 -110 126q-43 82 -43 197q0 209 153 328q154 119 377 119t364 -85q159 -93 175 -350
l-289 -33q-10 111 -64 167q-54 57 -172 57q-226 1 -229 -158q0 -117 153 -172q68 -26 150 -48t164 -52t151 -75q69 -44 111 -125t41 -192q0 -216 -138 -332t-353 -132l-8 -72q174 -31 174 -189q0 -109 -75 -165t-181 -58q-106 0 -181 29l31 143q57 -14 98 -14z" />
    <glyph glyph-name="scedilla" unicode="&#x15f;" horiz-adv-x="1026" 
d="M434 -346q102 0 103 76q0 45 -31 59t-100 16l22 175q-328 27 -381 288l252 82q23 -76 69 -119t144 -43q154 0 154 101q0 55 -43 75t-145 37t-153 33q-164 49 -212 152q-31 63 -31 155q0 168 127 258t317 91q344 0 426 -283l-254 -80q-23 74 -63 110q-41 36 -121 35
q-135 0 -135 -94q0 -53 50 -75q51 -21 153 -39t154 -32q156 -44 205 -145q30 -61 30 -151q0 -160 -109 -250t-287 -106l-8 -72q174 -31 174 -189q-1 -109 -75 -165t-180 -58q-106 0 -181 29l31 143q57 -14 98 -14z" />
    <glyph glyph-name="Scaron" unicode="&#x160;" horiz-adv-x="1220" 
d="M467 1880l147 -147l154 149l209 -14l-219 -291h-287l-209 291zM621 1266q-226 0 -228 -158q0 -117 153 -172q68 -26 150 -48t164 -52t151 -75q69 -44 111 -125t41 -192q0 -236 -162 -352t-405 -117q-541 0 -573 471l286 43q23 -127 84 -195t211 -69q246 0 246 183
q0 61 -43 103q-43 43 -111 65t-150 41q-192 45 -315 123q-68 44 -110 126q-43 82 -43 197q0 209 153 328q154 119 377 119t364 -85q159 -93 175 -350l-289 -33q-10 112 -64 168t-173 56z" />
    <glyph glyph-name="scaron" unicode="&#x161;" horiz-adv-x="1026" 
d="M160 1507l209 11l149 -191l156 193l203 -13l-215 -336h-295zM526 1090q344 0 426 -283l-254 -80q-23 74 -63 110q-41 36 -121 35q-135 0 -135 -94q0 -53 50 -75q51 -21 153 -39t154 -32q156 -44 205 -145q30 -61 30 -151q0 -176 -131 -268t-334 -92t-317 77
q-114 78 -142 215l252 82q23 -76 69 -119t144 -43q154 0 154 101q0 55 -43 75t-145 37t-153 33q-164 49 -212 152q-31 63 -31 155q0 169 127 259t317 90z" />
    <glyph glyph-name="uni0162" unicode="&#x162;" horiz-adv-x="1218" 
d="M539 -346q102 0 102 76q0 45 -31 59t-100 16l25 195h-82v1217h-437v266h1186v-266h-432v-1217h-86l-12 -92q174 -31 174 -189q0 -109 -75 -165t-181 -58q-106 0 -180 29l30 143q57 -14 99 -14z" />
    <glyph glyph-name="uni0163" unicode="&#x163;" horiz-adv-x="843" 
d="M412 -346q102 0 102 76q0 45 -31 59t-100 16l23 181q-231 43 -232 336v520h-160v225h160v315l309 41v-356h283v-225h-283v-477q0 -74 27 -109q28 -35 110 -35t164 49l43 -219q-96 -66 -274 -74l-8 -69q174 -31 174 -189q0 -109 -75 -165t-181 -58q-106 0 -180 29l30 143
q57 -14 99 -14z" />
    <glyph glyph-name="Tcaron" unicode="&#x164;" horiz-adv-x="1218" 
d="M459 1880l147 -147l154 149l209 -14l-219 -291h-287l-209 291zM770 0h-317v1217h-437v266h1186v-266h-432v-1217z" />
    <glyph glyph-name="tcaron" unicode="&#x165;" horiz-adv-x="843" 
d="M569 1190l68 395h283l-136 -414zM514 -25q-170 0 -255 83t-85 264v520h-160v225h160v315l309 41v-356h283v-225h-283v-477q0 -74 27 -109q28 -35 110 -35t164 49l43 -219q-45 -29 -132 -53t-181 -23z" />
    <glyph glyph-name="Tbar" unicode="&#x166;" horiz-adv-x="1218" 
d="M770 0h-317v604h-291v254h291v359h-437v266h1186v-266h-432v-359h287v-254h-287v-604z" />
    <glyph glyph-name="tbar" unicode="&#x167;" horiz-adv-x="843" 
d="M514 -25q-170 0 -255 83t-85 264v141h-160v217h160v162h-160v225h160v315l309 41v-356h283v-225h-283v-162h283v-217h-283v-98q0 -74 27 -109q28 -35 110 -35t164 49l43 -219q-45 -29 -132 -53t-181 -23z" />
    <glyph glyph-name="Utilde" unicode="&#x168;" horiz-adv-x="1449" 
d="M569 1905q72 0 167 -44t133 -44t52 19q13 19 13 71l156 -9q16 -128 -32 -208t-155 -80q-78 0 -176 45t-135 45q-70 0 -57 -96l-168 6q-16 133 40 214t162 81zM727 240q156 0 214 76t58 264v903h316v-948q0 -559 -598 -560q-305 -1 -445 137t-139 431v940h318v-897
q0 -182 60 -264t216 -82z" />
    <glyph glyph-name="utilde" unicode="&#x169;" horiz-adv-x="1183" 
d="M432 1499q72 0 167 -45t133 -45t51 19t14 71l155 -8q16 -129 -32 -209t-154 -80q-78 0 -176 45t-135 45q-70 0 -58 -96l-168 6q-16 133 40 215q57 82 163 82zM113 332v735h309v-674q0 -88 31 -127t104 -39q109 0 203 84v756h309v-1067h-266l-23 115q-121 -137 -340 -138
q-327 1 -327 355z" />
    <glyph glyph-name="Umacron" unicode="&#x16a;" horiz-adv-x="1449" 
d="M1047 1606h-650v211h650v-211zM727 240q156 0 214 76t58 264v903h316v-948q0 -559 -598 -560q-305 -1 -445 137t-139 431v940h318v-897q0 -182 60 -264t216 -82z" />
    <glyph glyph-name="umacron" unicode="&#x16b;" horiz-adv-x="1183" 
d="M905 1231h-637v209h637v-209zM113 332v735h309v-674q0 -88 31 -127t104 -39q109 0 203 84v756h309v-1067h-266l-23 115q-121 -137 -340 -138q-327 1 -327 355z" />
    <glyph glyph-name="Ubreve" unicode="&#x16c;" horiz-adv-x="1449" 
d="M734 1763q67 0 104 31t51 107l196 -13q-33 -313 -357 -313t-345 309l205 21q12 -76 46 -109t100 -33zM727 240q156 0 214 76t58 264v903h316v-948q0 -559 -598 -560q-305 -1 -445 137t-139 431v940h318v-897q0 -182 60 -264t216 -82z" />
    <glyph glyph-name="ubreve" unicode="&#x16d;" horiz-adv-x="1183" 
d="M582 1165q-330 0 -342 324l204 22q8 -85 44 -121t106 -36t107 34t49 121l196 -14q-12 -168 -107 -249t-257 -81zM113 332v735h309v-674q0 -88 31 -127t104 -39q109 0 203 84v756h309v-1067h-266l-23 115q-121 -137 -340 -138q-327 1 -327 355z" />
    <glyph glyph-name="Uring" unicode="&#x16e;" horiz-adv-x="1449" 
d="M721 1614q98 0 98 100q0 94 -96 94q-45 0 -73 -24t-27 -72q0 -98 98 -98zM961 1710q0 -104 -66 -162t-172 -59q-106 0 -171 56t-65 161t68 164t169 59q101 1 169 -57t68 -162zM727 240q156 0 214 76t58 264v903h316v-948q0 -559 -598 -560q-305 -1 -445 137t-139 431v940
h318v-897q0 -182 60 -264t216 -82z" />
    <glyph glyph-name="uring" unicode="&#x16f;" horiz-adv-x="1183" 
d="M589 1290q91 0 91 92q0 86 -90 86q-41 0 -67 -24t-25 -64q0 -90 91 -90zM821 1382q0 -102 -63 -158q-64 -56 -168 -56t-166 54t-64 156q0 102 66 160t165 59q99 0 165 -56q65 -57 65 -159zM113 332v735h309v-674q0 -88 31 -127t104 -39q109 0 203 84v756h309v-1067h-266
l-23 115q-121 -137 -340 -138q-327 1 -327 355z" />
    <glyph glyph-name="Uhungarumlaut" unicode="&#x170;" horiz-adv-x="1449" 
d="M1270 1884l-314 -311l-206 16l188 295h332zM856 1874l-219 -301l-199 24l103 277h315zM727 240q156 0 214 76t58 264v903h316v-948q0 -559 -598 -560q-305 -1 -445 137t-139 431v940h318v-897q0 -182 60 -264t216 -82z" />
    <glyph glyph-name="uhungarumlaut" unicode="&#x171;" horiz-adv-x="1183" 
d="M1141 1530l-299 -359l-207 19l174 340h332zM729 1522l-209 -351l-196 25l90 326h315zM113 332v735h309v-674q0 -88 31 -127t104 -39q109 0 203 84v756h309v-1067h-266l-23 115q-121 -137 -340 -138q-327 1 -327 355z" />
    <glyph glyph-name="Uogonek" unicode="&#x172;" horiz-adv-x="1449" 
d="M717 -25q-305 -1 -445 137t-139 431v940h318v-897q0 -182 60 -264t216 -82t214 76t58 264v903h316v-948q0 -189 -66 -307t-178 -191q-111 -73 -169 -145t-58 -132q0 -68 63 -67q62 0 99 84l133 -62q-33 -98 -111 -152q-78 -55 -186 -55t-167 52q-60 52 -61 149
q0 139 158 268q-18 -2 -55 -2z" />
    <glyph glyph-name="uogonek" unicode="&#x173;" horiz-adv-x="1183" 
d="M639 -291q0 145 164 291l-23 115q-121 -137 -340 -138q-328 0 -327 355v735h309v-674q0 -88 31 -127t104 -39q109 0 203 84v756h309v-1067q-84 -41 -142 -111q-59 -69 -59 -133t64 -63q61 0 98 84l133 -62q-33 -98 -111 -152q-78 -55 -184 -55q-108 0 -168 52t-61 149z
" />
    <glyph glyph-name="Wcircumflex" unicode="&#x174;" horiz-adv-x="1974" 
d="M1141 1575l-148 147l-153 -149l-209 14l219 291h287l209 -291zM1640 0h-403l-240 1022h-8l-237 -1022h-416l-320 1483h330l209 -1143h8l264 1143h338l273 -1149h10l192 1149h318z" />
    <glyph glyph-name="wcircumflex" unicode="&#x175;" horiz-adv-x="1665" 
d="M1196 1190l-205 -10l-149 192l-156 -194l-207 12l215 336h295zM674 0h-367l-315 1067h309l195 -750h4l188 750h303l189 -745h6l186 745h301l-317 -1067h-348l-172 696h-5z" />
    <glyph glyph-name="Ycircumflex" unicode="&#x176;" horiz-adv-x="1241" 
d="M782 1575l-147 147l-154 -149l-209 14l220 291h286l209 -291zM795 0h-318v555l-514 928h346l326 -635h10l313 635h320l-483 -924v-559z" />
    <glyph glyph-name="ycircumflex" unicode="&#x177;" horiz-adv-x="1077" 
d="M895 1190l-205 -10l-149 192l-156 -194l-207 12l215 336h295zM270 -457q-152 0 -241 45l22 224q102 -33 162 -33q106 0 152 115l32 83l-405 1090h334l223 -743h6l215 743h317q-242 -674 -423 -1171q-70 -195 -156 -274t-238 -79z" />
    <glyph glyph-name="Ydieresis" unicode="&#x178;" horiz-adv-x="1241" 
d="M1053 1757q0 -78 -49 -124q-48 -46 -132 -46t-134 46t-50 124t50 125t133 47t133 -47t49 -125zM571 1757q0 -78 -50 -124t-132 -46t-133 46t-51 124t51 125t133 47t132 -47t50 -125zM795 0h-318v555l-514 928h346l326 -635h10l313 635h320l-483 -924v-559z" />
    <glyph glyph-name="Zacute" unicode="&#x179;" horiz-adv-x="1212" 
d="M915 1876l-299 -303l-219 16l187 287h331zM1153 266v-266h-1098v231l703 988h-684v264h1050v-236l-690 -981h719z" />
    <glyph glyph-name="zacute" unicode="&#x17a;" horiz-adv-x="954" 
d="M795 1522l-277 -351l-207 19l154 332h330zM911 248v-248h-856v219l492 617h-488v231h824v-219l-475 -600h503z" />
    <glyph glyph-name="Zdotaccent" unicode="&#x17b;" horiz-adv-x="1212" 
d="M576 1962q90 0 138 -48t48 -137t-49 -139t-137 -51q-88 0 -137 50q-48 49 -48 139t48 138t137 48zM1153 266v-266h-1098v231l703 988h-684v264h1050v-236l-690 -981h719z" />
    <glyph glyph-name="zdotaccent" unicode="&#x17c;" horiz-adv-x="954" 
d="M659 1394q0 -88 -49 -138t-137 -50t-136 49t-48 139t48 138q48 49 136 49t137 -49t49 -138zM911 248v-248h-856v219l492 617h-488v231h824v-219l-475 -600h503z" />
    <glyph glyph-name="Zcaron" unicode="&#x17d;" horiz-adv-x="1212" 
d="M428 1880l147 -147l154 149l209 -14l-219 -291h-287l-209 291zM1153 266v-266h-1098v231l703 988h-684v264h1050v-236l-690 -981h719z" />
    <glyph glyph-name="zcaron" unicode="&#x17e;" horiz-adv-x="954" 
d="M117 1507l209 11l149 -191l156 193l203 -13l-216 -336h-294zM911 248v-248h-856v219l492 617h-488v231h824v-219l-475 -600h503z" />
    <glyph glyph-name="longs" unicode="&#x17f;" horiz-adv-x="612" 
d="M426 1161v-1161h-309v1190q0 193 104 286t273 93t251 -39l-12 -219q-77 27 -151 27t-115 -38q-41 -37 -41 -139z" />
    <glyph glyph-name="florin" unicode="&#x192;" horiz-adv-x="1183" 
d="M96 -371q-279 0 -348 267l246 86q16 -68 42 -102t79 -34t79 29t39 100l142 744h-189l33 199h191l45 227q37 188 131 276t284 88q275 0 347 -264l-244 -88q-16 70 -41 105q-25 34 -77 34t-81 -30t-41 -101l-47 -247h268l-30 -199h-271l-139 -727q-35 -188 -129 -276
t-289 -87z" />
    <glyph glyph-name="Aringacute" unicode="&#x1fa;" horiz-adv-x="1452" 
d="M813 1635q0 105 -104 106q-49 0 -80 -27t-31 -78q0 -106 108 -106t107 105zM1061 2230l-299 -303l-219 17l186 286h332zM897 612l-184 574h-8l-183 -574h375zM709 1872q111 0 185 -62t73 -170q0 -106 -56 -167l521 -1473h-347l-122 360h-494l-115 -360h-325l479 1468
q-55 61 -55 168q1 108 73 172t183 64z" />
    <glyph glyph-name="aringacute" unicode="&#x1fb;" horiz-adv-x="1142" 
d="M883 1950l-299 -303l-219 16l186 287h332zM552 1284q91 0 91 92q0 86 -90 86q-41 0 -67 -24t-25 -64q0 -90 91 -90zM784 1376q0 -102 -63 -158t-167 -56t-168 53q-62 55 -62 157t65 161q66 58 165 58t165 -56q65 -57 65 -159zM684 453h-49q-123 -4 -189 -35t-65 -107
q0 -117 125 -116q108 -1 178 69v189zM985 713v-447q0 -45 12 -63q25 -37 115 -6l8 -179q-82 -41 -196 -41q-188 0 -219 136q-104 -137 -318 -138q-94 0 -161 29q-66 29 -98 75q-58 84 -58 181q0 377 612 373v39q0 102 -29 148t-114 46t-119 -34t-51 -113l-263 51
q51 319 451 320q217 0 323 -90t105 -287z" />
    <glyph glyph-name="AEacute" unicode="&#x1fc;" horiz-adv-x="2054" 
d="M1696 1876l-299 -303l-219 16l186 287h332zM1004 836v381h-89l-184 -381h273zM1319 590v-324h663v-266h-978v586h-365l-279 -586h-333l723 1483h1194v-266h-625v-371h588v-256h-588z" />
    <glyph glyph-name="aeacute" unicode="&#x1fd;" horiz-adv-x="1716" 
d="M1206 1522l-276 -351l-207 19l154 332h329zM1171 866q-74 0 -124 -52t-52 -161h332q6 213 -156 213zM506 195q51 -1 109 23t100 58q-27 72 -37 177h-43q-123 -4 -189 -35t-65 -107q0 -116 125 -116zM991 467q4 -252 201 -252q92 0 132 39t56 113l260 -64
q-30 -152 -148 -240t-304 -88q-270 0 -397 160q-166 -160 -392 -160q-98 0 -168 29q-71 29 -103 75q-58 83 -58 191q0 301 391 347q94 11 221 12v43q0 102 -29 148t-114 46t-119 -34t-51 -113l-263 51q51 319 451 320q213 0 303 -146q52 68 146 107t200 39q221 0 331 -132
t110 -362q0 -74 -7 -129h-649z" />
    <glyph glyph-name="Oslashacute" unicode="&#x1fe;" horiz-adv-x="1556" 
d="M1137 1876l-299 -303l-220 16l187 287h332zM780 242q375 0 375 503q0 227 -80 355l-356 -856q20 -2 61 -2zM403 752q0 -242 82 -369l357 856q-29 4 -47 4q-184 0 -288 -125q-104 -124 -104 -366zM768 -25q-82 0 -156 13l-55 -135h-293l94 229q-281 186 -280 653
q0 344 187 559t536 215q80 0 147 -12l56 129h290l-94 -225q281 -188 281 -637q-1 -371 -181 -580t-532 -209z" />
    <glyph glyph-name="oslashacute" unicode="&#x1ff;" horiz-adv-x="1202" 
d="M610 856q-109 0 -163 -76t-54 -212q0 -137 15 -203l217 491h-15zM604 205q207 1 207 307q0 152 -25 221l-231 -524q33 -4 49 -4zM936 1522l-277 -351l-206 19l153 332h330zM590 -25q-66 0 -133 11l-58 -133h-217l88 202q-201 129 -200 473q0 264 138 412t410 150
q63 0 107 -9l53 119h215l-80 -180q219 -125 220 -469q1 -272 -133 -424t-410 -152z" />
    <glyph glyph-name="Scommaaccent" unicode="&#x218;" horiz-adv-x="1220" 
d="M399 -530l95 391h286l-170 -422zM621 1266q-226 0 -228 -158q0 -117 153 -172q68 -26 150 -48t164 -52t151 -75q69 -44 111 -125t41 -192q0 -236 -162 -352t-405 -117q-541 0 -573 471l286 43q23 -127 84 -195t211 -69q246 0 246 183q0 61 -43 103q-43 43 -111 65
t-150 41q-192 45 -315 123q-68 44 -110 126q-43 82 -43 197q0 209 153 328q154 119 377 119t364 -85q159 -93 175 -350l-289 -33q-10 112 -64 168t-173 56z" />
    <glyph glyph-name="scommaaccent" unicode="&#x219;" horiz-adv-x="1026" 
d="M301 -530l94 391h287l-170 -422zM526 1090q344 0 426 -283l-254 -80q-23 74 -63 110q-41 36 -121 35q-135 0 -135 -94q0 -53 50 -75q51 -21 153 -39t154 -32q156 -44 205 -145q30 -61 30 -151q0 -176 -131 -268t-334 -92t-317 77q-114 78 -142 215l252 82q23 -76 69 -119
t144 -43q154 0 154 101q0 55 -43 75t-145 37t-153 33q-164 49 -212 152q-31 63 -31 155q0 169 127 259t317 90z" />
    <glyph glyph-name="uni021A" unicode="&#x21a;" horiz-adv-x="1218" 
d="M391 -530l94 391h287l-170 -422zM770 0h-317v1217h-437v266h1186v-266h-432v-1217z" />
    <glyph glyph-name="uni021B" unicode="&#x21b;" horiz-adv-x="843" 
d="M256 -530l94 391h287l-170 -422zM514 -25q-170 0 -255 83t-85 264v520h-160v225h160v315l309 41v-356h283v-225h-283v-477q0 -74 27 -109q28 -35 110 -35t164 49l43 -219q-45 -29 -132 -53t-181 -23z" />
    <glyph glyph-name="dotlessj" unicode="&#x237;" horiz-adv-x="544" 
d="M432 -84q0 -193 -102 -283t-274 -90q-173 0 -257 58l23 231q88 -41 168 -41q133 0 133 160v1116h309v-1151z" />
    <glyph glyph-name="apostrophe" unicode="&#x2bc;" horiz-adv-x="1024" 
d="M315 1067l97 393h286l-170 -422z" />
    <glyph glyph-name="circumflex" unicode="&#x2c6;" horiz-adv-x="1024" 
d="M868 1190l-204 -10l-150 192l-156 -194l-206 12l215 336h295z" />
    <glyph glyph-name="caron" unicode="&#x2c7;" horiz-adv-x="1024" 
d="M156 1507l209 11l149 -191l156 193l202 -13l-215 -336h-295z" />
    <glyph glyph-name="uni02C9" unicode="&#x2c9;" horiz-adv-x="1024" 
d="M829 1227h-636v209h636v-209z" />
    <glyph glyph-name="breve" unicode="&#x2d8;" horiz-adv-x="1024" 
d="M508 1165q-330 0 -342 324l205 22q8 -85 44 -121q35 -36 105 -36t107 34t49 121l196 -14q-12 -168 -107 -249t-257 -81z" />
    <glyph glyph-name="dotaccent" unicode="&#x2d9;" horiz-adv-x="1024" 
d="M698 1394q0 -88 -49 -138t-137 -50t-136 49t-48 139t48 138q48 49 137 49t137 -49t48 -138z" />
    <glyph glyph-name="ring" unicode="&#x2da;" horiz-adv-x="1024" 
d="M511 1290q91 0 91 92q0 86 -90 86q-41 0 -67 -24t-25 -64q0 -90 91 -90zM743 1382q0 -102 -63 -158q-64 -56 -168 -56t-166 54t-63 156q0 102 65 161q66 58 165 58t165 -56q65 -57 65 -159z" />
    <glyph glyph-name="ogonek" unicode="&#x2db;" horiz-adv-x="1024" 
d="M258 -291q0 172 258 338l146 -35q-94 -90 -134 -143t-41 -109q0 -68 64 -67q61 0 98 84l133 -62q-32 -98 -110 -152q-78 -55 -186 -55t-168 52t-60 149z" />
    <glyph glyph-name="tilde" unicode="&#x2dc;" horiz-adv-x="1024" 
d="M354 1499q72 0 167 -45t133 -45t52 19q13 19 13 71l155 -8q16 -129 -32 -209t-154 -80q-78 0 -176 45t-135 45q-70 0 -58 -96l-167 6q-16 133 39 215q57 82 163 82z" />
    <glyph glyph-name="hungarumlaut" unicode="&#x2dd;" horiz-adv-x="1024" 
d="M1063 1530l-299 -359l-207 19l174 340h332zM651 1522l-209 -351l-196 25l90 326h315z" />
    <glyph glyph-name="uni0394" unicode="&#x394;" horiz-adv-x="1464" 
d="M696 1157l-305 -903h608l-288 903h-15zM1446 0h-1428l529 1483h364z" />
    <glyph glyph-name="uni03A9" unicode="&#x3a9;" horiz-adv-x="1699" 
d="M1159 266h377v-266h-588v449q60 27 102 51t93 70q104 97 103 297t-100 292q-100 92 -272 92t-275 -103q-103 -104 -103 -282t68 -268t198 -147v-451h-584v266h371v45q-379 141 -379 539q0 295 191 477t525 182t506 -166q171 -166 171 -462q0 -213 -113 -353t-291 -217
v-45z" />
    <glyph glyph-name="uni03BC" unicode="&#x3bc;" horiz-adv-x="1288" 
d="M166 -360v1427h309v-676q0 -90 25 -129t88 -39q102 0 209 88v756h309v-1067h-256l-10 111h-11q-158 -150 -362 -113l-2 -2l20 -356h-319z" />
    <glyph glyph-name="pi" unicode="&#x3c0;" horiz-adv-x="1374" 
d="M1151 1067v-1067h-309v840h-312v-840h-307v1067h928z" />
    <glyph glyph-name="Wgrave" unicode="&#x1e80;" horiz-adv-x="1974" 
d="M948 1573l-299 303h332l186 -287zM1640 0h-403l-240 1022h-8l-237 -1022h-416l-320 1483h330l209 -1143h8l264 1143h338l273 -1149h10l192 1149h318z" />
    <glyph glyph-name="wgrave" unicode="&#x1e81;" horiz-adv-x="1665" 
d="M799 1171l-277 351h332l152 -332zM674 0h-367l-315 1067h309l195 -750h4l188 750h303l189 -745h6l186 745h301l-317 -1067h-348l-172 696h-5z" />
    <glyph glyph-name="Wacute" unicode="&#x1e82;" horiz-adv-x="1974" 
d="M1327 1876l-299 -303l-219 16l186 287h332zM1640 0h-403l-240 1022h-8l-237 -1022h-416l-320 1483h330l209 -1143h8l264 1143h338l273 -1149h10l192 1149h318z" />
    <glyph glyph-name="wacute" unicode="&#x1e83;" horiz-adv-x="1665" 
d="M1161 1522l-276 -351l-207 19l153 332h330zM674 0h-367l-315 1067h309l195 -750h4l188 750h303l189 -745h6l186 745h301l-317 -1067h-348l-172 696h-5z" />
    <glyph glyph-name="Wdieresis" unicode="&#x1e84;" horiz-adv-x="1974" 
d="M1411 1757q0 -78 -49 -124t-132 -46t-133 46t-50 124t50 125t133 47t132 -47t49 -125zM930 1757q0 -78 -50 -124t-132 -46t-134 46q-51 46 -51 124t51 125q52 47 134 47t132 -47t50 -125zM1640 0h-403l-240 1022h-8l-237 -1022h-416l-320 1483h330l209 -1143h8l264 1143
h338l273 -1149h10l192 1149h318z" />
    <glyph glyph-name="wdieresis" unicode="&#x1e85;" horiz-adv-x="1665" 
d="M1262 1391q0 -78 -50 -124t-132 -46q-83 0 -133 46t-50 124t50 125t133 47q82 0 132 -47t50 -125zM780 1391q0 -78 -50 -124t-132 -46t-133 46t-51 124t51 125t133 47t132 -47t50 -125zM674 0h-367l-315 1067h309l195 -750h4l188 750h303l189 -745h6l186 745h301
l-317 -1067h-348l-172 696h-5z" />
    <glyph glyph-name="Ygrave" unicode="&#x1ef2;" horiz-adv-x="1241" 
d="M590 1573l-299 303h332l186 -287zM795 0h-318v555l-514 928h346l326 -635h10l313 635h320l-483 -924v-559z" />
    <glyph glyph-name="ygrave" unicode="&#x1ef3;" horiz-adv-x="1077" 
d="M498 1171l-277 351h332l152 -332zM270 -457q-152 0 -241 45l22 224q102 -33 162 -33q106 0 152 115l32 83l-405 1090h334l223 -743h6l215 743h317q-242 -674 -423 -1171q-70 -195 -156 -274t-238 -79z" />
    <glyph glyph-name="thinspace" unicode="&#x2009;" horiz-adv-x="256" 
 />
    <glyph glyph-name="endash" unicode="&#x2013;" horiz-adv-x="1024" 
d="M1024 461h-1024v227h1024v-227z" />
    <glyph glyph-name="emdash" unicode="&#x2014;" horiz-adv-x="2048" 
d="M2048 461h-2048v227h2048v-227z" />
    <glyph glyph-name="quoteleft" unicode="&#x2018;" horiz-adv-x="446" 
d="M444 1595l-108 -477h-297l182 502z" />
    <glyph glyph-name="quoteright" unicode="&#x2019;" horiz-adv-x="446" 
d="M37 1108l108 477h297l-182 -502z" />
    <glyph glyph-name="quotesinglbase" unicode="&#x201a;" horiz-adv-x="438" 
d="M4 -283l109 478h297l-183 -502z" />
    <glyph glyph-name="quotedblleft" unicode="&#x201c;" horiz-adv-x="821" 
d="M444 1595l-108 -477h-297l182 502zM821 1595l-108 -477h-297l182 502z" />
    <glyph glyph-name="quotedblright" unicode="&#x201d;" horiz-adv-x="821" 
d="M37 1108l108 477h297l-182 -502zM410 1108l108 477h297l-182 -502z" />
    <glyph glyph-name="quotedblbase" unicode="&#x201e;" horiz-adv-x="817" 
d="M381 -283l108 478h297l-182 -502zM4 -283l109 478h297l-183 -502z" />
    <glyph glyph-name="dagger" unicode="&#x2020;" horiz-adv-x="901" 
d="M860 909l-307 31l39 -1110h-283l37 1112l-305 -33v250l305 -33l-31 357h271l-33 -355l307 31v-250z" />
    <glyph glyph-name="daggerdbl" unicode="&#x2021;" horiz-adv-x="913" 
d="M866 909l-305 31v-569l305 32v-249l-305 32l31 -356h-270l32 354l-307 -30v249l305 -30v569l-305 -33v250l305 -33l-30 357h270l-33 -355l307 31v-250z" />
    <glyph glyph-name="bullet" unicode="&#x2022;" horiz-adv-x="942" 
d="M780 572q0 -300 -309 -300t-309 299q0 150 80 226t229 75q309 0 309 -300z" />
    <glyph glyph-name="ellipsis" unicode="&#x2026;" horiz-adv-x="1478" 
d="M1222 338q190 0 191 -181q0 -181 -190 -181t-191 180q0 182 190 182zM936 157q0 -181 -190 -181t-191 180q1 182 191 182t190 -181zM449 157q-1 -181 -191 -181t-190 180q0 182 190 182t191 -181z" />
    <glyph glyph-name="perthousand" unicode="&#x2030;" horiz-adv-x="2181" 
d="M1690 311q0 -94 24 -133t77 -39q54 0 78 39q23 39 23 131t-23 129q-24 37 -77 37q-102 0 -102 -164zM1784 -25q-309 0 -309 324q0 166 83 254t240 88q309 0 309 -324q1 -162 -83 -252t-240 -90zM1101 139q54 0 78 39q23 39 23 131t-23 129q-24 37 -77 37
q-102 0 -103 -164q0 -94 24 -133t78 -39zM1094 -25q-309 0 -310 324q0 166 83 254t241 88q309 0 309 -324q1 -162 -83 -252t-240 -90zM391 1006q53 0 77 40t24 132t-23 130t-76 38q-104 0 -104 -166q1 -92 25 -133t77 -41zM422 -27h-272l897 1510h270zM383 844
q-309 0 -309 323q0 166 83 254t240 88q309 0 310 -323q0 -162 -84 -252t-240 -90z" />
    <glyph glyph-name="guilsinglleft" unicode="&#x2039;" horiz-adv-x="571" 
d="M500 211h-248l-176 315l182 310h250l-180 -301z" />
    <glyph glyph-name="guilsinglright" unicode="&#x203a;" horiz-adv-x="571" 
d="M63 836h250l183 -314l-179 -311h-245l172 313z" />
    <glyph glyph-name="fraction" unicode="&#x2044;" horiz-adv-x="376" 
d="M-43 -25h-285l725 1508h283z" />
    <glyph glyph-name="zerosuperior" unicode="&#x2070;" horiz-adv-x="880" 
d="M440 901q54 -1 74 59t21 224t-19 219t-72 55t-74 -55t-22 -220t20 -223t72 -59zM440 700q-194 0 -285 118t-92 368q0 471 386 471q197 0 283 -111q86 -112 85 -362q0 -250 -92 -367q-91 -117 -285 -117z" />
    <glyph glyph-name="foursuperior" unicode="&#x2074;" horiz-adv-x="884" 
d="M481 1108v307l-200 -307h200zM743 715h-262v188h-426v182l361 555h325v-532h107v-205h-105v-188z" />
    <glyph glyph-name="fivesuperior" unicode="&#x2075;" horiz-adv-x="841" 
d="M690 1640v-215h-366l-25 -184l4 -8q74 74 192 74q117 0 185 -72q68 -71 68 -217t-104 -232t-252 -86q-322 0 -353 258l229 39q8 -104 109 -104q47 0 77 32t29 87q0 111 -94 110q-59 0 -108 -49l-177 55l33 512h553z" />
    <glyph glyph-name="sixsuperior" unicode="&#x2076;" horiz-adv-x="880" 
d="M461 891q80 -1 80 111t-80 112q-52 0 -99 -47q2 -90 24 -133t75 -43zM485 1470q-61 0 -97 -66t-38 -200q76 80 194 80t192 -63q73 -63 73 -213t-99 -229t-257 -79q-356 0 -357 461q0 189 80 330q43 76 126 121t200 45q264 0 307 -236l-238 -49q-12 98 -86 98z" />
    <glyph glyph-name="sevensuperior" unicode="&#x2077;" horiz-adv-x="776" 
d="M63 1425v215h662v-194l-350 -731h-287l356 710h-381z" />
    <glyph glyph-name="eightsuperior" unicode="&#x2078;" horiz-adv-x="858" 
d="M547 1411q0 33 -27 52q-28 19 -70 19t-66 -18t-24 -49q0 -59 119 -106q68 45 68 102zM295 985q0 -45 33 -72t90 -26q106 0 106 82q1 76 -155 129q-74 -47 -74 -113zM815 991q-1 -121 -109 -206t-287 -85t-276 68q-96 68 -96 178q0 156 189 234q-152 59 -152 215
q0 125 101 193t259 69t247 -57t89 -160q1 -140 -159 -203q96 -39 145 -96t49 -150z" />
    <glyph glyph-name="ninesuperior" unicode="&#x2079;" horiz-adv-x="874" 
d="M422 1466q-80 0 -80 -114t84 -115q53 0 88 39q-6 100 -24 145t-68 45zM401 889q131 0 134 256q-80 -68 -196 -68q-116 -1 -191 63q-74 64 -74 212t103 227q103 78 277 78q334 0 332 -461q0 -187 -70 -325q-40 -79 -123 -125t-202 -46q-285 0 -328 238l238 61
q8 -53 30 -81t70 -29z" />
    <glyph glyph-name="plussuperior" unicode="&#x207a;" horiz-adv-x="907" 
d="M553 887h-203v176h-172v194h172v170h203v-170h174v-194h-174v-176z" />
    <glyph glyph-name="minussuperior" unicode="&#x207b;" horiz-adv-x="907" 
d="M721 1067h-533v193h533v-193z" />
    <glyph glyph-name="equalsuperior" unicode="&#x207c;" horiz-adv-x="911" 
d="M723 1155h-535v193h535v-193zM723 881h-535v192h535v-192z" />
    <glyph glyph-name="parenleftsuperior" unicode="&#x207d;" horiz-adv-x="598" 
d="M86 1111q0 294 221 577h262q-98 -130 -153 -260q-56 -130 -56 -298t54 -297t145 -266l-270 -2q-203 252 -203 546z" />
    <glyph glyph-name="parenrightsuperior" unicode="&#x207e;" horiz-adv-x="632" 
d="M514 1136q0 -292 -217 -571h-264q98 127 152 254q55 127 55 296t-54 299t-149 272l270 2q207 -260 207 -552z" />
    <glyph glyph-name="zeroinferior" unicode="&#x2080;" horiz-adv-x="880" 
d="M440 -115q54 -1 74 59t21 224t-19 219t-72 55t-74 -55t-22 -220t20 -223t72 -59zM449 641q197 0 283 -111q86 -112 85 -362q0 -250 -92 -366q-91 -116 -285 -117t-285 117t-92 368q0 471 386 471z" />
    <glyph glyph-name="oneinferior" unicode="&#x2081;" horiz-adv-x="671" 
d="M553 -305h-272v643q-29 -14 -100 -26t-107 -11l-11 213q199 14 291 107h199v-926z" />
    <glyph glyph-name="twoinferior" unicode="&#x2082;" horiz-adv-x="829" 
d="M426 641q154 0 234 -66t79 -174q0 -108 -60 -190t-218 -215l-66 -68v-8h359v-221h-670v221l199 199q109 109 146 161q38 52 38 97q0 70 -70 69q-88 0 -102 -116l-234 30q14 139 113 210q98 71 252 71z" />
    <glyph glyph-name="threeinferior" unicode="&#x2083;" horiz-adv-x="843" 
d="M483 -23q0 55 -26 79q-27 24 -90 24h-103v176h64q143 0 143 121q0 74 -78 74t-100 -97l-225 41q45 246 352 246q152 0 234 -57t83 -166q0 -154 -178 -221v-7q201 -41 201 -219q0 -135 -104 -211t-252 -76q-329 1 -359 255l234 43q10 -102 106 -103q98 0 98 98z" />
    <glyph glyph-name="fourinferior" unicode="&#x2084;" horiz-adv-x="884" 
d="M481 92v307l-200 -307h200zM743 -301h-262v188h-426v183l361 555h325v-533h107v-205h-105v-188z" />
    <glyph glyph-name="fiveinferior" unicode="&#x2085;" horiz-adv-x="841" 
d="M690 625v-215h-366l-25 -185l4 -8q74 74 192 74q117 0 185 -72q68 -71 68 -217t-104 -232t-252 -85q-323 0 -353 258l229 39q8 -104 109 -105q47 0 77 32t29 87q0 111 -94 110q-59 0 -108 -49l-177 56l33 512h553z" />
    <glyph glyph-name="sixinferior" unicode="&#x2086;" horiz-adv-x="880" 
d="M461 -125q80 0 80 112t-80 111q-52 0 -99 -47q2 -90 24 -133t75 -43zM544 268q118 0 192 -63q73 -63 73 -213t-99 -229t-257 -78q-356 0 -357 460q0 189 80 330q43 76 126 121t200 45q264 1 307 -235l-238 -50q-12 98 -86 99q-61 0 -97 -67t-38 -200q76 80 194 80z" />
    <glyph glyph-name="seveninferior" unicode="&#x2087;" horiz-adv-x="776" 
d="M63 410v215h662v-195l-350 -731h-287l356 711h-381z" />
    <glyph glyph-name="eightinferior" unicode="&#x2088;" horiz-adv-x="858" 
d="M547 395q0 33 -27 52q-28 19 -70 19t-66 -17q-24 -18 -24 -50q0 -59 119 -106q68 45 68 102zM295 -31q0 -45 33 -71t90 -27q106 0 106 82q1 76 -155 129q-74 -47 -74 -113zM815 -25q-1 -121 -109 -205t-287 -85q-179 0 -276 67q-96 68 -96 178q0 156 189 234
q-152 59 -152 215q0 125 101 193t259 69q158 0 247 -57t89 -160q1 -140 -159 -203q96 -39 145 -96t49 -150z" />
    <glyph glyph-name="nineinferior" unicode="&#x2089;" horiz-adv-x="874" 
d="M422 451q-80 0 -80 -115t84 -115q53 0 88 39q-6 100 -24 146t-68 45zM401 -127q131 0 134 256q-80 -68 -196 -68q-116 -1 -191 63q-74 64 -74 213t103 227t277 77q334 0 332 -461q0 -188 -70 -324q-40 -79 -123 -125t-202 -46q-285 -1 -328 237l238 62q8 -53 30 -82
t70 -29z" />
    <glyph glyph-name="parenleftinferior" unicode="&#x208d;" horiz-adv-x="598" 
d="M86 95q0 294 221 577h262q-98 -131 -153 -260q-56 -129 -56 -297q0 -167 54 -297t145 -267l-270 -2q-203 252 -203 546z" />
    <glyph glyph-name="parenrightinferior" unicode="&#x208e;" horiz-adv-x="632" 
d="M514 121q0 -291 -217 -572h-264q98 127 152 254q55 127 55 297t-54 299q-54 130 -149 271l270 2q207 -260 207 -551z" />
    <glyph glyph-name="Euro" unicode="&#x20ac;" horiz-adv-x="1320" 
d="M762 -25q-469 0 -551 506h-191l31 181h144v126h-127l30 181h115q47 262 195 402t385 140q465 0 487 -487l-270 -29q-10 145 -60 203t-159 59q-219 0 -271 -288h398l-31 -181h-383v-126h366l-30 -181h-316q27 -129 87 -189t169 -60t160 56q51 58 76 179l258 -45
q-43 -339 -347 -425q-79 -22 -165 -22z" />
    <glyph glyph-name="afii61352" unicode="&#x2116;" horiz-adv-x="2185" 
d="M1731 946q63 0 95 40t32 143t-30 143t-94 39q-64 0 -98 -39q-34 -38 -34 -142t33 -144t96 -40zM1739 1493q193 0 281 -95t89 -266q0 -172 -95 -272t-289 -100q-195 0 -285 97t-90 268t98 269t291 99zM1397 496v190h676v-190h-676zM1235 0h-365l-424 1030v-1030h-288v1483
h379l411 -1037v1037h287v-1483z" />
    <glyph glyph-name="trademark" unicode="&#x2122;" horiz-adv-x="1753" 
d="M489 1343v-630h-163v630h-242v140h649v-140h-244zM1618 713h-150v489l-182 -489h-129l-178 491v-489h-148v768h189l209 -582l211 582h178v-770z" />
    <glyph glyph-name="Omega" unicode="&#x2126;" horiz-adv-x="1699" 
d="M1159 266h377v-266h-588v449q60 27 102 51t93 70q104 97 103 297t-100 292q-100 92 -272 92t-275 -103q-103 -104 -103 -282t68 -268t198 -147v-451h-584v266h371v45q-379 141 -379 539q0 295 191 477t525 182t506 -166q171 -166 171 -462q0 -213 -113 -353t-291 -217
v-45z" />
    <glyph glyph-name="onethird" unicode="&#x2153;" horiz-adv-x="2072" 
d="M1573 381h-103v176h64q143 0 143 121q0 74 -78 74t-100 -97l-225 41q45 246 352 246q152 0 235 -57t83 -166q0 -154 -179 -221v-6q201 -41 201 -220q0 -135 -103 -211q-103 -75 -253 -75q-329 1 -359 254l234 43q10 -102 106 -103q98 0 99 99q0 55 -27 79t-90 23z
M586 571h-273v643q-29 -14 -99 -25t-108 -11l-10 213q199 14 291 106h199v-926zM758 -25h-285l725 1508h283z" />
    <glyph glyph-name="twothirds" unicode="&#x2154;" horiz-adv-x="2072" 
d="M1743 279q0 55 -27 79t-90 23h-102v176h63q143 0 144 121q0 74 -78 74t-101 -97l-225 41q45 246 352 246q152 0 235 -57t83 -166q0 -154 -178 -221v-6q201 -41 200 -220q0 -135 -103 -211q-102 -75 -252 -75t-247 58q-96 59 -112 196l233 43q10 -102 107 -103q98 0 98 99
zM422 1518q154 0 234 -66t79 -174q0 -108 -60 -190t-218 -216l-66 -67v-8h359v-222h-670v222l199 198q109 109 146 161q38 52 38 97q0 70 -70 70q-88 0 -102 -117l-234 31q14 139 113 210q98 71 252 71zM836 -25h-285l725 1508h283z" />
    <glyph glyph-name="partialdiff" unicode="&#x2202;" horiz-adv-x="1181" 
d="M565 635q-178 0 -178 -225q0 -86 37 -144q38 -58 110 -59q133 0 181 114q39 91 51 246q-111 68 -201 68zM542 1149q-140 0 -280 -107l-121 189q199 152 463 151q483 0 483 -620q0 -317 -109 -537q-58 -117 -171 -183t-270 -67q-217 0 -340 110q-123 109 -123 315t114 326
q115 120 289 120t305 -80q18 164 -41 274t-199 109z" />
    <glyph glyph-name="Delta" unicode="&#x2206;" horiz-adv-x="1464" 
d="M696 1157l-305 -903h608l-288 903h-15zM1446 0h-1428l529 1483h364z" />
    <glyph glyph-name="product" unicode="&#x220f;" horiz-adv-x="1613" 
d="M1401 1483v-1815h-316v1553h-561v-1553h-317v1815h1194z" />
    <glyph glyph-name="summation" unicode="&#x2211;" horiz-adv-x="1284" 
d="M1163 -84v-276h-1143v215l455 716l-436 725v187h1118v-248h-733l375 -647l-422 -672h786z" />
    <glyph glyph-name="minus" unicode="&#x2212;" 
d="M981 541h-793v243h793v-243z" />
    <glyph glyph-name="uni2215" unicode="&#x2215;" horiz-adv-x="929" 
d="M283 -35h-267l641 1327h265z" />
    <glyph glyph-name="uni2219" unicode="&#x2219;" horiz-adv-x="591" 
d="M292 809q190 0 191 -177q0 -177 -190 -177t-191 176q0 178 190 178z" />
    <glyph glyph-name="radical" unicode="&#x221a;" 
d="M776 0h-284l-250 432q-8 14 -25 10l-131 -34l-80 182l342 166l246 -461l328 1235l247 -66z" />
    <glyph glyph-name="infinity" unicode="&#x221e;" horiz-adv-x="1376" 
d="M976 551q60 0 89 33t29 80q0 111 -107 110q-33 0 -69 -20t-56 -38t-57 -54q35 -39 53 -57q58 -54 118 -54zM402 772q-52 0 -86 -32t-34 -79t32 -81q30 -34 83 -35q81 0 187 119q-53 56 -92 82q-38 26 -90 26zM385 369q-129 1 -213 73t-84 211t88 218t230 79t288 -145
q154 145 293 145t220 -74t81 -214t-85 -219t-214 -78q-162 -1 -303 149q-133 -145 -301 -145z" />
    <glyph glyph-name="integral" unicode="&#x222b;" horiz-adv-x="874" 
d="M614 1270q-95 0 -79 -140l106 -1220q16 -198 -128 -263q-75 -34 -180 -34q-104 0 -235 47l41 207q73 -37 131 -37t78 30t14 111l-108 1221q-8 86 18 148q45 102 169 136q48 13 100 13q127 0 258 -47l-41 -207q-76 35 -144 35z" />
    <glyph glyph-name="approxequal" unicode="&#x2248;" 
d="M340 709q72 0 264 -45q192 -46 231 -46q38 0 51 20t13 71l170 -9q16 -131 -35 -216t-166 -85q-78 0 -274 45t-232 45q-70 0 -57 -96l-182 6q-16 137 41 223t176 87zM340 1122q72 0 264 -45t231 -45q38 0 51 20t13 70l170 -8q16 -131 -35 -216t-166 -85q-78 0 -274 45
t-232 45q-70 0 -57 -96l-182 6q-16 137 41 223t176 86z" />
    <glyph glyph-name="notequal" unicode="&#x2260;" 
d="M188 506h254l56 141h-310v246h398l69 178h222l-72 -178h174v-246h-262l-55 -141h317v-246h-406l-69 -172h-219l69 172h-166v246z" />
    <glyph glyph-name="lessequal" unicode="&#x2264;" 
d="M975 0h-793v244h793v-244zM975 262l-793 281v288l793 289v-246l-541 -180l541 -182v-250z" />
    <glyph glyph-name="greaterequal" unicode="&#x2265;" 
d="M973 0h-793v244h793v-244zM975 545l-795 -281v248l543 182l-543 170v256l795 -289v-286z" />
    <glyph glyph-name="triangle" unicode="&#x25b3;" horiz-adv-x="870" 
d="M686 655l-379 -239v473z" />
    <glyph glyph-name="lozenge" unicode="&#x25ca;" 
d="M584 213l198 416l-198 401l-197 -401zM696 -35h-225l-317 664l317 663h225l318 -663z" />
    <glyph glyph-name="circle" unicode="&#x25cb;" horiz-adv-x="1249" 
d="M625 244q-174 0 -297 123t-123 297t123 297t297 123t297 -124q122 -122 122 -296t-122 -297t-297 -123z" />
    <glyph glyph-name="s_t" unicode="&#xfb06;" horiz-adv-x="1792" 
d="M526 1090q344 0 426 -283l-254 -80q-23 74 -63 110q-41 36 -121 35q-135 0 -135 -94q0 -53 50 -75q51 -21 153 -39t154 -32q156 -44 205 -145q30 -61 30 -151q0 -176 -131 -268t-334 -92t-317 77q-114 78 -142 215l252 82q23 -76 69 -119t144 -43q154 0 154 101
q0 55 -43 75t-145 37t-153 33q-164 49 -212 152q-31 63 -31 155q0 169 127 259t317 90zM1462 -25q-170 0 -255 83t-85 264v1060l310 41v-356h282v-225h-282v-477q0 -74 26 -109t110 -35q83 0 165 49l43 -219q-45 -29 -132 -53t-182 -23z" />
    <glyph glyph-name="CR" horiz-adv-x="1024" 
 />
    <glyph glyph-name="j.calt" horiz-adv-x="544" 
d="M465 1400q0 -89 -49 -139q-49 -51 -137 -51q-87 0 -137 50t-50 140q0 89 49 137t139 48t137 -48q48 -48 48 -137zM94 -457q-78 0 -133 17l21 231q30 -8 70 -8t56 33q15 33 15 104v1147h309v-1151q0 -195 -85 -284t-253 -89z" />
    <glyph glyph-name="hyphen.case" horiz-adv-x="641" 
d="M596 590h-555v264h555v-264z" />
    <glyph glyph-name="zero.osf" horiz-adv-x="1263" 
d="M632 215q122 0 177 92t55 289t-52 284t-173 87t-179 -91t-58 -285t54 -285t176 -91zM621 -25q-291 0 -419 162t-128 455t143 457q143 163 431 163t416 -156t128 -446q0 -635 -571 -635z" />
    <glyph glyph-name="one.osf" horiz-adv-x="903" 
d="M715 0h-307v823q-46 -27 -150 -45t-166 -18l-14 254q293 23 426 170h211v-1184z" />
    <glyph glyph-name="two.osf" horiz-adv-x="1101" 
d="M573 1212q205 0 316 -95t111 -249t-68 -247q-66 -94 -240 -218l-184 -131v-6h512v-266h-911v250l282 233q205 168 251 223t46 132q0 141 -147 141q-92 0 -132 -49t-59 -156l-270 53q65 385 493 385z" />
    <glyph glyph-name="three.osf" horiz-adv-x="1110" 
d="M520 70q203 0 203 172q0 94 -55 132t-174 38h-152v229h100q125 0 193 48t67 138q0 150 -163 150q-93 0 -139 -45t-66 -139l-262 53q70 367 493 366q213 0 328 -86t115 -254q0 -126 -78 -206t-185 -111v-6q133 -17 212 -101t79 -223q0 -195 -143 -295t-356 -100
q-453 0 -500 377l270 57q13 -98 63 -146t150 -48z" />
    <glyph glyph-name="four.osf" horiz-adv-x="1189" 
d="M690 385v530l-362 -530h362zM989 -137h-299v272h-637v219l559 830h377v-799h166v-250h-166v-272z" />
    <glyph glyph-name="five.osf" horiz-adv-x="1130" 
d="M950 1180v-265h-551l-30 -288q121 94 287 94t274 -109q106 -110 106 -320t-143 -336t-357 -126q-454 0 -503 373l272 53q29 -182 211 -182q94 0 154 54q59 54 59 160t-52 151q-52 46 -136 46q-115 0 -217 -102l-201 84l47 713h780z" />
    <glyph glyph-name="six.osf" horiz-adv-x="1181" 
d="M805 416q0 190 -164 190q-57 0 -119 -28t-104 -66q7 -219 99 -280q42 -28 118 -28t123 59q47 58 47 153zM647 1110q-125 0 -186 -106t-62 -283q129 113 313 113t290 -102t106 -316q0 -213 -140 -327t-360 -114q-283 0 -393 187q-111 187 -111 485q0 357 174 545
q62 68 162 110t228 41q348 1 426 -333l-269 -72q-18 88 -58 130t-120 42z" />
    <glyph glyph-name="seven.osf" horiz-adv-x="1087" 
d="M68 913v267h960v-240l-551 -1077h-325l557 1050h-641z" />
    <glyph glyph-name="eight.osf" horiz-adv-x="1153" 
d="M596 1133q-78 0 -125 -33q-47 -32 -47 -98t50 -103t151 -82q49 35 75 55t49 56q24 36 23 78q0 127 -176 127zM346 346q0 -147 212 -147t212 153q0 77 -81 124q-52 32 -181 81q-162 -94 -162 -211zM1098 377q0 -189 -146 -295t-394 -106q-247 0 -381 92q-134 94 -134 251
q0 125 66 208t202 147q-211 96 -211 303q0 166 142 267q142 102 358 102q215 0 334 -84t119 -210t-60 -196t-166 -129q133 -59 202 -141t69 -209z" />
    <glyph glyph-name="nine.osf" horiz-adv-x="1191" 
d="M788 662q-4 322 -202 321q-90 0 -136 -56t-47 -153q0 -209 162 -209q131 1 223 97zM500 342q-190 0 -294 104q-106 104 -106 318t140 334q140 119 358 119q502 0 502 -664q0 -721 -545 -721q-193 0 -313 85t-148 249l271 72q37 -176 198 -177q127 0 188 110
q60 110 60 280q-121 -109 -311 -109z" />
    <glyph glyph-name="dollar.osf" horiz-adv-x="1099" 
d="M544 1102q-179 0 -179 -144q-1 -70 65 -109q66 -40 180 -69q114 -28 167 -50q159 -63 208 -170q31 -67 31 -159q0 -166 -96 -265t-263 -126v-178h-260v180q-319 49 -342 381l252 39q21 -119 67 -174t171 -55q193 0 192 157q0 78 -62 114t-168 60t-152 40
q-123 40 -195 120t-72 226q0 147 88 241t236 127v178h262v-172q291 -45 309 -350l-256 -29q-10 99 -52 143t-131 44z" />
    <glyph glyph-name="Euro.osf" horiz-adv-x="1329" 
d="M778 1348q222 0 355 -111t145 -348l-279 -29q-10 132 -60 188t-159 56q-199 0 -254 -225h383l-30 -181h-375v-36q0 -51 2 -74h358l-30 -180h-302q55 -184 238 -185q106 0 158 51q51 51 73 164l271 -43q-29 -219 -174 -319t-334 -101q-461 0 -547 433h-203l31 180h152v110
h-138l31 181h129q47 221 191 345q146 124 368 124z" />
    <glyph glyph-name="cent.osf" horiz-adv-x="1085" 
d="M467 1296h260v-213q135 -25 219 -121t96 -245l-278 -41q-10 96 -45 140t-120 44t-138 -58t-53 -210t46 -224t141 -71q95 0 136 41t57 137l259 -47q-19 -148 -109 -240t-227 -118v-230h-260v230q-178 35 -270 164q-91 130 -91 334t99 338t278 173v217z" />
    <glyph glyph-name="sterling.osf" horiz-adv-x="1230" 
d="M66 240h118q94 98 95 209q0 57 -21 106h-197v213h132q-45 98 -46 188q1 170 133 279t353 109t339 -90q118 -89 154 -291l-270 -58q-16 101 -59 155t-156 54q-195 0 -195 -166q0 -82 52 -180h405v-213h-348q18 -49 18 -96q0 -123 -92 -219h215q123 0 172 43t68 155
l256 -43q-16 -207 -128 -301t-339 -94h-659v240z" />
    <glyph glyph-name="yen.osf" horiz-adv-x="1161" 
d="M743 567v-135h265v-182h-265v-250h-309v250h-260v182h260v135h-260v183h176l-334 544h334l244 -432h6l236 432h311l-328 -544h189v-183h-265z" />
    <glyph glyph-name="florin.osf" horiz-adv-x="1157" 
d="M139 -340q-272 0 -342 266l246 86q16 -68 42 -102t79 -33q53 0 80 30t39 99l110 590h-188l33 197h188l37 188q37 186 131 274t287 88q272 0 346 -264l-244 -88q-18 72 -42 106q-24 33 -76 33t-81 -30t-43 -101l-39 -206h271l-33 -197h-270l-107 -573q-33 -187 -129 -275
t-295 -88z" />
    <glyph glyph-name="afii61352.osf" horiz-adv-x="2105" 
d="M1659 739q63 0 95 40q32 39 32 143t-30 143t-94 39t-98 -39t-34 -142t33 -143t96 -41zM2038 925q0 -171 -95 -271t-289 -101q-194 0 -285 97q-91 96 -91 268t98 270t291 98t282 -95t89 -266zM1325 289v190h676v-190h-676zM1171 0h-358l-369 840v-840h-290v1282h378
l353 -856v856h286v-1282z" />
    <glyph glyph-name="percent.osf" horiz-adv-x="1818" 
d="M616 -33h-272l780 1309h271zM1403 147q63 -1 90 49t27 154t-26 150t-89 45q-119 0 -119 -195q0 -104 27 -154t90 -49zM1753 362q0 -180 -91 -284t-270 -103q-179 -1 -260 99t-81 271t90 272t270 102q342 0 342 -357zM352 700q63 0 90 50t27 153t-26 149t-89 46
q-119 0 -118 -195q0 -103 26 -153t90 -50zM702 915q0 -179 -91 -283t-270 -104t-260 100t-81 270q0 171 90 272t270 102q342 0 342 -357z" />
    <glyph glyph-name="perthousand.osf" horiz-adv-x="2308" 
d="M535 -33h-273l780 1309h271zM1925 139q53 0 77 40t24 131t-23 127t-76 36q-102 0 -102 -162q-1 -94 23 -133t77 -39zM1917 -25q-309 0 -309 324q0 166 83 254t240 88q309 0 310 -324q0 -162 -84 -252t-240 -90zM1235 139q53 0 77 40t24 131t-23 127t-76 36
q-102 0 -102 -162q-1 -94 23 -133t77 -39zM1227 -25q-309 0 -309 324q0 166 82 254q83 88 241 88q309 0 309 -324q0 -162 -84 -252t-239 -90zM354 768q53 0 77 40t24 131t-23 127t-76 36q-102 0 -102 -162q0 -94 24 -133t76 -39zM346 604q-309 0 -309 324q0 166 83 254
t240 88q309 0 310 -324q0 -162 -84 -252t-240 -90z" />
    <glyph glyph-name="zero.slash" 
d="M584 217q122 0 162 118q40 119 40 355t-12 350l-242 -817q21 -6 52 -6zM383 779q0 -255 14 -347l244 828q-23 6 -49 6q-123 0 -166 -116t-43 -371zM577 -25q-295 -1 -409 189t-115 577q0 387 124 577t418 191q295 0 407 -184t112 -573t-121 -583t-416 -194z" />
    <glyph glyph-name="zero.tf" 
d="M584 217q122 0 162 118t40 413q0 294 -38 406t-158 112q-121 0 -164 -116t-43 -408t40 -408t161 -117zM577 -25q-295 -1 -409 189t-115 577q0 387 124 577t418 191q295 0 407 -184t112 -573t-121 -583t-416 -194z" />
    <glyph glyph-name="one.tf" 
d="M197 0v266h292v848q-47 -25 -152 -44t-165 -19l-14 262q293 23 428 170h211v-1217h254v-266h-854z" />
    <glyph glyph-name="two.tf" 
d="M598 1509q217 0 331 -99t113 -284q0 -150 -70 -272t-249 -315l-242 -267v-6h584v-266h-946v258l317 371q188 217 242 301t53 180q0 156 -166 156q-94 0 -140 -54t-63 -165l-278 47q25 211 161 313t353 102z" />
    <glyph glyph-name="three.tf" 
d="M530 215q96 0 155 55q58 55 58 168t-59 162t-180 49h-146v234h97q129 0 199 60t69 165q0 164 -168 164q-92 0 -138 -45t-67 -140l-266 54q37 195 172 281t338 87q202 0 318 -94t116 -266q0 -135 -81 -223t-197 -127v-8q309 -72 309 -371q-1 -205 -143 -325t-359 -120
t-351 92t-157 291l277 52q12 -98 60 -146t144 -49z" />
    <glyph glyph-name="four.tf" 
d="M666 582v624l-363 -624h363zM965 0h-299v332h-621v219l545 932h377v-901h149v-250h-151v-332z" />
    <glyph glyph-name="five.tf" 
d="M979 1483v-266h-555l-35 -371q113 98 286 98t281 -112t109 -346q0 -236 -143 -373t-387 -138q-195 1 -326 91t-158 290l268 56q27 -193 216 -193q96 0 159 66t64 194q0 227 -197 228q-115 0 -217 -99l-201 84l56 791h780z" />
    <glyph glyph-name="six.tf" 
d="M600 211q86 0 132 67q46 68 46 182t-40 167t-142 53t-207 -92q3 -115 17 -189t61 -131t133 -57zM629 1270q-83 0 -143 -73q-111 -134 -113 -398q127 113 314 113t296 -110t109 -319q0 -250 -140 -379t-364 -129q-294 0 -410 214q-104 195 -102 516q0 405 173 622
q63 80 169 131t241 51q352 0 424 -344l-274 -75q-16 100 -57 140t-123 40z" />
    <glyph glyph-name="seven.tf" 
d="M117 1217v266h973v-238l-566 -1247h-327l571 1219h-651z" />
    <glyph glyph-name="eight.tf" 
d="M594 1286q-82 0 -132 -38t-50 -108t51 -124q51 -52 160 -105q156 94 155 228q0 147 -184 147zM338 395q0 -184 223 -184q109 0 166 51q57 50 57 116t-20 105q-42 83 -252 162q-84 -47 -129 -104t-45 -146zM554 -25q-255 0 -387 111t-132 276q0 268 284 398
q-227 109 -227 342q0 190 139 299t367 109t353 -95q124 -94 124 -252q-1 -119 -61 -201t-185 -155q152 -70 219 -160t66 -241q0 -182 -152 -307q-153 -124 -408 -124z" />
    <glyph glyph-name="nine.tf" 
d="M561 1272q-182 0 -182 -236t176 -237q115 0 213 92q-8 176 -34 251q-27 74 -69 102t-104 28zM522 211q127 0 194 132t70 337q-121 -106 -313 -106t-300 109q-107 111 -107 341t143 358t371 127q287 0 400 -214q103 -196 101 -515q0 -805 -567 -805q-398 1 -461 353
l275 82q18 -104 64 -152t130 -47z" />
    <glyph glyph-name="dollar.tf" 
d="M588 1217q-94 0 -139 -40t-45 -116t62 -123q64 -48 171 -76t154 -44t110 -51q189 -102 189 -348q0 -171 -111 -283t-289 -140v-164h-262v164q-340 45 -379 410l270 51q19 -125 71 -179t166 -54q230 -1 230 165q0 70 -54 119q-19 18 -66 38t-139 44q-185 50 -300 129
q-137 95 -137 307q0 164 98 269t256 143v184h261v-182q330 -41 352 -385l-275 -33q-14 100 -57 148t-137 47z" />
    <glyph glyph-name="Euro.tf" 
d="M629 -25q-240 0 -369 128t-164 393h-166l31 180h121v106h-107l31 181h92q42 266 186 407t375 141q465 0 488 -487l-270 -29q-9 145 -59 203t-161 59q-211 0 -254 -294h402l-31 -181h-383v-106h369l-31 -180h-323q20 -136 76 -200t165 -64t160 56q51 58 76 179l258 -45
q-43 -339 -347 -425q-79 -22 -165 -22z" />
    <glyph glyph-name="cent.tf" 
d="M481 1456h260v-213q135 -25 219 -121t97 -245l-279 -41q-10 96 -45 140t-119 44t-138 -58t-54 -210t46 -224t142 -72t136 42q40 41 57 137l258 -47q-19 -148 -109 -240t-227 -119v-229h-260v229q-178 35 -269 165q-92 130 -92 334t100 338t277 173v217z" />
    <glyph glyph-name="sterling.tf" 
d="M16 246h121q76 66 108 122q67 117 -3 271h-197v225h133q-82 143 -82 248q0 178 138 288t360 110t342 -93q119 -92 149 -299l-274 -47q-16 101 -59 155t-146 54q-188 0 -188 -172q0 -80 82 -244h395v-225h-338q23 -57 23 -123q0 -147 -125 -270h215q123 0 170 41t65 153
l260 -45q-16 -207 -128 -301t-339 -94h-682v246z" />
    <glyph glyph-name="yen.tf" 
d="M999 854v-192h-264v-142h264v-192h-264v-328h-309v328h-260v192h260v142h-260v192h170l-326 629h332l244 -518h8l235 518h310l-320 -629h180z" />
    <glyph glyph-name="florin.tf" 
d="M88 -371q-279 0 -348 267l246 86q16 -68 42 -102t78 -34t79 29q26 29 40 100l142 744h-189l33 199h190l45 227q38 188 132 276t284 88q274 0 346 -264l-243 -88q-16 70 -41 105q-25 34 -77 34t-81 -30t-41 -101l-47 -247h268l-31 -199h-270l-139 -727q-35 -188 -129 -276
t-289 -87z" />
    <glyph glyph-name="zeroslash.tosf" 
d="M375 602q0 -194 33 -276l196 647h-12q-117 0 -167 -88q-50 -89 -50 -283zM584 209q112 0 160 90q48 89 48 283t-32 280l-193 -653h17zM573 -25q-291 0 -409 160t-119 461q0 616 551 616q288 0 406 -154t118 -455q0 -300 -128 -464t-419 -164z" />
    <glyph glyph-name="zero.tosf" 
d="M582 209q114 0 162 90t48 298t-43 292q-44 84 -159 84t-165 -88t-50 -293t46 -294t161 -89zM573 -25q-291 0 -409 160t-119 461q0 616 551 616q288 0 406 -154t118 -455q0 -300 -128 -464t-419 -164z" />
    <glyph glyph-name="one.tosf" 
d="M223 0v266h279v557q-46 -27 -150 -45t-166 -18l-14 254q293 23 426 170h211v-918h233v-266h-819z" />
    <glyph glyph-name="two.tosf" 
d="M608 1212q205 0 316 -95q110 -95 110 -249t-66 -247q-66 -94 -241 -218l-184 -131v-6h512v-266h-912v250l283 233q205 168 251 223t46 132q0 141 -148 141q-92 0 -132 -49t-58 -156l-270 53q65 385 493 385z" />
    <glyph glyph-name="three.tosf" 
d="M549 70q203 0 203 172q0 94 -56 132t-174 38h-151v229h100q125 0 193 48t67 138q0 150 -164 150q-92 0 -138 -45t-67 -139l-262 53q70 367 494 366q213 0 328 -86t114 -254q0 -126 -78 -206t-184 -111v-6q133 -17 212 -101t79 -223q0 -195 -143 -295t-356 -100t-345 89
q-130 89 -155 288l270 57q12 -98 62 -146t151 -48z" />
    <glyph glyph-name="four.tosf" 
d="M668 385v530l-346 -530h346zM967 -137h-299v272h-607v219l531 830h377v-799h151v-250h-153v-272z" />
    <glyph glyph-name="five.tosf" 
d="M989 1180v-265h-551l-30 -288q122 94 288 94t272 -109q106 -110 107 -320q0 -210 -143 -336q-142 -126 -356 -126q-454 0 -504 373l272 53q29 -182 211 -182q94 0 154 54q59 54 59 160t-52 151q-52 46 -136 46q-115 0 -218 -102l-200 84l47 713h780z" />
    <glyph glyph-name="six.tosf" 
d="M629 606q-57 0 -119 -28t-104 -66q7 -220 99 -280q41 -28 117 -28t123 59q47 58 48 153q0 190 -164 190zM635 1110q-125 0 -186 -106t-62 -283q129 113 313 113t290 -102t106 -316q0 -213 -140 -327t-360 -114q-285 0 -394 187q-110 187 -110 485q0 355 173 545
q63 68 163 110t227 41q348 1 426 -333l-268 -72q-18 88 -58 130t-120 42z" />
    <glyph glyph-name="seven.tosf" 
d="M117 913v267h960v-240l-551 -1077h-325l557 1050h-641z" />
    <glyph glyph-name="eight.tosf" 
d="M608 1133q-78 0 -125 -33q-47 -32 -47 -98t50 -103t151 -82q49 35 75 55t50 56t22 78q0 127 -176 127zM358 346q0 -147 212 -147t212 153q0 77 -81 124q-52 32 -181 81q-162 -94 -162 -211zM1110 377q0 -189 -146 -295t-394 -106t-381 92q-134 94 -134 251q0 125 66 208
t203 147q-211 96 -211 303q0 166 142 267q142 102 357 102t334 -84t119 -210q1 -126 -59 -196t-166 -129q134 -59 202 -141t68 -209z" />
    <glyph glyph-name="nine.tosf" 
d="M379 774q0 -209 162 -209q131 1 223 97q-4 322 -203 321q-90 0 -136 -56t-46 -153zM476 342q-189 0 -295 104q-105 104 -105 318t140 334q140 119 357 119q502 0 502 -664q0 -721 -545 -721q-193 0 -313 85t-147 249l270 72q37 -176 199 -177q127 0 187 110t60 280
q-121 -109 -310 -109z" />
    <glyph glyph-name="dollar.tosf" 
d="M585 1102q-179 0 -179 -144q0 -70 66 -109q66 -40 178 -69q114 -28 168 -50q159 -63 208 -170q31 -67 31 -159q0 -166 -96 -265t-263 -126v-178h-260v180q-319 49 -342 381l252 39q20 -119 66 -174t172 -55q193 0 192 157q0 78 -62 114t-168 60t-152 40q-123 40 -195 120
t-72 226q0 147 88 241t236 127v178h262v-172q291 -45 309 -350l-256 -29q-10 99 -52 143t-131 44z" />
    <glyph glyph-name="Euro.tosf" 
d="M418 698v-106h330l-33 -180h-277q23 -98 76 -144t148 -45q95 0 141 51q45 51 67 164l273 -43q-29 -221 -166 -320t-322 -100q-235 0 -361 111t-165 326h-180l31 180h131v106h-117l31 181h106q45 223 182 346t353 123t344 -111q127 -111 137 -348l-277 -29
q-12 128 -55 186t-145 58q-184 0 -234 -225h357l-33 -181h-342z" />
    <glyph glyph-name="cent.tosf" 
d="M494 1296h260v-213q135 -25 219 -121t96 -245l-278 -41q-9 96 -45 140t-120 44t-138 -58t-54 -210t46 -224t142 -71q96 0 136 41q41 41 57 137l258 -47q-20 -148 -109 -240t-227 -118v-230h-260v230q-178 34 -269 164t-91 334t99 338t278 173v217z" />
    <glyph glyph-name="sterling.tosf" 
d="M25 240h118q94 98 95 209q0 57 -21 106h-197v213h132q-45 98 -46 188q0 170 132 279t354 109q221 0 339 -90q118 -89 154 -291l-270 -58q-16 101 -59 155t-156 54q-195 0 -194 -166q0 -82 51 -180h405v-213h-348q18 -49 18 -96q0 -123 -92 -219h215q123 0 172 43t68 155
l256 -43q-16 -207 -128 -301t-339 -94h-659v240z" />
    <glyph glyph-name="yen.tosf" 
d="M748 567v-135h264v-182h-264v-250h-310v250h-260v182h260v135h-260v183h176l-334 544h334l244 -432h6l236 432h311l-328 -544h189v-183h-264z" />
    <glyph glyph-name="florin.tosf" 
d="M147 -340q-272 0 -342 266l246 86q16 -68 42 -102t79 -33q53 0 80 30t39 99l110 590h-188l33 197h188l37 188q37 186 131 274t287 88q272 0 346 -264l-244 -88q-18 72 -42 106q-24 33 -76 33q-53 0 -81 -30t-42 -101l-39 -206h270l-33 -197h-270l-107 -573
q-33 -187 -129 -275t-295 -88z" />
    <glyph glyph-name="idotaccent" horiz-adv-x="548" 
d="M465 1395q0 -89 -49 -139t-137 -50t-138 49q-49 49 -49 139t48 138q48 49 138 49t138 -49q49 -49 49 -137zM432 1067v-1067h-309v1067h309z" />
    <glyph glyph-name="jcircumflex.calt" horiz-adv-x="544" 
d="M637 1190l-205 -10l-149 192l-156 -194l-207 12l215 336h295zM94 -457q-78 0 -133 17l21 231q30 -8 70 -8t56 33q15 33 15 104v1147h309v-1151q0 -195 -85 -284t-253 -89z" />
    <glyph glyph-name="s_p" horiz-adv-x="2211" 
d="M526 1090q344 0 426 -283l-254 -80q-23 74 -63 110q-41 36 -121 35q-135 0 -135 -94q0 -53 50 -75q51 -21 153 -39t154 -32q156 -44 205 -145q30 -61 30 -151q0 -176 -131 -268t-334 -92t-317 77q-114 78 -142 215l252 82q23 -76 69 -119t144 -43q154 0 154 101
q0 55 -43 75t-145 37t-153 33q-164 49 -212 152q-31 63 -31 155q0 169 127 259t317 90zM1612 223q201 0 200 326q0 159 -46 227t-144 68t-197 -82v-467q27 -25 81 -49t106 -23zM1120 -434v1501h262l19 -109q131 132 325 132t302 -127t108 -416t-121 -430t-302 -141t-294 102
v-512h-299z" />
    <glyph glyph-name="c_t" horiz-adv-x="1888" 
d="M584 -25q-258 1 -386 147t-128 407t142 411t402 150q195 0 313 -106t132 -298l-277 -41q-10 107 -49 157t-132 50t-150 -66t-57 -240t52 -252q52 -77 150 -77t145 47t62 148l260 -50q-27 -195 -155 -291t-324 -96zM1559 -25q-170 0 -255 83t-85 264v1060l309 41v-356h282
v-225h-282v-477q0 -74 26 -109t110 -35q83 0 165 49l43 -219q-45 -29 -132 -53t-181 -23z" />
    <glyph glyph-name="c_h" horiz-adv-x="2297" 
d="M584 -25q-258 1 -386 147t-128 407t142 411t402 150q195 0 313 -106t132 -298l-277 -41q-10 107 -49 157t-132 50t-150 -66t-57 -240t52 -252q52 -77 150 -77t145 47t62 148l260 -50q-27 -195 -155 -291t-324 -96zM2187 729v-729h-309v674q0 164 -141 164
q-115 0 -209 -84v-754h-309v1546h307v-577q154 121 328 121t253 -88q80 -88 80 -273z" />
    <glyph glyph-name="c_k" horiz-adv-x="2248" 
d="M1524 1546v-852l352 373h342l-354 -383l381 -684h-342l-277 487l-102 -100v-387h-310v1546h310zM584 -25q-258 1 -386 147t-128 407t142 411t402 150q195 0 313 -106t132 -298l-277 -41q-10 107 -49 157t-132 50t-150 -66t-57 -240t52 -252q52 -77 150 -77t145 47t62 148
l260 -50q-27 -195 -155 -291t-324 -96z" />
    <glyph glyph-name="T_h" horiz-adv-x="2240" 
d="M2130 729v-729h-309v674q0 164 -140 164q-117 0 -211 -84v-754h-309v1217h-391v-1217h-317v1217h-437v266h1145v63h307v-579q142 123 322 123t260 -88t80 -273z" />
    <glyph glyph-name="a.smcp" horiz-adv-x="1224" 
d="M725 477l-127 391h-6l-127 -391h260zM408 1147h376l428 -1147h-335l-91 238h-366l-82 -238h-318z" />
    <glyph glyph-name="b.smcp" horiz-adv-x="1093" 
d="M426 688h57q100 0 154 26q53 26 53 89t-28 89q-29 26 -61 30t-89 4h-86v-238zM426 217h96q100 0 148 26q47 27 47 103t-47 102t-133 25h-111v-256zM588 0h-469v1147h506q365 0 364 -279q0 -106 -61 -173t-158 -95v-4q272 -29 272 -279q0 -165 -122 -241t-332 -76z" />
    <glyph glyph-name="c.smcp" horiz-adv-x="1185" 
d="M68 565q0 272 151 437q152 165 436 165q219 0 349 -104t139 -322l-279 -26q-8 117 -58 165t-155 48q-264 0 -264 -350q-1 -190 63 -272t182 -83q118 0 167 48t69 137l273 -43q-15 -135 -99 -225q-148 -158 -407 -158q-567 0 -567 583z" />
    <glyph glyph-name="d.smcp" horiz-adv-x="1228" 
d="M428 233h94q182 -1 254 87t72 268t-71 252t-234 71h-115v-678zM539 0h-420v1147h446q303 1 449 -145t147 -415t-155 -428t-467 -159z" />
    <glyph glyph-name="e.smcp" horiz-adv-x="1005" 
d="M428 449v-201h518v-248h-827v1147h790v-244h-481v-217h455v-237h-455z" />
    <glyph glyph-name="f.smcp" horiz-adv-x="954" 
d="M428 428v-428h-309v1147h784v-244h-475v-237h436v-238h-436z" />
    <glyph glyph-name="g.smcp" horiz-adv-x="1257" 
d="M68 562q0 272 152 438t439 167q459 0 488 -409l-285 -27q-18 197 -207 197q-266 0 -266 -348q0 -182 57 -274t203 -91q104 0 156 47q51 47 51 111v26h-168v207h475v-606h-223l-31 133q-39 -74 -131 -113t-203 -38q-259 0 -383 154t-124 426z" />
    <glyph glyph-name="h.smcp" horiz-adv-x="1251" 
d="M1130 1147v-1147h-307v438h-395v-438h-309v1147h309v-449h395v449h307z" />
    <glyph glyph-name="i.smcp" horiz-adv-x="546" 
d="M428 1147v-1147h-309v1147h309z" />
    <glyph glyph-name="j.smcp" horiz-adv-x="935" 
d="M518 324v823h307v-809q0 -170 -103 -263q-104 -93 -290 -93t-290 76q-103 77 -109 268l295 43q4 -57 10 -85t29 -51t61 -22q90 0 90 113z" />
    <glyph glyph-name="k.smcp" horiz-adv-x="1169" 
d="M426 0h-307v1147h307l2 -465l406 465h342l-422 -469l399 -678h-358l-263 446l-106 -110v-336z" />
    <glyph glyph-name="l.smcp" horiz-adv-x="987" 
d="M428 1147v-893h500v-254h-809v1147h309z" />
    <glyph glyph-name="m.smcp" horiz-adv-x="1562" 
d="M1444 1147v-1147h-285v852h-12l-242 -852h-266l-229 856h-11v-856h-280v1147h456l203 -766h13l198 766h455z" />
    <glyph glyph-name="n.smcp" horiz-adv-x="1265" 
d="M1147 0h-348l-400 731v-731h-280v1147h360l391 -739v739h277v-1147z" />
    <glyph glyph-name="o.smcp" horiz-adv-x="1292" 
d="M649 225q258 0 258 348q0 183 -62 267t-186 84q-272 0 -272 -353q-1 -186 65 -266t197 -80zM637 -18q-293 0 -431 156t-138 425q0 268 154 436q155 168 441 168q285 1 423 -161t138 -434t-146 -430q-148 -160 -441 -160z" />
    <glyph glyph-name="p.smcp" horiz-adv-x="1064" 
d="M426 580h68q197 0 196 178q0 94 -48 125t-134 30h-82v-333zM426 348v-348h-307v1147h487q213 -1 306 -105t94 -260q0 -210 -119 -322t-357 -112h-104z" />
    <glyph glyph-name="q.smcp" horiz-adv-x="1292" 
d="M651 215q55 0 88 12l-166 172l158 146l154 -174q27 80 26 202q0 350 -252 351q-272 0 -272 -354t264 -355zM633 -18q-287 0 -426 158t-139 424q0 267 154 435q155 168 441 168q285 1 423 -161t138 -413t-137 -413l136 -139l-158 -137l-139 141q-109 -63 -293 -63z" />
    <glyph glyph-name="r.smcp" horiz-adv-x="1110" 
d="M426 643h86q188 0 188 148q0 123 -168 122h-106v-270zM426 416v-416h-307v1147h495q208 0 306 -92t98 -236q0 -234 -195 -330l262 -489h-333l-215 416h-111z" />
    <glyph glyph-name="s.smcp" horiz-adv-x="1028" 
d="M512 950q-145 0 -145 -98q0 -55 63 -88q62 -32 152 -54t180 -53t153 -107t64 -192q0 -188 -137 -282t-360 -94t-340 97q-46 39 -80 109t-37 164l274 45q14 -92 58 -141t153 -49q164 0 164 112q0 49 -45 80t-113 44t-146 37t-145 55q-69 31 -113 101t-44 173
q0 170 128 264t324 94q422 0 441 -342l-277 -28q-4 81 -44 117t-128 36z" />
    <glyph glyph-name="t.smcp" horiz-adv-x="1054" 
d="M682 0h-307v895h-348v252h1001v-252h-346v-895z" />
    <glyph glyph-name="u.smcp" horiz-adv-x="1200" 
d="M412 479q0 -137 36 -197t152 -59q115 -1 152 55t36 193v676h306v-719q0 -229 -133 -338q-133 -108 -378 -108t-362 108t-117 346v711h308v-668z" />
    <glyph glyph-name="v.smcp" horiz-adv-x="1163" 
d="M795 0h-414l-379 1147h348l242 -854h10l246 854h313z" />
    <glyph glyph-name="w.smcp" horiz-adv-x="1691" 
d="M1409 0h-391l-164 709h-8l-158 -709h-412l-251 1147h319l150 -836h8l190 836h324l196 -836h13l133 836h309z" />
    <glyph glyph-name="x.smcp" horiz-adv-x="1132" 
d="M1116 1147l-371 -572l385 -575h-356l-225 334l-217 -334h-330l383 578l-365 569h342l218 -350l219 350h317z" />
    <glyph glyph-name="y.smcp" horiz-adv-x="1069" 
d="M702 0h-309v424l-416 723h334l236 -455h10l225 455h310l-390 -721v-426z" />
    <glyph glyph-name="z.smcp" horiz-adv-x="1013" 
d="M961 246v-246h-906v213l531 690h-518v244h872v-219l-516 -682h537z" />
    <glyph glyph-name="thorn.smcp" horiz-adv-x="1064" 
d="M426 457h59q182 0 183 153q0 139 -168 140h-74v-293zM426 225v-225h-307v1147h307v-164h158q207 0 303 -99t96 -245q0 -201 -119 -307t-356 -107h-82z" />
    <glyph glyph-name="agrave.smcp" horiz-adv-x="1224" 
d="M553 1243l-277 350h332l152 -331zM725 477l-127 391h-6l-127 -391h260zM408 1147h376l428 -1147h-335l-91 238h-366l-82 -238h-318z" />
    <glyph glyph-name="aacute.smcp" horiz-adv-x="1224" 
d="M915 1593l-276 -350l-207 19l154 331h329zM725 477l-127 391h-6l-127 -391h260zM408 1147h376l428 -1147h-335l-91 238h-366l-82 -238h-318z" />
    <glyph glyph-name="acircumflex.smcp" horiz-adv-x="1224" 
d="M950 1262l-205 -11l-149 193l-156 -195l-207 13l216 335h294zM725 477l-127 391h-6l-127 -391h260zM408 1147h376l428 -1147h-335l-91 238h-366l-82 -238h-318z" />
    <glyph glyph-name="atilde.smcp" horiz-adv-x="1224" 
d="M436 1571q72 0 167 -45t133 -45t51 19t14 71l155 -8q16 -129 -32 -209t-154 -80q-78 0 -176 45t-135 45q-70 0 -58 -96l-168 6q-16 133 40 215q57 82 163 82zM725 477l-127 391h-6l-127 -391h260zM408 1147h376l428 -1147h-335l-91 238h-366l-82 -238h-318z" />
    <glyph glyph-name="adieresis.smcp" horiz-adv-x="1224" 
d="M1016 1462q0 -78 -49 -124t-132 -46t-134 46q-50 46 -50 124t50 125q49 47 133 47t133 -47t49 -125zM535 1462q-1 -78 -51 -124t-132 -46t-133 46t-51 124t51 125t133 47t132 -47t51 -125zM725 477l-127 391h-6l-127 -391h260zM408 1147h376l428 -1147h-335l-91 238h-366
l-82 -238h-318z" />
    <glyph glyph-name="aring.smcp" horiz-adv-x="1224" 
d="M594 1196q92 0 92 94q0 43 -24 66q-25 22 -66 22t-68 -24t-26 -66q0 -92 92 -92zM725 477l-127 391h-6l-127 -391h260zM829 1297q0 -97 -47 -150h2l428 -1147h-335l-91 238h-366l-82 -238h-318l386 1145q-46 55 -46 149t68 154t168 61q100 0 167 -57q66 -58 66 -155z" />
    <glyph glyph-name="aringacute.smcp" horiz-adv-x="1224" 
d="M594 1196q92 0 92 94q0 43 -24 66q-25 22 -66 22t-68 -24t-26 -66q0 -92 92 -92zM725 477l-127 391h-6l-127 -391h260zM958 1843l-299 -303l-219 16l187 287h331zM829 1297q0 -97 -47 -150h2l428 -1147h-335l-91 238h-366l-82 -238h-318l386 1145q-46 55 -46 149t68 154
t168 61q100 0 167 -57q66 -58 66 -155z" />
    <glyph glyph-name="ccedilla.smcp" horiz-adv-x="1185" 
d="M535 -346q102 0 102 76q0 45 -31 59t-100 16l22 183q-461 49 -460 577q0 272 151 437q152 165 436 165q219 0 349 -104t139 -322l-279 -26q-8 117 -58 165t-155 48q-264 0 -264 -350q-1 -190 63 -272t182 -83q118 0 167 48t69 137l273 -43q-25 -183 -157 -277t-306 -104
l-10 -76q174 -31 174 -189q0 -109 -75 -165t-181 -58q-106 0 -180 29l30 143q57 -14 99 -14z" />
    <glyph glyph-name="egrave.smcp" horiz-adv-x="1005" 
d="M485 1243l-276 350h332l151 -331zM428 449v-201h518v-248h-827v1147h790v-244h-481v-217h455v-237h-455z" />
    <glyph glyph-name="eacute.smcp" horiz-adv-x="1005" 
d="M848 1593l-277 -350l-206 19l153 331h330zM428 449v-201h518v-248h-827v1147h790v-244h-481v-217h455v-237h-455z" />
    <glyph glyph-name="ecircumflex.smcp" horiz-adv-x="1005" 
d="M883 1262l-205 -11l-150 193l-155 -195l-207 13l215 335h295zM428 449v-201h518v-248h-827v1147h790v-244h-481v-217h455v-237h-455z" />
    <glyph glyph-name="edieresis.smcp" horiz-adv-x="1005" 
d="M948 1462q0 -78 -49 -124t-132 -46t-133 46t-50 124t50 125t133 47t132 -47t49 -125zM467 1462q0 -78 -50 -124t-132 -46t-133 46t-52 124q0 78 52 125t133 47q82 0 132 -47t50 -125zM428 449v-201h518v-248h-827v1147h790v-244h-481v-217h455v-237h-455z" />
    <glyph glyph-name="igrave.smcp" horiz-adv-x="546" 
d="M231 1243l-276 350h332l151 -331zM428 1147v-1147h-309v1147h309z" />
    <glyph glyph-name="iacute.smcp" horiz-adv-x="546" 
d="M594 1593l-277 -350l-206 19l153 331h330zM428 1147v-1147h-309v1147h309z" />
    <glyph glyph-name="icircumflex.smcp" horiz-adv-x="546" 
d="M629 1262l-205 -11l-150 193l-155 -195l-207 13l215 335h295zM428 1147v-1147h-309v1147h309z" />
    <glyph glyph-name="idieresis.smcp" horiz-adv-x="546" 
d="M694 1462q0 -78 -49 -124t-132 -46t-133 46t-50 124t50 125t133 47t132 -47t49 -125zM213 1462q0 -78 -50 -124t-132 -46t-133 46t-52 124q0 78 52 125t133 47q82 0 132 -47t50 -125zM428 1147v-1147h-309v1147h309z" />
    <glyph glyph-name="eth.smcp" horiz-adv-x="1228" 
d="M428 233h94q182 -1 254 87t72 268t-71 252t-234 71h-115v-225h236v-217h-236v-236zM539 0h-420v469h-127v217h127v461h446q303 1 449 -145t147 -415t-155 -428t-467 -159z" />
    <glyph glyph-name="ntilde.smcp" horiz-adv-x="1265" 
d="M473 1571q72 0 167 -45t133 -45t51 19t14 71l155 -8q17 -129 -31 -209t-155 -80q-78 0 -176 45t-135 45q-70 0 -58 -96l-168 6q-16 133 40 215q57 82 163 82zM1147 0h-348l-400 731v-731h-280v1147h360l391 -739v739h277v-1147z" />
    <glyph glyph-name="ograve.smcp" horiz-adv-x="1292" 
d="M621 1243l-277 350h332l151 -331zM649 225q258 0 258 348q0 183 -62 267t-186 84q-272 0 -272 -353q-1 -186 65 -266t197 -80zM637 -18q-293 0 -431 156t-138 425q0 268 154 436q155 168 441 168q285 1 423 -161t138 -434t-146 -430q-148 -160 -441 -160z" />
    <glyph glyph-name="oacute.smcp" horiz-adv-x="1292" 
d="M983 1593l-276 -350l-207 19l153 331h330zM649 225q258 0 258 348q0 183 -62 267t-186 84q-272 0 -272 -353q-1 -186 65 -266t197 -80zM637 -18q-293 0 -431 156t-138 425q0 268 154 436q155 168 441 168q285 1 423 -161t138 -434t-146 -430q-148 -160 -441 -160z" />
    <glyph glyph-name="ocircumflex.smcp" horiz-adv-x="1292" 
d="M1018 1262l-205 -11l-149 193l-156 -195l-207 13l215 335h295zM649 225q258 0 258 348q0 183 -62 267t-186 84q-272 0 -272 -353q-1 -186 65 -266t197 -80zM637 -18q-293 0 -431 156t-138 425q0 268 154 436q155 168 441 168q285 1 423 -161t138 -434t-146 -430
q-148 -160 -441 -160z" />
    <glyph glyph-name="otilde.smcp" horiz-adv-x="1292" 
d="M504 1571q72 0 167 -45t133 -45t51 19t13 71l156 -8q16 -129 -32 -209t-154 -80q-78 0 -176 45t-136 45q-70 0 -57 -96l-168 6q-16 133 40 215q57 82 163 82zM649 225q258 0 258 348q0 183 -62 267t-186 84q-272 0 -272 -353q-1 -186 65 -266t197 -80zM637 -18
q-293 0 -431 156t-138 425q0 268 154 436q155 168 441 168q285 1 423 -161t138 -434t-146 -430q-148 -160 -441 -160z" />
    <glyph glyph-name="odieresis.smcp" horiz-adv-x="1292" 
d="M1083 1462q0 -78 -49 -124t-132 -46t-133 46t-50 124t50 125t133 47t132 -47t49 -125zM602 1462q0 -78 -50 -124t-132 -46t-133 46t-51 124t51 125t133 47t132 -47t50 -125zM649 225q258 0 258 348q0 183 -62 267t-186 84q-272 0 -272 -353q-1 -186 65 -266t197 -80z
M637 -18q-293 0 -431 156t-138 425q0 268 154 436q155 168 441 168q285 1 423 -161t138 -434t-146 -430q-148 -160 -441 -160z" />
    <glyph glyph-name="oslash.smcp" horiz-adv-x="1292" 
d="M649 225q258 0 258 348q0 121 -26 193l-275 -539q14 -2 43 -2zM387 571q0 -121 29 -200l280 551l-37 2q-272 -1 -272 -353zM637 -18q-82 0 -150 12l-65 -131h-264l110 219q-201 145 -200 483q0 266 154 434q155 168 444 168q68 0 149 -14l55 109h263l-103 -203
q195 -154 195 -456q1 -301 -147 -461t-441 -160z" />
    <glyph glyph-name="oslashacute.smcp" horiz-adv-x="1292" 
d="M649 225q258 0 258 348q0 121 -26 193l-275 -539q14 -2 43 -2zM387 571q0 -121 29 -200l280 551l-37 2q-272 -1 -272 -353zM1018 1593l-277 -350l-206 19l153 331h330zM637 -18q-82 0 -150 12l-65 -131h-264l110 219q-201 145 -200 483q0 266 154 434q155 168 444 168
q68 0 149 -14l55 109h263l-103 -203q195 -154 195 -456q1 -301 -147 -461t-441 -160z" />
    <glyph glyph-name="ugrave.smcp" horiz-adv-x="1200" 
d="M557 1243l-276 350h331l152 -331zM412 479q0 -137 36 -197t152 -59q115 -1 152 55t36 193v676h306v-719q0 -229 -133 -338q-133 -108 -378 -108t-362 108t-117 346v711h308v-668z" />
    <glyph glyph-name="uacute.smcp" horiz-adv-x="1200" 
d="M920 1593l-277 -350l-207 19l154 331h330zM412 479q0 -137 36 -197t152 -59q115 -1 152 55t36 193v676h306v-719q0 -229 -133 -338q-133 -108 -378 -108t-362 108t-117 346v711h308v-668z" />
    <glyph glyph-name="ucircumflex.smcp" horiz-adv-x="1200" 
d="M954 1262l-204 -11l-150 193l-156 -195l-206 13l215 335h295zM412 479q0 -137 36 -197t152 -59q115 -1 152 55t36 193v676h306v-719q0 -229 -133 -338q-133 -108 -378 -108t-362 108t-117 346v711h308v-668z" />
    <glyph glyph-name="udieresis.smcp" horiz-adv-x="1200" 
d="M1020 1462q0 -78 -49 -124t-132 -46t-133 46t-51 124q1 78 51 125t133 47t132 -47t49 -125zM539 1462q-1 -78 -51 -124t-132 -46t-133 46t-51 124t51 125t133 47t132 -47t51 -125zM412 479q0 -137 36 -197t152 -59q115 -1 152 55t36 193v676h306v-719q0 -229 -133 -338
q-133 -108 -378 -108t-362 108t-117 346v711h308v-668z" />
    <glyph glyph-name="yacute.smcp" horiz-adv-x="1069" 
d="M864 1593l-276 -350l-207 19l154 331h329zM702 0h-309v424l-416 723h334l236 -455h10l225 455h310l-390 -721v-426z" />
    <glyph glyph-name="ydieresis.smcp" horiz-adv-x="1069" 
d="M965 1462q1 -78 -49 -124t-133 -46t-133 46t-50 124t50 125t133 47t133 -47t49 -125zM483 1462q0 -78 -50 -124t-132 -46t-133 46t-51 124t51 125t133 47t132 -47t50 -125zM702 0h-309v424l-416 723h334l236 -455h10l225 455h310l-390 -721v-426z" />
    <glyph glyph-name="amacron.smcp" horiz-adv-x="1224" 
d="M911 1303h-637v208h637v-208zM725 477l-127 391h-6l-127 -391h260zM408 1147h376l428 -1147h-335l-91 238h-366l-82 -238h-318z" />
    <glyph glyph-name="abreve.smcp" horiz-adv-x="1224" 
d="M590 1237q-330 0 -342 324l205 22q8 -84 44 -121q35 -37 105 -37t107 35t49 121l196 -14q-12 -168 -107 -249t-257 -81zM725 477l-127 391h-6l-127 -391h260zM408 1147h376l428 -1147h-335l-91 238h-366l-82 -238h-318z" />
    <glyph glyph-name="aogonek.smcp" horiz-adv-x="1224" 
d="M725 477l-127 391h-6l-127 -391h260zM758 -291q0 160 207 291h-88l-91 238h-366l-82 -238h-318l388 1147h376l428 -1147q-106 -50 -165 -114t-59 -129t63 -64q61 0 98 84l133 -62q-33 -98 -111 -152q-77 -55 -185 -55t-168 52t-60 149z" />
    <glyph glyph-name="cacute.smcp" horiz-adv-x="1185" 
d="M969 1593l-277 -350l-207 19l154 331h330zM68 565q0 272 151 437q152 165 436 165q219 0 349 -104t139 -322l-279 -26q-8 117 -58 165t-155 48q-264 0 -264 -350q-1 -190 63 -272t182 -83q118 0 167 48t69 137l273 -43q-15 -135 -99 -225q-148 -158 -407 -158
q-567 0 -567 583z" />
    <glyph glyph-name="ccircumflex.smcp" horiz-adv-x="1185" 
d="M1004 1262l-205 -11l-150 193l-155 -195l-207 13l215 335h295zM68 565q0 272 151 437q152 165 436 165q219 0 349 -104t139 -322l-279 -26q-8 117 -58 165t-155 48q-264 0 -264 -350q-1 -190 63 -272t182 -83q118 0 167 48t69 137l273 -43q-15 -135 -99 -225
q-148 -158 -407 -158q-567 0 -567 583z" />
    <glyph glyph-name="cdotaccent.smcp" horiz-adv-x="1185" 
d="M834 1466q0 -90 -50 -139t-137 -49q-88 0 -136 49t-48 138t48 139t137 49q90 -1 138 -49t48 -138zM68 565q0 272 151 437q152 165 436 165q219 0 349 -104t139 -322l-279 -26q-8 117 -58 165t-155 48q-264 0 -264 -350q-1 -190 63 -272t182 -83q118 0 167 48t69 137
l273 -43q-15 -135 -99 -225q-148 -158 -407 -158q-567 0 -567 583z" />
    <glyph glyph-name="ccaron.smcp" horiz-adv-x="1185" 
d="M291 1579l209 10l149 -190l156 192l203 -12l-215 -336h-295zM68 565q0 272 151 437q152 165 436 165q219 0 349 -104t139 -322l-279 -26q-8 117 -58 165t-155 48q-264 0 -264 -350q-1 -190 63 -272t182 -83q118 0 167 48t69 137l273 -43q-15 -135 -99 -225
q-148 -158 -407 -158q-567 0 -567 583z" />
    <glyph glyph-name="dcaron.smcp" horiz-adv-x="1228" 
d="M213 1579l209 10l149 -190l156 192l203 -12l-215 -336h-295zM428 233h94q182 -1 254 87t72 268t-71 252t-234 71h-115v-678zM539 0h-420v1147h446q303 1 449 -145t147 -415t-155 -428t-467 -159z" />
    <glyph glyph-name="dcroat.smcp" horiz-adv-x="1228" 
d="M428 233h94q182 -1 254 87t72 268t-71 252t-234 71h-115v-225h236v-217h-236v-236zM539 0h-420v469h-127v217h127v461h446q303 1 449 -145t147 -415t-155 -428t-467 -159z" />
    <glyph glyph-name="emacron.smcp" horiz-adv-x="1005" 
d="M844 1303h-637v208h637v-208zM428 449v-201h518v-248h-827v1147h790v-244h-481v-217h455v-237h-455z" />
    <glyph glyph-name="ebreve.smcp" horiz-adv-x="1005" 
d="M522 1237q-330 0 -342 324l205 22q8 -84 44 -121q35 -37 105 -37t107 35t49 121l197 -14q-11 -168 -107 -249t-258 -81zM428 449v-201h518v-248h-827v1147h790v-244h-481v-217h455v-237h-455z" />
    <glyph glyph-name="edotaccent.smcp" horiz-adv-x="1005" 
d="M713 1466q0 -90 -49 -139q-50 -49 -138 -49t-136 49t-48 138t48 139t136 49q88 0 138 -48q49 -49 49 -139zM428 449v-201h518v-248h-827v1147h790v-244h-481v-217h455v-237h-455z" />
    <glyph glyph-name="eogonek.smcp" horiz-adv-x="1005" 
d="M459 -291q0 156 188 291h-528v1147h790v-244h-481v-217h455v-237h-455v-201h518v-248h-98q-84 -80 -122 -132t-38 -108q0 -68 64 -67q61 0 98 84l133 -62q-33 -98 -111 -152q-78 -55 -186 -55t-167 52q-60 52 -60 149z" />
    <glyph glyph-name="ecaron.smcp" horiz-adv-x="1005" 
d="M170 1579l209 10l149 -190l156 192l203 -12l-215 -336h-295zM428 449v-201h518v-248h-827v1147h790v-244h-481v-217h455v-237h-455z" />
    <glyph glyph-name="gcircumflex.smcp" horiz-adv-x="1257" 
d="M1001 1262l-204 -11l-150 193l-155 -195l-207 13l215 335h295zM68 562q0 272 152 438t439 167q459 0 488 -409l-285 -27q-18 197 -207 197q-266 0 -266 -348q0 -182 57 -274t203 -91q104 0 156 47q51 47 51 111v26h-168v207h475v-606h-223l-31 133q-39 -74 -131 -113
t-203 -38q-259 0 -383 154t-124 426z" />
    <glyph glyph-name="gbreve.smcp" horiz-adv-x="1257" 
d="M641 1237q-330 0 -342 324l205 22q8 -84 44 -121t106 -37t106 35q37 35 49 121l197 -14q-12 -168 -108 -249t-257 -81zM68 562q0 272 152 438t439 167q459 0 488 -409l-285 -27q-18 197 -207 197q-266 0 -266 -348q0 -182 57 -274t203 -91q104 0 156 47q51 47 51 111v26
h-168v207h475v-606h-223l-31 133q-39 -74 -131 -113t-203 -38q-259 0 -383 154t-124 426z" />
    <glyph glyph-name="gdotaccent.smcp" horiz-adv-x="1257" 
d="M831 1466q0 -90 -49 -139t-137 -49t-136 49t-48 138t48 139t136 49t137 -49t49 -138zM68 562q0 272 152 438t439 167q459 0 488 -409l-285 -27q-18 197 -207 197q-266 0 -266 -348q0 -182 57 -274t203 -91q104 0 156 47q51 47 51 111v26h-168v207h475v-606h-223l-31 133
q-39 -74 -131 -113t-203 -38q-259 0 -383 154t-124 426z" />
    <glyph glyph-name="gcommaaccent.smcp" horiz-adv-x="1257" 
d="M406 -530l94 391h286l-170 -422zM68 562q0 272 152 438t439 167q459 0 488 -409l-285 -27q-18 197 -207 197q-266 0 -266 -348q0 -182 57 -274t203 -91q104 0 156 47q51 47 51 111v26h-168v207h475v-606h-223l-31 133q-39 -74 -131 -113t-203 -38q-259 0 -383 154
t-124 426z" />
    <glyph glyph-name="hcircumflex.smcp" horiz-adv-x="1251" 
d="M981 1262l-205 -11l-149 193l-156 -195l-207 13l215 335h295zM1130 1147v-1147h-307v438h-395v-438h-309v1147h309v-449h395v449h307z" />
    <glyph glyph-name="hbar.smcp" horiz-adv-x="1251" 
d="M428 698h395v136h-395v-136zM1130 1147v-121h121v-192h-121v-834h-307v438h-395v-438h-309v834h-119v192h119v121h309v-121h395v121h307z" />
    <glyph glyph-name="itilde.smcp" horiz-adv-x="546" 
d="M115 1571q72 0 167 -45t133 -45t51 19t13 71l156 -8q16 -129 -32 -209t-154 -80q-79 0 -177 45t-135 45q-70 0 -57 -96l-168 6q-16 133 40 215q57 82 163 82zM428 1147v-1147h-309v1147h309z" />
    <glyph glyph-name="imacron.smcp" horiz-adv-x="546" 
d="M590 1303h-637v208h637v-208zM428 1147v-1147h-309v1147h309z" />
    <glyph glyph-name="ibreve.smcp" horiz-adv-x="546" 
d="M268 1237q-330 0 -342 324l205 22q8 -84 44 -121t106 -37q71 0 107 35t48 121l197 -14q-11 -168 -107 -249t-258 -81zM428 1147v-1147h-309v1147h309z" />
    <glyph glyph-name="iogonek.smcp" horiz-adv-x="546" 
d="M-16 -291q0 164 217 291h-82v1147h309v-1147q-94 -45 -154 -113t-61 -127q0 -68 63 -67q62 0 99 84l133 -62q-33 -98 -111 -152q-77 -55 -185 -55t-168 52t-60 149z" />
    <glyph glyph-name="idotaccent.smcp" horiz-adv-x="546" 
d="M459 1466q0 -90 -49 -139q-50 -49 -138 -49t-136 49t-48 138t48 139t136 49q88 0 138 -48q49 -49 49 -139zM428 1147v-1147h-309v1147h309z" />
    <glyph glyph-name="dotlessi.smcp" horiz-adv-x="546" 
d="M428 1147v-1147h-309v1147h309z" />
    <glyph glyph-name="jcircumflex.smcp" horiz-adv-x="935" 
d="M1028 1262l-205 -11l-149 193l-156 -195l-207 13l215 335h295zM518 324v823h307v-809q0 -170 -103 -263q-104 -93 -290 -93t-290 76q-103 77 -109 268l295 43q4 -57 10 -85t29 -51t61 -22q90 0 90 113z" />
    <glyph glyph-name="kcommaaccent.smcp" horiz-adv-x="1169" 
d="M365 -530l94 391h286l-170 -422zM426 0h-307v1147h307l2 -465l406 465h342l-422 -469l399 -678h-358l-263 446l-106 -110v-336z" />
    <glyph glyph-name="kgreenlandic.smcp" horiz-adv-x="1169" 
d="M426 0h-307v1147h307l2 -465l406 465h342l-422 -469l399 -678h-358l-263 446l-106 -110v-336z" />
    <glyph glyph-name="lacute.smcp" horiz-adv-x="987" 
d="M602 1593l-276 -350l-207 19l153 331h330zM428 1147v-893h500v-254h-809v1147h309z" />
    <glyph glyph-name="lcommaaccent.smcp" horiz-adv-x="987" 
d="M293 -530l94 391h287l-170 -422zM428 1147v-893h500v-254h-809v1147h309z" />
    <glyph glyph-name="lcaron.smcp" horiz-adv-x="987" 
d="M561 752l68 395h282l-135 -414zM428 1147v-893h500v-254h-809v1147h309z" />
    <glyph glyph-name="ldot.smcp" horiz-adv-x="987" 
d="M934 700q0 -84 -46 -130t-128 -46t-128 46t-46 130t45 130t129 46t129 -46t45 -130zM428 1147v-893h500v-254h-809v1147h309z" />
    <glyph glyph-name="nacute.smcp" horiz-adv-x="1265" 
d="M985 1593l-276 -350l-207 19l153 331h330zM1147 0h-348l-400 731v-731h-280v1147h360l391 -739v739h277v-1147z" />
    <glyph glyph-name="ncommaaccent.smcp" horiz-adv-x="1265" 
d="M414 -530l94 391h287l-170 -422zM1147 0h-348l-400 731v-731h-280v1147h360l391 -739v739h277v-1147z" />
    <glyph glyph-name="ncaron.smcp" horiz-adv-x="1265" 
d="M279 1579l208 10l150 -190l156 192l202 -12l-215 -336h-295zM1147 0h-348l-400 731v-731h-280v1147h360l391 -739v739h277v-1147z" />
    <glyph glyph-name="napostrophe.smcp" horiz-adv-x="1423" 
d="M-41 1092l90 368h270l-159 -397zM1305 0h-349l-399 731v-731h-281v1147h361l391 -739v739h277v-1147z" />
    <glyph glyph-name="eng.smcp" horiz-adv-x="1265" 
d="M749 -457q-184 0 -276 58l23 231q98 -41 179 -41t122 35t41 125v47l-439 733v-731h-280v1147h360l391 -668v668h277v-1231q0 -193 -107 -283t-291 -90z" />
    <glyph glyph-name="omacron.smcp" horiz-adv-x="1292" 
d="M979 1303h-637v208h637v-208zM649 225q258 0 258 348q0 183 -62 267t-186 84q-272 0 -272 -353q-1 -186 65 -266t197 -80zM637 -18q-293 0 -431 156t-138 425q0 268 154 436q155 168 441 168q285 1 423 -161t138 -434t-146 -430q-148 -160 -441 -160z" />
    <glyph glyph-name="obreve.smcp" horiz-adv-x="1292" 
d="M657 1237q-330 0 -342 324l205 22q8 -84 44 -121t106 -37t106 35t49 121l197 -14q-12 -168 -108 -249t-257 -81zM649 225q258 0 258 348q0 183 -62 267t-186 84q-272 0 -272 -353q-1 -186 65 -266t197 -80zM637 -18q-293 0 -431 156t-138 425q0 268 154 436
q155 168 441 168q285 1 423 -161t138 -434t-146 -430q-148 -160 -441 -160z" />
    <glyph glyph-name="ohungarumlaut.smcp" horiz-adv-x="1292" 
d="M1212 1602l-299 -359l-206 19l174 340h331zM801 1593l-209 -350l-197 25l90 325h316zM649 225q258 0 258 348q0 183 -62 267t-186 84q-272 0 -272 -353q-1 -186 65 -266t197 -80zM637 -18q-293 0 -431 156t-138 425q0 268 154 436q155 168 441 168q285 1 423 -161
t138 -434t-146 -430q-148 -160 -441 -160z" />
    <glyph glyph-name="racute.smcp" horiz-adv-x="1110" 
d="M856 1593l-276 -350l-207 19l153 331h330zM426 643h86q188 0 188 148q0 123 -168 122h-106v-270zM426 416v-416h-307v1147h495q208 0 306 -92t98 -236q0 -234 -195 -330l262 -489h-333l-215 416h-111z" />
    <glyph glyph-name="rcommaaccent.smcp" horiz-adv-x="1110" 
d="M340 -530l94 391h287l-170 -422zM426 643h86q188 0 188 148q0 123 -168 122h-106v-270zM426 416v-416h-307v1147h495q208 0 306 -92t98 -236q0 -234 -195 -330l262 -489h-333l-215 416h-111z" />
    <glyph glyph-name="rcaron.smcp" horiz-adv-x="1110" 
d="M178 1579l209 10l150 -190l155 192l203 -12l-215 -336h-295zM426 643h86q188 0 188 148q0 123 -168 122h-106v-270zM426 416v-416h-307v1147h495q208 0 306 -92t98 -236q0 -234 -195 -330l262 -489h-333l-215 416h-111z" />
    <glyph glyph-name="sacute.smcp" horiz-adv-x="1028" 
d="M838 1593l-277 -350l-207 19l154 331h330zM512 950q-145 0 -145 -98q0 -55 63 -88q62 -32 152 -54t180 -53t153 -107t64 -192q0 -188 -137 -282t-360 -94t-340 97q-46 39 -80 109t-37 164l274 45q14 -92 58 -141t153 -49q164 0 164 112q0 49 -45 80t-113 44t-146 37
t-145 55q-69 31 -113 101t-44 173q0 170 128 264t324 94q422 0 441 -342l-277 -28q-4 81 -44 117t-128 36z" />
    <glyph glyph-name="scircumflex.smcp" horiz-adv-x="1028" 
d="M872 1262l-204 -11l-150 193l-156 -195l-206 13l215 335h295zM512 950q-145 0 -145 -98q0 -55 63 -88q62 -32 152 -54t180 -53t153 -107t64 -192q0 -188 -137 -282t-360 -94t-340 97q-46 39 -80 109t-37 164l274 45q14 -92 58 -141t153 -49q164 0 164 112q0 49 -45 80
t-113 44t-146 37t-145 55q-69 31 -113 101t-44 173q0 170 128 264t324 94q422 0 441 -342l-277 -28q-4 81 -44 117t-128 36z" />
    <glyph glyph-name="scedilla.smcp" horiz-adv-x="1028" 
d="M432 -346q102 0 103 76q0 45 -31 59t-101 16l23 179q-385 27 -401 368l274 45q14 -92 58 -141t153 -49q164 0 164 112q0 49 -45 80t-113 44t-146 37t-145 55q-69 31 -113 101t-44 173q0 170 128 264t324 94q422 0 441 -342l-277 -28q-4 81 -44 117t-128 36
q-145 0 -145 -98q0 -55 63 -88q62 -32 152 -54t180 -53t153 -107t64 -192q0 -170 -114 -264t-290 -108l-10 -78q174 -31 174 -189q-1 -109 -75 -165t-180 -58q-106 0 -181 29l31 143q57 -14 98 -14z" />
    <glyph glyph-name="tcaron.smcp" horiz-adv-x="1054" 
d="M170 1579l209 10l149 -190l156 192l203 -12l-215 -336h-295zM682 0h-307v895h-348v252h1001v-252h-346v-895z" />
    <glyph glyph-name="tbar.smcp" horiz-adv-x="1054" 
d="M682 0h-307v430h-240v221h240v244h-348v252h1001v-252h-346v-244h238v-221h-238v-430z" />
    <glyph glyph-name="utilde.smcp" horiz-adv-x="1200" 
d="M440 1571q72 0 167 -45t133 -45t52 19q13 19 13 71l156 -8q16 -129 -32 -209t-155 -80q-78 0 -176 45t-135 45q-70 0 -57 -96l-168 6q-16 133 40 215t162 82zM412 479q0 -137 36 -197t152 -59q115 -1 152 55t36 193v676h306v-719q0 -229 -133 -338q-133 -108 -378 -108
t-362 108t-117 346v711h308v-668z" />
    <glyph glyph-name="umacron.smcp" horiz-adv-x="1200" 
d="M915 1303h-636v208h636v-208zM412 479q0 -137 36 -197t152 -59q115 -1 152 55t36 193v676h306v-719q0 -229 -133 -338q-133 -108 -378 -108t-362 108t-117 346v711h308v-668z" />
    <glyph glyph-name="ubreve.smcp" horiz-adv-x="1200" 
d="M594 1237q-330 0 -342 324l205 22q8 -84 44 -121q35 -37 105 -37t107 35t49 121l196 -14q-12 -168 -107 -249t-257 -81zM412 479q0 -137 36 -197t152 -59q115 -1 152 55t36 193v676h306v-719q0 -229 -133 -338q-133 -108 -378 -108t-362 108t-117 346v711h308v-668z" />
    <glyph glyph-name="uring.smcp" horiz-adv-x="1200" 
d="M597 1362q91 0 91 92q0 86 -90 86q-41 0 -67 -24t-25 -64q0 -90 91 -90zM829 1454q0 -102 -63 -158q-64 -56 -168 -57q-104 0 -167 54q-62 55 -62 157t65 161q66 58 165 58t165 -56q65 -57 65 -159zM412 479q0 -137 36 -197t152 -59q115 -1 152 55t36 193v676h306v-719
q0 -229 -133 -338q-133 -108 -378 -108t-362 108t-117 346v711h308v-668z" />
    <glyph glyph-name="uhungarumlaut.smcp" horiz-adv-x="1200" 
d="M1149 1602l-299 -359l-207 19l174 340h332zM737 1593l-209 -350l-196 25l90 325h315zM412 479q0 -137 36 -197t152 -59q115 -1 152 55t36 193v676h306v-719q0 -229 -133 -338q-133 -108 -378 -108t-362 108t-117 346v711h308v-668z" />
    <glyph glyph-name="uogonek.smcp" horiz-adv-x="1200" 
d="M594 -18q-256 0 -373 108t-117 346v711h308v-668q0 -137 37 -196t151 -59t152 54q37 56 36 193v676h306v-719q0 -150 -52 -240t-152 -155t-158 -139t-58 -138t63 -63q62 0 99 84l133 -62q-33 -98 -111 -152q-78 -55 -186 -55t-167 52q-60 52 -61 149q0 141 164 273h-14z
" />
    <glyph glyph-name="wcircumflex.smcp" horiz-adv-x="1691" 
d="M1210 1262l-204 -11l-150 193l-156 -195l-206 13l215 335h295zM1409 0h-391l-164 709h-8l-158 -709h-412l-251 1147h319l150 -836h8l190 836h324l196 -836h13l133 836h309z" />
    <glyph glyph-name="ycircumflex.smcp" horiz-adv-x="1069" 
d="M899 1262l-205 -11l-149 193l-156 -195l-207 13l215 335h295zM702 0h-309v424l-416 723h334l236 -455h10l225 455h310l-390 -721v-426z" />
    <glyph glyph-name="zacute.smcp" horiz-adv-x="1013" 
d="M821 1593l-276 -350l-207 19l154 331h329zM961 246v-246h-906v213l531 690h-518v244h872v-219l-516 -682h537z" />
    <glyph glyph-name="zdotaccent.smcp" horiz-adv-x="1013" 
d="M686 1466q0 -90 -49 -139t-137 -49t-136 49t-48 138t48 139t137 49t137 -49t48 -138zM961 246v-246h-906v213l531 690h-518v244h872v-219l-516 -682h537z" />
    <glyph glyph-name="scommaaccent.smcp" horiz-adv-x="1028" 
d="M291 -530l94 391h287l-170 -422zM512 950q-145 0 -145 -98q0 -55 63 -88q62 -32 152 -54t180 -53t153 -107t64 -192q0 -188 -137 -282t-360 -94t-340 97q-46 39 -80 109t-37 164l274 45q14 -92 58 -141t153 -49q164 0 164 112q0 49 -45 80t-113 44t-146 37t-145 55
q-69 31 -113 101t-44 173q0 170 128 264t324 94q422 0 441 -342l-277 -28q-4 81 -44 117t-128 36z" />
    <glyph glyph-name="uni021B.smcp" horiz-adv-x="1054" 
d="M297 -530l94 391h287l-170 -422zM682 0h-307v895h-348v252h1001v-252h-346v-895z" />
    <glyph glyph-name="wgrave.smcp" horiz-adv-x="1691" 
d="M813 1243l-276 350h331l152 -331zM1409 0h-391l-164 709h-8l-158 -709h-412l-251 1147h319l150 -836h8l190 836h324l196 -836h13l133 836h309z" />
    <glyph glyph-name="wacute.smcp" horiz-adv-x="1691" 
d="M1176 1593l-277 -350l-207 19l154 331h330zM1409 0h-391l-164 709h-8l-158 -709h-412l-251 1147h319l150 -836h8l190 836h324l196 -836h13l133 836h309z" />
    <glyph glyph-name="wdieresis.smcp" horiz-adv-x="1691" 
d="M1276 1462q0 -78 -49 -124t-132 -46t-133 46t-51 124q1 78 51 125t133 47t132 -47t49 -125zM795 1462q-1 -78 -51 -124t-132 -46t-133 46t-51 124t51 125t133 47t132 -47t51 -125zM1409 0h-391l-164 709h-8l-158 -709h-412l-251 1147h319l150 -836h8l190 836h324
l196 -836h13l133 836h309z" />
    <glyph glyph-name="ygrave.smcp" horiz-adv-x="1069" 
d="M502 1243l-277 350h332l152 -331zM702 0h-309v424l-416 723h334l236 -455h10l225 455h310l-390 -721v-426z" />
    <glyph glyph-name="uni0163.smcp" horiz-adv-x="1054" 
d="M449 -346q102 0 102 76q0 45 -31 59t-100 16l24 195h-69v895h-348v252h1001v-252h-346v-895h-88l-12 -92q174 -31 174 -189q0 -109 -75 -165t-181 -58q-106 0 -181 29l31 143q57 -14 99 -14z" />
    <glyph glyph-name="lslash.smcp" horiz-adv-x="987" 
d="M428 1147v-385l295 102v-227l-295 -102v-281h500v-254h-809v428l-135 -45v227l135 45v492h309z" />
    <glyph glyph-name="scaron.smcp" horiz-adv-x="1028" 
d="M160 1579l209 10l149 -190l156 192l203 -12l-215 -336h-295zM512 950q-145 0 -145 -98q0 -55 63 -88q62 -32 152 -54t180 -53t153 -107t64 -192q0 -188 -137 -282t-360 -94t-340 97q-46 39 -80 109t-37 164l274 45q14 -92 58 -141t153 -49q164 0 164 112q0 49 -45 80
t-113 44t-146 37t-145 55q-69 31 -113 101t-44 173q0 170 128 264t324 94q422 0 441 -342l-277 -28q-4 81 -44 117t-128 36z" />
    <glyph glyph-name="zcaron.smcp" horiz-adv-x="1013" 
d="M143 1579l209 10l150 -190l155 192l203 -12l-215 -336h-295zM961 246v-246h-906v213l531 690h-518v244h872v-219l-516 -682h537z" />
    <glyph glyph-name="oe.smcp" horiz-adv-x="1792" 
d="M647 225q258 0 258 348q0 183 -62 267t-186 84q-272 0 -272 -353q-1 -186 65 -266t197 -80zM1733 0h-781v102q-104 -121 -338 -120q-276 0 -411 158t-135 423q0 266 152 435q153 169 425 169q195 0 307 -112v92h746v-244h-484v-217h455v-237h-455v-201h519v-248z" />
    <glyph glyph-name="ae.smcp" horiz-adv-x="1679" 
d="M795 674v248h-70l-119 -248h189zM1102 442v-194h518v-248h-825v446h-271l-198 -446h-314l531 1147h1042v-244h-483v-227h454v-234h-454z" />
    <glyph glyph-name="aeacute.smcp" horiz-adv-x="1685" 
d="M803 674v248h-70l-119 -248h189zM1110 442v-194h518v-248h-825v446h-271l-198 -446h-314l531 1147h1042v-244h-483v-227h455v-234h-455zM1366 1599l-276 -350l-207 19l153 331h330z" />
    <glyph glyph-name="germandbls.smcp" horiz-adv-x="2058" 
d="M512 950q-145 0 -145 -98q0 -55 63 -88q62 -32 152 -54t180 -53t153 -107t64 -192q0 -188 -137 -282t-360 -94t-340 97q-46 39 -80 109t-37 164l274 45q14 -92 58 -141t153 -49q164 0 164 112q0 49 -45 80t-113 44t-146 37t-145 55q-69 31 -113 101t-44 173
q0 170 128 264t324 94q422 0 441 -342l-277 -28q-4 81 -44 117t-128 36zM1542 950q-145 0 -145 -98q0 -55 63 -88q64 -32 154 -54t179 -53t153 -106q63 -76 63 -193q0 -188 -137 -282t-360 -94t-340 97q-46 39 -80 109t-37 164l274 45q15 -92 59 -141t152 -49q164 0 164 112
q0 49 -45 80t-113 44t-146 37t-145 55q-69 31 -113 101t-44 173q0 170 128 264t324 94q422 0 441 -342l-277 -28q-4 81 -44 117t-128 36z" />
    <glyph glyph-name="question.smcp" horiz-adv-x="940" 
d="M246 115q0 143 166 143t166 -140t-166 -140t-166 137zM565 330h-295v274q322 14 322 213q0 127 -129 127t-158 -147l-276 34q18 168 136 255q118 88 307 88t310 -84t121 -269q0 -147 -85 -241t-253 -127v-123z" />
    <glyph glyph-name="exclam.smcp" horiz-adv-x="569" 
d="M449 118q0 -140 -166 -140t-166 140t166 140t166 -140zM414 336h-258l-33 811h323z" />
    <glyph glyph-name="questiondown.smcp" horiz-adv-x="940" 
d="M694 1034q0 -143 -166 -143t-166 140t166 140t166 -137zM375 819h295v-274q-322 -14 -322 -213q0 -127 129 -127t158 147l276 -35q-18 -168 -136 -255t-307 -87t-310 84t-121 269q0 147 85 241t253 127v123z" />
    <glyph glyph-name="exclamdown.smcp" horiz-adv-x="569" 
d="M121 1029q0 140 166 140t166 -140t-166 -140t-166 140zM156 811h258l32 -811h-323z" />
    <glyph glyph-name="ordmasculine.smcp" horiz-adv-x="851" 
d="M425 672q67 0 95 45t29 154q0 109 -28 151q-29 42 -93 43q-64 0 -94 -45t-31 -151q-1 -105 27 -151t95 -46zM416 504q-365 0 -365 362q0 174 96 272q97 98 287 97q190 0 278 -94t89 -266q0 -171 -94 -271t-291 -100z" />
    <glyph glyph-name="ordfeminine.smcp" horiz-adv-x="813" 
d="M465 801q-170 0 -170 -80q1 -61 65 -61t105 36v105zM698 985v-274q0 -37 16 -47t62 2l6 -136q-61 -27 -131 -26q-139 0 -164 96q-78 -98 -207 -98t-178 58t-49 133q0 152 149 200q114 37 261 37v26q-1 55 -17 82t-73 27q-82 0 -97 -94l-204 37q39 225 319 225
q154 0 231 -59q76 -60 76 -189z" />
    <glyph glyph-name="at.smcp" horiz-adv-x="1423" 
d="M733 725q-125 0 -125 -183t103 -184q49 0 100 43v295q-29 29 -78 29zM723 -100q-291 0 -476 156t-185 452q0 295 190 479q192 184 488 184q296 -1 464 -151t168 -402q0 -203 -91 -307t-241 -104q-76 1 -133 25t-78 61q-65 -80 -175 -80t-176 82q-66 83 -64 227
q0 144 73 242q74 98 201 98q86 0 135 -53l17 43h153v-430q0 -66 60 -66q125 0 125 260q0 172 -102 280t-320 108q-134 0 -236 -44t-155 -118q-103 -141 -103 -318q0 -236 127 -348t350 -110q129 0 281 49l45 -158q-119 -57 -342 -57z" />
    <glyph glyph-name="copyright.smcp" horiz-adv-x="1548" 
d="M782 195q-182 0 -271 105q-89 106 -89 280t97 282t269 107q121 0 207 -71t95 -206l-156 -16q-8 82 -45 118t-107 35q-182 -1 -182 -249t180 -248q137 -1 168 155l150 -24q-18 -143 -112 -205t-204 -63zM780 1098q-230 0 -376 -142t-146 -386q0 -243 137 -377t381 -134
q244 -1 381 139t137 385t-142 380t-372 135zM88 575q0 303 197 489t503 185q306 0 488 -178q184 -178 184 -481q0 -304 -190 -494t-508 -190t-496 183t-178 486z" />
    <glyph glyph-name="ampersand.smcp" horiz-adv-x="1280" 
d="M514 885q0 -76 51 -154l41 25q102 57 103 143q0 84 -93 84q-102 0 -102 -98zM521 176q75 0 128 29q-115 104 -229 280q-78 -49 -78 -135t52 -130t127 -44zM936 918q0 -207 -272 -316q86 -135 190 -235q43 96 47 231h242q8 -203 -92 -352q45 -25 79 -26t72 9l27 -219
q-53 -20 -165 -20t-235 73q-106 -81 -327 -81t-327 95q-105 95 -105 255q0 227 249 325q-59 102 -59 228q0 127 106 207t254 80q146 0 231 -64q85 -63 85 -190z" />
    <glyph glyph-name="parenleft.smcp" horiz-adv-x="671" 
d="M90 534q0 360 266 707h312q-123 -166 -191 -327q-67 -162 -67 -366t63 -362t178 -333l-315 -3q-246 324 -246 684z" />
    <glyph glyph-name="parenright.smcp" horiz-adv-x="671" 
d="M582 558q0 -359 -267 -708h-311q123 166 191 327q67 161 67 366t-64 363t-178 333l316 2q246 -324 246 -683z" />
    <glyph glyph-name="bracketleft.smcp" horiz-adv-x="587" 
d="M528 -166h-419v1446h419v-166l-131 -2v-1110l131 -4v-164z" />
    <glyph glyph-name="bracketright.smcp" horiz-adv-x="587" 
d="M59 1280h420v-1446h-420v166l131 2v1110l-131 4v164z" />
    <glyph glyph-name="braceleft.smcp" horiz-adv-x="622" 
d="M459 1284h104v-184q-61 0 -86 -18t-25 -59q0 -42 15 -150q14 -108 14 -166q-1 -58 -33 -92t-114 -62q86 -33 117 -66t31 -89t-15 -165q-14 -109 -14 -149t20 -57q20 -18 70 -19h20v-188h-104q-143 0 -216 38t-89 138q-2 18 -2 60t13 144t13 158q0 55 -23 84
q-24 29 -79 29h-37v164h37q55 0 79 29t23 94l-26 289q0 45 2 61q14 100 87 138t218 38z" />
    <glyph glyph-name="braceright.smcp" horiz-adv-x="622" 
d="M547 469q-103 0 -103 -113q0 -55 14 -155q14 -101 13 -145q0 -44 -2 -60q-14 -100 -87 -138t-218 -38h-105v184q61 0 86 18t25 70l-29 287q0 75 33 109t115 63q-86 33 -117 65t-31 105l29 289q0 49 -20 67t-70 19h-21v188h105q143 0 216 -38t89 -138q2 -18 2 -60
t-13 -144q-14 -102 -14 -158q-1 -113 103 -113h37v-164h-37z" />
    <glyph glyph-name="quoteleft.smcp" horiz-adv-x="481" 
d="M451 1268l-105 -465h-297l178 487z" />
    <glyph glyph-name="quoteright.smcp" horiz-adv-x="481" 
d="M31 803l104 465h297l-178 -488z" />
    <glyph glyph-name="quotedblleft.smcp" horiz-adv-x="858" 
d="M827 1268l-104 -465h-299l178 487zM453 1268l-105 -465h-299l178 487z" />
    <glyph glyph-name="quotedblright.smcp" horiz-adv-x="856" 
d="M403 819l105 465h299l-178 -487zM31 819l104 465h297l-178 -487z" />
    <glyph glyph-name="asterisk.smcp" horiz-adv-x="976" 
d="M555 1305l37 -250l231 55l43 -147l-219 -111l148 -221l-117 -92l-201 188l-194 -195l-119 95l145 225l-223 109l45 147l236 -57l41 254h147z" />
    <glyph glyph-name="hyphen.smcp" horiz-adv-x="645" 
d="M600 422h-555v264h555v-264z" />
    <glyph glyph-name="endash.smcp" horiz-adv-x="1024" 
d="M1024 442h-1024v228h1024v-228z" />
    <glyph glyph-name="emdash.smcp" horiz-adv-x="2048" 
d="M2048 442h-2048v228h2048v-228z" />
    <glyph glyph-name="slash.smcp" horiz-adv-x="837" 
d="M358 -72h-295l414 1250h293z" />
    <glyph glyph-name="backslash.smcp" horiz-adv-x="845" 
d="M780 -72h-295l-411 1250h293z" />
    <glyph glyph-name="zero.smcp" horiz-adv-x="1046" 
d="M527 938q-85 0 -119 -83t-33 -291t31 -284t117 -75q87 0 118 78q31 77 31 285t-30 289t-115 81zM519 -20q-253 0 -358 146t-105 440t113 448q114 154 365 154t354 -152q103 -150 103 -444t-109 -444q-110 -148 -363 -148z" />
    <glyph glyph-name="one.smcp" horiz-adv-x="827" 
d="M635 0h-299v817q-39 -19 -128 -35t-140 -16l-13 244q252 16 369 137h211v-1147z" />
    <glyph glyph-name="two.smcp" horiz-adv-x="974" 
d="M508 1167q186 0 285 -86q100 -85 100 -241t-133 -289q-59 -59 -203 -186l-117 -103v-8h467v-254h-827v242l254 250q42 42 90 87q100 94 126 138q40 64 40 114q0 111 -125 111t-148 -166l-262 41q19 174 143 262t310 88z" />
    <glyph glyph-name="three.smcp" horiz-adv-x="995" 
d="M614 340q0 68 -43 98t-137 29h-129v213h82q211 0 211 154q0 117 -125 116q-67 0 -103 -35t-53 -106l-251 49q31 164 149 237q119 73 295 73t278 -76q102 -74 103 -209q0 -201 -232 -275v-6q133 -33 197 -94t64 -178q0 -160 -128 -255t-314 -95q-403 0 -441 315l262 61
q23 -158 164 -157q67 0 109 37q42 36 42 104z" />
    <glyph glyph-name="four.smcp" horiz-adv-x="1060" 
d="M604 449v446l-299 -446h299zM893 0h-291v219h-555v203l483 725h363v-698h139v-230h-139v-219z" />
    <glyph glyph-name="five.smcp" horiz-adv-x="999" 
d="M840 1147v-250h-471l-29 -229q96 82 245 82t239 -87t89 -273q0 -186 -129 -298t-325 -112q-387 0 -428 321l256 51q18 -147 166 -147q73 0 119 44t46 131t-39 119q-40 31 -117 31t-157 -75l-192 77l45 615h682z" />
    <glyph glyph-name="six.smcp" horiz-adv-x="1036" 
d="M670 365q0 147 -125 147q-82 0 -156 -51q6 -135 36 -200t116 -64q129 0 129 168zM573 950q-100 0 -147 -70t-49 -233q96 76 254 76t251 -81q93 -80 93 -270t-124 -291t-319 -101q-248 0 -346 152t-98 440q0 287 148 454q53 61 142 101t204 40q321 0 387 -295l-262 -67
q-20 145 -134 145z" />
    <glyph glyph-name="seven.smcp" horiz-adv-x="933" 
d="M55 897v250h836v-223l-467 -926h-315l473 899h-527z" />
    <glyph glyph-name="eight.smcp" horiz-adv-x="1017" 
d="M668 862q0 51 -38 78t-100 27t-97 -29q-36 -29 -36 -74q0 -46 37 -76t125 -69q109 59 109 143zM494 190q80 0 124 35t46 78q0 43 -12 59q-12 15 -18 24t-22 17q-16 9 -25 15t-35 15t-61 22q-35 12 -47 16q-63 -35 -90 -70q-26 -35 -26 -87t43 -88t123 -36zM981 338
q0 -150 -132 -254t-353 -104t-341 86t-120 208t57 186t178 113q-184 88 -184 269q0 150 125 238t317 87t306 -79q113 -78 112 -203q0 -89 -42 -143t-150 -117q115 -51 171 -118t56 -169z" />
    <glyph glyph-name="nine.smcp" horiz-adv-x="1034" 
d="M373 782q0 -147 125 -147q81 0 155 51q-6 135 -36 200t-115 64q-129 0 -129 -168zM412 424q-158 0 -251 81t-93 271t123 290q124 101 319 101q248 -1 346 -153t98 -396t-96 -425q-51 -97 -151 -155t-240 -58q-344 -1 -412 296l267 70q20 -150 147 -149q98 -1 146 73
t51 230q-96 -76 -254 -76z" />
    <glyph glyph-name="dollar.smcp" horiz-adv-x="964" 
d="M461 182q166 0 166 118q0 56 -47 88t-153 61t-153 47t-101 54q-107 71 -105 234q0 246 276 326v150h254v-138q274 -43 285 -305l-260 -29q-8 72 -41 106t-103 34q-129 0 -129 -105q0 -55 47 -83t139 -52q231 -60 287 -120q90 -97 89 -235q-1 -137 -94 -227t-238 -116
v-125h-256v125q-264 49 -295 323l254 39q12 -82 53 -126t125 -44z" />
    <glyph glyph-name="Euro.smcp" horiz-adv-x="1099" 
d="M629 1167q180 0 296 -90t128 -291l-262 -22q-9 94 -45 138t-117 44q-166 0 -207 -174h291l-29 -160h-281v-90h269l-31 -160h-225q16 -86 62 -126t126 -39q80 0 121 45t59 135l252 -49q-29 -182 -149 -265q-121 -82 -287 -81q-410 0 -483 380h-123l31 160h77v19q0 47 2 71
h-67l29 160h59q90 395 504 395z" />
    <glyph glyph-name="cent.smcp" horiz-adv-x="927" 
d="M367 1182h264v-170q223 -45 248 -285l-258 -35q-12 137 -115 137q-63 0 -98 -46t-35 -173t34 -183t107 -56q111 0 131 133l236 -43q-35 -242 -271 -283v-178h-260v178q-278 68 -278 411t295 419v174z" />
    <glyph glyph-name="sterling.smcp" horiz-adv-x="1015" 
d="M49 203h92q111 94 111 190q0 43 -23 88h-151v207h96q-51 80 -51 168q0 133 106 222t293 89q187 1 285 -71t117 -240l-256 -33q-8 70 -37 107t-96 37q-125 0 -125 -119q0 -63 55 -160h295v-207h-240q10 -37 10 -57q0 -129 -100 -221h135q102 0 142 36q39 36 53 121
l235 -41q-10 -167 -106 -243t-299 -76h-541v203z" />
    <glyph glyph-name="yen.smcp" horiz-adv-x="1069" 
d="M209 369h184v118h-184v175h82l-293 485h334l215 -428h10l205 428h309l-274 -485h77v-175h-172v-118h172v-174h-172v-195h-309v195h-184v174z" />
    <glyph glyph-name="florin.smcp" horiz-adv-x="993" 
d="M96 -115q37 0 57 27q19 27 33 98l97 494h-162l39 209h155l31 143q33 156 115 234t248 77q256 0 315 -237l-219 -56q-23 102 -86 103q-41 0 -61 -25t-33 -86l-29 -153h213l-41 -209h-205l-98 -516q-29 -152 -110 -225t-234 -73t-234 63q-80 62 -102 163l225 72
q14 -57 32 -80t54 -23z" />
    <glyph glyph-name="afii61352.smcp" horiz-adv-x="1746" 
d="M1044 0h-348l-297 731v-731h-280v1147h360l289 -739v739h276v-1147zM1411 750q78 0 78 125t-74 124q-82 -1 -82 -125t78 -124zM1408 592q-148 0 -220 75q-70 75 -70 205t76 206q76 77 222 77t216 -74q70 -75 70 -205t-73 -207t-221 -77zM1153 354v181h522v-181h-522z" />
    <glyph glyph-name="percent.smcp" horiz-adv-x="1603" 
d="M1141 287q1 -90 21 -128t67 -38t67 38t20 127t-18 123q-20 34 -67 33q-90 0 -90 -155zM1221 -20q-297 0 -297 292q0 313 311 314q297 0 297 -291q0 -145 -80 -230t-231 -85zM377 891q-90 0 -88 -156q-1 -92 19 -128t68 -36t67 36t19 125t-18 124q-20 35 -67 35zM606 -23
h-264l649 1057h264zM369 428q-297 0 -297 293q0 311 309 311q297 0 297 -289q0 -147 -78 -231t-231 -84z" />
    <glyph glyph-name="perthousand.smcp" horiz-adv-x="2252" 
d="M1880 121q47 0 68 38q20 38 20 127t-20 123q-20 33 -66 33t-68 -36t-22 -123q0 -88 20 -125t68 -37zM1872 -20q-297 0 -297 292q0 313 311 314q295 0 295 -291q-1 -147 -79 -231t-230 -84zM1141 287q1 -90 21 -128t67 -38t67 38t20 127t-18 123q-20 34 -67 33
q-90 0 -90 -155zM1221 -20q-297 0 -297 292q0 313 311 314q297 0 297 -291q0 -145 -80 -230t-231 -85zM377 891q-90 0 -88 -156q-1 -92 19 -128t68 -36t67 36t19 125t-18 124q-20 35 -67 35zM606 -23h-264l649 1057h264zM369 428q-297 0 -297 293q0 311 309 311
q297 0 297 -289q0 -147 -78 -231t-231 -84z" />
    <glyph glyph-name="hyphensuperior" horiz-adv-x="450" 
d="M408 1001h-367v209h367v-209z" />
    <glyph glyph-name="commasuperior" horiz-adv-x="407" 
d="M-18 567l92 365h262l-148 -381z" />
    <glyph glyph-name="periodsuperior" horiz-adv-x="438" 
d="M220 975q154 0 153 -137q0 -138 -154 -138t-153 136q0 139 154 139z" />
    <glyph glyph-name="a.sup" horiz-adv-x="813" 
d="M465 999q-170 0 -170 -79q1 -62 65 -62t105 37v104zM698 1184v-275q0 -37 16 -47t62 2l6 -135q-61 -27 -131 -27q-139 0 -164 97q-78 -99 -207 -99t-178 58t-49 134q0 75 39 126q84 110 371 110v27q-1 55 -17 82t-73 27q-82 0 -97 -95l-204 37q39 225 319 226
q155 0 231 -60t76 -188z" />
    <glyph glyph-name="b.sup" horiz-adv-x="860" 
d="M432 879q119 0 119 186t-117 186q-61 0 -112 -43v-290q57 -39 110 -39zM82 717v1009h237v-368q80 74 207 74t203 -83t76 -273t-82 -282t-212 -94q-130 0 -208 78h-8l-10 -61h-203z" />
    <glyph glyph-name="c.sup" horiz-adv-x="788" 
d="M51 1063q1 170 101 269q100 100 260 100t244 -71q83 -71 94 -202l-213 -29q-6 68 -29 99t-78 31q-127 0 -127 -190t127 -189q109 0 127 127l195 -45q-36 -263 -358 -263q-160 0 -252 96t-91 267z" />
    <glyph glyph-name="d.sup" horiz-adv-x="858" 
d="M309 1066q0 -189 127 -189q58 -1 103 38v308q-39 33 -97 32q-133 0 -133 -189zM778 1726v-1009h-200l-15 67q-2 0 -2 1t-2 1q-74 -86 -210 -86t-215 86t-79 274t92 280q93 92 215 92t187 -58v352h229z" />
    <glyph glyph-name="e.sup" horiz-adv-x="790" 
d="M307 1149h185q2 121 -89 121q-39 0 -67 -30t-29 -91zM418 700q-186 0 -276 104t-91 272q1 169 103 262t262 94q324 0 323 -328q0 -66 -2 -88h-432q-6 -143 127 -144q96 0 113 91l192 -48q-18 -99 -100 -157t-219 -58z" />
    <glyph glyph-name="f.sup" horiz-adv-x="552" 
d="M352 1462v-45h191v-164h-191v-536h-241v536h-97v164h97v72q0 129 77 192q78 63 194 63t187 -28l-8 -160q-129 36 -181 -6q-28 -23 -28 -88z" />
    <glyph glyph-name="g.sup" horiz-adv-x="813" 
d="M553 610q0 47 -86 52l-191 10q-33 -20 -32 -54q0 -61 166 -61q113 0 133 24q10 11 10 29zM518 1182q0 102 -114 102t-113 -101q0 -101 115 -102q52 0 82 27t30 74zM390 1432q130 0 198 -35q51 109 141 108q37 0 78 -12v-143q-78 8 -139 -11q63 -66 63 -170t-89 -172
t-239 -67q-74 0 -133 14q-18 -18 -18 -37q0 -29 55 -35l221 -16q126 -8 190 -52t64 -157t-104 -172t-285 -59q-362 0 -362 159q0 47 36 80t101 41v2q-113 35 -113 120t115 165q-104 61 -104 186t97 194t227 69z" />
    <glyph glyph-name="h.sup" horiz-adv-x="841" 
d="M766 1196v-479h-240v440q0 96 -86 96q-63 0 -121 -47v-489h-239v1009h237v-368q83 74 211 74t183 -58t55 -178z" />
    <glyph glyph-name="i.sup" horiz-adv-x="405" 
d="M346 1630q0 -63 -38 -98t-104 -35t-103 35q-36 35 -35 98q0 131 137 131q67 0 105 -34t38 -97zM324 1417v-700h-240v700h240z" />
    <glyph glyph-name="j.sup" horiz-adv-x="405" 
d="M346 1631q0 -62 -38 -98t-104 -36t-102 36t-36 98t36 98q37 35 103 35q65 0 103 -36q38 -35 38 -97zM326 672q0 -130 -76 -192t-203 -62t-186 41l14 170q59 -27 119 -27q90 0 90 103v712h242v-745z" />
    <glyph glyph-name="k.sup" horiz-adv-x="829" 
d="M324 1726v-538l219 229h266l-242 -250l260 -450h-266l-180 309l-57 -55v-254h-242v1009h242z" />
    <glyph glyph-name="l.sup" horiz-adv-x="405" 
d="M326 1726v-1009h-242v1009h242z" />
    <glyph glyph-name="m.sup" horiz-adv-x="1218" 
d="M319 717h-239v700h205l10 -59q88 74 222 74t181 -82q72 82 220 82q225 0 225 -232v-483h-242v448q0 88 -72 88q-61 0 -98 -41v-495h-242v448q0 88 -69 88q-60 0 -101 -41v-495z" />
    <glyph glyph-name="n.sup" horiz-adv-x="841" 
d="M766 1196v-479h-240v440q0 96 -86 96q-63 0 -121 -47v-489h-239v700h213l12 -65q88 80 218 80q131 0 187 -58t56 -178z" />
    <glyph glyph-name="o.sup" horiz-adv-x="851" 
d="M425 868q67 0 95 45t29 155q0 110 -28 152q-29 42 -93 42t-94 -45t-31 -151t27 -152t95 -46zM416 700q-365 0 -365 363q0 174 96 271q97 98 287 98t278 -94t89 -267q0 -171 -94 -271t-291 -100z" />
    <glyph glyph-name="p.sup" horiz-adv-x="860" 
d="M428 879q121 0 121 187t-113 187q-60 0 -117 -45v-290q49 -39 109 -39zM82 432v985h205l14 -67q84 82 217 82t209 -83t76 -273t-83 -282t-209 -94q-126 0 -196 64v-332h-233z" />
    <glyph glyph-name="q.sup" horiz-adv-x="860" 
d="M309 1067q0 -188 127 -188q56 -1 103 36v308q-43 33 -101 32q-129 0 -129 -188zM778 1417v-985h-229v338q-82 -70 -205 -70q-289 0 -289 355q0 195 92 285q91 90 221 92q130 0 191 -82l23 67h196z" />
    <glyph glyph-name="r.sup" horiz-adv-x="587" 
d="M319 717h-239v700h205l18 -112q88 127 229 127q25 0 37 -2v-216q-150 10 -250 -61v-436z" />
    <glyph glyph-name="s.sup" horiz-adv-x="735" 
d="M375 1432q242 0 305 -181l-188 -59q-33 92 -117 92t-84 -51q0 -33 34 -48t117 -28q146 -24 198 -74t52 -139q0 -121 -95 -182t-241 -62q-276 0 -321 179l192 67q29 -88 127 -88t99 55q1 20 -9 27q-10 8 -14 11t-12 5t-14 4t-28 5q-21 2 -73 11q-53 10 -104 28t-93 68
q-41 50 -40 128q0 112 88 172t221 60z" />
    <glyph glyph-name="t.sup" horiz-adv-x="614" 
d="M123 936v317h-109v164h109v209l242 29v-238h192v-164h-192v-280q0 -47 18 -69q17 -22 71 -22t111 33l31 -159q-90 -55 -227 -56q-246 0 -246 236z" />
    <glyph glyph-name="u.sup" horiz-adv-x="833" 
d="M78 934v483h239v-440q0 -96 80 -96q59 0 117 47v489h240v-700h-205l-19 74q-76 -90 -225 -91q-227 1 -227 234z" />
    <glyph glyph-name="v.sup" horiz-adv-x="790" 
d="M535 717h-281l-254 700h260l137 -485h6l140 485h248z" />
    <glyph glyph-name="w.sup" horiz-adv-x="1191" 
d="M498 717h-285l-213 700h240l120 -469h5l118 469h234l123 -467h4l112 467h236l-217 -700h-268l-111 430h-2z" />
    <glyph glyph-name="x.sup" horiz-adv-x="786" 
d="M768 1417l-236 -346l240 -354h-254l-135 201l-133 -201h-227l237 348l-246 352h260l132 -207l131 207h231z" />
    <glyph glyph-name="y.sup" horiz-adv-x="780" 
d="M216 418q-112 0 -175 31l16 165q68 -20 112 -20q43 0 65 22t47 84l-281 717h258l137 -471h4l136 471h247q-68 -182 -280 -751q-50 -136 -112 -192t-174 -56z" />
    <glyph glyph-name="z.sup" horiz-adv-x="681" 
d="M643 895v-178h-596v157l315 371h-313v172h572v-164l-306 -358h328z" />
    <glyph glyph-name="hypheninferior" horiz-adv-x="450" 
d="M408 -14h-367v209h367v-209z" />
    <glyph glyph-name="commainferior" horiz-adv-x="407" 
d="M-18 -449l92 365h262l-148 -381z" />
    <glyph glyph-name="periodinferior" horiz-adv-x="438" 
d="M220 -41q154 0 153 -137q0 -137 -154 -137t-153 135q0 139 154 139z" />
    <glyph glyph-name="minusinferior" horiz-adv-x="907" 
d="M721 51h-533v193h533v-193z" />
    <glyph glyph-name="plusinferior" horiz-adv-x="907" 
d="M553 -129h-203v176h-172v195h172v170h203v-170h174v-195h-174v-176z" />
    <glyph glyph-name="equalinferior" horiz-adv-x="911" 
d="M723 139h-535v193h535v-193zM723 -135h-535v192h535v-192z" />
    <glyph glyph-name="a.sinf" horiz-adv-x="813" 
d="M465 -16q-170 0 -170 -80q1 -62 65 -62t105 37v105zM698 168v-274q0 -38 16 -48t62 2l6 -135q-61 -27 -131 -26q-139 0 -164 96q-78 -98 -207 -98t-178 58t-49 133t39 126q82 107 371 111v26q-1 55 -17 82t-73 27q-82 0 -97 -94l-204 36q39 225 319 226q155 0 231 -60
t76 -188z" />
    <glyph glyph-name="b.sinf" horiz-adv-x="860" 
d="M432 -137q119 0 119 186t-117 187q-61 0 -112 -43v-291q59 -39 110 -39zM82 -299v1010h237v-369q80 74 207 74t203 -83t76 -273t-82 -282q-82 -93 -212 -93t-208 77h-8l-10 -61h-203z" />
    <glyph glyph-name="c.sinf" horiz-adv-x="788" 
d="M394 -315q-160 0 -252 96q-91 96 -91 266q1 170 101 269q100 100 260 100t244 -71q83 -71 94 -202l-213 -28q-6 69 -29 99t-78 30q-127 0 -127 -190t127 -189q109 0 127 127l195 -45q-36 -262 -358 -262z" />
    <glyph glyph-name="d.sinf" horiz-adv-x="858" 
d="M442 240q-133 0 -133 -190t127 -189q58 0 103 39v307q-39 33 -97 33zM778 711v-1010h-200l-15 68q-2 0 -2 1t-2 1q-74 -86 -210 -86t-215 86q-79 85 -79 273t92 280q93 92 215 92t187 -58v353h229z" />
    <glyph glyph-name="e.sinf" horiz-adv-x="790" 
d="M307 133h185q2 121 -89 121q-39 0 -67 -30t-29 -91zM418 -315q-186 0 -277 103q-90 103 -90 272q1 168 103 262t262 94q324 0 323 -328q0 -66 -2 -88h-432q-6 -143 127 -143q96 0 113 90l192 -47q-18 -100 -100 -158t-219 -57z" />
    <glyph glyph-name="f.sinf" horiz-adv-x="552" 
d="M456 557q-48 -1 -76 -23t-28 -88v-45h191v-163h-191v-537h-241v537h-97v163h97v72q0 129 77 193q78 63 194 63t187 -29l-8 -159q-57 16 -105 16z" />
    <glyph glyph-name="g.sinf" horiz-adv-x="813" 
d="M553 -406q0 47 -86 52l-191 10q-33 -20 -32 -53q0 -61 166 -62q113 0 133 24q10 11 10 29zM518 166q0 102 -114 102t-113 -101q0 -101 115 -101q52 0 82 26t30 74zM66 154q0 126 97 194t227 68t198 -35q51 109 141 108q37 0 78 -12v-143q-78 8 -139 -10q63 -66 63 -170
t-89 -172t-239 -68q-74 0 -133 14q-18 -18 -18 -37q0 -29 55 -34l221 -17q126 -8 190 -52t64 -156t-104 -172t-285 -60q-362 0 -362 160q0 47 36 80t101 41v2q-113 35 -113 119t115 165q-104 61 -104 187z" />
    <glyph glyph-name="h.sinf" horiz-adv-x="841" 
d="M766 180v-479h-240v440q0 96 -86 97q-63 0 -121 -48v-489h-239v1010h237v-369q83 74 211 74t183 -58t55 -178z" />
    <glyph glyph-name="i.sinf" horiz-adv-x="405" 
d="M346 614q0 -63 -38 -98t-104 -35t-103 35q-36 35 -35 98q0 131 137 131q67 0 105 -34t38 -97zM324 401v-700h-240v700h240z" />
    <glyph glyph-name="j.sinf" horiz-adv-x="405" 
d="M205 748q65 0 103 -36t38 -97q0 -62 -38 -98t-104 -36t-102 36t-36 98t36 98q37 35 103 35zM326 -344q0 -130 -76 -192t-203 -62t-186 41l14 170q59 -27 119 -27q90 0 90 103v712h242v-745z" />
    <glyph glyph-name="k.sinf" horiz-adv-x="829" 
d="M324 711v-539l219 229h266l-242 -249l260 -451h-266l-180 309l-57 -55v-254h-242v1010h242z" />
    <glyph glyph-name="l.sinf" horiz-adv-x="405" 
d="M326 711v-1010h-242v1010h242z" />
    <glyph glyph-name="m.sinf" horiz-adv-x="1218" 
d="M319 -299h-239v700h205l10 -59q88 74 222 74t181 -82q72 82 220 82q225 0 225 -232v-483h-242v449q0 88 -72 88q-61 0 -98 -41v-496h-242v449q0 88 -69 88q-60 0 -101 -41v-496z" />
    <glyph glyph-name="n.sinf" horiz-adv-x="841" 
d="M766 180v-479h-240v440q0 96 -86 97q-63 0 -121 -48v-489h-239v700h213l12 -65q88 80 218 80q131 0 187 -58t56 -178z" />
    <glyph glyph-name="o.sinf" horiz-adv-x="851" 
d="M425 -147q67 0 95 45t29 154q0 110 -28 152q-29 42 -93 42t-94 -45t-31 -151t27 -152t95 -45zM416 -315q-365 0 -365 362q0 174 96 271q97 98 287 98t278 -94t89 -266q0 -172 -94 -272q-94 -99 -291 -99z" />
    <glyph glyph-name="p.sinf" horiz-adv-x="860" 
d="M428 -137q121 0 121 187t-113 188q-60 0 -117 -45v-291q49 -39 109 -39zM82 -584v985h205l14 -67q84 82 217 82t209 -83t76 -273t-83 -282q-83 -93 -209 -93t-196 63v-332h-233z" />
    <glyph glyph-name="q.sinf" horiz-adv-x="860" 
d="M438 240q-129 0 -129 -188t127 -189q56 0 103 37v307q-43 33 -101 33zM778 401v-985h-229v338q-82 -70 -205 -69q-289 0 -289 354q0 195 92 286q91 91 221 91t191 -82l23 67h196z" />
    <glyph glyph-name="r.sinf" horiz-adv-x="587" 
d="M319 -299h-239v700h205l18 -112q88 127 229 127q25 0 37 -2v-215q-150 10 -250 -62v-436z" />
    <glyph glyph-name="s.sinf" horiz-adv-x="735" 
d="M375 416q242 0 305 -180l-188 -60q-33 92 -117 92t-84 -51q0 -33 34 -48t93 -25q171 -28 222 -76q52 -49 52 -140q0 -121 -95 -182t-241 -61q-276 0 -321 178l192 67q29 -88 127 -88t99 56q0 19 -18 33t-49 17t-84 12q-52 10 -103 28t-93 68q-41 50 -40 128q0 112 88 172
t221 60z" />
    <glyph glyph-name="t.sinf" horiz-adv-x="614" 
d="M369 -315q-246 0 -246 235v318h-109v163h109v209l242 29v-238h192v-163h-192v-281q0 -47 18 -69q17 -22 71 -22t111 34l31 -160q-90 -55 -227 -55z" />
    <glyph glyph-name="u.sinf" horiz-adv-x="833" 
d="M78 -82v483h239v-440q0 -96 80 -96q59 0 117 47v489h240v-700h-205l-19 74q-76 -90 -225 -90q-227 0 -227 233z" />
    <glyph glyph-name="v.sinf" horiz-adv-x="790" 
d="M535 -299h-281l-254 700h260l137 -485h6l140 485h248z" />
    <glyph glyph-name="w.sinf" horiz-adv-x="1191" 
d="M498 -299h-285l-213 700h240l120 -469h5l118 469h234l123 -467h4l112 467h236l-217 -700h-268l-111 430h-2z" />
    <glyph glyph-name="x.sinf" horiz-adv-x="786" 
d="M768 401l-236 -346l240 -354h-254l-135 201l-133 -201h-227l237 348l-246 352h260l132 -206l131 206h231z" />
    <glyph glyph-name="y.sinf" horiz-adv-x="780" 
d="M216 -598q-112 0 -175 31l16 166q138 -41 177 2q22 23 47 84l-281 716h258l137 -471h4l136 471h247q-68 -182 -280 -751q-50 -136 -112 -192t-174 -56z" />
    <glyph glyph-name="z.sinf" horiz-adv-x="681" 
d="M643 -121v-178h-596v158l315 370h-313v172h572v-163l-306 -359h328z" />
    <glyph glyph-name="zero.num" horiz-adv-x="880" 
d="M440 762q53 0 74 59q20 59 21 223t-19 220t-72 55q-52 0 -74 -55q-22 -54 -22 -220t20 -224t72 -58zM440 561q-194 0 -285 118t-92 368q0 471 386 471q197 0 283 -111t85 -361q0 -250 -92 -368q-91 -117 -285 -117z" />
    <glyph glyph-name="one.num" horiz-adv-x="671" 
d="M553 571h-272v643q-29 -14 -100 -25t-107 -11l-11 213q199 14 291 106h199v-926z" />
    <glyph glyph-name="two.num" horiz-adv-x="829" 
d="M426 1518q154 0 234 -66t79 -174q0 -108 -60 -190t-218 -216l-66 -67v-8h359v-222h-670v222l199 198q109 109 146 161q38 52 38 97q0 70 -70 70q-88 0 -102 -117l-234 31q14 139 113 210q98 71 252 71z" />
    <glyph glyph-name="three.num" horiz-adv-x="843" 
d="M386 756q97 0 97 98q0 55 -26 79q-27 24 -90 23h-103v177h64q143 0 143 120q0 74 -78 74t-100 -96l-225 41q45 246 352 246q152 0 234 -58t83 -166q0 -154 -178 -221v-6q201 -41 201 -219q0 -135 -104 -211t-252 -76q-329 0 -359 254l234 43q10 -102 107 -102z" />
    <glyph glyph-name="four.num" horiz-adv-x="884" 
d="M481 969v307l-200 -307h200zM743 575h-262v189h-426v182l361 555h325v-532h107v-205h-105v-189z" />
    <glyph glyph-name="five.num" horiz-adv-x="841" 
d="M690 1501v-215h-366l-25 -184l4 -8q74 74 192 74q117 0 185 -72t68 -218t-104 -231q-104 -86 -252 -86q-322 0 -353 258l229 39q8 -104 109 -104q47 0 77 32t29 86q0 111 -94 111q-59 0 -108 -49l-177 55l33 512h553z" />
    <glyph glyph-name="six.num" horiz-adv-x="880" 
d="M461 752q80 0 80 112t-80 111q-52 0 -99 -47q2 -90 24 -133t75 -43zM485 1331q-61 -1 -97 -67t-38 -199q76 80 194 80q118 1 192 -63q73 -64 73 -214t-99 -228q-99 -79 -257 -79q-356 0 -357 461q0 189 80 330q43 76 126 121t200 45q264 0 307 -236l-238 -49
q-12 98 -86 98z" />
    <glyph glyph-name="seven.num" horiz-adv-x="776" 
d="M63 1286v215h662v-194l-350 -732h-287l356 711h-381z" />
    <glyph glyph-name="eight.num" horiz-adv-x="858" 
d="M547 1272q0 33 -27 52q-28 19 -70 19t-66 -18t-24 -49q0 -60 119 -107q68 45 68 103zM295 856q0 -110 123 -108q106 0 106 81q1 76 -155 129q-74 -47 -74 -102zM815 852q-1 -121 -109 -206t-287 -85t-276 68q-96 68 -96 178q0 156 189 233q-152 59 -152 215
q0 125 101 194t259 69t247 -58t89 -160q1 -139 -159 -202q96 -38 145 -96t49 -150z" />
    <glyph glyph-name="nine.num" horiz-adv-x="874" 
d="M422 1327q-80 -1 -80 -115t84 -114q53 0 88 39q-6 100 -24 145t-68 45zM339 938q-116 0 -191 63q-74 63 -74 212t103 227t277 78q334 0 332 -461q0 -187 -70 -325q-40 -79 -123 -125t-202 -46q-285 0 -328 238l238 61q8 -53 30 -82t70 -28q131 0 134 256
q-80 -68 -196 -68z" />
    <glyph glyph-name="parenleft.ordn" horiz-adv-x="598" 
d="M86 972q0 294 221 576h262q-98 -131 -153 -260q-56 -129 -56 -297t54 -297t145 -266l-270 -2q-203 252 -203 546z" />
    <glyph glyph-name="parenright.ordn" horiz-adv-x="632" 
d="M514 997q0 -291 -217 -571h-264q98 127 152 254q55 127 55 296t-55 299q-54 130 -148 271l270 2q207 -260 207 -551z" />
    <glyph glyph-name="hyphen.ordn" horiz-adv-x="450" 
d="M408 862h-367v209h367v-209z" />
    <glyph glyph-name="comma.ordn" horiz-adv-x="407" 
d="M-18 428l92 365h262l-148 -381z" />
    <glyph glyph-name="period.ordn" horiz-adv-x="438" 
d="M220 835q154 0 153 -137q0 -137 -154 -137t-153 135q0 139 154 139z" />
    <glyph glyph-name="minus.ordn" horiz-adv-x="907" 
d="M721 928h-533v192h533v-192z" />
    <glyph glyph-name="plus.ordn" horiz-adv-x="907" 
d="M553 748h-203v176h-172v194h172v170h203v-170h174v-194h-174v-176z" />
    <glyph glyph-name="equal.ordn" horiz-adv-x="911" 
d="M723 1016h-535v192h535v-192zM723 741h-535v193h535v-193z" />
    <glyph glyph-name="a.ordn" horiz-adv-x="813" 
d="M465 860q-170 0 -170 -80q0 -61 74 -61q55 0 96 37v104zM698 1044v-274q0 -37 16 -47t62 2l6 -135q-61 -27 -131 -27q-139 0 -164 96q-78 -98 -207 -98q-129 1 -178 59t-49 133q0 153 149 199q114 37 261 37v27q-1 55 -17 82t-73 26q-82 0 -97 -94l-204 37
q39 225 319 225q154 0 231 -59q76 -60 76 -189z" />
    <glyph glyph-name="b.ordn" horiz-adv-x="860" 
d="M432 739q119 1 119 187t-117 186q-61 0 -112 -43v-291q57 -39 110 -39zM82 578v1009h237v-368q80 73 207 73t203 -83t76 -273t-82 -282q-82 -93 -212 -93t-208 78h-8l-10 -61h-203z" />
    <glyph glyph-name="c.ordn" horiz-adv-x="788" 
d="M394 561q-160 0 -252 96q-91 96 -91 266q1 169 101 269t282 100q139 0 222 -70t94 -202l-213 -29q-6 68 -29 99t-78 30q-127 0 -127 -190t127 -189q109 0 127 127l195 -45q-36 -262 -358 -262z" />
    <glyph glyph-name="d.ordn" horiz-adv-x="858" 
d="M442 1116q-133 0 -133 -189t127 -190q58 0 103 39v307q-39 33 -97 33zM778 1587v-1009h-200l-15 67q-2 0 -2 1t-2 1q-74 -86 -210 -86t-215 86q-79 85 -79 273t92 280q93 92 215 92t187 -57v352h229z" />
    <glyph glyph-name="e.ordn" horiz-adv-x="790" 
d="M307 1010h185q2 121 -89 120q-39 0 -67 -30t-29 -90zM418 561q-186 -1 -276 103t-91 273q1 169 103 262t262 93q324 0 323 -327q0 -66 -2 -88h-432q-6 -143 127 -144q96 0 113 90l192 -47q-18 -100 -100 -158t-219 -57z" />
    <glyph glyph-name="f.ordn" horiz-adv-x="552" 
d="M352 1323v-45h191v-164h-191v-536h-241v536h-97v164h97v72q0 129 77 192q78 64 194 64t187 -29l-8 -160q-129 36 -181 -6q-28 -23 -28 -88z" />
    <glyph glyph-name="g.ordn" horiz-adv-x="813" 
d="M553 471q0 47 -86 51l-191 10q-33 -20 -32 -53q0 -61 166 -61q112 0 128 18q15 18 15 35zM518 1042q0 102 -114 102t-113 -100q0 -102 115 -102q52 0 82 26t30 74zM66 1030q0 126 97 194t227 68t198 -35q51 109 141 109q37 0 78 -12v-144q-78 8 -139 -10q63 -66 63 -170
t-89 -172t-239 -67q-74 0 -133 14q-18 -18 -18 -37q0 -29 55 -35l221 -16q126 -8 190 -52t64 -157t-104 -172t-285 -60q-362 0 -362 160q0 47 36 80t101 41v2q-113 35 -113 120t115 165q-104 61 -104 186z" />
    <glyph glyph-name="h.ordn" horiz-adv-x="841" 
d="M766 1057v-479h-240v440q0 96 -86 96q-63 0 -121 -47v-489h-239v1009h237v-368q83 73 211 73t183 -57t55 -178z" />
    <glyph glyph-name="i.ordn" horiz-adv-x="405" 
d="M346 1491q0 -63 -38 -98t-104 -35t-103 35q-36 35 -35 98q0 131 137 131q67 0 105 -34t38 -97zM324 1278v-700h-240v700h240z" />
    <glyph glyph-name="j.ordn" horiz-adv-x="405" 
d="M205 1624q65 0 103 -35t38 -97t-38 -98t-104 -36t-102 36t-36 98t36 97q37 35 103 35zM47 279q-127 0 -186 40l14 170q59 -27 119 -26q90 0 90 102v713h242v-746q0 -131 -76 -192t-203 -61z" />
    <glyph glyph-name="k.ordn" horiz-adv-x="829" 
d="M324 1587v-538l219 229h266l-242 -250l260 -450h-266l-180 309l-57 -56v-253h-242v1009h242z" />
    <glyph glyph-name="l.ordn" horiz-adv-x="405" 
d="M326 1587v-1009h-242v1009h242z" />
    <glyph glyph-name="m.ordn" horiz-adv-x="1218" 
d="M319 578h-239v700h205l10 -59q88 73 222 73t181 -82q72 82 220 82q225 0 225 -231v-483h-242v448q0 88 -72 88q-61 0 -98 -41v-495h-242v448q0 88 -69 88q-60 0 -101 -41v-495z" />
    <glyph glyph-name="n.ordn" horiz-adv-x="841" 
d="M766 1057v-479h-240v440q0 96 -86 96q-63 0 -121 -47v-489h-239v700h213l12 -66q88 80 218 80q131 0 187 -57t56 -178z" />
    <glyph glyph-name="o.ordn" horiz-adv-x="851" 
d="M428 1122q-64 0 -94 -45t-31 -151t27 -151q28 -46 95 -46t95 45q28 44 29 154q0 110 -28 152q-29 42 -93 42zM416 561q-365 0 -365 363q0 174 96 271q97 97 287 97t278 -94t89 -266q0 -172 -94 -272t-291 -99z" />
    <glyph glyph-name="p.ordn" horiz-adv-x="860" 
d="M428 739q121 -1 121 187t-113 188q-60 0 -117 -45v-291q49 -39 109 -39zM82 293v985h205l14 -68q84 82 217 82t209 -83t76 -273t-83 -282q-83 -93 -209 -93t-196 64v-332h-233z" />
    <glyph glyph-name="q.ordn" horiz-adv-x="860" 
d="M438 1116q-129 0 -129 -188t127 -189q56 0 103 37v307q-43 33 -101 33zM778 1278v-985h-229v338q-82 -70 -205 -70q-289 0 -289 354q0 195 92 286q91 91 221 91t191 -82l23 68h196z" />
    <glyph glyph-name="r.ordn" horiz-adv-x="587" 
d="M319 578h-239v700h205l18 -113q88 127 229 127q25 0 37 -2v-215q-150 10 -250 -61v-436z" />
    <glyph glyph-name="s.ordn" horiz-adv-x="735" 
d="M375 1292q242 0 305 -180l-188 -59q-33 92 -117 92t-84 -51q0 -33 34 -48t117 -28q146 -24 198 -74t52 -139q0 -121 -95 -182t-241 -62q-276 0 -321 178l192 68q29 -88 127 -88t99 55q1 20 -9 27q-10 8 -14 11t-12 5t-14 4t-33 5q-26 3 -73 11q-48 9 -99 27t-93 68
t-40 129q0 111 88 171t221 60z" />
    <glyph glyph-name="t.ordn" horiz-adv-x="614" 
d="M369 561q-246 0 -246 236v317h-109v164h109v209l242 29v-238h192v-164h-192v-280q0 -47 18 -69q17 -22 71 -22t111 33l31 -160q-90 -55 -227 -55z" />
    <glyph glyph-name="u.ordn" horiz-adv-x="833" 
d="M78 795v483h239v-440q0 -96 80 -97q59 0 117 47v490h240v-700h-205l-19 73q-76 -90 -225 -90q-227 1 -227 234z" />
    <glyph glyph-name="v.ordn" horiz-adv-x="790" 
d="M535 578h-281l-254 700h260l137 -485h6l140 485h248z" />
    <glyph glyph-name="w.ordn" horiz-adv-x="1191" 
d="M498 578h-285l-213 700h240l120 -469h5l118 469h234l123 -467h4l112 467h236l-217 -700h-268l-111 430h-2z" />
    <glyph glyph-name="x.ordn" horiz-adv-x="786" 
d="M768 1278l-236 -346l240 -354h-254l-135 200l-133 -200h-227l237 348l-246 352h260l132 -207l131 207h231z" />
    <glyph glyph-name="y.ordn" horiz-adv-x="780" 
d="M216 279q-112 0 -175 30l16 166q68 -20 112 -20q43 1 65 23t47 83l-281 717h258l137 -471h4l136 471h247q-68 -182 -280 -752q-50 -137 -112 -192t-174 -55z" />
    <glyph glyph-name="z.ordn" horiz-adv-x="681" 
d="M643 756v-178h-596v157l315 371h-313v172h572v-164l-306 -358h328z" />
    <glyph glyph-name="zero.denom" horiz-adv-x="880" 
d="M440 186q54 0 74 60t20 222q0 163 -18 219q-20 56 -72 56t-74 -55t-22 -220q0 -166 20 -224t72 -58zM449 942q197 0 283 -111t85 -361q0 -250 -92 -368q-91 -116 -285 -116t-285 118t-92 367q0 471 386 471z" />
    <glyph glyph-name="one.denom" horiz-adv-x="671" 
d="M553 -4h-272v643q-29 -13 -100 -25t-107 -12l-11 213q199 14 291 107h199v-926z" />
    <glyph glyph-name="two.denom" horiz-adv-x="829" 
d="M426 942q154 0 234 -66t79 -174q0 -108 -60 -190t-218 -215l-66 -68v-8h359v-221h-670v221l199 199q109 109 146 161q38 52 38 97q0 70 -70 70q-88 0 -102 -117l-234 31q14 140 113 210q98 70 252 70z" />
    <glyph glyph-name="three.denom" horiz-adv-x="843" 
d="M483 279q-1 55 -27 79t-89 23h-103v176h64q143 0 143 121q0 74 -78 74t-100 -97l-225 41q45 246 352 246q152 0 234 -57t83 -166q0 -154 -178 -221v-6q201 -41 201 -220q0 -135 -104 -211q-104 -75 -252 -75q-329 1 -359 254l234 43q10 -102 106 -103q98 0 98 99z" />
    </font>
</defs>
</svg>
