<?xml version="1.0" standalone="no"?>
<!DOCTYPE svg PUBLIC "-//W3C//DTD SVG 1.1//EN" "http://www.w3.org/Graphics/SVG/1.1/DTD/svg11.dtd" >
<svg xmlns="http://www.w3.org/2000/svg">
<metadata>
Created by FontPrep 20130207 at Fri Jun  6 19:54:46 2014
 By Omar Martinez
Copyright (c) 2012 by TypeTogether. All rights reserved.
</metadata>
<defs>
<font id="16751d8ff99db578fa18c084e408ccb7" horiz-adv-x='1024' >
  <font-face 
    font-family="AdelleSans-Light"
    font-weight="300"
    font-stretch="normal"
    units-per-em="2048"
    panose-1="2 0 5 3 0 0 0 2 0 4"
    ascent="1546"
    descent="-502"
    x-height="1047"
    cap-height="1483"
    bbox="-301 -596 2327 2183"
    underline-thickness="102"
    underline-position="-102"
    unicode-range="U+0020-FB06"
  />
<missing-glyph horiz-adv-x="1024" 
 />
    <glyph glyph-name="ij" unicode="ij" horiz-adv-x="985" 
d="M864 1409q0 -109 -110 -109t-111 109q1 109 111 109t110 -109zM549 -457q-121 0 -176 33l18 113q80 -29 150 -29q139 0 139 170v1217h137v-1209q0 -295 -268 -295zM367 1409q0 -109 -111 -109t-111 109t111 109t111 -109zM322 1047v-1047h-138v1047h138z" />
    <glyph glyph-name="ff" unicode="ff" horiz-adv-x="1257" 
d="M502 1448q-164 0 -164 -191v-210h483v190q0 328 283 328q104 0 174 -33l-6 -111q-76 27 -150 27q-164 0 -164 -191v-210h297v-115h-297v-932h-137v932h-483v-932h-137v932h-160v115h160v190q0 328 282 328q104 0 174 -33l-6 -111q-76 27 -149 27z" />
    <glyph glyph-name="fi" unicode="fi" horiz-adv-x="1132" 
d="M1004 1389q0 -109 -111 -109t-111 109t111 109t111 -109zM958 1047v-1047h-137v932h-483v-932h-137v932h-160v115h160v190q0 328 282 328q104 0 174 -33l-6 -111q-76 27 -149 27q-164 0 -164 -191v-210h620z" />
    <glyph glyph-name="fl" unicode="fl" horiz-adv-x="1132" 
d="M502 1448q-164 0 -164 -191v-210h297v-115h-297v-932h-137v932h-160v115h160v190q0 328 282 328q104 0 174 -33l-6 -111q-76 27 -149 27zM958 1546v-1546h-137v1546h137z" />
    <glyph glyph-name="ffi" unicode="ffi" horiz-adv-x="1753" 
d="M1624 1389q0 -109 -111 -109t-110 109t111 109t110 -109zM1579 1047v-1047h-137v932h-484v-932h-137v932h-483v-932h-137v932h-160v115h160v190q0 328 282 328q104 0 174 -33l-6 -111q-76 27 -149 27q-164 0 -164 -191v-210h483v190q0 328 283 328q104 0 174 -33l-6 -111
q-76 27 -150 27q-164 0 -164 -191v-210h621z" />
    <glyph glyph-name="ffl" unicode="ffl" horiz-adv-x="1753" 
d="M1579 1546v-1546h-137v1546h137zM1122 1448q-164 0 -164 -191v-210h297v-115h-297v-932h-137v932h-483v-932h-137v932h-160v115h160v190q0 328 282 328q104 0 174 -33l-6 -111q-76 27 -149 27q-164 0 -164 -191v-210h483v190q0 328 283 328q104 0 174 -33l-6 -111
q-76 27 -150 27z" />
    <glyph glyph-name="f_k" unicode="fk" horiz-adv-x="1697" 
d="M502 1448q-164 0 -164 -191v-210h297v-115h-297v-932h-137v932h-160v115h160v190q0 328 282 328q104 0 174 -33l-6 -111q-76 27 -149 27zM958 1546v-1005l492 506h160l-369 -379l395 -668h-149l-344 569l-185 -188v-381h-137v1546h137z" />
    <glyph glyph-name="f_b" unicode="fb" horiz-adv-x="1818" 
d="M502 1448q-164 0 -164 -191v-210h297v-115h-297v-932h-137v932h-160v115h160v190q0 328 282 328q104 0 174 -33l-6 -111q-76 27 -149 27zM1264 92q303 0 303 463q0 213 -67 306t-208 93q-92 0 -184 -47t-150 -108v-582q164 -125 306 -125zM821 0v1546h135v-622
q172 143 371 143q379 0 379 -518q0 -289 -125 -431t-317 -143q-156 0 -312 115l-10 -90h-121z" />
    <glyph glyph-name="f_h" unicode="fh" horiz-adv-x="1828" 
d="M502 1448q-164 0 -164 -191v-210h297v-115h-297v-932h-137v932h-160v115h160v190q0 328 282 328q104 0 174 -33l-6 -111q-76 27 -149 27zM1524 692q0 254 -204 254q-104 0 -204 -48q-98 -48 -158 -101v-797h-137v1546h137v-628q201 150 375 150t251 -91q77 -90 77 -270
v-707h-137v692z" />
    <glyph glyph-name="f_t" unicode="ft" horiz-adv-x="1361" 
d="M1100 -25q-141 0 -210 68t-69 213v676h-483v-932h-137v932h-160v115h160v190q0 328 282 328q104 0 174 -33l-6 -111q-76 27 -149 27q-164 0 -164 -191v-210h483v301l137 20v-321h293v-115h-293v-658q0 -98 33 -142t129 -44t187 53l30 -100q-96 -66 -237 -66z" />
    <glyph glyph-name="f_j" unicode="fj" horiz-adv-x="1126" 
d="M1006 1409q0 -109 -111 -109t-111 109t111 109t111 -109zM690 -457q-121 0 -176 33l18 113q78 -29 150 -29q139 0 139 170v1102h-483v-932h-137v932h-160v115h160v190q0 328 282 328q104 0 174 -33l-6 -111q-76 27 -149 27q-164 0 -164 -191v-210h620v-1209
q0 -295 -268 -295z" />
    <glyph glyph-name="f_f_j" unicode="ffj" horiz-adv-x="1744" 
d="M1626 1409q0 -109 -110 -109t-111 109q1 109 111 109t110 -109zM1311 -457q-121 0 -176 33l18 113q80 -29 150 -29q139 0 139 170v1102h-484v-932h-137v932h-483v-932h-137v932h-160v115h160v190q0 328 282 328q104 0 174 -33l-6 -111q-76 27 -149 27q-164 0 -164 -191
v-210h483v190q0 328 283 328q104 0 174 -33l-6 -111q-76 27 -150 27q-164 0 -164 -191v-210h621v-1209q0 -295 -268 -295z" />
    <glyph glyph-name="f_f_k" unicode="ffk" horiz-adv-x="2318" 
d="M1579 1546v-1005l492 506h159l-368 -379l395 -668h-150l-344 569l-184 -188v-381h-137v1546h137zM502 1448q-164 0 -164 -191v-210h483v190q0 328 283 328q104 0 174 -33l-6 -111q-76 27 -150 27q-164 0 -164 -191v-210h297v-115h-297v-932h-137v932h-483v-932h-137v932
h-160v115h160v190q0 328 282 328q104 0 174 -33l-6 -111q-76 27 -149 27z" />
    <glyph glyph-name="f_f_b" unicode="ffb" horiz-adv-x="2439" 
d="M1884 92q303 0 303 463q0 213 -66 306q-67 93 -208 93q-91 0 -183 -47t-151 -108v-582q164 -125 305 -125zM502 1448q-164 0 -164 -191v-210h483v190q0 328 283 328q104 0 174 -33l-6 -111q-76 27 -150 27q-164 0 -164 -191v-210h297v-115h-297v-932h-137v932h-483v-932
h-137v932h-160v115h160v190q0 328 282 328q104 0 174 -33l-6 -111q-76 27 -149 27zM1442 0v1546h135v-622q172 143 371 143q379 0 379 -518q0 -289 -125 -431t-318 -143q-156 0 -311 115l-10 -90h-121z" />
    <glyph glyph-name="f_f_h" unicode="ffh" horiz-adv-x="2449" 
d="M2144 692q0 254 -204 254q-104 0 -203 -48q-98 -48 -158 -101v-797h-137v1546h137v-628q201 150 375 150t250 -91q76 -90 77 -270v-707h-137v692zM502 1448q-164 0 -164 -191v-210h483v190q0 328 283 328q104 0 174 -33l-6 -111q-76 27 -150 27q-164 0 -164 -191v-210
h297v-115h-297v-932h-137v932h-483v-932h-137v932h-160v115h160v190q0 328 282 328q104 0 174 -33l-6 -111q-76 27 -149 27z" />
    <glyph glyph-name="f_f_t" unicode="fft" horiz-adv-x="1980" 
d="M1120 1448q-164 0 -164 -191v-210h484v301l137 20v-321h293v-115h-293v-658q0 -98 33 -142t129 -44t186 53l31 -100q-96 -66 -238 -66t-210 68q-69 68 -68 213v676h-484v-932h-137v932h-481v-932h-137v932h-160v115h160v190q0 328 282 328q104 0 174 -33l-6 -111
q-76 27 -149 27q-164 0 -164 -191v-210h481v190q0 328 283 328q104 0 174 -33l-6 -111q-76 27 -150 27z" />
    <glyph glyph-name="f_iacute" unicode="f&#xed;" horiz-adv-x="1132" 
d="M1176 1534l-291 -363l-107 27l217 336h181zM958 1047v-1047h-137v932h-483v-932h-137v932h-160v115h160v190q0 328 282 328q104 0 174 -33l-6 -111q-76 27 -149 27q-164 0 -164 -191v-210h620z" />
    <glyph glyph-name="t_t" unicode="tt" horiz-adv-x="1361" 
d="M1100 -25q-141 0 -210 68t-69 213v676h-475v-658q0 -98 33 -142t129 -44t186 53l31 -100q-95 -66 -237 -66t-210 68t-69 213v676h-164v115h164v301l137 20v-321h475v301l137 20v-321h293v-115h-293v-658q0 -98 33 -142t129 -44t187 53l30 -100q-96 -66 -237 -66z" />
    <glyph glyph-name=".notdef" horiz-adv-x="1024" 
 />
    <glyph glyph-name=".null" horiz-adv-x="0" 
 />
    <glyph glyph-name="nonmarkingreturn" horiz-adv-x="681" 
 />
    <glyph glyph-name="space" unicode=" " horiz-adv-x="471" 
 />
    <glyph glyph-name="exclam" unicode="!" horiz-adv-x="524" 
d="M383 92q0 -117 -119 -117t-119 117t119 117t119 -117zM309 375h-92l-35 1108h158z" />
    <glyph glyph-name="quotedbl" unicode="&#x22;" horiz-adv-x="737" 
d="M604 952h-147v531h147v-531zM281 952h-148v531h148v-531z" />
    <glyph glyph-name="numbersign" unicode="#" horiz-adv-x="1243" 
d="M737 406l47 331h-272l-51 -331h276zM797 0h-121l45 299h-277l-45 -299h-120l43 299h-248l26 107h240l51 331h-248l25 109h240l38 266h123l-41 -266h273l39 266h123l-41 -266h247l-22 -109h-242l-47 -331h244l-23 -107h-237z" />
    <glyph glyph-name="dollar" unicode="$" horiz-adv-x="1067" 
d="M823 391q0 105 -56 161t-163 93v-514q219 35 219 260zM266 1073q0 -101 48 -163t175 -103v522q-223 -27 -223 -256zM489 -164v178q-178 6 -284 94t-129 289l129 29q27 -154 87 -222t197 -77v551q-86 23 -136 43t-109 62q-117 83 -117 269q0 185 100 283t262 115v172h115
v-170q301 -25 348 -356l-131 -23q-23 113 -69 176q-47 63 -148 80v-551q174 -45 267 -129t93 -251t-94 -265q-96 -98 -266 -117v-180h-115z" />
    <glyph glyph-name="percent" unicode="%" horiz-adv-x="1615" 
d="M428 872q195 0 195 273q0 186 -95 235q-41 20 -94 21q-106 0 -152 -78t-46 -186q0 -190 98 -244q35 -21 94 -21zM993 346q0 -264 194 -264q193 0 193 264t-188 264q-106 0 -152 -78t-47 -186zM1176 -25q-164 1 -240 103t-76 266t88 269t249 105t239 -93q78 -95 78 -267
t-88 -278q-86 -106 -250 -105zM283 -35l899 1518h133q-318 -529 -566 -953q-247 -424 -331 -565h-135zM756 1149q0 -171 -87 -277t-251 -106t-240 102t-76 266t88 270t249 105q161 0 239 -94t78 -266z" />
    <glyph glyph-name="ampersand" unicode="&#x26;" horiz-adv-x="1394" 
d="M648 1309q-87 -1 -142 -53t-55 -166t63 -248l84 37q227 98 227 268q0 70 -45 116t-132 46zM589 92q159 0 265 76q-221 217 -408 528q-135 -78 -170 -202q-12 -49 -12 -109q0 -121 83 -207t242 -86zM664 1427q37 0 75 -6q213 -37 213 -268q0 -125 -83 -210t-310 -191
q61 -108 176 -258t203 -242q111 143 121 436h123q-8 -332 -158 -518q104 -88 197 -88q49 0 100 24l33 -94q-53 -37 -140 -37q-135 0 -274 113q-144 -113 -354 -113t-334 111q-124 110 -123 270q0 160 68 255t200 171q-78 146 -82 316q1 137 99 233t250 96z" />
    <glyph glyph-name="quotesingle" unicode="'" horiz-adv-x="413" 
d="M281 952h-148v531h148v-531z" />
    <glyph glyph-name="parenleft" unicode="(" horiz-adv-x="612" 
d="M121 586q0 442 309 897h141q-311 -500 -311 -908q0 -251 73 -453t216 -435l-137 2q-291 455 -291 897z" />
    <glyph glyph-name="parenright" unicode=")" horiz-adv-x="612" 
d="M201 -311l-138 -2q143 233 217 436q73 203 72 452q0 408 -311 908h141q310 -455 310 -897t-291 -897z" />
    <glyph glyph-name="asterisk" unicode="*" horiz-adv-x="960" 
d="M514 1546l35 -297l272 70l21 -62l-254 -127l168 -258l-51 -38l-226 213l-221 -218l-51 41l166 258l-258 127l22 62l277 -68l39 297h61z" />
    <glyph glyph-name="plus" unicode="+" 
d="M653 268h-141v330h-311v127h311v315h141v-315h312v-127h-312v-330z" />
    <glyph glyph-name="comma" unicode="," horiz-adv-x="425" 
d="M45 -240l109 430h161l-161 -446z" />
    <glyph glyph-name="hyphen" unicode="-" horiz-adv-x="649" 
d="M596 537h-555v137h555v-137z" />
    <glyph glyph-name="period" unicode="." horiz-adv-x="442" 
d="M340 92q0 -117 -119 -117t-119 117t119 117t119 -117z" />
    <glyph glyph-name="slash" unicode="/" horiz-adv-x="722" 
d="M137 -188h-125l576 1734h123z" />
    <glyph glyph-name="zero" unicode="0" horiz-adv-x="1132" 
d="M841 284q58 165 58 511q0 345 -81 470q-81 124 -243 124t-239 -115q-78 -115 -94 -329q-36 -420 50 -661q69 -194 276 -194q206 0 273 194zM575 -25q-241 0 -353 148q-96 127 -120 374q-10 103 -10 255q0 321 93 524q107 233 394 233t383 -231q46 -114 62 -232t16 -290
t-19 -303t-69 -245t-148 -174t-229 -59z" />
    <glyph glyph-name="one" unicode="1" horiz-adv-x="821" 
d="M555 0h-133v1278q-48 -28 -154 -50t-166 -22l-14 105q148 12 242 52t162 120h63v-1483z" />
    <glyph glyph-name="two" unicode="2" horiz-adv-x="1054" 
d="M539 1509q178 0 283 -89q106 -89 106 -261t-77 -308t-247 -339l-325 -393h669v-119h-825v106l358 445q180 221 243 333q62 112 62 255q0 256 -262 256q-150 0 -211 -69t-84 -200l-123 25q58 358 433 358z" />
    <glyph glyph-name="three" unicode="3" horiz-adv-x="1095" 
d="M817 416q0 311 -340 311h-127v119h94q162 0 257 83t96 216q0 246 -258 246q-135 1 -193 -53t-92 -171l-127 29q63 313 428 313q185 0 283 -94t98 -253t-87 -247t-206 -114v-4q317 -51 318 -381q0 -197 -124 -319t-333 -122q-375 0 -414 328l133 25q23 -117 79 -175
q56 -59 198 -59t229 80q88 80 88 242z" />
    <glyph glyph-name="four" unicode="4" horiz-adv-x="1095" 
d="M735 498v850l-549 -850h549zM866 0h-133v381h-692v100l651 1002h176v-985h179v-117h-181v-381z" />
    <glyph glyph-name="five" unicode="5" horiz-adv-x="1093" 
d="M829 471q0 348 -308 348q-147 0 -273 -121l-96 45l57 740h680v-119h-565l-45 -524q127 100 291 100t277 -91q60 -48 96 -141t36 -221q0 -227 -127 -369t-354 -143q-166 0 -284 83t-144 247l133 33q25 -108 89 -174t204 -66q139 0 236 96t97 277z" />
    <glyph glyph-name="six" unicode="6" horiz-adv-x="1146" 
d="M905 448q0 334 -258 334q-106 0 -203 -57t-165 -139q14 -286 94 -392t221 -106t226 94t85 266zM645 1393q-103 0 -181 -67q-78 -66 -118 -176q-70 -196 -76 -435q58 74 164 130t219 56q195 0 292 -118q97 -117 97 -329t-120 -345t-326 -134q-271 0 -372 219
q-85 186 -86 458q-2 435 153 663q57 84 154 139t223 55q295 0 354 -303l-123 -32q-31 125 -91 172t-163 47z" />
    <glyph glyph-name="seven" unicode="7" horiz-adv-x="1034" 
d="M76 1364v119h917v-103l-618 -1380h-148l619 1364h-770z" />
    <glyph glyph-name="eight" unicode="8" horiz-adv-x="1081" 
d="M846 1169q0 111 -73 171t-211 60t-216 -68t-78 -186t81 -202t202 -129q295 145 295 354zM223 358q0 -122 79 -196t242 -74q164 0 244 83t80 198q0 148 -117 226q-59 40 -101 58t-118 47q-158 -70 -234 -144t-75 -198zM529 -25q-219 -1 -331 103t-112 264t88 252t240 160
q-121 51 -201 150t-80 224q0 182 123 282t314 99q191 0 301 -89t110 -249q0 -247 -313 -403q135 -57 236 -141q100 -84 100 -259t-128 -284t-347 -109z" />
    <glyph glyph-name="nine" unicode="9" horiz-adv-x="1146" 
d="M553 1397q-135 -1 -219 -97t-84 -288q0 -328 268 -328q100 0 196 56t163 141q-14 290 -96 402q-34 48 -92 81t-136 33zM514 88q211 0 294 201q69 165 79 463q-59 -72 -165 -129t-220 -58q-195 0 -292 123t-97 339t119 349q120 133 327 133q271 0 372 -218
q85 -186 87 -494q0 -588 -253 -753q-105 -69 -259 -69q-338 1 -397 310l127 32q30 -127 100 -178t178 -51z" />
    <glyph glyph-name="colon" unicode=":" horiz-adv-x="442" 
d="M340 92q0 -117 -119 -117t-119 117t119 117t119 -117zM340 899q0 -117 -119 -117t-119 117t119 117t119 -117z" />
    <glyph glyph-name="semicolon" unicode=";" horiz-adv-x="425" 
d="M360 899q0 -117 -118 -117t-119 117q1 117 119 117t118 -117zM23 -240l108 430h162l-162 -446z" />
    <glyph glyph-name="less" unicode="&#x3c;" 
d="M948 201l-766 303v160l766 325v-133l-635 -264l635 -252v-139z" />
    <glyph glyph-name="equal" unicode="=" 
d="M963 676h-756v127h756v-127zM963 350h-756v127h756v-127z" />
    <glyph glyph-name="greater" unicode="&#x3e;" 
d="M948 516l-766 -303v127l635 252l-635 258v139l766 -325v-148z" />
    <glyph glyph-name="question" unicode="?" horiz-adv-x="1009" 
d="M477 92q0 -117 -119 -117t-118 117q0 117 118 117t119 -117zM426 373h-129v362q203 18 321 95t119 244q0 167 -74 229q-75 61 -202 61t-204 -52t-107 -192l-123 25q23 129 123 233q100 105 299 105q200 0 314 -90t114 -295q0 -377 -451 -459v-266z" />
    <glyph glyph-name="at" unicode="@" horiz-adv-x="1714" 
d="M627 369q0 -274 180 -275q72 0 131 41t92 109v389q-80 69 -178 69t-162 -82q-63 -83 -63 -251zM876 -344q-344 0 -559 190t-215 542t218 563q218 212 556 212q336 0 536 -168t200 -483q0 -260 -92 -388t-256 -128t-220 115q-94 -127 -251 -127q-303 0 -304 381
q-1 197 97 323t258 125q113 0 192 -74l8 62h113v-512q0 -127 28 -158t89 -33q90 0 147 94t58 289q0 567 -598 568q-293 1 -467 -181t-174 -482t178 -457t462 -157t435 144l78 -86q-173 -174 -517 -174z" />
    <glyph glyph-name="A" unicode="A" horiz-adv-x="1388" 
d="M946 598l-258 772l-260 -772h518zM596 1483h188l512 -1483h-151l-160 477h-598l-160 -477h-135z" />
    <glyph glyph-name="B" unicode="B" horiz-adv-x="1298" 
d="M350 817h254q151 0 261 55q63 30 101 90t38 138q0 139 -67 202q-67 62 -374 62h-213v-547zM350 121h291q251 0 331 73q81 73 81 209q0 216 -200 268q-106 27 -280 27h-223v-577zM651 0h-436v1483h487q246 -1 346 -97t99 -256q0 -160 -86 -246t-223 -112v-4
q358 -47 358 -369q0 -215 -142 -307t-403 -92z" />
    <glyph glyph-name="C" unicode="C" horiz-adv-x="1415" 
d="M252 731q0 -641 510 -641q186 0 291 81q104 81 145 255l121 -27q-39 -226 -202 -325t-365 -99q-328 0 -484 197q-156 198 -156 560t185 570q184 208 496 207q235 -1 377 -121t161 -362l-129 -12q-27 188 -123 282t-286 95q-253 0 -397 -169t-144 -491z" />
    <glyph glyph-name="D" unicode="D" horiz-adv-x="1492" 
d="M352 119h269q301 0 459 160t157 454q0 351 -152 491t-452 140h-281v-1245zM610 0h-395v1483h430q375 1 555 -187t180 -537t-192 -554t-578 -205z" />
    <glyph glyph-name="E" unicode="E" horiz-adv-x="1171" 
d="M352 692v-573h721v-119h-858v1483h838v-119h-701v-551h656v-121h-656z" />
    <glyph glyph-name="F" unicode="F" horiz-adv-x="1116" 
d="M352 666v-666h-137v1483h838v-119h-701v-578h649v-120h-649z" />
    <glyph glyph-name="G" unicode="G" horiz-adv-x="1505" 
d="M748 -25q-322 0 -479 201q-157 200 -157 564t184 567q183 203 501 202q498 0 534 -483l-129 -14q-20 203 -122 292t-289 89q-251 0 -395 -173t-144 -483q0 -649 518 -649q204 0 318 124t114 282v153h-444v121h569v-768h-102l-23 209q-39 -96 -167 -165t-287 -69z" />
    <glyph glyph-name="H" unicode="H" horiz-adv-x="1486" 
d="M1272 1483v-1483h-137v702h-783v-702h-137v1483h137v-660h783v660h137z" />
    <glyph glyph-name="I" unicode="I" horiz-adv-x="567" 
d="M352 1483v-1483h-137v1483h137z" />
    <glyph glyph-name="J" unicode="J" horiz-adv-x="997" 
d="M666 350v1133h137v-1129q1 -209 -99 -294t-281 -85t-267 79t-95 237l132 22q14 -115 60 -168t167 -53q122 0 184 52t62 206z" />
    <glyph glyph-name="K" unicode="K" horiz-adv-x="1294" 
d="M352 1483v-760l703 760h162l-601 -645l644 -838h-162l-574 739l-172 -184v-555h-137v1483h137z" />
    <glyph glyph-name="L" unicode="L" horiz-adv-x="1116" 
d="M352 1483v-1364h680v-119h-817v1483h137z" />
    <glyph glyph-name="M" unicode="M" horiz-adv-x="1822" 
d="M1608 1483v-1483h-131v1335l-488 -1335h-162l-483 1337v-1337h-129v1483h213l485 -1346l486 1346h209z" />
    <glyph glyph-name="N" unicode="N" horiz-adv-x="1525" 
d="M1311 0h-174l-791 1335v-1335h-131v1483h197l770 -1317v1317h129v-1483z" />
    <glyph glyph-name="O" unicode="O" horiz-adv-x="1554" 
d="M777 96q237 0 380 169t143 479t-138 478q-138 167 -372 167t-384 -170q-150 -171 -150 -477t142 -476t379 -170zM768 -25q-324 0 -490 210t-165 555q0 345 181 557q180 212 498 212q318 -1 484 -205t166 -552t-175 -563q-175 -214 -499 -214z" />
    <glyph glyph-name="P" unicode="P" horiz-adv-x="1257" 
d="M350 686h246q157 0 231 30t111 68q80 84 80 268t-110 248t-373 64h-185v-678zM350 565v-565h-135v1483h453q264 0 379 -120t114 -316q0 -481 -561 -482h-250z" />
    <glyph glyph-name="Q" unicode="Q" horiz-adv-x="1554" 
d="M776 96q162 0 283 80l-279 307l90 82l279 -309q151 174 151 486t-138 480q-138 167 -372 167t-384 -170q-150 -171 -150 -477t142 -476t378 -170zM768 -25q-324 0 -490 210t-165 555q0 345 181 557q180 212 498 212q318 -1 484 -205t166 -530q0 -406 -205 -616l188 -205
l-86 -78l-192 205q-158 -105 -379 -105z" />
    <glyph glyph-name="R" unicode="R" horiz-adv-x="1296" 
d="M350 758h322q174 0 264 74t90 243t-97 229t-288 60h-291v-606zM350 639v-639h-135v1483h479q254 0 365 -114t110 -284q0 -319 -299 -411l375 -674h-149l-357 639h-389z" />
    <glyph glyph-name="S" unicode="S" horiz-adv-x="1210" 
d="M629 1386q-180 0 -262 -72t-82 -192q0 -86 45 -146q46 -60 118 -93t159 -59t174 -56t160 -71t118 -117t45 -185q0 -213 -143 -316t-373 -103q-452 -1 -516 411l137 21q35 -146 120 -230t247 -84t273 63t109 220q0 90 -45 152q-45 63 -117 95t-160 56q-87 24 -174 54
q-87 28 -160 69t-118 121t-45 192q0 178 135 286t349 107q426 0 473 -411l-131 -17q-42 223 -183 280q-63 25 -153 25z" />
    <glyph glyph-name="T" unicode="T" horiz-adv-x="1101" 
d="M621 0h-138v1364h-452v119h1040v-119h-450v-1364z" />
    <glyph glyph-name="U" unicode="U" horiz-adv-x="1466" 
d="M342 492q0 -212 100 -304t295 -92t291 89t96 302v996h138v-1002q0 -252 -138 -379t-405 -127q-266 0 -390 128t-124 380v1000h137v-991z" />
    <glyph glyph-name="V" unicode="V" horiz-adv-x="1236" 
d="M727 0h-188l-508 1483h151l453 -1362l432 1362h139z" />
    <glyph glyph-name="W" unicode="W" horiz-adv-x="1757" 
d="M1405 0h-174l-346 1311l-357 -1311h-159l-328 1483h145l271 -1319l352 1319h158l350 -1340l264 1340h135z" />
    <glyph glyph-name="X" unicode="X" horiz-adv-x="1257" 
d="M1169 1483l-467 -719l515 -764h-154l-445 662l-425 -662h-152l491 754l-466 729h153l397 -627l406 627h147z" />
    <glyph glyph-name="Y" unicode="Y" horiz-adv-x="1126" 
d="M641 0h-137v582l-504 901h152l423 -764l412 764h139l-485 -895v-588z" />
    <glyph glyph-name="Z" unicode="Z" horiz-adv-x="1200" 
d="M1108 119v-119h-1032v98l827 1266h-803v119h973v-103l-827 -1261h862z" />
    <glyph glyph-name="bracketleft" unicode="[" horiz-adv-x="518" 
d="M436 -293h-297v1776h297v-90l-170 -17v-1558l170 -19v-92z" />
    <glyph glyph-name="backslash" unicode="\" horiz-adv-x="722" 
d="M711 -188h-125l-574 1734h123z" />
    <glyph glyph-name="bracketright" unicode="]" horiz-adv-x="518" 
d="M379 -293h-297v92l170 19v1558l-170 17v90h297v-1776z" />
    <glyph glyph-name="asciicircum" unicode="^" horiz-adv-x="1077" 
d="M1016 612h-139l-345 621l-337 -621h-134l404 748h141z" />
    <glyph glyph-name="underscore" unicode="_" horiz-adv-x="1024" 
d="M1024 -371h-1024v107h1024v-107z" />
    <glyph glyph-name="grave" unicode="`" horiz-adv-x="1024" 
d="M575 1171l-290 363h180l217 -336z" />
    <glyph glyph-name="a" unicode="a" horiz-adv-x="1095" 
d="M645 502q-272 0 -343 -100q-36 -48 -36 -123q0 -193 199 -193q86 0 169 41t136 102v267q-49 6 -125 6zM905 709v-541q1 -46 13 -64t44 -18t70 12l8 -88q-57 -29 -125 -28q-127 0 -135 131q-131 -137 -348 -138q-94 0 -160 29t-96 76q-54 85 -53 178q0 352 508 352
q55 0 137 -4v105q0 127 -48 186t-173 59t-179 -45t-73 -143l-129 23q25 143 119 209t273 67q179 -1 263 -83t84 -275z" />
    <glyph glyph-name="b" unicode="b" horiz-adv-x="1181" 
d="M627 92q303 0 303 463q0 213 -67 306t-208 93q-92 0 -183 -47t-150 -108v-582q164 -125 305 -125zM184 0v1546h135v-622q172 143 371 143q379 0 379 -518q0 -289 -125 -431t-317 -143q-156 0 -312 115l-10 -90h-121z" />
    <glyph glyph-name="c" unicode="c" horiz-adv-x="1097" 
d="M584 -25q-474 0 -472 550q0 261 130 401q129 140 366 141q162 0 268 -90t113 -260l-137 -19q-27 250 -256 250q-144 0 -242 -95t-98 -325t95 -330q95 -99 241 -100q236 0 276 232l129 -27q-25 -166 -140 -247t-273 -81z" />
    <glyph glyph-name="d" unicode="d" horiz-adv-x="1171" 
d="M252 504q0 -216 70 -316t219 -100q88 0 174 45t145 111v598q-143 109 -305 108q-303 0 -303 -446zM997 1546v-1546h-116l-13 117q-170 -141 -358 -141t-293 128q-104 129 -104 411t124 417t307 135t316 -98v577h137z" />
    <glyph glyph-name="e" unicode="e" horiz-adv-x="1118" 
d="M586 948q-130 0 -224 -85t-102 -257h598q6 342 -272 342zM596 -25q-277 0 -381 161t-102 386q0 272 136 408t345 137q209 0 308 -122t99 -322q-4 -86 -10 -127h-733q6 -218 95 -308t225 -90t194 48q59 48 86 151l129 -25q-33 -150 -141 -224t-250 -73z" />
    <glyph glyph-name="f" unicode="f" horiz-adv-x="636" 
d="M502 1448q-164 0 -164 -191v-210h297v-115h-297v-932h-137v932h-160v115h160v190q0 328 282 328q104 0 174 -33l-6 -111q-76 27 -149 27z" />
    <glyph glyph-name="g" unicode="g" horiz-adv-x="1124" 
d="M920 -137q0 63 -43 100t-152 43l-373 21q-135 -96 -135 -201q-1 -170 351 -170t352 207zM831 692q0 262 -278 262q-131 0 -214 -64t-83 -190q0 -124 72 -194t211 -70t215 68t77 188zM558 1067q208 0 304 -111q53 125 152 125q47 0 88 -14v-123q-113 4 -207 -26
q74 -84 74 -224q0 -174 -117 -274t-295 -101q-115 0 -190 29q-80 -70 -80 -114q1 -44 31 -64t120 -25l291 -16q172 -11 253 -69t81 -201q0 -92 -47 -158q-47 -65 -128 -99q-151 -62 -356 -65q-457 0 -456 264q0 139 170 258q-102 31 -103 134q0 57 33 100t96 92
q-113 57 -147 203q-12 47 -12 96q0 174 118 279q119 104 327 104z" />
    <glyph glyph-name="h" unicode="h" horiz-adv-x="1191" 
d="M887 692q-1 254 -205 254q-104 0 -202 -48t-158 -101v-797h-138v1546h138v-628q201 150 375 150q175 0 251 -91q76 -90 76 -270v-707h-137v692z" />
    <glyph glyph-name="i" unicode="i" horiz-adv-x="495" 
d="M367 1409q0 -109 -111 -109t-111 109t111 109t111 -109zM322 1047v-1047h-138v1047h138z" />
    <glyph glyph-name="j" unicode="j" horiz-adv-x="489" 
d="M369 1409q0 -109 -111 -109t-111 109t111 109t111 -109zM53 -457q-121 0 -176 33l19 113q78 -29 149 -29q139 0 139 170v1217h138v-1209q-1 -295 -269 -295z" />
    <glyph glyph-name="k" unicode="k" horiz-adv-x="1060" 
d="M322 1546v-1005l491 506h160l-369 -379l395 -668h-149l-344 569l-184 -188v-381h-138v1546h138z" />
    <glyph glyph-name="l" unicode="l" horiz-adv-x="495" 
d="M322 1546v-1546h-138v1546h138z" />
    <glyph glyph-name="m" unicode="m" horiz-adv-x="1783" 
d="M322 0h-138v1047h121l8 -132q203 152 373 152q203 0 260 -154q207 154 374 154q168 0 232 -88t64 -272v-707h-137v692q0 134 -37 194q-38 60 -132 60t-185 -43t-154 -96q6 -47 6 -100v-707h-137v692q0 134 -37 194t-133 60t-193 -48q-96 -48 -155 -101v-797z" />
    <glyph glyph-name="n" unicode="n" horiz-adv-x="1191" 
d="M887 692q-1 254 -205 254q-104 0 -202 -48t-158 -101v-797h-138v1047h121l8 -132q203 152 381 152t254 -90t76 -270v-707h-137v692z" />
    <glyph glyph-name="o" unicode="o" horiz-adv-x="1175" 
d="M594 92q326 0 326 440q0 224 -80 320t-240 96t-253 -104t-93 -318q0 -434 340 -434zM584 -25q-471 0 -471 543q0 258 129 404t364 145q235 0 346 -139t111 -383q0 -570 -479 -570z" />
    <glyph glyph-name="p" unicode="p" horiz-adv-x="1181" 
d="M627 92q303 0 303 463q0 213 -67 306t-208 93q-92 0 -183 -47t-150 -108v-582q164 -125 305 -125zM184 -434v1481h121l8 -127q178 147 377 147q379 0 379 -518q0 -289 -125 -431t-317 -143q-154 0 -310 115v-524h-133z" />
    <glyph glyph-name="q" unicode="q" horiz-adv-x="1165" 
d="M555 950q-303 0 -303 -446q0 -216 70 -316t230 -100t308 156v585q-160 121 -305 121zM997 1047v-1481h-131v551q-170 -141 -357 -141t-292 128q-104 129 -104 411t124 417t318 135q156 0 305 -111l10 91h127z" />
    <glyph glyph-name="r" unicode="r" horiz-adv-x="720" 
d="M698 1067v-143q-94 16 -202 -20t-174 -101v-803h-138v1047h113l12 -146q72 96 156 132t201 34h32z" />
    <glyph glyph-name="s" unicode="s" horiz-adv-x="985" 
d="M131 766q1 145 107 223t274 78t252 -81t104 -234l-135 -17q-20 115 -67 165t-168 50q-225 0 -226 -170q0 -84 56 -120t164 -62q261 -63 314 -118q81 -85 81 -214q-1 -129 -101 -210t-286 -81q-362 0 -406 318l131 22q25 -109 83 -165t198 -56q242 0 242 174q0 84 -55 120
t-230 79q-174 43 -210 71q-75 55 -87 83q-35 83 -35 145z" />
    <glyph glyph-name="t" unicode="t" horiz-adv-x="749" 
d="M488 -25q-142 0 -210 68t-69 213v676h-164v115h164v301l137 20v-321h293v-115h-293v-658q0 -98 33 -142t129 -44t186 53l31 -100q-95 -66 -237 -66z" />
    <glyph glyph-name="u" unicode="u" horiz-adv-x="1191" 
d="M182 340v707h137v-693q-1 -127 47 -190q48 -64 152 -64t202 48t159 102v797h137v-1047h-121l-8 131q-203 -151 -380 -151t-251 90t-74 270z" />
    <glyph glyph-name="v" unicode="v" horiz-adv-x="1007" 
d="M586 0h-154l-412 1047h150l342 -912l338 912h137z" />
    <glyph glyph-name="w" unicode="w" horiz-adv-x="1509" 
d="M520 0h-164l-336 1047h142l278 -908l248 908h150l243 -904l277 904h131l-330 -1047h-166l-235 893z" />
    <glyph glyph-name="x" unicode="x" horiz-adv-x="974" 
d="M913 1047l-358 -498l379 -549h-152l-305 453l-289 -453h-147l356 547l-352 500h150l282 -408l295 408h141z" />
    <glyph glyph-name="y" unicode="y" horiz-adv-x="960" 
d="M166 -457q-116 0 -205 37l21 107q98 -31 175 -31t139 75t116 261l-385 1055h147l307 -885l320 885h139q-197 -524 -422 -1108q-84 -229 -160 -313t-192 -83z" />
    <glyph glyph-name="z" unicode="z" horiz-adv-x="933" 
d="M879 115v-115h-813v96l630 836h-620v115h782v-99l-633 -833h654z" />
    <glyph glyph-name="braceleft" unicode="{" horiz-adv-x="600" 
d="M539 -188v-109h-93q-266 0 -266 223q0 70 14 215q13 145 13 205q0 188 -162 189h-35v112h31q166 0 166 189q0 63 -13 229t-14 221q0 223 264 223h95v-114h-93q-72 -2 -102 -30t-29 -86t13 -217q12 -160 12 -252t-38 -142t-105 -76q67 -27 105 -78q38 -50 38 -144
t-12 -232t-12 -198q-1 -129 157 -128h66z" />
    <glyph glyph-name="bar" unicode="|" horiz-adv-x="573" 
d="M348 -293h-123v1839h123v-1839z" />
    <glyph glyph-name="braceright" unicode="}" horiz-adv-x="600" 
d="M156 -297h-95v115h93q72 2 102 30t29 85t-13 217t-12 252t38 142t105 77q-67 27 -105 77t-38 144t12 232t12 199t-34 95q-35 34 -123 33h-66v108h93q266 0 266 -223q0 -70 -13 -215t-14 -205q0 -188 162 -188h35v-113h-31q-166 0 -166 -188l27 -451q0 -223 -264 -223z
" />
    <glyph glyph-name="asciitilde" unicode="~" horiz-adv-x="991" 
d="M245 831q73 0 256 -48t226 -48t63 22q19 22 19 91l96 -4q14 -117 -36 -173q-50 -57 -124 -57t-259 48t-230 49q-80 0 -76 -117l-94 4q-14 117 36 175t123 58z" />
    <glyph glyph-name="uni00A0" unicode="&#xa0;" horiz-adv-x="471" 
 />
    <glyph glyph-name="exclamdown" unicode="&#xa1;" horiz-adv-x="524" 
d="M162 950q0 117 119 117t118 -117t-119 -117t-118 117zM236 668h92l34 -1108h-157z" />
    <glyph glyph-name="cent" unicode="&#xa2;" horiz-adv-x="1038" 
d="M276 727q0 -358 240 -395v764q-240 -41 -240 -369zM516 1423h113v-202q137 -9 224 -93t95 -231l-127 -18q-10 106 -57 158t-135 63v-770q90 10 138 58t71 149l118 -25q-22 -139 -110 -214t-217 -89v-209h-113v209q-193 18 -288 152q-95 133 -95 353q1 220 103 349
t280 154v206z" />
    <glyph glyph-name="sterling" unicode="&#xa3;" horiz-adv-x="1122" 
d="M51 123h109q180 166 180 346q0 98 -53 201h-219v114h168q-96 176 -97 312q0 182 127 298q128 116 320 116t294 -89q102 -88 124 -284l-125 -13q-19 142 -81 204t-204 62t-230 -72q-176 -147 9 -534h487v-114h-438q45 -102 45 -203q0 -190 -158 -344h404q113 0 163 52
t72 179l127 -26q-23 -172 -111 -250t-253 -78h-660v123z" />
    <glyph glyph-name="currency" unicode="&#xa4;" 
d="M295 576q-1 -148 73 -240t218 -92t221 94q76 94 76 245t-76 237t-218 85q-142 0 -218 -90q-76 -91 -76 -239zM139 566q0 148 72 263l-193 191l103 100l184 -184q119 96 293 96t287 -90l176 176l94 -96l-182 -184q65 -108 65 -258t-80 -271l195 -192l-102 -99l-191 187
q-114 -84 -284 -84t-281 88l-189 -191l-94 97l195 194q-68 109 -68 257z" />
    <glyph glyph-name="yen" unicode="&#xa5;" horiz-adv-x="1048" 
d="M881 506h-277v-506h-137v506h-277v108h277v146h-277v108h209l-344 615h154l330 -604l317 604h141l-331 -615h215v-108h-277v-146h277v-108z" />
    <glyph glyph-name="brokenbar" unicode="&#xa6;" horiz-adv-x="573" 
d="M348 840h-123v706h123v-706zM348 -293h-123v795h123v-795z" />
    <glyph glyph-name="section" unicode="&#xa7;" horiz-adv-x="1105" 
d="M717 246q170 109 170 232t-110 171q-69 32 -194 65q-124 33 -173 54q-170 -111 -170 -233t109 -170q72 -33 196 -66q123 -32 172 -53zM811 -97q0 93 -39 144t-101 79t-198 62t-214 74q-157 82 -157 258q0 86 52 167t145 138q-125 93 -125 267t119 267t303 93t290 -96
t118 -271l-138 -18q-31 266 -276 266q-135 0 -205 -62q-70 -63 -70 -167t73 -164t177 -88q105 -28 209 -58t177 -103t73 -197q0 -86 -53 -168t-144 -140q125 -90 125 -264t-118 -267t-304 -93q-184 0 -290 96t-117 270l137 19q29 -268 281 -266q133 1 201 65t69 157z" />
    <glyph glyph-name="dieresis" unicode="&#xa8;" horiz-adv-x="1024" 
d="M714 1473q48 0 78 -29t29 -77t-29 -76q-28 -27 -77 -27t-79 28t-30 75q0 48 30 77t78 29zM414 1367q0 -48 -29 -76q-29 -27 -78 -27t-79 28t-30 75q0 48 30 77t78 29t78 -29t30 -77z" />
    <glyph glyph-name="copyright" unicode="&#xa9;" horiz-adv-x="1554" 
d="M786 246q-188 0 -279 108t-91 289q0 180 98 290t274 109q283 0 297 -258l-110 -16q-8 92 -52 133q-45 41 -143 41t-167 -73t-69 -214t61 -225q59 -84 167 -84t155 41q46 41 66 135l103 -16q-14 -100 -68 -162t-112 -80q-60 -18 -130 -18zM782 1200q-250 0 -408 -154
t-157 -414q-1 -260 149 -408t412 -148t413 152t151 415q0 264 -155 411q-155 146 -405 146zM790 1300q300 0 482 -175t182 -475t-188 -487t-502 -187t-489 180q-175 182 -175 480t195 481t495 183z" />
    <glyph glyph-name="ordfeminine" unicode="&#xaa;" horiz-adv-x="757" 
d="M211 758q0 -102 119 -103q98 0 180 86v140q-18 2 -94 1t-121 -15q-84 -24 -84 -109zM508 1030q0 70 -30 104t-104 34t-109 -28q-34 -26 -44 -85l-104 18q31 190 262 191q131 0 189 -52t59 -178v-327q0 -29 13 -45t71 0l6 -76q-39 -20 -94 -21q-96 0 -103 86
q-84 -90 -213 -90t-174 57t-45 125q0 219 334 228l86 -2v61z" />
    <glyph glyph-name="guillemotleft" unicode="&#xab;" horiz-adv-x="868" 
d="M449 211h-136l-180 321l182 304h136l-170 -299zM756 211h-135l-181 321l183 304h135l-170 -299z" />
    <glyph glyph-name="logicalnot" unicode="&#xac;" 
d="M965 408h-142v192h-622v135h764v-327z" />
    <glyph glyph-name="uni00AD" unicode="&#xad;" horiz-adv-x="636" 
d="M596 537h-555v137h555v-137z" />
    <glyph glyph-name="registered" unicode="&#xae;" horiz-adv-x="915" 
d="M410 999h26q90 0 90 66q0 55 -75 55h-41v-121zM410 942v-156h-74v392h135q131 0 131 -111q0 -71 -70 -102l105 -179h-78l-92 156h-57zM754 979q0 139 -82 216t-212 77t-213 -81t-83 -218t79 -214t216 -77t216 79t79 218zM834 982q0 -167 -104 -270q-104 -104 -279 -104
q-173 0 -271 100t-98 266q0 165 107 268q108 104 275 104q166 0 268 -98t102 -266z" />
    <glyph glyph-name="macron" unicode="&#xaf;" horiz-adv-x="1024" 
d="M801 1303h-580v116h580v-116z" />
    <glyph glyph-name="degree" unicode="&#xb0;" horiz-adv-x="614" 
d="M561 1311q0 -105 -59 -165q-60 -60 -164 -60t-166 58t-61 163t65 165t163 60t161 -57q61 -58 61 -164zM336 1182q117 0 117 127t-117 127t-117 -127t117 -127z" />
    <glyph glyph-name="plusminus" unicode="&#xb1;" 
d="M653 268h-141v330h-311v127h311v315h141v-315h312v-127h-312v-330zM965 0h-764v125h764v-125z" />
    <glyph glyph-name="twosuperior" unicode="&#xb2;" horiz-adv-x="706" 
d="M365 1636q121 0 189 -57t69 -161q-1 -104 -49 -184q-48 -79 -166 -214l-175 -191v-2h404v-112h-551v106l215 248q111 129 151 194t40 142q0 127 -142 127q-80 0 -116 -39t-48 -113l-110 21q35 235 289 235z" />
    <glyph glyph-name="threesuperior" unicode="&#xb3;" horiz-adv-x="739" 
d="M335 805q79 0 126 41t47 127q0 164 -189 164h-83v100h59q94 0 147 46t54 122q0 125 -140 125q-76 0 -110 -30t-49 -95l-115 22q41 209 287 209q123 0 189 -58t67 -152t-53 -149q-54 -54 -128 -75v-2q197 -37 197 -231q0 -121 -83 -195t-220 -74q-252 0 -279 215l119 23
q12 -68 45 -100t112 -33z" />
    <glyph glyph-name="acute" unicode="&#xb4;" horiz-adv-x="1024" 
d="M748 1534l-291 -363l-107 27l217 336h181z" />
    <glyph glyph-name="mu" unicode="&#xb5;" horiz-adv-x="1288" 
d="M221 -360v1407h137v-689q0 -141 42 -203t149 -63q188 0 369 211v744h137v-1047h-131v150q-205 -174 -394 -175q-121 0 -176 72l-2 -2q-4 0 -4 -2l10 -403h-137z" />
    <glyph glyph-name="paragraph" unicode="&#xb6;" horiz-adv-x="1120" 
d="M782 -272v1640h-182v-1640h-137v786q-195 18 -309 142t-113 325q0 258 158 380t405 122h314l2 -1755h-138z" />
    <glyph glyph-name="periodcentered" unicode="&#xb7;" horiz-adv-x="360" 
d="M299 618q0 -116 -119 -116t-119 116t119 117q119 0 119 -117z" />
    <glyph glyph-name="cedilla" unicode="&#xb8;" horiz-adv-x="1024" 
d="M645 -266q0 -84 -59 -138q-60 -54 -152 -54t-153 42l30 88q55 -34 109 -34t81 28q25 28 25 74q0 47 -34 72q-35 25 -121 26l30 223l107 -16l-19 -135q156 -31 156 -176z" />
    <glyph glyph-name="onesuperior" unicode="&#xb9;" horiz-adv-x="571" 
d="M406 711h-130v741q-30 -16 -96 -28t-104 -13l-8 100q176 12 260 105h78v-905z" />
    <glyph glyph-name="ordmasculine" unicode="&#xba;" horiz-adv-x="802" 
d="M401 662q199 0 199 251t-190 250q-96 0 -152 -62t-55 -186q-1 -253 198 -253zM397 561q-319 0 -319 350q0 166 87 259q87 94 248 94t237 -90t75 -246q0 -367 -328 -367z" />
    <glyph glyph-name="guillemotright" unicode="&#xbb;" horiz-adv-x="868" 
d="M115 836h135l180 -318l-182 -307h-135l170 303zM422 836h135l180 -318l-182 -307h-135l170 303z" />
    <glyph glyph-name="onequarter" unicode="&#xbc;" horiz-adv-x="1751" 
d="M1389 324v462l-308 -462h308zM1513 0h-127v219h-428v92l396 594h159v-581h109v-105h-109v-219zM537 -25h-131l729 1508h129zM449 571h-130v742q-29 -17 -95 -29t-105 -12l-8 100q176 12 260 105h78v-906z" />
    <glyph glyph-name="onehalf" unicode="&#xbd;" horiz-adv-x="1751" 
d="M1329 922q121 0 190 -58t69 -162t-49 -183q-48 -79 -167 -214l-174 -190v-2h404v-113h-551v106l215 248q111 129 150 194q40 65 40 142q0 127 -141 127q-80 0 -116 -39t-48 -112l-111 20q35 236 289 236zM504 -25h-131l729 1508h129zM469 571h-129v742q-30 -17 -96 -29
t-105 -12l-8 100q176 12 260 105h78v-906z" />
    <glyph glyph-name="threequarters" unicode="&#xbe;" horiz-adv-x="1751" 
d="M528 834q0 164 -188 163h-84v101h59q94 0 148 46q53 46 53 122q0 125 -139 125q-76 0 -110 -30t-50 -95l-115 22q41 209 287 209q123 0 190 -58q67 -59 67 -153t-54 -148q-53 -54 -127 -75v-2q197 -37 197 -232q0 -121 -83 -195t-221 -73q-251 0 -278 215l119 23
q12 -68 45 -101q34 -32 112 -32t125 41t47 127zM1442 324v462l-307 -462h307zM1567 0h-127v219h-428v92l395 594h160v-581h108v-105h-108v-219zM614 -25h-131l729 1508h129z" />
    <glyph glyph-name="questiondown" unicode="&#xbf;" horiz-adv-x="935" 
d="M485 950q0 117 119 117t119 -117t-119 -117t-119 117zM537 670h129v-363q-203 -18 -322 -95t-119 -244t75 -228q75 -62 202 -62t204 52t107 192l123 -24q-23 -129 -124 -234q-101 -106 -299 -105q-199 1 -313 91t-114 295q0 377 451 458v267z" />
    <glyph glyph-name="Agrave" unicode="&#xc0;" horiz-adv-x="1388" 
d="M684 1571l-281 297h183l209 -271zM946 598l-258 772l-260 -772h518zM596 1483h188l512 -1483h-151l-160 477h-598l-160 -477h-135z" />
    <glyph glyph-name="Aacute" unicode="&#xc1;" horiz-adv-x="1388" 
d="M993 1868l-280 -297l-111 26l209 271h182zM946 598l-258 772l-260 -772h518zM596 1483h188l512 -1483h-151l-160 477h-598l-160 -477h-135z" />
    <glyph glyph-name="Acircumflex" unicode="&#xc2;" horiz-adv-x="1388" 
d="M868 1575l-184 166l-180 -170l-117 20l246 250h110l246 -250zM946 598l-258 772l-260 -772h518zM596 1483h188l512 -1483h-151l-160 477h-598l-160 -477h-135z" />
    <glyph glyph-name="Atilde" unicode="&#xc3;" horiz-adv-x="1388" 
d="M527 1827q73 0 174 -48t145 -48q44 -1 62 21q19 22 20 91l96 -4q14 -117 -36 -173t-124 -56t-177 48t-148 48q-80 0 -76 -117l-94 4q-15 117 35 175t123 59zM946 598l-258 772l-260 -772h518zM596 1483h188l512 -1483h-151l-160 477h-598l-160 -477h-135z" />
    <glyph glyph-name="Adieresis" unicode="&#xc4;" horiz-adv-x="1388" 
d="M999 1705q-1 -48 -29 -76q-28 -27 -77 -27t-79 28t-30 75q0 48 30 77q30 28 78 28t78 -28q29 -29 29 -77zM592 1705q0 -48 -29 -76q-29 -27 -78 -27t-79 28t-29 75q0 48 30 77q29 28 77 28t78 -28t30 -77zM946 598l-258 772l-260 -772h518zM596 1483h188l512 -1483h-151
l-160 477h-598l-160 -477h-135z" />
    <glyph glyph-name="Aring" unicode="&#xc5;" horiz-adv-x="1388" 
d="M688 1540q51 0 78 30t27 81q0 102 -105 102q-47 0 -77 -29t-29 -79q0 -105 106 -105zM946 598l-258 772l-260 -772h518zM901 1651q0 -139 -113 -185l508 -1466h-151l-160 477h-598l-160 -477h-135l498 1464q-113 47 -113 176q1 100 61 154t152 53q92 0 152 -49t59 -147z
" />
    <glyph glyph-name="AE" unicode="&#xc6;" horiz-adv-x="2041" 
d="M1083 793v575h-82l-321 -575h403zM1223 680v-565h721v-115h-861v676h-469l-383 -676h-139l840 1483h991v-115h-700v-571h655v-117h-655z" />
    <glyph glyph-name="Ccedilla" unicode="&#xc7;" horiz-adv-x="1415" 
d="M836 -260q0 47 -35 72t-121 26l18 139q-301 16 -443 211t-142 527q0 379 184 587t496 207q235 -1 377 -121t161 -362l-129 -12q-27 188 -123 282t-286 95q-253 0 -397 -169t-144 -491q0 -641 510 -641q186 0 291 81q104 81 145 255l121 -27q-37 -205 -176 -306t-336 -116
l-8 -67q156 -31 155 -176q0 -84 -59 -138t-151 -54t-154 42l31 88q55 -34 109 -34t80 28t26 74z" />
    <glyph glyph-name="Egrave" unicode="&#xc8;" horiz-adv-x="1171" 
d="M698 1571l-280 297h182l209 -271zM352 692v-573h721v-119h-858v1483h838v-119h-701v-551h656v-121h-656z" />
    <glyph glyph-name="Eacute" unicode="&#xc9;" horiz-adv-x="1171" 
d="M887 1868l-281 -297l-110 26l209 271h182zM352 692v-573h721v-119h-858v1483h838v-119h-701v-551h656v-121h-656z" />
    <glyph glyph-name="Ecircumflex" unicode="&#xca;" horiz-adv-x="1171" 
d="M815 1575l-184 166l-180 -170l-117 20l246 250h110l246 -250zM352 692v-573h721v-119h-858v1483h838v-119h-701v-551h656v-121h-656z" />
    <glyph glyph-name="Edieresis" unicode="&#xcb;" horiz-adv-x="1171" 
d="M946 1705q0 -48 -28 -76q-28 -27 -78 -27q-49 0 -79 28t-30 75q0 48 30 77q30 28 78 28q47 0 77 -28t30 -77zM539 1705q0 -48 -29 -76q-29 -27 -78 -27t-79 28q-29 28 -29 75q0 48 29 77q30 28 78 28t78 -28t30 -77zM352 692v-573h721v-119h-858v1483h838v-119h-701v-551
h656v-121h-656z" />
    <glyph glyph-name="Igrave" unicode="&#xcc;" horiz-adv-x="567" 
d="M262 1571l-280 297h182l209 -271zM352 1483v-1483h-137v1483h137z" />
    <glyph glyph-name="Iacute" unicode="&#xcd;" horiz-adv-x="567" 
d="M598 1868l-281 -297l-110 26l209 271h182zM352 1483v-1483h-137v1483h137z" />
    <glyph glyph-name="Icircumflex" unicode="&#xce;" horiz-adv-x="567" 
d="M463 1575l-184 166l-181 -170l-116 20l245 250h111l246 -250zM352 1483v-1483h-137v1483h137z" />
    <glyph glyph-name="Idieresis" unicode="&#xcf;" horiz-adv-x="567" 
d="M594 1705q0 -48 -29 -76q-29 -27 -78 -27t-79 28t-29 75q0 48 30 77q29 28 77 28t78 -28t30 -77zM186 1705q0 -48 -28 -76q-28 -27 -78 -27q-49 0 -79 28t-30 75q0 48 30 77q30 28 78 28t78 -28q29 -29 29 -77zM352 1483v-1483h-137v1483h137z" />
    <glyph glyph-name="Eth" unicode="&#xd0;" horiz-adv-x="1523" 
d="M383 119h268q301 0 459 160t158 454q0 351 -152 491t-452 140h-281v-549h481v-115h-481v-581zM641 0h-395v700h-176v115h176v668h430q375 1 555 -187t180 -537q-1 -349 -193 -554t-577 -205z" />
    <glyph glyph-name="Ntilde" unicode="&#xd1;" horiz-adv-x="1525" 
d="M618 1827q73 0 174 -48t144 -48q43 -1 62 21t20 91l96 -4q14 -117 -36 -173t-124 -56t-177 48t-148 48q-80 0 -76 -117l-94 4q-14 117 36 175t123 59zM1311 0h-174l-791 1335v-1335h-131v1483h197l770 -1317v1317h129v-1483z" />
    <glyph glyph-name="Ograve" unicode="&#xd2;" horiz-adv-x="1554" 
d="M858 1571l-280 297h182l209 -271zM777 96q237 0 380 169t143 479t-138 478q-138 167 -372 167t-384 -170q-150 -171 -150 -477t142 -476t379 -170zM768 -25q-324 0 -490 210t-165 555q0 345 181 557q180 212 498 212q318 -1 484 -205t166 -552t-175 -563
q-175 -214 -499 -214z" />
    <glyph glyph-name="Oacute" unicode="&#xd3;" horiz-adv-x="1554" 
d="M1016 1868l-281 -297l-110 26l209 271h182zM777 96q237 0 380 169t143 479t-138 478q-138 167 -372 167t-384 -170q-150 -171 -150 -477t142 -476t379 -170zM768 -25q-324 0 -490 210t-165 555q0 345 181 557q180 212 498 212q318 -1 484 -205t166 -552t-175 -563
q-175 -214 -499 -214z" />
    <glyph glyph-name="Ocircumflex" unicode="&#xd4;" horiz-adv-x="1554" 
d="M975 1575l-184 166l-181 -170l-116 20l245 250h111l246 -250zM777 96q237 0 380 169t143 479t-138 478q-138 167 -372 167t-384 -170q-150 -171 -150 -477t142 -476t379 -170zM768 -25q-324 0 -490 210t-165 555q0 345 181 557q180 212 498 212q318 -1 484 -205t166 -552
t-175 -563q-175 -214 -499 -214z" />
    <glyph glyph-name="Otilde" unicode="&#xd5;" horiz-adv-x="1554" 
d="M634 1827q73 0 174 -48t144 -48t63 21q19 22 19 91l96 -4q14 -117 -36 -173t-123 -56q-74 0 -177 48t-149 48q-80 0 -76 -117l-94 4q-14 117 36 175t123 59zM777 96q237 0 380 169t143 479t-138 478q-138 167 -372 167t-384 -170q-150 -171 -150 -477t142 -476t379 -170z
M768 -25q-324 0 -490 210t-165 555q0 345 181 557q180 212 498 212q318 -1 484 -205t166 -552t-175 -563q-175 -214 -499 -214z" />
    <glyph glyph-name="Odieresis" unicode="&#xd6;" horiz-adv-x="1554" 
d="M1106 1705q0 -48 -29 -76q-29 -27 -78 -27t-79 28t-29 75q0 48 30 77q29 28 77 28t78 -28t30 -77zM698 1705q0 -48 -28 -76q-28 -27 -78 -27q-49 0 -79 28t-30 75q0 48 30 77q30 28 78 28t78 -28q29 -29 29 -77zM777 96q237 0 380 169t143 479t-138 478
q-138 167 -372 167t-384 -170q-150 -171 -150 -477t142 -476t379 -170zM768 -25q-324 0 -490 210t-165 555q0 345 181 557q180 212 498 212q318 -1 484 -205t166 -552t-175 -563q-175 -214 -499 -214z" />
    <glyph glyph-name="multiply" unicode="&#xd7;" 
d="M803 334l-221 223l-220 -223l-98 98l221 223l-221 226l98 98l220 -223l221 223l98 -98l-221 -226l221 -223z" />
    <glyph glyph-name="Oslash" unicode="&#xd8;" horiz-adv-x="1554" 
d="M776 96q238 0 381 169t143 489q0 379 -217 542l-487 -1171q86 -29 180 -29zM256 743q0 -395 225 -559l490 1174q-80 31 -178 31q-237 -1 -387 -171t-150 -475zM768 -25q-123 0 -221 31l-64 -151h-139l84 202q-158 91 -237 269t-78 417q0 342 181 554t503 212
q123 0 223 -34l63 149h138l-84 -201q149 -90 227 -261t78 -388q0 -371 -175 -585t-499 -214z" />
    <glyph glyph-name="Ugrave" unicode="&#xd9;" horiz-adv-x="1466" 
d="M797 1571l-281 297h182l209 -271zM342 492q0 -212 100 -304t295 -92t291 89t96 302v996h138v-1002q0 -252 -138 -379t-405 -127q-266 0 -390 128t-124 380v1000h137v-991z" />
    <glyph glyph-name="Uacute" unicode="&#xda;" horiz-adv-x="1466" 
d="M1024 1868l-281 -297l-110 26l209 271h182zM342 492q0 -212 100 -304t295 -92t291 89t96 302v996h138v-1002q0 -252 -138 -379t-405 -127q-266 0 -390 128t-124 380v1000h137v-991z" />
    <glyph glyph-name="Ucircumflex" unicode="&#xdb;" horiz-adv-x="1466" 
d="M934 1575l-184 166l-181 -170l-116 20l245 250h111l246 -250zM342 492q0 -212 100 -304t295 -92t291 89t96 302v996h138v-1002q0 -252 -138 -379t-405 -127q-266 0 -390 128t-124 380v1000h137v-991z" />
    <glyph glyph-name="Udieresis" unicode="&#xdc;" horiz-adv-x="1466" 
d="M1057 1705q0 -48 -29 -76q-29 -27 -78 -27t-79 28q-29 28 -29 75q0 48 29 77q30 28 78 28t78 -28t30 -77zM649 1705q-1 -48 -29 -76q-28 -27 -77 -27t-79 28t-30 75q0 48 30 77q30 28 78 28t78 -28q29 -29 29 -77zM342 492q0 -212 100 -304t295 -92t291 89t96 302v996
h138v-1002q0 -252 -138 -379t-405 -127q-266 0 -390 128t-124 380v1000h137v-991z" />
    <glyph glyph-name="Yacute" unicode="&#xdd;" horiz-adv-x="1126" 
d="M797 1868l-281 -297l-110 26l208 271h183zM641 0h-137v582l-504 901h152l423 -764l412 764h139l-485 -895v-588z" />
    <glyph glyph-name="Thorn" unicode="&#xde;" horiz-adv-x="1257" 
d="M350 446h246q202 0 312 74t110 266t-110 255q-110 62 -373 63h-185v-658zM350 326v-326h-135v1483h135v-260h318q264 0 379 -118t114 -308q0 -471 -561 -471h-250z" />
    <glyph glyph-name="germandbls" unicode="&#xdf;" horiz-adv-x="1345" 
d="M322 1102v-1102h-138v1124q0 231 125 339t344 108t330 -94t111 -269q0 -240 -240 -342v-6q184 -31 286 -132t103 -302q0 -201 -113 -325t-305 -124q-154 0 -255 77t-124 239l132 22q24 -106 78 -162q54 -57 178 -57t195 81t71 237q0 365 -418 364h-86v115h31
q170 0 249 84t78 201q0 276 -303 276q-169 0 -249 -76t-80 -276z" />
    <glyph glyph-name="agrave" unicode="&#xe0;" horiz-adv-x="1095" 
d="M612 1171l-290 363h180l217 -336zM645 502q-272 0 -343 -100q-36 -48 -36 -123q0 -193 199 -193q86 0 169 41t136 102v267q-49 6 -125 6zM905 709v-541q1 -46 13 -64t44 -18t70 12l8 -88q-57 -29 -125 -28q-127 0 -135 131q-131 -137 -348 -138q-94 0 -160 29t-96 76
q-54 85 -53 178q0 352 508 352q55 0 137 -4v105q0 127 -48 186t-173 59t-179 -45t-73 -143l-129 23q25 143 119 209t273 67q179 -1 263 -83t84 -275z" />
    <glyph glyph-name="aacute" unicode="&#xe1;" horiz-adv-x="1095" 
d="M784 1534l-290 -363l-107 27l217 336h180zM645 502q-272 0 -343 -100q-36 -48 -36 -123q0 -193 199 -193q86 0 169 41t136 102v267q-49 6 -125 6zM905 709v-541q1 -46 13 -64t44 -18t70 12l8 -88q-57 -29 -125 -28q-127 0 -135 131q-131 -137 -348 -138q-94 0 -160 29
t-96 76q-54 85 -53 178q0 352 508 352q55 0 137 -4v105q0 127 -48 186t-173 59t-179 -45t-73 -143l-129 23q25 143 119 209t273 67q179 -1 263 -83t84 -275z" />
    <glyph glyph-name="acircumflex" unicode="&#xe2;" horiz-adv-x="1095" 
d="M860 1196l-115 -12l-196 250l-189 -254l-112 16l233 338h137zM645 502q-272 0 -343 -100q-36 -48 -36 -123q0 -193 199 -193q86 0 169 41t136 102v267q-49 6 -125 6zM905 709v-541q1 -46 13 -64t44 -18t70 12l8 -88q-57 -29 -125 -28q-127 0 -135 131
q-131 -137 -348 -138q-94 0 -160 29t-96 76q-54 85 -53 178q0 352 508 352q55 0 137 -4v105q0 127 -48 186t-173 59t-179 -45t-73 -143l-129 23q25 143 119 209t273 67q179 -1 263 -83t84 -275z" />
    <glyph glyph-name="atilde" unicode="&#xe3;" horiz-adv-x="1095" 
d="M386 1450q73 0 174 -48t144 -48t63 21q19 22 19 91l97 -4q14 -117 -36 -173t-124 -56t-177 48t-149 48q-80 0 -75 -117l-95 5q-14 117 36 175t123 58zM645 502q-272 0 -343 -100q-36 -48 -36 -123q0 -193 199 -193q86 0 169 41t136 102v267q-49 6 -125 6zM905 709v-541
q1 -46 13 -64t44 -18t70 12l8 -88q-57 -29 -125 -28q-127 0 -135 131q-131 -137 -348 -138q-94 0 -160 29t-96 76q-54 85 -53 178q0 352 508 352q55 0 137 -4v105q0 127 -48 186t-173 59t-179 -45t-73 -143l-129 23q25 143 119 209t273 67q179 -1 263 -83t84 -275z" />
    <glyph glyph-name="adieresis" unicode="&#xe4;" horiz-adv-x="1095" 
d="M751 1473q47 0 77 -29t30 -77t-29 -76q-29 -27 -77 -27t-79 28q-30 28 -30 75q0 48 30 77t78 29zM451 1367q0 -48 -29 -76q-29 -27 -78 -27t-79 28q-29 28 -29 75q0 48 29 77q30 29 78 29t78 -29t30 -77zM645 502q-272 0 -343 -100q-36 -48 -36 -123q0 -193 199 -193
q86 0 169 41t136 102v267q-49 6 -125 6zM905 709v-541q1 -46 13 -64t44 -18t70 12l8 -88q-57 -29 -125 -28q-127 0 -135 131q-131 -137 -348 -138q-94 0 -160 29t-96 76q-54 85 -53 178q0 352 508 352q55 0 137 -4v105q0 127 -48 186t-173 59t-179 -45t-73 -143l-129 23
q25 143 119 209t273 67q179 -1 263 -83t84 -275z" />
    <glyph glyph-name="aring" unicode="&#xe5;" horiz-adv-x="1095" 
d="M549 1270q51 0 78 30t26 80q0 102 -104 103q-47 0 -77 -29t-30 -80q1 -104 107 -104zM338 1375q0 95 60 149t152 53q92 1 152 -49t60 -146t-57 -150t-155 -54t-155 51t-57 146zM645 502q-272 0 -343 -100q-36 -48 -36 -123q0 -193 199 -193q86 0 169 41t136 102v267
q-49 6 -125 6zM905 709v-541q1 -46 13 -64t44 -18t70 12l8 -88q-57 -29 -125 -28q-127 0 -135 131q-131 -137 -348 -138q-94 0 -160 29t-96 76q-54 85 -53 178q0 352 508 352q55 0 137 -4v105q0 127 -48 186t-173 59t-179 -45t-73 -143l-129 23q25 143 119 209t273 67
q179 -1 263 -83t84 -275z" />
    <glyph glyph-name="ae" unicode="&#xe6;" horiz-adv-x="1775" 
d="M1243 948q-131 0 -224 -85t-101 -257h598q6 342 -273 342zM475 86q203 0 344 158q-37 106 -41 254q-78 4 -148 4q-253 0 -324 -110q-30 -46 -30 -125t42 -130t157 -51zM176 795q48 272 366 272q154 0 227 -45t105 -145q129 190 381 190q205 0 305 -121t99 -321
q0 -57 -10 -129h-734q5 -218 95 -308t225 -90t195 48q59 48 86 151l129 -25q-33 -150 -141 -224t-263 -73q-258 0 -371 166q-174 -166 -428 -166q-94 0 -160 29t-95 76q-54 85 -54 178q0 352 504 352q55 0 141 -4v127q0 111 -52 167t-174 56t-177 -44t-74 -140z" />
    <glyph glyph-name="ccedilla" unicode="&#xe7;" horiz-adv-x="1097" 
d="M608 1067q162 0 268 -90t113 -260l-137 -19q-27 250 -256 250q-144 0 -242 -95t-98 -325t95 -330q95 -99 241 -100q236 0 276 232l129 -27q-23 -153 -124 -233t-246 -93l-9 -67q156 -31 156 -176q0 -84 -59 -138t-151 -54t-154 42l30 88q56 -34 110 -34t80 28t26 74
q0 47 -35 72t-121 26l18 142q-406 33 -405 536q0 270 129 410t366 141z" />
    <glyph glyph-name="egrave" unicode="&#xe8;" horiz-adv-x="1118" 
d="M647 1171l-291 363h181l217 -336zM586 948q-130 0 -224 -85t-102 -257h598q6 342 -272 342zM596 -25q-277 0 -381 161t-102 386q0 272 136 408t345 137q209 0 308 -122t99 -322q-4 -86 -10 -127h-733q6 -218 95 -308t225 -90t194 48q59 48 86 151l129 -25
q-33 -150 -141 -224t-250 -73z" />
    <glyph glyph-name="eacute" unicode="&#xe9;" horiz-adv-x="1118" 
d="M819 1534l-291 -363l-106 27l217 336h180zM586 948q-130 0 -224 -85t-102 -257h598q6 342 -272 342zM596 -25q-277 0 -381 161t-102 386q0 272 136 408t345 137q209 0 308 -122t99 -322q-4 -86 -10 -127h-733q6 -218 95 -308t225 -90t194 48q59 48 86 151l129 -25
q-33 -150 -141 -224t-250 -73z" />
    <glyph glyph-name="ecircumflex" unicode="&#xea;" horiz-adv-x="1118" 
d="M895 1196l-115 -12l-196 250l-189 -254l-112 16l233 338h137zM586 948q-130 0 -224 -85t-102 -257h598q6 342 -272 342zM596 -25q-277 0 -381 161t-102 386q0 272 136 408t345 137q209 0 308 -122t99 -322q-4 -86 -10 -127h-733q6 -218 95 -308t225 -90t194 48
q59 48 86 151l129 -25q-33 -150 -141 -224t-250 -73z" />
    <glyph glyph-name="edieresis" unicode="&#xeb;" horiz-adv-x="1118" 
d="M893 1367q0 -48 -29 -76q-29 -27 -78 -27q-48 0 -78 28t-30 75q0 48 30 77t78 29t77 -29q30 -29 30 -77zM378 1473q48 0 78 -29t29 -77t-29 -76q-28 -27 -77 -27t-79 28t-30 75q0 48 30 77t78 29zM586 948q-130 0 -224 -85t-102 -257h598q6 342 -272 342zM596 -25
q-277 0 -381 161t-102 386q0 272 136 408t345 137q209 0 308 -122t99 -322q-4 -86 -10 -127h-733q6 -218 95 -308t225 -90t194 48q59 48 86 151l129 -25q-33 -150 -141 -224t-250 -73z" />
    <glyph glyph-name="igrave" unicode="&#xec;" horiz-adv-x="495" 
d="M229 1171l-290 363h180l217 -336zM322 1047v-1047h-138v1047h138z" />
    <glyph glyph-name="iacute" unicode="&#xed;" horiz-adv-x="495" 
d="M580 1534l-291 -363l-107 27l217 336h181zM322 1047v-1047h-138v1047h138z" />
    <glyph glyph-name="icircumflex" unicode="&#xee;" horiz-adv-x="495" 
d="M563 1196l-114 -12l-197 250l-189 -254l-112 16l233 338h138zM322 1047v-1047h-138v1047h138z" />
    <glyph glyph-name="idieresis" unicode="&#xef;" horiz-adv-x="495" 
d="M454 1473q48 0 78 -29t29 -77q0 -48 -29 -76q-30 -27 -78 -27t-78 28t-30 75q0 48 30 77t78 29zM154 1367q0 -48 -29 -76q-29 -27 -78 -27t-79 28t-30 75q0 48 30 77t78 29t78 -29t30 -77zM322 1047v-1047h-138v1047h138z" />
    <glyph glyph-name="eth" unicode="&#xf0;" horiz-adv-x="1171" 
d="M571 88q346 0 347 545q0 70 -7 137q-43 57 -132 96t-191 39q-164 1 -251 -107t-87 -280t64 -291q34 -63 101 -101t156 -38zM552 1026q202 0 327 -94l4 2q-57 219 -189 346l-225 -121l-57 96l186 101q-123 80 -299 100l45 105q225 -25 379 -138l209 113l57 -98l-174 -95
q233 -248 234 -706q0 -246 -87 -436q-48 -105 -148 -165t-247 -61q-225 1 -342 141t-117 376t121 386q121 148 323 148z" />
    <glyph glyph-name="ntilde" unicode="&#xf1;" horiz-adv-x="1191" 
d="M429 1450q73 0 174 -48t144 -48t63 21q19 22 19 91l97 -4q14 -117 -36 -173t-124 -56t-177 48t-149 48q-80 0 -75 -117l-95 5q-14 117 36 175t123 58zM887 692q-1 254 -205 254q-104 0 -202 -48t-158 -101v-797h-138v1047h121l8 -132q203 152 381 152t254 -90t76 -270
v-707h-137v692z" />
    <glyph glyph-name="ograve" unicode="&#xf2;" horiz-adv-x="1175" 
d="M672 1171l-291 363h180l217 -336zM594 92q326 0 326 440q0 224 -80 320t-240 96t-253 -104t-93 -318q0 -434 340 -434zM584 -25q-471 0 -471 543q0 258 129 404t364 145q235 0 346 -139t111 -383q0 -570 -479 -570z" />
    <glyph glyph-name="oacute" unicode="&#xf3;" horiz-adv-x="1175" 
d="M844 1534l-291 -363l-107 27l218 336h180zM594 92q326 0 326 440q0 224 -80 320t-240 96t-253 -104t-93 -318q0 -434 340 -434zM584 -25q-471 0 -471 543q0 258 129 404t364 145q235 0 346 -139t111 -383q0 -570 -479 -570z" />
    <glyph glyph-name="ocircumflex" unicode="&#xf4;" horiz-adv-x="1175" 
d="M920 1196l-115 -12l-197 250l-188 -254l-113 16l234 338h137zM594 92q326 0 326 440q0 224 -80 320t-240 96t-253 -104t-93 -318q0 -434 340 -434zM584 -25q-471 0 -471 543q0 258 129 404t364 145q235 0 346 -139t111 -383q0 -570 -479 -570z" />
    <glyph glyph-name="otilde" unicode="&#xf5;" horiz-adv-x="1175" 
d="M446 1450q73 0 174 -48t144 -48t62 22t20 90l96 -4q14 -117 -36 -173t-124 -56t-177 48t-148 48q-80 0 -76 -117l-94 5q-14 117 36 175t123 58zM594 92q326 0 326 440q0 224 -80 320t-240 96t-253 -104t-93 -318q0 -434 340 -434zM584 -25q-471 0 -471 543q0 258 129 404
t364 145q235 0 346 -139t111 -383q0 -570 -479 -570z" />
    <glyph glyph-name="odieresis" unicode="&#xf6;" horiz-adv-x="1175" 
d="M918 1367q0 -48 -29 -76q-29 -27 -78 -27t-79 28t-30 75q0 48 30 77t78 29t78 -29t30 -77zM510 1367q0 -48 -29 -76q-29 -27 -78 -27t-79 28t-29 75q0 48 30 77q29 29 77 29t78 -29t30 -77zM594 92q326 0 326 440q0 224 -80 320t-240 96t-253 -104t-93 -318
q0 -434 340 -434zM584 -25q-471 0 -471 543q0 258 129 404t364 145q235 0 346 -139t111 -383q0 -570 -479 -570z" />
    <glyph glyph-name="divide" unicode="&#xf7;" 
d="M688 969q0 -117 -119 -117t-118 117t119 117t118 -117zM958 598h-763v127h763v-127zM688 350q0 -117 -119 -117t-118 117t119 117t118 -117z" />
    <glyph glyph-name="oslash" unicode="&#xf8;" horiz-adv-x="1175" 
d="M602 948q-162 0 -255 -104t-93 -336q0 -230 108 -336l345 764q-47 12 -105 12zM594 92q326 0 326 440q0 248 -103 345l-348 -768q59 -17 125 -17zM584 -25q-84 0 -166 21l-64 -143h-137l88 194q-193 125 -192 471q0 258 129 404t368 145q82 0 148 -18l69 151h136
l-93 -201q193 -125 193 -454q0 -570 -479 -570z" />
    <glyph glyph-name="ugrave" unicode="&#xf9;" horiz-adv-x="1191" 
d="M643 1171l-291 363h180l218 -336zM182 340v707h137v-693q-1 -127 47 -190q48 -64 152 -64t202 48t159 102v797h137v-1047h-121l-8 131q-203 -151 -380 -151t-251 90t-74 270z" />
    <glyph glyph-name="uacute" unicode="&#xfa;" horiz-adv-x="1191" 
d="M844 1534l-291 -363l-107 27l218 336h180zM182 340v707h137v-693q-1 -127 47 -190q48 -64 152 -64t202 48t159 102v797h137v-1047h-121l-8 131q-203 -151 -380 -151t-251 90t-74 270z" />
    <glyph glyph-name="ucircumflex" unicode="&#xfb;" horiz-adv-x="1191" 
d="M909 1196l-114 -12l-197 250l-188 -254l-113 16l233 338h138zM182 340v707h137v-693q-1 -127 47 -190q48 -64 152 -64t202 48t159 102v797h137v-1047h-121l-8 131q-203 -151 -380 -151t-251 90t-74 270z" />
    <glyph glyph-name="udieresis" unicode="&#xfc;" horiz-adv-x="1191" 
d="M790 1473q48 0 78 -29t29 -77q0 -48 -29 -76q-30 -27 -78 -27t-78 28t-30 75q0 48 30 77t78 29zM382 1473q48 0 78 -29t29 -77t-29 -76q-28 -27 -77 -27t-79 28t-30 75q0 48 30 77t78 29zM182 340v707h137v-693q-1 -127 47 -190q48 -64 152 -64t202 48t159 102v797h137
v-1047h-121l-8 131q-203 -151 -380 -151t-251 90t-74 270z" />
    <glyph glyph-name="yacute" unicode="&#xfd;" horiz-adv-x="960" 
d="M743 1534l-290 -363l-107 27l217 336h180zM166 -457q-116 0 -205 37l21 107q98 -31 175 -31t139 75t116 261l-385 1055h147l307 -885l320 885h139q-197 -524 -422 -1108q-84 -229 -160 -313t-192 -83z" />
    <glyph glyph-name="thorn" unicode="&#xfe;" horiz-adv-x="1181" 
d="M627 92q303 0 303 463q0 213 -67 306t-208 93q-92 0 -183 -47t-150 -108v-582q164 -125 305 -125zM322 -434h-138v1980h135v-622q172 143 371 143q379 0 379 -518q0 -289 -125 -431t-317 -143q-154 0 -305 111v-520z" />
    <glyph glyph-name="ydieresis" unicode="&#xff;" horiz-adv-x="960" 
d="M791 1367q0 -48 -29 -76q-29 -27 -78 -27t-79 28t-30 75q0 48 30 77t78 29t78 -29t30 -77zM383 1367q0 -48 -29 -76q-29 -27 -78 -27q-48 0 -78 28t-30 75q0 48 30 77t78 29t77 -29q30 -29 30 -77zM166 -457q-116 0 -205 37l21 107q98 -31 175 -31t139 75t116 261
l-385 1055h147l307 -885l320 885h139q-197 -524 -422 -1108q-84 -229 -160 -313t-192 -83z" />
    <glyph glyph-name="Amacron" unicode="&#x100;" horiz-adv-x="1388" 
d="M997 1632h-620v117h620v-117zM946 598l-258 772l-260 -772h518zM596 1483h188l512 -1483h-151l-160 477h-598l-160 -477h-135z" />
    <glyph glyph-name="amacron" unicode="&#x101;" horiz-adv-x="1095" 
d="M840 1303h-580v116h580v-116zM645 502q-272 0 -343 -100q-36 -48 -36 -123q0 -193 199 -193q86 0 169 41t136 102v267q-49 6 -125 6zM905 709v-541q1 -46 13 -64t44 -18t70 12l8 -88q-57 -29 -125 -28q-127 0 -135 131q-131 -137 -348 -138q-94 0 -160 29t-96 76
q-54 85 -53 178q0 352 508 352q55 0 137 -4v105q0 127 -48 186t-173 59t-179 -45t-73 -143l-129 23q25 143 119 209t273 67q179 -1 263 -83t84 -275z" />
    <glyph glyph-name="Abreve" unicode="&#x102;" horiz-adv-x="1388" 
d="M692 1706q156 0 182 152l111 -11q-14 -117 -89 -181t-208 -64q-250 0 -274 243l110 13q14 -84 54 -118t114 -34zM946 598l-258 772l-260 -772h518zM596 1483h188l512 -1483h-151l-160 477h-598l-160 -477h-135z" />
    <glyph glyph-name="abreve" unicode="&#x103;" horiz-adv-x="1095" 
d="M551 1278q90 0 136 49t50 168l109 -10q0 -145 -77 -229t-224 -82q-279 0 -285 307l111 14q8 -121 49 -169t131 -48zM645 502q-272 0 -343 -100q-36 -48 -36 -123q0 -193 199 -193q86 0 169 41t136 102v267q-49 6 -125 6zM905 709v-541q1 -46 13 -64t44 -18t70 12l8 -88
q-57 -29 -125 -28q-127 0 -135 131q-131 -137 -348 -138q-94 0 -160 29t-96 76q-54 85 -53 178q0 352 508 352q55 0 137 -4v105q0 127 -48 186t-173 59t-179 -45t-73 -143l-129 23q25 143 119 209t273 67q179 -1 263 -83t84 -275z" />
    <glyph glyph-name="Aogonek" unicode="&#x104;" horiz-adv-x="1388" 
d="M946 598l-258 772l-260 -772h518zM1108 -260q0 -84 82 -84q70 0 117 80l84 -45q-33 -72 -95 -109t-139 -37q-76 0 -129 46t-53 126q0 147 170 283l-160 477h-598l-160 -477h-135l504 1483h188l512 -1483q-98 -78 -143 -134t-45 -126z" />
    <glyph glyph-name="aogonek" unicode="&#x105;" horiz-adv-x="1095" 
d="M645 502q-272 0 -343 -100q-36 -48 -36 -123q0 -193 199 -193q86 0 169 41t136 102v267q-49 6 -125 6zM866 -455q-76 0 -129 46t-53 126q0 141 162 279q-61 29 -66 117q-131 -137 -348 -138q-94 0 -160 29t-96 76q-54 85 -53 178q0 352 508 352q55 0 137 -4v105
q0 127 -48 186t-173 59t-179 -45t-73 -143l-129 23q25 143 119 209t273 67q179 0 263 -83t84 -275v-541q1 -46 13 -64t44 -18t70 12l8 -88q-88 -38 -156 -116t-67 -154q0 -84 82 -84q70 0 117 80l84 -45q-33 -72 -95 -109q-63 -37 -139 -37z" />
    <glyph glyph-name="Cacute" unicode="&#x106;" horiz-adv-x="1415" 
d="M1001 1868l-280 -297l-111 26l209 271h182zM252 731q0 -641 510 -641q186 0 291 81q104 81 145 255l121 -27q-39 -226 -202 -325t-365 -99q-328 0 -484 197q-156 198 -156 560t185 570q184 208 496 207q235 -1 377 -121t161 -362l-129 -12q-27 188 -123 282t-286 95
q-253 0 -397 -169t-144 -491z" />
    <glyph glyph-name="cacute" unicode="&#x107;" horiz-adv-x="1097" 
d="M823 1534l-291 -363l-106 27l217 336h180zM584 -25q-474 0 -472 550q0 261 130 401q129 140 366 141q162 0 268 -90t113 -260l-137 -19q-27 250 -256 250q-144 0 -242 -95t-98 -325t95 -330q95 -99 241 -100q236 0 276 232l129 -27q-25 -166 -140 -247t-273 -81z" />
    <glyph glyph-name="Ccircumflex" unicode="&#x108;" horiz-adv-x="1415" 
d="M961 1575l-185 166l-180 -170l-117 20l246 250h111l245 -250zM252 731q0 -641 510 -641q186 0 291 81q104 81 145 255l121 -27q-39 -226 -202 -325t-365 -99q-328 0 -484 197q-156 198 -156 560t185 570q184 208 496 207q235 -1 377 -121t161 -362l-129 -12
q-27 188 -123 282t-286 95q-253 0 -397 -169t-144 -491z" />
    <glyph glyph-name="ccircumflex" unicode="&#x109;" horiz-adv-x="1097" 
d="M899 1196l-115 -12l-196 250l-189 -254l-112 16l233 338h137zM584 -25q-474 0 -472 550q0 261 130 401q129 140 366 141q162 0 268 -90t113 -260l-137 -19q-27 250 -256 250q-144 0 -242 -95t-98 -325t95 -330q95 -99 241 -100q236 0 276 232l129 -27q-25 -166 -140 -247
t-273 -81z" />
    <glyph glyph-name="Cdotaccent" unicode="&#x10a;" horiz-adv-x="1415" 
d="M891 1710q0 -108 -111 -108t-110 108q0 109 110 109t111 -109zM252 731q0 -641 510 -641q186 0 291 81q104 81 145 255l121 -27q-39 -226 -202 -325t-365 -99q-328 0 -484 197q-156 198 -156 560t185 570q184 208 496 207q235 -1 377 -121t161 -362l-129 -12
q-27 188 -123 282t-286 95q-253 0 -397 -169t-144 -491z" />
    <glyph glyph-name="cdotaccent" unicode="&#x10b;" horiz-adv-x="1097" 
d="M688 1389q0 -109 -110 -109t-111 109q1 109 111 109t110 -109zM584 -25q-474 0 -472 550q0 261 130 401q129 140 366 141q162 0 268 -90t113 -260l-137 -19q-27 250 -256 250q-144 0 -242 -95t-98 -325t95 -330q95 -99 241 -100q236 0 276 232l129 -27
q-25 -166 -140 -247t-273 -81z" />
    <glyph glyph-name="Ccaron" unicode="&#x10c;" horiz-adv-x="1415" 
d="M598 1845l184 -166l181 170l116 -20l-245 -250h-111l-246 250zM252 731q0 -641 510 -641q186 0 291 81q104 81 145 255l121 -27q-39 -226 -202 -325t-365 -99q-328 0 -484 197q-156 198 -156 560t185 570q184 208 496 207q235 -1 377 -121t161 -362l-129 -12
q-27 188 -123 282t-286 95q-253 0 -397 -169t-144 -491z" />
    <glyph glyph-name="ccaron" unicode="&#x10d;" horiz-adv-x="1097" 
d="M256 1509l123 13l188 -250l193 254l108 -17l-233 -338h-137zM584 -25q-474 0 -472 550q0 261 130 401q129 140 366 141q162 0 268 -90t113 -260l-137 -19q-27 250 -256 250q-144 0 -242 -95t-98 -325t95 -330q95 -99 241 -100q236 0 276 232l129 -27q-25 -166 -140 -247
t-273 -81z" />
    <glyph glyph-name="Dcaron" unicode="&#x10e;" horiz-adv-x="1492" 
d="M514 1845l184 -166l181 170l116 -20l-245 -250h-111l-246 250zM352 119h269q301 0 459 160t157 454q0 351 -152 491t-452 140h-281v-1245zM610 0h-395v1483h430q375 1 555 -187t180 -537t-192 -554t-578 -205z" />
    <glyph glyph-name="dcaron" unicode="&#x10f;" horiz-adv-x="1232" 
d="M1114 1157l68 389h157l-122 -405zM252 504q0 -216 70 -316t219 -100q88 0 174 45t145 111v598q-143 109 -305 108q-303 0 -303 -446zM997 1546v-1546h-116l-13 117q-170 -141 -358 -141t-293 128q-104 129 -104 411t124 417t307 135t316 -98v577h137z" />
    <glyph glyph-name="Dcroat" unicode="&#x110;" horiz-adv-x="1523" 
d="M383 119h268q301 0 459 160t158 454q0 351 -152 491t-452 140h-281v-549h481v-115h-481v-581zM641 0h-395v700h-176v115h176v668h430q375 1 555 -187t180 -537q-1 -349 -193 -554t-577 -205z" />
    <glyph glyph-name="dcroat" unicode="&#x111;" horiz-adv-x="1171" 
d="M252 483q0 -205 70 -300t219 -95q88 0 174 45t145 111v557q-152 109 -305 108q-303 0 -303 -426zM997 1546v-252h144v-114h-144v-1180h-116l-13 117q-170 -141 -358 -141t-293 123q-104 124 -104 395q0 272 124 402t307 130t316 -98v252h-397v114h397v252h137z" />
    <glyph glyph-name="Emacron" unicode="&#x112;" horiz-adv-x="1171" 
d="M944 1632h-620v117h620v-117zM352 692v-573h721v-119h-858v1483h838v-119h-701v-551h656v-121h-656z" />
    <glyph glyph-name="emacron" unicode="&#x113;" horiz-adv-x="1118" 
d="M874 1303h-579v116h579v-116zM586 948q-130 0 -224 -85t-102 -257h598q6 342 -272 342zM596 -25q-277 0 -381 161t-102 386q0 272 136 408t345 137q209 0 308 -122t99 -322q-4 -86 -10 -127h-733q6 -218 95 -308t225 -90t194 48q59 48 86 151l129 -25q-33 -150 -141 -224
t-250 -73z" />
    <glyph glyph-name="Ebreve" unicode="&#x114;" horiz-adv-x="1171" 
d="M639 1706q156 0 182 152l111 -11q-14 -117 -89 -181t-208 -64q-250 0 -275 243l111 13q14 -84 54 -118t114 -34zM352 692v-573h721v-119h-858v1483h838v-119h-701v-551h656v-121h-656z" />
    <glyph glyph-name="ebreve" unicode="&#x115;" horiz-adv-x="1118" 
d="M586 1278q90 0 136 49t50 168l109 -10q0 -145 -77 -229t-224 -82q-279 0 -285 307l111 14q8 -121 49 -169t131 -48zM586 948q-130 0 -224 -85t-102 -257h598q6 342 -272 342zM596 -25q-277 0 -381 161t-102 386q0 272 136 408t345 137q209 0 308 -122t99 -322
q-4 -86 -10 -127h-733q6 -218 95 -308t225 -90t194 48q59 48 86 151l129 -25q-33 -150 -141 -224t-250 -73z" />
    <glyph glyph-name="Edotaccent" unicode="&#x116;" horiz-adv-x="1171" 
d="M745 1710q-1 -108 -111 -108t-110 108t110 109q110 0 111 -109zM352 692v-573h721v-119h-858v1483h838v-119h-701v-551h656v-121h-656z" />
    <glyph glyph-name="edotaccent" unicode="&#x117;" horiz-adv-x="1118" 
d="M694 1389q0 -109 -110 -109t-111 109q1 109 111 109t110 -109zM586 948q-130 0 -224 -85t-102 -257h598q6 342 -272 342zM596 -25q-277 0 -381 161t-102 386q0 272 136 408t345 137q209 0 308 -122t99 -322q-4 -86 -10 -127h-733q6 -218 95 -308t225 -90t194 48
q59 48 86 151l129 -25q-33 -150 -141 -224t-250 -73z" />
    <glyph glyph-name="Eogonek" unicode="&#x118;" horiz-adv-x="1171" 
d="M875 -455q-76 0 -130 46q-53 46 -53 126q0 141 168 283h-645v1483h838v-119h-701v-551h656v-121h-656v-573h721v-119h-74q-61 -55 -92 -87q-82 -85 -82 -171t82 -86q70 0 117 80l84 -45q-33 -72 -95 -109t-138 -37z" />
    <glyph glyph-name="eogonek" unicode="&#x119;" horiz-adv-x="1118" 
d="M586 948q-130 0 -224 -85t-102 -257h598q6 342 -272 342zM647 -455q-76 0 -129 46t-53 126q0 135 139 258h-20q-130 0 -226 44t-147 123q-100 155 -98 380q0 272 136 408t345 137q209 0 308 -122t99 -322q-4 -86 -10 -127h-733q6 -218 95 -308t225 -90t194 48
q59 48 86 151l129 -25q-35 -158 -182 -256q-207 -137 -207 -276q0 -84 82 -84q70 0 117 80l84 -45q-33 -72 -95 -109t-139 -37z" />
    <glyph glyph-name="Ecaron" unicode="&#x11a;" horiz-adv-x="1171" 
d="M453 1845l184 -166l180 170l117 -20l-246 -250h-110l-246 250zM352 692v-573h721v-119h-858v1483h838v-119h-701v-551h656v-121h-656z" />
    <glyph glyph-name="ecaron" unicode="&#x11b;" horiz-adv-x="1118" 
d="M274 1509l123 13l189 -250l192 254l109 -17l-234 -338h-137zM586 948q-130 0 -224 -85t-102 -257h598q6 342 -272 342zM596 -25q-277 0 -381 161t-102 386q0 272 136 408t345 137q209 0 308 -122t99 -322q-4 -86 -10 -127h-733q6 -218 95 -308t225 -90t194 48
q59 48 86 151l129 -25q-33 -150 -141 -224t-250 -73z" />
    <glyph glyph-name="Gcircumflex" unicode="&#x11c;" horiz-adv-x="1505" 
d="M956 1575l-184 166l-180 -170l-117 20l246 250h110l246 -250zM748 -25q-322 0 -479 201q-157 200 -157 564t184 567q183 203 501 202q498 0 534 -483l-129 -14q-20 203 -122 292t-289 89q-251 0 -395 -173t-144 -483q0 -649 518 -649q204 0 318 124t114 282v153h-444v121
h569v-768h-102l-23 209q-39 -96 -167 -165t-287 -69z" />
    <glyph glyph-name="gcircumflex" unicode="&#x11d;" horiz-adv-x="1124" 
d="M866 1196l-114 -12l-197 250l-188 -254l-113 16l233 338h138zM920 -137q0 63 -43 100t-152 43l-373 21q-135 -96 -135 -201q-1 -170 351 -170t352 207zM831 692q0 262 -278 262q-131 0 -214 -64t-83 -190q0 -124 72 -194t211 -70t215 68t77 188zM558 1067q208 0 304 -111
q53 125 152 125q47 0 88 -14v-123q-113 4 -207 -26q74 -84 74 -224q0 -174 -117 -274t-295 -101q-115 0 -190 29q-80 -70 -80 -114q1 -44 31 -64t120 -25l291 -16q172 -11 253 -69t81 -201q0 -92 -47 -158q-47 -65 -128 -99q-151 -62 -356 -65q-457 0 -456 264
q0 139 170 258q-102 31 -103 134q0 57 33 100t96 92q-113 57 -147 203q-12 47 -12 96q0 174 118 279q119 104 327 104z" />
    <glyph glyph-name="Gbreve" unicode="&#x11e;" horiz-adv-x="1505" 
d="M780 1706q156 0 183 152l110 -11q-14 -117 -89 -181t-208 -64q-250 0 -274 243l110 13q14 -84 54 -118t114 -34zM748 -25q-322 0 -479 201q-157 200 -157 564t184 567q183 203 501 202q498 0 534 -483l-129 -14q-20 203 -122 292t-289 89q-251 0 -395 -173t-144 -483
q0 -649 518 -649q204 0 318 124t114 282v153h-444v121h569v-768h-102l-23 209q-39 -96 -167 -165t-287 -69z" />
    <glyph glyph-name="gbreve" unicode="&#x11f;" horiz-adv-x="1124" 
d="M539 1278q90 0 136 49t50 168l109 -10q0 -145 -77 -229t-225 -82q-279 0 -284 307l110 14q8 -121 50 -169t131 -48zM920 -137q0 63 -43 100t-152 43l-373 21q-135 -96 -135 -201q-1 -170 351 -170t352 207zM831 692q0 262 -278 262q-131 0 -214 -64t-83 -190
q0 -124 72 -194t211 -70t215 68t77 188zM558 1067q208 0 304 -111q53 125 152 125q47 0 88 -14v-123q-113 4 -207 -26q74 -84 74 -224q0 -174 -117 -274t-295 -101q-115 0 -190 29q-80 -70 -80 -114q1 -44 31 -64t120 -25l291 -16q172 -11 253 -69t81 -201q0 -92 -47 -158
q-47 -65 -128 -99q-151 -62 -356 -65q-457 0 -456 264q0 139 170 258q-102 31 -103 134q0 57 33 100t96 92q-113 57 -147 203q-12 47 -12 96q0 174 118 279q119 104 327 104z" />
    <glyph glyph-name="Gdotaccent" unicode="&#x120;" horiz-adv-x="1505" 
d="M887 1710q0 -108 -111 -108t-110 108q0 109 110 109t111 -109zM748 -25q-322 0 -479 201q-157 200 -157 564t184 567q183 203 501 202q498 0 534 -483l-129 -14q-20 203 -122 292t-289 89q-251 0 -395 -173t-144 -483q0 -649 518 -649q204 0 318 124t114 282v153h-444
v121h569v-768h-102l-23 209q-39 -96 -167 -165t-287 -69z" />
    <glyph glyph-name="gdotaccent" unicode="&#x121;" horiz-adv-x="1124" 
d="M653 1389q-1 -109 -111 -109t-110 109t110 109t111 -109zM920 -137q0 63 -43 100t-152 43l-373 21q-135 -96 -135 -201q-1 -170 351 -170t352 207zM831 692q0 262 -278 262q-131 0 -214 -64t-83 -190q0 -124 72 -194t211 -70t215 68t77 188zM558 1067q208 0 304 -111
q53 125 152 125q47 0 88 -14v-123q-113 4 -207 -26q74 -84 74 -224q0 -174 -117 -274t-295 -101q-115 0 -190 29q-80 -70 -80 -114q1 -44 31 -64t120 -25l291 -16q172 -11 253 -69t81 -201q0 -92 -47 -158q-47 -65 -128 -99q-151 -62 -356 -65q-457 0 -456 264
q0 139 170 258q-102 31 -103 134q0 57 33 100t96 92q-113 57 -147 203q-12 47 -12 96q0 174 118 279q119 104 327 104z" />
    <glyph glyph-name="Gcommaaccent" unicode="&#x122;" horiz-adv-x="1505" 
d="M635 -451l74 310h161l-127 -326zM748 -25q-322 0 -479 201q-157 200 -157 564t184 567q183 203 501 202q498 0 534 -483l-129 -14q-20 203 -122 292t-289 89q-251 0 -395 -173t-144 -483q0 -649 518 -649q204 0 318 124t114 282v153h-444v121h569v-768h-102l-23 209
q-39 -96 -167 -165t-287 -69z" />
    <glyph glyph-name="gcommaaccent" unicode="&#x123;" horiz-adv-x="1124" 
d="M680 1477l-74 -310h-162l127 326zM920 -137q0 63 -43 100t-152 43l-373 21q-135 -96 -135 -201q-1 -170 351 -170t352 207zM831 692q0 262 -278 262q-131 0 -214 -64t-83 -190q0 -124 72 -194t211 -70t215 68t77 188zM558 1067q208 0 304 -111q53 125 152 125
q47 0 88 -14v-123q-113 4 -207 -26q74 -84 74 -224q0 -174 -117 -274t-295 -101q-115 0 -190 29q-80 -70 -80 -114q1 -44 31 -64t120 -25l291 -16q172 -11 253 -69t81 -201q0 -92 -47 -158q-47 -65 -128 -99q-151 -62 -356 -65q-457 0 -456 264q0 139 170 258
q-102 31 -103 134q0 57 33 100t96 92q-113 57 -147 203q-12 47 -12 96q0 174 118 279q119 104 327 104z" />
    <glyph glyph-name="Hcircumflex" unicode="&#x124;" horiz-adv-x="1486" 
d="M924 1575l-185 166l-180 -170l-117 20l246 250h111l245 -250zM1272 1483v-1483h-137v702h-783v-702h-137v1483h137v-660h783v660h137z" />
    <glyph glyph-name="hcircumflex" unicode="&#x125;" horiz-adv-x="1191" 
d="M440 1622l-184 166l-180 -170l-117 20l246 250h110l246 -250zM887 692q-1 254 -205 254q-104 0 -202 -48t-158 -101v-797h-138v1546h138v-628q201 150 375 150q175 0 251 -91q76 -90 76 -270v-707h-137v692z" />
    <glyph glyph-name="Hbar" unicode="&#x126;" horiz-adv-x="1486" 
d="M352 823h783v258h-783v-258zM1272 1483v-285h170v-117h-170v-1081h-137v702h-783v-702h-137v1081h-170v117h170v285h137v-285h783v285h137z" />
    <glyph glyph-name="hbar" unicode="&#x127;" horiz-adv-x="1191" 
d="M887 651q-1 255 -205 255q-104 0 -202 -49q-98 -48 -158 -101v-756h-138v1180h-143v114h143v252h138v-252h397v-114h-397v-303q201 149 375 149q175 0 251 -90t76 -270v-666h-137v651z" />
    <glyph glyph-name="Itilde" unicode="&#x128;" horiz-adv-x="567" 
d="M122 1827q73 0 174 -48t144 -48t63 21q19 22 19 91l96 -4q14 -117 -36 -173t-123 -56q-74 0 -177 48t-149 48q-80 0 -76 -117l-94 4q-14 117 36 175t123 59zM352 1483v-1483h-137v1483h137z" />
    <glyph glyph-name="itilde" unicode="&#x129;" horiz-adv-x="495" 
d="M89 1450q73 0 174 -48t145 -48t62 22q19 22 19 90l97 -4q14 -117 -36 -173t-124 -56t-177 48t-149 48q-80 0 -75 -117l-95 5q-14 117 36 175t123 58zM322 1047v-1047h-138v1047h138z" />
    <glyph glyph-name="Imacron" unicode="&#x12a;" horiz-adv-x="567" 
d="M592 1632h-621v117h621v-117zM352 1483v-1483h-137v1483h137z" />
    <glyph glyph-name="imacron" unicode="&#x12b;" horiz-adv-x="495" 
d="M543 1303h-580v116h580v-116zM322 1047v-1047h-138v1047h138z" />
    <glyph glyph-name="Ibreve" unicode="&#x12c;" horiz-adv-x="567" 
d="M287 1706q156 0 182 152l111 -11q-14 -117 -90 -181t-207 -64q-250 0 -275 243l111 13q14 -84 54 -118t114 -34zM352 1483v-1483h-137v1483h137z" />
    <glyph glyph-name="ibreve" unicode="&#x12d;" horiz-adv-x="495" 
d="M254 1278q90 0 136 49t50 168l109 -10q0 -145 -77 -229t-224 -82q-279 0 -285 307l111 14q8 -121 49 -169t131 -48zM322 1047v-1047h-138v1047h138z" />
    <glyph glyph-name="Iogonek" unicode="&#x12e;" horiz-adv-x="567" 
d="M352 1483v-1483q-66 -61 -94 -90t-56 -76q-26 -47 -26 -94q0 -84 82 -84q70 0 117 80l84 -45q-33 -72 -95 -109t-138 -37t-130 46q-53 46 -53 126q0 147 172 285v1481h137z" />
    <glyph glyph-name="iogonek" unicode="&#x12f;" horiz-adv-x="495" 
d="M367 1409q0 -109 -111 -109t-111 109t111 109t111 -109zM322 1047v-1047q-66 -61 -95 -90t-55 -76t-27 -94q0 -84 82 -84q70 0 117 80l84 -45q-33 -72 -95 -109t-138 -37t-129 46t-54 126q0 147 172 285v1045h138z" />
    <glyph glyph-name="Idotaccent" unicode="&#x130;" horiz-adv-x="567" 
d="M393 1710q-1 -108 -111 -108t-110 108t110 109q110 0 111 -109zM352 1483v-1483h-137v1483h137z" />
    <glyph glyph-name="dotlessi" unicode="&#x131;" horiz-adv-x="495" 
d="M322 1047v-1047h-138v1047h138z" />
    <glyph glyph-name="IJ" unicode="&#x132;" horiz-adv-x="1564" 
d="M1233 350v1133h137v-1129q0 -209 -99 -294t-281 -85t-267 79q-86 79 -94 237l131 22q14 -115 60 -168t167 -53t183 52t63 206zM352 1483v-1483h-137v1483h137z" />
    <glyph glyph-name="Jcircumflex" unicode="&#x134;" horiz-adv-x="997" 
d="M913 1575l-184 166l-180 -170l-117 20l246 250h110l246 -250zM666 350v1133h137v-1129q1 -209 -99 -294t-281 -85t-267 79t-95 237l132 22q14 -115 60 -168t167 -53q122 0 184 52t62 206z" />
    <glyph glyph-name="jcircumflex" unicode="&#x135;" horiz-adv-x="489" 
d="M557 1196l-115 -12l-196 250l-189 -254l-112 16l233 338h137zM53 -457q-121 0 -176 33l19 113q78 -29 149 -29q139 0 139 170v1217h138v-1209q-1 -295 -269 -295z" />
    <glyph glyph-name="Kcommaaccent" unicode="&#x136;" horiz-adv-x="1294" 
d="M545 -451l73 310h162l-127 -326zM352 1483v-760l703 760h162l-601 -645l644 -838h-162l-574 739l-172 -184v-555h-137v1483h137z" />
    <glyph glyph-name="kcommaaccent" unicode="&#x137;" horiz-adv-x="1060" 
d="M418 -451l74 310h161l-127 -326zM322 1546v-1005l491 506h160l-369 -379l395 -668h-149l-344 569l-184 -188v-381h-138v1546h138z" />
    <glyph glyph-name="kgreenlandic" unicode="&#x138;" horiz-adv-x="1060" 
d="M322 1047v-506l491 506h160l-369 -379l395 -668h-149l-344 569l-184 -188v-381h-138v1047h138z" />
    <glyph glyph-name="Lacute" unicode="&#x139;" horiz-adv-x="1116" 
d="M535 1868l-281 -297l-111 26l209 271h183zM352 1483v-1364h680v-119h-817v1483h137z" />
    <glyph glyph-name="lacute" unicode="&#x13a;" horiz-adv-x="495" 
d="M473 1913l-280 -297l-111 26l209 271h182zM322 1546v-1546h-138v1546h138z" />
    <glyph glyph-name="Lcommaaccent" unicode="&#x13b;" horiz-adv-x="1116" 
d="M506 -451l74 310h161l-127 -326zM352 1483v-1364h680v-119h-817v1483h137z" />
    <glyph glyph-name="lcommaaccent" unicode="&#x13c;" horiz-adv-x="495" 
d="M127 -451l74 310h161l-126 -326zM322 1546v-1546h-138v1546h138z" />
    <glyph glyph-name="Lcaron" unicode="&#x13d;" horiz-adv-x="1116" 
d="M569 1094l68 389h158l-123 -406zM352 1483v-1364h680v-119h-817v1483h137z" />
    <glyph glyph-name="lcaron" unicode="&#x13e;" horiz-adv-x="557" 
d="M438 1157l68 389h158l-123 -405zM322 1546v-1546h-138v1546h138z" />
    <glyph glyph-name="Ldot" unicode="&#x13f;" horiz-adv-x="1116" 
d="M965 809q0 -109 -111 -109t-111 109t111 109t111 -109zM352 1483v-1364h680v-119h-817v1483h137z" />
    <glyph glyph-name="ldot" unicode="&#x140;" horiz-adv-x="581" 
d="M649 811q-1 -109 -111 -109t-110 109t110 109t111 -109zM322 1546v-1546h-138v1546h138z" />
    <glyph glyph-name="Lslash" unicode="&#x141;" horiz-adv-x="1116" 
d="M352 1483v-707l514 215v-121l-514 -213v-538h680v-119h-817v600l-192 -80v119l192 80v764h137z" />
    <glyph glyph-name="lslash" unicode="&#x142;" horiz-adv-x="518" 
d="M326 1546v-643l192 94v-125l-192 -92v-780h-138v719l-178 -86v125l178 86v702h138z" />
    <glyph glyph-name="Nacute" unicode="&#x143;" horiz-adv-x="1525" 
d="M1049 1868l-281 -297l-111 26l209 271h183zM1311 0h-174l-791 1335v-1335h-131v1483h197l770 -1317v1317h129v-1483z" />
    <glyph glyph-name="nacute" unicode="&#x144;" horiz-adv-x="1191" 
d="M827 1534l-290 -363l-107 27l217 336h180zM887 692q-1 254 -205 254q-104 0 -202 -48t-158 -101v-797h-138v1047h121l8 -132q203 152 381 152t254 -90t76 -270v-707h-137v692z" />
    <glyph glyph-name="Ncommaaccent" unicode="&#x145;" horiz-adv-x="1525" 
d="M629 -451l73 310h162l-127 -326zM1311 0h-174l-791 1335v-1335h-131v1483h197l770 -1317v1317h129v-1483z" />
    <glyph glyph-name="ncommaaccent" unicode="&#x146;" horiz-adv-x="1191" 
d="M467 -451l74 310h161l-127 -326zM887 692q-1 254 -205 254q-104 0 -202 -48t-158 -101v-797h-138v1047h121l8 -132q203 152 381 152t254 -90t76 -270v-707h-137v692z" />
    <glyph glyph-name="Ncaron" unicode="&#x147;" horiz-adv-x="1525" 
d="M594 1845l184 -166l180 170l117 -20l-246 -250h-110l-246 250zM1311 0h-174l-791 1335v-1335h-131v1483h197l770 -1317v1317h129v-1483z" />
    <glyph glyph-name="ncaron" unicode="&#x148;" horiz-adv-x="1191" 
d="M262 1509l123 13l188 -250l193 254l108 -17l-233 -338h-137zM887 692q-1 254 -205 254q-104 0 -202 -48t-158 -101v-797h-138v1047h121l8 -132q203 152 381 152t254 -90t76 -270v-707h-137v692z" />
    <glyph glyph-name="napostrophe" unicode="&#x149;" horiz-adv-x="1191" 
d="M-39 1047l74 309h162l-127 -326zM887 692q-1 254 -205 254q-104 0 -202 -48t-158 -101v-797h-138v1047h121l8 -132q203 152 381 152t254 -90t76 -270v-707h-137v692z" />
    <glyph glyph-name="Eng" unicode="&#x14a;" horiz-adv-x="1525" 
d="M1032 -457q-61 1 -135 15t-100 30l26 111q106 -39 201 -39q150 0 150 170v137l-828 1368v-1335h-131v1483h197l770 -1274v1274h129v-1645q0 -147 -74 -221t-205 -74z" />
    <glyph glyph-name="eng" unicode="&#x14b;" horiz-adv-x="1191" 
d="M887 692q-1 254 -205 254q-104 0 -202 -48t-158 -101v-797h-138v1047h121l8 -132q203 152 381 152t254 -90t76 -270v-869q0 -295 -268 -295q-121 0 -176 33l18 113q78 -29 150 -29q139 0 139 170v862z" />
    <glyph glyph-name="Omacron" unicode="&#x14c;" horiz-adv-x="1554" 
d="M1104 1632h-621v117h621v-117zM777 96q237 0 380 169t143 479t-138 478q-138 167 -372 167t-384 -170q-150 -171 -150 -477t142 -476t379 -170zM768 -25q-324 0 -490 210t-165 555q0 345 181 557q180 212 498 212q318 -1 484 -205t166 -552t-175 -563
q-175 -214 -499 -214z" />
    <glyph glyph-name="omacron" unicode="&#x14d;" horiz-adv-x="1175" 
d="M899 1303h-580v116h580v-116zM594 92q326 0 326 440q0 224 -80 320t-240 96t-253 -104t-93 -318q0 -434 340 -434zM584 -25q-471 0 -471 543q0 258 129 404t364 145q235 0 346 -139t111 -383q0 -570 -479 -570z" />
    <glyph glyph-name="Obreve" unicode="&#x14e;" horiz-adv-x="1554" 
d="M799 1706q156 0 182 152l111 -11q-14 -117 -90 -181t-207 -64q-250 0 -275 243l111 13q14 -84 54 -118t114 -34zM777 96q237 0 380 169t143 479t-138 478q-138 167 -372 167t-384 -170q-150 -171 -150 -477t142 -476t379 -170zM768 -25q-324 0 -490 210t-165 555
q0 345 181 557q180 212 498 212q318 -1 484 -205t166 -552t-175 -563q-175 -214 -499 -214z" />
    <glyph glyph-name="obreve" unicode="&#x14f;" horiz-adv-x="1175" 
d="M610 1278q90 0 136 49t51 168l108 -10q0 -145 -77 -229t-224 -82q-279 0 -285 307l111 14q8 -121 49 -169t131 -48zM594 92q326 0 326 440q0 224 -80 320t-240 96t-253 -104t-93 -318q0 -434 340 -434zM584 -25q-471 0 -471 543q0 258 129 404t364 145q235 0 346 -139
t111 -383q0 -570 -479 -570z" />
    <glyph glyph-name="Ohungarumlaut" unicode="&#x150;" horiz-adv-x="1554" 
d="M1219 1876l-281 -305l-111 26l209 279h183zM918 1868l-220 -297l-110 26l147 271h183zM777 96q237 0 380 169t143 479t-138 478q-138 167 -372 167t-384 -170q-150 -171 -150 -477t142 -476t379 -170zM768 -25q-324 0 -490 210t-165 555q0 345 181 557q180 212 498 212
q318 -1 484 -205t166 -552t-175 -563q-175 -214 -499 -214z" />
    <glyph glyph-name="ohungarumlaut" unicode="&#x151;" horiz-adv-x="1175" 
d="M1049 1534l-291 -363l-107 27l217 336h181zM756 1532l-248 -361l-107 27l174 334h181zM594 92q326 0 326 440q0 224 -80 320t-240 96t-253 -104t-93 -318q0 -434 340 -434zM584 -25q-471 0 -471 543q0 258 129 404t364 145q235 0 346 -139t111 -383q0 -570 -479 -570z
" />
    <glyph glyph-name="OE" unicode="&#x152;" horiz-adv-x="2246" 
d="M777 96q237 0 380 169t143 479t-138 478q-138 167 -372 167t-384 -170q-150 -171 -150 -477t142 -476t379 -170zM1427 692v-577h721v-115h-841v264q-166 -289 -539 -289q-324 0 -490 210t-165 555q0 345 181 557t515 212t498 -264v238h821v-115h-701v-561h656v-115h-656z
" />
    <glyph glyph-name="oe" unicode="&#x153;" horiz-adv-x="1914" 
d="M1382 948q-131 0 -224 -85t-101 -257h598q6 342 -273 342zM594 92q326 0 326 440q0 224 -80 320t-240 96t-253 -104t-93 -318q0 -434 340 -434zM1374 98q136 0 195 48t86 151l129 -25q-33 -150 -142 -224t-262 -73q-295 0 -397 224q-106 -223 -399 -224q-471 0 -471 543
q0 258 129 404t368 145q281 0 383 -223q119 223 402 223q205 0 304 -121t99 -321q0 -57 -10 -129h-733q6 -218 95 -308q88 -90 224 -90z" />
    <glyph glyph-name="Racute" unicode="&#x154;" horiz-adv-x="1296" 
d="M874 1868l-280 -297l-111 26l209 271h182zM350 758h322q174 0 264 74t90 243t-97 229t-288 60h-291v-606zM350 639v-639h-135v1483h479q254 0 365 -114t110 -284q0 -319 -299 -411l375 -674h-149l-357 639h-389z" />
    <glyph glyph-name="racute" unicode="&#x155;" horiz-adv-x="720" 
d="M676 1534l-291 -363l-106 27l217 336h180zM698 1067v-143q-94 16 -202 -20t-174 -101v-803h-138v1047h113l12 -146q72 96 156 132t201 34h32z" />
    <glyph glyph-name="Rcommaaccent" unicode="&#x156;" horiz-adv-x="1296" 
d="M557 -451l74 310h162l-127 -326zM350 758h322q174 0 264 74t90 243t-97 229t-288 60h-291v-606zM350 639v-639h-135v1483h479q254 0 365 -114t110 -284q0 -319 -299 -411l375 -674h-149l-357 639h-389z" />
    <glyph glyph-name="rcommaaccent" unicode="&#x157;" horiz-adv-x="720" 
d="M127 -451l74 310h161l-126 -326zM698 1067v-143q-94 16 -202 -20t-174 -101v-803h-138v1047h113l12 -146q72 96 156 132t201 34h32z" />
    <glyph glyph-name="Rcaron" unicode="&#x158;" horiz-adv-x="1296" 
d="M455 1845l184 -166l180 170l117 -20l-246 -250h-110l-246 250zM350 758h322q174 0 264 74t90 243t-97 229t-288 60h-291v-606zM350 639v-639h-135v1483h479q254 0 365 -114t110 -284q0 -319 -299 -411l375 -674h-149l-357 639h-389z" />
    <glyph glyph-name="rcaron" unicode="&#x159;" horiz-adv-x="720" 
d="M131 1509l123 13l188 -250l193 254l108 -17l-233 -338h-137zM698 1067v-143q-94 16 -202 -20t-174 -101v-803h-138v1047h113l12 -146q72 96 156 132t201 34h32z" />
    <glyph glyph-name="Sacute" unicode="&#x15a;" horiz-adv-x="1210" 
d="M842 1868l-281 -297l-110 26l208 271h183zM629 1386q-180 0 -262 -72t-82 -192q0 -86 45 -146q46 -60 118 -93t159 -59t174 -56t160 -71t118 -117t45 -185q0 -213 -143 -316t-373 -103q-452 -1 -516 411l137 21q35 -146 120 -230t247 -84t273 63t109 220q0 90 -45 152
q-45 63 -117 95t-160 56q-87 24 -174 54q-87 28 -160 69t-118 121t-45 192q0 178 135 286t349 107q426 0 473 -411l-131 -17q-42 223 -183 280q-63 25 -153 25z" />
    <glyph glyph-name="sacute" unicode="&#x15b;" horiz-adv-x="985" 
d="M735 1534l-291 -363l-106 27l217 336h180zM131 766q1 145 107 223t274 78t252 -81t104 -234l-135 -17q-20 115 -67 165t-168 50q-225 0 -226 -170q0 -84 56 -120t164 -62q261 -63 314 -118q81 -85 81 -214q-1 -129 -101 -210t-286 -81q-362 0 -406 318l131 22
q25 -109 83 -165t198 -56q242 0 242 174q0 84 -55 120t-230 79q-174 43 -210 71q-75 55 -87 83q-35 83 -35 145z" />
    <glyph glyph-name="Scircumflex" unicode="&#x15c;" horiz-adv-x="1210" 
d="M801 1575l-185 166l-180 -170l-117 20l246 250h111l246 -250zM629 1386q-180 0 -262 -72t-82 -192q0 -86 45 -146q46 -60 118 -93t159 -59t174 -56t160 -71t118 -117t45 -185q0 -213 -143 -316t-373 -103q-452 -1 -516 411l137 21q35 -146 120 -230t247 -84t273 63
t109 220q0 90 -45 152q-45 63 -117 95t-160 56q-87 24 -174 54q-87 28 -160 69t-118 121t-45 192q0 178 135 286t349 107q426 0 473 -411l-131 -17q-42 223 -183 280q-63 25 -153 25z" />
    <glyph glyph-name="scircumflex" unicode="&#x15d;" horiz-adv-x="985" 
d="M811 1196l-115 -12l-196 250l-189 -254l-112 16l233 338h137zM131 766q1 145 107 223t274 78t252 -81t104 -234l-135 -17q-20 115 -67 165t-168 50q-225 0 -226 -170q0 -84 56 -120t164 -62q261 -63 314 -118q81 -85 81 -214q-1 -129 -101 -210t-286 -81q-362 0 -406 318
l131 22q25 -109 83 -165t198 -56q242 0 242 174q0 84 -55 120t-230 79q-174 43 -210 71q-75 55 -87 83q-35 83 -35 145z" />
    <glyph glyph-name="Scedilla" unicode="&#x15e;" horiz-adv-x="1210" 
d="M672 -260q0 47 -35 72t-121 26l19 139q-209 13 -321 115t-142 295l137 21q35 -146 120 -230t247 -84t273 63t109 220q0 90 -45 152q-45 63 -117 95t-160 56q-87 24 -174 54q-87 28 -160 69t-118 121t-45 192q0 178 135 286t349 107q426 0 473 -411l-131 -17
q-42 223 -183 280q-63 26 -153 25q-180 0 -262 -72t-82 -192q0 -86 45 -146q46 -60 118 -93t159 -59t174 -56t160 -71t118 -117t45 -185q0 -203 -129 -305t-332 -113l-8 -67q156 -31 156 -176q1 -84 -59 -138t-152 -54t-154 42l31 88q55 -34 109 -34t80 28t26 74z" />
    <glyph glyph-name="scedilla" unicode="&#x15f;" horiz-adv-x="985" 
d="M748 268q0 84 -55 120t-230 79q-174 43 -210 71q-75 55 -87 83q-35 83 -35 145q1 145 107 223t274 78t252 -81t104 -234l-135 -17q-20 115 -67 165t-168 50q-225 0 -226 -170q0 -84 56 -120t164 -62q261 -63 314 -118q81 -85 81 -210q0 -124 -90 -204t-256 -89l-9 -67
q156 -31 156 -176q0 -84 -59 -138t-151 -54t-154 42l30 88q56 -34 110 -34t80 28t26 74q0 47 -35 72t-121 26l18 142q-301 27 -338 313l131 22q25 -109 83 -165t198 -56q242 0 242 174z" />
    <glyph glyph-name="Scaron" unicode="&#x160;" horiz-adv-x="1210" 
d="M438 1845l185 -166l180 170l117 -20l-246 -250h-111l-246 250zM629 1386q-180 0 -262 -72t-82 -192q0 -86 45 -146q46 -60 118 -93t159 -59t174 -56t160 -71t118 -117t45 -185q0 -213 -143 -316t-373 -103q-452 -1 -516 411l137 21q35 -146 120 -230t247 -84t273 63
t109 220q0 90 -45 152q-45 63 -117 95t-160 56q-87 24 -174 54q-87 28 -160 69t-118 121t-45 192q0 178 135 286t349 107q426 0 473 -411l-131 -17q-42 223 -183 280q-63 25 -153 25z" />
    <glyph glyph-name="scaron" unicode="&#x161;" horiz-adv-x="985" 
d="M190 1509l123 13l189 -250l192 254l109 -17l-234 -338h-137zM131 766q1 145 107 223t274 78t252 -81t104 -234l-135 -17q-20 115 -67 165t-168 50q-225 0 -226 -170q0 -84 56 -120t164 -62q261 -63 314 -118q81 -85 81 -214q-1 -129 -101 -210t-286 -81q-362 0 -406 318
l131 22q25 -109 83 -165t198 -56q242 0 242 174q0 84 -55 120t-230 79q-174 43 -210 71q-75 55 -87 83q-35 83 -35 145z" />
    <glyph glyph-name="uni0162" unicode="&#x162;" horiz-adv-x="1101" 
d="M629 -260q0 47 -35 72t-121 26l23 162h-13v1364h-452v119h1040v-119h-450v-1364h-17l-12 -90q156 -31 156 -176q0 -84 -60 -138t-152 -54t-153 42l31 88q55 -34 109 -34t80 28t26 74z" />
    <glyph glyph-name="uni0163" unicode="&#x163;" horiz-adv-x="749" 
d="M512 -260q0 47 -35 72t-121 26l21 152q-168 43 -168 266v676h-164v115h164v301l137 20v-321h293v-115h-293v-658q0 -98 33 -142t129 -44t186 53l31 -100q-96 -66 -238 -66h-4l-8 -65q156 -31 156 -176q1 -84 -59 -138t-152 -54t-154 42l31 88q55 -34 109 -34t80 28t26 74
z" />
    <glyph glyph-name="Tcaron" unicode="&#x164;" horiz-adv-x="1101" 
d="M369 1845l184 -166l180 170l117 -20l-246 -250h-110l-246 250zM621 0h-138v1364h-452v119h1040v-119h-450v-1364z" />
    <glyph glyph-name="tcaron" unicode="&#x165;" horiz-adv-x="749" 
d="M467 1157l68 389h157l-123 -405zM488 -25q-142 0 -210 68t-69 213v676h-164v115h164v301l137 20v-321h293v-115h-293v-658q0 -98 33 -142t129 -44t186 53l31 -100q-95 -66 -237 -66z" />
    <glyph glyph-name="Tbar" unicode="&#x166;" horiz-adv-x="1101" 
d="M188 698v117h295v549h-452v119h1040v-119h-450v-549h292v-117h-292v-698h-138v698h-295z" />
    <glyph glyph-name="tbar" unicode="&#x167;" horiz-adv-x="749" 
d="M488 -25q-142 0 -210 68t-69 213v244h-164v114h164v318h-164v115h164v301l137 20v-321h293v-115h-293v-318h293v-114h-293v-226q0 -98 33 -142t129 -44t186 53l31 -100q-95 -66 -237 -66z" />
    <glyph glyph-name="Utilde" unicode="&#x168;" horiz-adv-x="1466" 
d="M573 1827q73 0 173 -48t144 -48q44 -1 63 21t20 91l96 -4q14 -117 -36 -173t-124 -56t-177 48t-148 48q-80 0 -76 -117l-94 4q-14 117 36 175t123 59zM342 492q0 -212 100 -304t295 -92t291 89t96 302v996h138v-1002q0 -252 -138 -379t-405 -127q-266 0 -390 128
t-124 380v1000h137v-991z" />
    <glyph glyph-name="utilde" unicode="&#x169;" horiz-adv-x="1191" 
d="M435 1450q73 0 174 -48t145 -48t62 22q19 22 20 90l96 -4q14 -117 -36 -173t-124 -56t-177 48t-149 48q-80 0 -75 -117l-95 5q-14 117 36 175t123 58zM182 340v707h137v-693q-1 -127 47 -190q48 -64 152 -64t202 48t159 102v797h137v-1047h-121l-8 131
q-203 -151 -380 -151t-251 90t-74 270z" />
    <glyph glyph-name="Umacron" unicode="&#x16a;" horiz-adv-x="1466" 
d="M1063 1632h-621v117h621v-117zM342 492q0 -212 100 -304t295 -92t291 89t96 302v996h138v-1002q0 -252 -138 -379t-405 -127q-266 0 -390 128t-124 380v1000h137v-991z" />
    <glyph glyph-name="umacron" unicode="&#x16b;" horiz-adv-x="1191" 
d="M889 1303h-580v116h580v-116zM182 340v707h137v-693q-1 -127 47 -190q48 -64 152 -64t202 48t159 102v797h137v-1047h-121l-8 131q-203 -151 -380 -151t-251 90t-74 270z" />
    <glyph glyph-name="Ubreve" unicode="&#x16c;" horiz-adv-x="1466" 
d="M737 1706q156 0 183 152l110 -11q-14 -117 -89 -181t-208 -64q-250 0 -274 243l110 13q14 -84 54 -118t114 -34zM342 492q0 -212 100 -304t295 -92t291 89t96 302v996h138v-1002q0 -252 -138 -379t-405 -127q-266 0 -390 128t-124 380v1000h137v-991z" />
    <glyph glyph-name="ubreve" unicode="&#x16d;" horiz-adv-x="1191" 
d="M600 1278q90 0 136 49t50 168l109 -10q0 -145 -77 -229t-224 -82q-279 0 -285 307l111 14q8 -121 49 -169t131 -48zM182 340v707h137v-693q-1 -127 47 -190q48 -64 152 -64t202 48t159 102v797h137v-1047h-121l-8 131q-203 -151 -380 -151t-251 90t-74 270z" />
    <glyph glyph-name="Uring" unicode="&#x16e;" horiz-adv-x="1466" 
d="M733 1593q51 0 78 30t27 81q0 102 -105 102q-47 0 -77 -28t-29 -80q0 -105 106 -105zM946 1706q0 -96 -57 -150t-155 -55q-98 0 -154 51q-58 50 -58 146t60 149t153 53q91 0 151 -48q60 -50 60 -146zM342 492q0 -212 100 -304t295 -92t291 89t96 302v996h138v-1002
q0 -252 -138 -379t-405 -127q-266 0 -390 128t-124 380v1000h137v-991z" />
    <glyph glyph-name="uring" unicode="&#x16f;" horiz-adv-x="1191" 
d="M598 1270q51 0 78 30t26 80q0 102 -104 103q-47 0 -77 -29t-29 -80q0 -104 106 -104zM811 1382q0 -96 -57 -150q-56 -54 -154 -54t-156 51q-57 51 -57 146t60 149q61 54 153 53q92 0 152 -49q59 -50 59 -146zM182 340v707h137v-693q-1 -127 47 -190q48 -64 152 -64
t202 48t159 102v797h137v-1047h-121l-8 131q-203 -151 -380 -151t-251 90t-74 270z" />
    <glyph glyph-name="Uhungarumlaut" unicode="&#x170;" horiz-adv-x="1466" 
d="M1157 1876l-280 -305l-111 26l209 279h182zM856 1868l-219 -297l-111 26l148 271h182zM342 492q0 -212 100 -304t295 -92t291 89t96 302v996h138v-1002q0 -252 -138 -379t-405 -127q-266 0 -390 128t-124 380v1000h137v-991z" />
    <glyph glyph-name="uhungarumlaut" unicode="&#x171;" horiz-adv-x="1191" 
d="M1038 1534l-290 -363l-107 27l217 336h180zM745 1532l-247 -361l-107 27l174 334h180zM182 340v707h137v-693q-1 -127 47 -190q48 -64 152 -64t202 48t159 102v797h137v-1047h-121l-8 131q-203 -151 -380 -151t-251 90t-74 270z" />
    <glyph glyph-name="Uogonek" unicode="&#x172;" horiz-adv-x="1466" 
d="M842 -455q-76 0 -129 46t-54 126q0 135 144 263q-53 -4 -80 -5q-270 0 -394 128t-124 380v1000h137v-991q0 -212 100 -304t295 -92t291 89t96 302v996h138v-1002q0 -173 -65 -281t-193 -190q-211 -131 -211 -270q0 -84 81 -84q70 0 117 80l84 -45q-33 -72 -95 -109
t-138 -37z" />
    <glyph glyph-name="uogonek" unicode="&#x173;" horiz-adv-x="1191" 
d="M873 -455q-76 0 -130 46q-53 46 -53 119t37 135q37 63 71 95t95 78l-6 113q-203 -151 -380 -151t-251 90t-74 270v707h137v-693q-1 -127 47 -190q48 -64 152 -64t202 48t159 102v797h137v-1047q-72 -57 -103 -85t-61 -77t-29 -98q0 -84 82 -84q70 0 117 80l84 -45
q-33 -72 -95 -109t-138 -37z" />
    <glyph glyph-name="Wcircumflex" unicode="&#x174;" horiz-adv-x="1757" 
d="M1067 1575l-184 166l-181 -170l-116 20l245 250h111l246 -250zM1405 0h-174l-346 1311l-357 -1311h-159l-328 1483h145l271 -1319l352 1319h158l350 -1340l264 1340h135z" />
    <glyph glyph-name="wcircumflex" unicode="&#x175;" horiz-adv-x="1509" 
d="M1075 1196l-114 -12l-197 250l-189 -254l-112 16l233 338h138zM520 0h-164l-336 1047h142l278 -908l248 908h150l243 -904l277 904h131l-330 -1047h-166l-235 893z" />
    <glyph glyph-name="Ycircumflex" unicode="&#x176;" horiz-adv-x="1126" 
d="M743 1575l-184 166l-180 -170l-117 20l246 250h110l246 -250zM641 0h-137v582l-504 901h152l423 -764l412 764h139l-485 -895v-588z" />
    <glyph glyph-name="ycircumflex" unicode="&#x177;" horiz-adv-x="960" 
d="M793 1196l-115 -12l-197 250l-188 -254l-113 16l234 338h137zM166 -457q-116 0 -205 37l21 107q98 -31 175 -31t139 75t116 261l-385 1055h147l307 -885l320 885h139q-197 -524 -422 -1108q-84 -229 -160 -313t-192 -83z" />
    <glyph glyph-name="Ydieresis" unicode="&#x178;" horiz-adv-x="1126" 
d="M874 1705q0 -48 -28 -76q-28 -27 -78 -27q-49 0 -79 28t-30 75q0 48 30 77q30 28 78 28t78 -28q29 -29 29 -77zM467 1705q0 -48 -29 -76q-29 -27 -78 -27q-48 0 -78 28t-30 75q0 48 30 77q30 28 78 28t77 -28q30 -28 30 -77zM641 0h-137v582l-504 901h152l423 -764
l412 764h139l-485 -895v-588z" />
    <glyph glyph-name="Zacute" unicode="&#x179;" horiz-adv-x="1200" 
d="M797 1868l-281 -297l-110 26l208 271h183zM1108 119v-119h-1032v98l827 1266h-803v119h973v-103l-827 -1261h862z" />
    <glyph glyph-name="zacute" unicode="&#x17a;" horiz-adv-x="933" 
d="M733 1534l-291 -363l-106 27l217 336h180zM879 115v-115h-813v96l630 836h-620v115h782v-99l-633 -833h654z" />
    <glyph glyph-name="Zdotaccent" unicode="&#x17b;" horiz-adv-x="1200" 
d="M686 1710q0 -108 -111 -108t-110 108q1 109 111 109t110 -109zM1108 119v-119h-1032v98l827 1266h-803v119h973v-103l-827 -1261h862z" />
    <glyph glyph-name="zdotaccent" unicode="&#x17c;" horiz-adv-x="933" 
d="M582 1389q0 -109 -111 -109t-111 109t111 109t111 -109zM879 115v-115h-813v96l630 836h-620v115h782v-99l-633 -833h654z" />
    <glyph glyph-name="Zcaron" unicode="&#x17d;" horiz-adv-x="1200" 
d="M393 1845l185 -166l180 170l116 -20l-245 -250h-111l-246 250zM1108 119v-119h-1032v98l827 1266h-803v119h973v-103l-827 -1261h862z" />
    <glyph glyph-name="zcaron" unicode="&#x17e;" horiz-adv-x="933" 
d="M162 1509l123 13l188 -250l193 254l108 -17l-233 -338h-138zM879 115v-115h-813v96l630 836h-620v115h782v-99l-633 -833h654z" />
    <glyph glyph-name="longs" unicode="&#x17f;" horiz-adv-x="577" 
d="M485 1448q-164 0 -163 -191v-1257h-138v1237q0 328 283 328q104 0 174 -33l-6 -111q-76 27 -150 27z" />
    <glyph glyph-name="florin" unicode="&#x192;" horiz-adv-x="1060" 
d="M825 1393q-73 0 -119 -43t-67 -148l-55 -293h297l-23 -114h-297l-135 -660q-33 -163 -109 -233t-208 -70q-219 0 -283 197l123 49q49 -129 168 -129q71 0 113 42t63 148l131 656h-160l23 114h159l60 297q33 160 111 232q79 72 212 71q205 1 277 -196l-123 -49
q-49 129 -158 129z" />
    <glyph glyph-name="Aringacute" unicode="&#x1fa;" horiz-adv-x="1388" 
d="M688 1540q51 0 78 30t27 81q0 102 -105 102q-47 0 -77 -29t-29 -79q0 -105 106 -105zM909 2183l-280 -297l-111 27l209 270h182zM946 598l-258 772l-260 -772h518zM901 1651q0 -139 -113 -185l508 -1466h-151l-160 477h-598l-160 -477h-135l498 1464q-113 47 -113 176
q1 100 61 154t152 53q92 0 152 -49t59 -147z" />
    <glyph glyph-name="aringacute" unicode="&#x1fb;" horiz-adv-x="1095" 
d="M782 1913l-280 -297l-111 26l209 271h182zM549 1247q51 0 78 30t26 81q0 102 -104 102q-47 0 -77 -28t-30 -80q1 -105 107 -105zM550 1554q92 0 152 -49t60 -145t-57 -150t-155 -55q-98 0 -155 51q-57 50 -57 146t60 149t152 53zM645 502q-272 0 -343 -100
q-36 -48 -36 -123q0 -193 199 -193q86 0 169 41t136 102v267q-49 6 -125 6zM905 709v-541q1 -46 13 -64t44 -18t70 12l8 -88q-57 -29 -125 -28q-127 0 -135 131q-131 -137 -348 -138q-94 0 -160 29t-96 76q-54 85 -53 178q0 352 508 352q55 0 137 -4v105q0 127 -48 186
t-173 59t-179 -45t-73 -143l-129 23q25 143 119 209t273 67q179 -1 263 -83t84 -275z" />
    <glyph glyph-name="AEacute" unicode="&#x1fc;" horiz-adv-x="2041" 
d="M1686 1868l-281 -297l-111 26l209 271h183zM1083 793v575h-82l-321 -575h403zM1223 680v-565h721v-115h-861v676h-469l-383 -676h-139l840 1483h991v-115h-700v-571h655v-117h-655z" />
    <glyph glyph-name="aeacute" unicode="&#x1fd;" horiz-adv-x="1765" 
d="M1180 1534l-291 -363l-107 27l217 336h181zM1233 948q-131 0 -225 -85t-101 -257h598q6 342 -272 342zM465 86q203 0 344 158q-37 106 -41 254q-78 4 -148 4q-253 0 -324 -110q-30 -46 -30 -125t42 -130t157 -51zM166 795q48 272 366 272q154 0 227 -45t105 -145
q129 190 381 190q205 0 304 -121t100 -321q0 -57 -11 -129h-733q6 -218 95 -308q88 -90 224 -90t195 48t86 151l129 -25q-33 -150 -141 -224t-262 -73q-258 0 -371 166q-174 -166 -428 -166q-94 0 -160 29t-96 76q-54 85 -53 178q0 352 504 352q55 0 141 -4v127
q0 111 -52 167t-174 56t-177 -44t-74 -140z" />
    <glyph glyph-name="Oslashacute" unicode="&#x1fe;" horiz-adv-x="1554" 
d="M776 96q238 0 381 169t143 489q0 379 -217 542l-487 -1171q86 -29 180 -29zM256 743q0 -395 225 -559l490 1174q-80 31 -178 31q-237 -1 -387 -171t-150 -475zM768 -25q-123 0 -221 31l-64 -151h-139l84 202q-158 91 -237 269t-78 417q0 342 181 554t503 212
q123 0 223 -34l63 149h138l-84 -201q149 -90 227 -261t78 -388q0 -371 -175 -585t-499 -214zM1016 1868l-281 -297l-110 26l209 271h182z" />
    <glyph glyph-name="oslashacute" unicode="&#x1ff;" horiz-adv-x="1175" 
d="M602 948q-162 0 -255 -104t-93 -336q0 -230 108 -336l345 764q-47 12 -105 12zM594 92q326 0 326 440q0 248 -103 345l-348 -768q59 -17 125 -17zM584 -25q-84 0 -166 21l-64 -143h-137l88 194q-193 125 -192 471q0 258 129 404t368 145q82 0 148 -18l69 151h136
l-93 -201q193 -125 193 -454q0 -570 -479 -570zM844 1534l-291 -363l-107 27l218 336h180z" />
    <glyph glyph-name="Scommaaccent" unicode="&#x218;" horiz-adv-x="1210" 
d="M479 -451l74 310h162l-127 -326zM629 1386q-180 0 -262 -72t-82 -192q0 -86 45 -146q46 -60 118 -93t159 -59t174 -56t160 -71t118 -117t45 -185q0 -213 -143 -316t-373 -103q-452 -1 -516 411l137 21q35 -146 120 -230t247 -84t273 63t109 220q0 90 -45 152
q-45 63 -117 95t-160 56q-87 24 -174 54q-87 28 -160 69t-118 121t-45 192q0 178 135 286t349 107q426 0 473 -411l-131 -17q-42 223 -183 280q-63 25 -153 25z" />
    <glyph glyph-name="scommaaccent" unicode="&#x219;" horiz-adv-x="985" 
d="M371 -451l73 310h162l-127 -326zM131 766q1 145 107 223t274 78t252 -81t104 -234l-135 -17q-20 115 -67 165t-168 50q-225 0 -226 -170q0 -84 56 -120t164 -62q261 -63 314 -118q81 -85 81 -214q-1 -129 -101 -210t-286 -81q-362 0 -406 318l131 22q25 -109 83 -165
t198 -56q242 0 242 174q0 84 -55 120t-230 79q-174 43 -210 71q-75 55 -87 83q-35 83 -35 145z" />
    <glyph glyph-name="uni021A" unicode="&#x21a;" horiz-adv-x="1101" 
d="M416 -451l73 310h162l-127 -326zM621 0h-138v1364h-452v119h1040v-119h-450v-1364z" />
    <glyph glyph-name="uni021B" unicode="&#x21b;" horiz-adv-x="749" 
d="M309 -451l74 310h162l-127 -326zM488 -25q-142 0 -210 68t-69 213v676h-164v115h164v301l137 20v-321h293v-115h-293v-658q0 -98 33 -142t129 -44t186 53l31 -100q-95 -66 -237 -66z" />
    <glyph glyph-name="dotlessj" unicode="&#x237;" horiz-adv-x="489" 
d="M53 -457q-121 0 -176 33l19 113q78 -29 149 -29q139 0 139 170v1217h138v-1209q-1 -295 -269 -295z" />
    <glyph glyph-name="apostrophe" unicode="&#x2bc;" horiz-adv-x="1024" 
d="M379 1100l74 309h161l-127 -326z" />
    <glyph glyph-name="circumflex" unicode="&#x2c6;" horiz-adv-x="1024" 
d="M821 1196l-114 -12l-197 250l-188 -254l-113 16l233 338h138z" />
    <glyph glyph-name="caron" unicode="&#x2c7;" horiz-adv-x="1024" 
d="M203 1509l123 13l188 -250l193 254l108 -17l-233 -338h-138z" />
    <glyph glyph-name="uni02C9" unicode="&#x2c9;" horiz-adv-x="1024" 
d="M801 1282h-580v117h580v-117z" />
    <glyph glyph-name="breve" unicode="&#x2d8;" horiz-adv-x="1024" 
d="M514 1278q90 0 136 49t50 168l109 -10q0 -145 -77 -229t-224 -82q-279 0 -285 307l111 14q8 -121 49 -169t131 -48z" />
    <glyph glyph-name="dotaccent" unicode="&#x2d9;" horiz-adv-x="1024" 
d="M623 1389q0 -109 -111 -109t-111 109t111 109t111 -109z" />
    <glyph glyph-name="ring" unicode="&#x2da;" horiz-adv-x="1024" 
d="M512 1270q51 0 78 30t26 80q0 102 -104 103q-47 0 -77 -29t-29 -80q0 -104 106 -104zM725 1382q0 -96 -57 -150q-56 -54 -154 -54t-156 51q-57 51 -57 146t60 149q61 54 153 53q92 0 152 -49q59 -50 59 -146z" />
    <glyph glyph-name="ogonek" unicode="&#x2db;" horiz-adv-x="1024" 
d="M512 -455q-76 0 -129 46t-53 121t42 145q42 71 79 103t100 83l104 -27q-125 -116 -159 -166t-33 -110q0 -84 82 -84q70 0 117 80l83 -45q-33 -72 -95 -109t-138 -37z" />
    <glyph glyph-name="tilde" unicode="&#x2dc;" horiz-adv-x="1024" 
d="M349 1450q73 0 174 -48t145 -48t62 22q19 22 20 90l96 -4q14 -117 -36 -173t-124 -56t-177 48t-149 48q-80 0 -75 -117l-95 5q-14 117 36 175t123 58z" />
    <glyph glyph-name="hungarumlaut" unicode="&#x2dd;" horiz-adv-x="1024" 
d="M952 1534l-290 -363l-107 27l217 336h180zM659 1532l-247 -361l-107 27l174 334h180z" />
    <glyph glyph-name="uni0394" unicode="&#x394;" horiz-adv-x="1335" 
d="M659 1370l-419 -1251h837zM1274 0h-1213l506 1483h189z" />
    <glyph glyph-name="uni03A9" unicode="&#x3a9;" horiz-adv-x="1697" 
d="M1147 115h362v-115h-487v274q86 35 166 103q80 69 146 197t67 284q0 260 -139 395q-138 135 -390 135t-404 -146t-153 -421q1 -217 107 -351t270 -196v-274h-506v115h379v108q-188 74 -291 234q-102 160 -102 362q0 311 190 501t518 189q328 0 496 -176
q166 -176 166 -465q0 -209 -110 -379t-285 -266v-108z" />
    <glyph glyph-name="uni03BC" unicode="&#x3bc;" horiz-adv-x="1288" 
d="M221 -360v1407h137v-689q0 -141 42 -203t149 -63q188 0 369 211v744h137v-1047h-131v150q-205 -174 -394 -175q-121 0 -176 72l-2 -2q-4 0 -4 -2l10 -403h-137z" />
    <glyph glyph-name="pi" unicode="&#x3c0;" horiz-adv-x="1359" 
d="M950 0v922h-549v-922h-137v1047h826l-3 -1047h-137z" />
    <glyph glyph-name="Wgrave" unicode="&#x1e80;" horiz-adv-x="1757" 
d="M950 1571l-280 297h182l209 -271zM1405 0h-174l-346 1311l-357 -1311h-159l-328 1483h145l271 -1319l352 1319h158l350 -1340l264 1340h135z" />
    <glyph glyph-name="wgrave" unicode="&#x1e81;" horiz-adv-x="1509" 
d="M827 1171l-290 363h180l217 -336zM520 0h-164l-336 1047h142l278 -908l248 908h150l243 -904l277 904h131l-330 -1047h-166l-235 893z" />
    <glyph glyph-name="Wacute" unicode="&#x1e82;" horiz-adv-x="1757" 
d="M1108 1868l-281 -297l-110 26l209 271h182zM1405 0h-174l-346 1311l-357 -1311h-159l-328 1483h145l271 -1319l352 1319h158l350 -1340l264 1340h135z" />
    <glyph glyph-name="wacute" unicode="&#x1e83;" horiz-adv-x="1509" 
d="M999 1534l-290 -363l-107 27l217 336h180zM520 0h-164l-336 1047h142l278 -908l248 908h150l243 -904l277 904h131l-330 -1047h-166l-235 893z" />
    <glyph glyph-name="Wdieresis" unicode="&#x1e84;" horiz-adv-x="1757" 
d="M1198 1705q0 -48 -29 -76q-29 -27 -77 -27t-79 28q-30 28 -30 75q0 48 30 77q30 28 78 28q47 0 77 -28t30 -77zM791 1705q0 -48 -29 -76q-29 -27 -78 -27t-79 28t-30 75q0 48 30 77q30 28 78 28t78 -28t30 -77zM1405 0h-174l-346 1311l-357 -1311h-159l-328 1483h145
l271 -1319l352 1319h158l350 -1340l264 1340h135z" />
    <glyph glyph-name="wdieresis" unicode="&#x1e85;" horiz-adv-x="1509" 
d="M966 1473q48 0 78 -29t29 -77q0 -48 -29 -76q-30 -27 -78 -27t-78 28t-30 75q0 48 30 77t78 29zM666 1367q0 -48 -29 -76q-29 -27 -78 -27t-79 28t-30 75q0 48 30 77t78 29t78 -29t30 -77zM520 0h-164l-336 1047h142l278 -908l248 908h150l243 -904l277 904h131
l-330 -1047h-166l-235 893z" />
    <glyph glyph-name="Ygrave" unicode="&#x1ef2;" horiz-adv-x="1126" 
d="M614 1571l-280 297h182l209 -271zM641 0h-137v582l-504 901h152l423 -764l412 764h139l-485 -895v-588z" />
    <glyph glyph-name="ygrave" unicode="&#x1ef3;" horiz-adv-x="960" 
d="M520 1171l-291 363h181l217 -336zM166 -457q-116 0 -205 37l21 107q98 -31 175 -31t139 75t116 261l-385 1055h147l307 -885l320 885h139q-197 -524 -422 -1108q-84 -229 -160 -313t-192 -83z" />
    <glyph glyph-name="thinspace" unicode="&#x2009;" horiz-adv-x="256" 
 />
    <glyph glyph-name="endash" unicode="&#x2013;" horiz-adv-x="1024" 
d="M1022 522h-1022v111h1022v-111z" />
    <glyph glyph-name="emdash" unicode="&#x2014;" horiz-adv-x="2048" 
d="M2046 522h-2046v111h2046v-111z" />
    <glyph glyph-name="quoteleft" unicode="&#x2018;" horiz-adv-x="362" 
d="M346 1571l-108 -430h-162l162 446z" />
    <glyph glyph-name="quoteright" unicode="&#x2019;" horiz-adv-x="362" 
d="M68 1153l108 430h162l-162 -446z" />
    <glyph glyph-name="quotesinglbase" unicode="&#x201a;" horiz-adv-x="339" 
d="M31 -258l108 430h162l-162 -446z" />
    <glyph glyph-name="quotedblleft" unicode="&#x201c;" horiz-adv-x="655" 
d="M639 1571l-109 -430h-161l161 446zM346 1571l-108 -430h-162l162 446z" />
    <glyph glyph-name="quotedblright" unicode="&#x201d;" horiz-adv-x="655" 
d="M350 1153l109 430h162l-162 -446zM57 1153l109 430h162l-162 -446z" />
    <glyph glyph-name="quotedblbase" unicode="&#x201e;" horiz-adv-x="632" 
d="M31 -258l108 430h162l-162 -446zM322 -258l108 430h162l-162 -446z" />
    <glyph glyph-name="dagger" unicode="&#x2020;" horiz-adv-x="800" 
d="M760 1016l-307 14l24 -1200h-153l22 1202l-305 -16v129l305 -19l-16 357h141l-18 -355l307 17v-129z" />
    <glyph glyph-name="daggerdbl" unicode="&#x2021;" horiz-adv-x="841" 
d="M780 1016l-307 14l2 -749l305 16v-129l-305 18l17 -356h-142l19 354l-308 -16v129l308 -14l-2 749l-306 -16v129l306 -19l-17 357h142l-19 -355l307 17v-129z" />
    <glyph glyph-name="bullet" unicode="&#x2022;" horiz-adv-x="747" 
d="M643 573q0 -131 -70 -197q-69 -66 -199 -67q-130 0 -200 67q-70 68 -70 198t70 197t200 67t200 -67t69 -198z" />
    <glyph glyph-name="ellipsis" unicode="&#x2026;" horiz-adv-x="1191" 
d="M715 92q0 -117 -119 -117t-119 117t119 117t119 -117zM1090 92q0 -117 -119 -117t-119 117t119 117t119 -117zM340 92q0 -117 -119 -117t-119 117t119 117t119 -117z" />
    <glyph glyph-name="perthousand" unicode="&#x2030;" horiz-adv-x="2025" 
d="M1636 78q162 0 162 229t-158 230q-90 0 -128 -69t-37 -163q-1 -227 161 -227zM1923 317q0 -158 -76 -250q-77 -92 -223 -92q-146 1 -212 91t-64 238q0 148 76 243q77 94 218 94q281 0 281 -324zM813 305q0 -227 162 -227t162 229t-158 230q-90 0 -128 -69t-38 -163z
M1262 317q0 -158 -76 -250t-222 -92q-146 1 -212 91t-66 238t77 243q77 94 218 94q281 0 281 -324zM229 1174q0 -228 162 -228t162 230t-158 229q-90 0 -128 -69t-38 -162zM291 -35h-135l899 1518h133zM380 844q-146 0 -212 90t-66 238t77 243q77 94 218 94q281 0 281 -323
q0 -158 -76 -250t-222 -92z" />
    <glyph glyph-name="guilsinglleft" unicode="&#x2039;" horiz-adv-x="569" 
d="M449 211h-136l-180 321l182 304h136l-170 -299z" />
    <glyph glyph-name="guilsinglright" unicode="&#x203a;" horiz-adv-x="569" 
d="M115 836h135l180 -318l-182 -307h-135l170 303z" />
    <glyph glyph-name="fraction" unicode="&#x2044;" horiz-adv-x="274" 
d="M-170 -25h-131l729 1508h129z" />
    <glyph glyph-name="zerosuperior" unicode="&#x2070;" horiz-adv-x="813" 
d="M412 1526q-106 0 -146 -87t-39 -273q-1 -186 37 -272q38 -87 143 -87t142 88t37 275q0 188 -34 272t-140 84zM403 700q-179 0 -245 119t-66 345t73 349t250 123t241 -118t65 -345q0 -225 -70 -349t-248 -124z" />
    <glyph glyph-name="foursuperior" unicode="&#x2074;" horiz-adv-x="753" 
d="M471 1038v463l-307 -463h307zM596 715h-127v219h-428v92l395 594h160v-582h109v-104h-109v-219z" />
    <glyph glyph-name="fivesuperior" unicode="&#x2075;" horiz-adv-x="749" 
d="M612 1620v-109h-352l-24 -260l-3 -22q80 61 186 61q107 0 179 -66t72 -208q0 -144 -86 -230t-214 -86q-268 0 -300 213l116 27q27 -135 168 -135q76 0 128 51t53 154q0 176 -162 176q-88 0 -162 -68l-86 37l35 465h452z" />
    <glyph glyph-name="sixsuperior" unicode="&#x2076;" horiz-adv-x="780" 
d="M412 803q72 0 114 49t43 145q0 170 -141 170q-52 -1 -106 -29t-89 -65q3 -82 15 -133t52 -94t112 -43zM426 1534q-66 0 -115 -58t-65 -134t-19 -173q89 97 217 97t192 -70t64 -202t-80 -214q-81 -80 -219 -80q-173 0 -240 131q-57 112 -58 298t66 332q36 79 109 127
t173 48q198 1 239 -198l-115 -31q-14 71 -48 99q-35 28 -101 28z" />
    <glyph glyph-name="sevensuperior" unicode="&#x2077;" horiz-adv-x="677" 
d="M45 1511v109h592v-96l-377 -809h-137l377 796h-455z" />
    <glyph glyph-name="eightsuperior" unicode="&#x2078;" horiz-adv-x="743" 
d="M539 1421q0 117 -154 117q-74 0 -116 -33t-42 -92q0 -112 162 -178q150 76 150 186zM371 803q88 0 133 41t45 91q0 89 -66 131q-50 33 -131 62q-82 -36 -121 -78t-38 -108q0 -139 178 -139zM682 943q0 -103 -86 -173t-232 -70t-223 64q-76 64 -75 168q0 162 194 242
q-74 31 -119 89t-45 134q0 115 82 177t210 62t202 -55t74 -154q-1 -141 -181 -233q99 -43 149 -95t50 -156z" />
    <glyph glyph-name="ninesuperior" unicode="&#x2079;" horiz-adv-x="790" 
d="M223 1335q0 -176 146 -176q104 0 190 96q-8 118 -36 189q-35 92 -151 92q-64 0 -106 -50q-43 -50 -43 -151zM358 801q203 0 209 350q-35 -37 -96 -64t-131 -26q-120 0 -184 73q-64 72 -64 206t82 215t207 81t195 -63t92 -155q23 -92 22 -222q0 -496 -336 -496
q-227 0 -266 205l117 31q31 -135 153 -135z" />
    <glyph glyph-name="plussuperior" unicode="&#x207a;" horiz-adv-x="890" 
d="M502 913h-115v191h-186v108h186v185h115v-185h186v-108h-186v-191z" />
    <glyph glyph-name="minussuperior" unicode="&#x207b;" horiz-adv-x="890" 
d="M690 1114h-487v109h487v-109z" />
    <glyph glyph-name="equalsuperior" unicode="&#x207c;" horiz-adv-x="897" 
d="M692 1171h-485v113h485v-113zM692 965h-485v110h485v-110z" />
    <glyph glyph-name="parenleftsuperior" unicode="&#x207d;" horiz-adv-x="493" 
d="M121 1108q0 274 198 553h134q-197 -299 -197 -553q0 -156 47 -281t137 -262h-133q-186 269 -186 543z" />
    <glyph glyph-name="parenrightsuperior" unicode="&#x207e;" horiz-adv-x="612" 
d="M244 1108q0 254 -197 553h133q199 -279 199 -553t-186 -543h-134q90 137 138 262q47 125 47 281z" />
    <glyph glyph-name="zeroinferior" unicode="&#x2080;" horiz-adv-x="813" 
d="M412 510q-106 0 -146 -87t-39 -273q-1 -186 37 -272q38 -87 143 -87t142 88q37 87 37 275t-34 272t-140 84zM403 -315q-179 1 -245 119t-66 344t73 350q73 123 250 123t241 -119t65 -345q0 -226 -70 -349t-248 -123z" />
    <glyph glyph-name="oneinferior" unicode="&#x2081;" horiz-adv-x="571" 
d="M406 -305h-130v741q-30 -16 -96 -28t-104 -13l-8 101q176 12 260 104h78v-905z" />
    <glyph glyph-name="twoinferior" unicode="&#x2082;" horiz-adv-x="706" 
d="M365 621q121 1 189 -57t69 -162q-1 -104 -49 -184q-48 -79 -166 -214l-175 -190v-2h404v-113h-551v106l215 248q111 129 151 194t40 142q0 127 -142 127q-80 0 -116 -39t-48 -112l-110 20q35 236 289 236z" />
    <glyph glyph-name="threeinferior" unicode="&#x2083;" horiz-adv-x="739" 
d="M335 -211q79 0 126 41t47 127q0 164 -189 164h-83v100h59q94 0 147 46t54 122q0 125 -140 125q-76 0 -110 -30t-49 -95l-115 23q41 209 287 209q123 -1 189 -59t67 -152t-53 -148t-128 -76v-2q197 -37 197 -231q0 -121 -83 -195t-220 -73q-252 0 -279 215l119 22
q12 -68 45 -100t112 -33z" />
    <glyph glyph-name="fourinferior" unicode="&#x2084;" horiz-adv-x="753" 
d="M471 23v462l-307 -462h307zM596 -301h-127v219h-428v92l395 594h160v-581h109v-105h-109v-219z" />
    <glyph glyph-name="fiveinferior" unicode="&#x2085;" horiz-adv-x="749" 
d="M612 604v-108h-352l-24 -260l-3 -23q80 61 186 61q107 0 179 -66t72 -208q0 -143 -86 -229t-214 -86q-268 0 -300 213l116 26q27 -135 168 -135q76 0 128 51t53 154q0 176 -162 176q-88 0 -162 -68l-86 37l35 465h452z" />
    <glyph glyph-name="sixinferior" unicode="&#x2086;" horiz-adv-x="780" 
d="M412 -213q72 0 114 49t43 146q0 170 -141 170q-52 0 -106 -29t-89 -66q3 -82 15 -133t52 -94t112 -43zM444 250q258 0 256 -272q0 -132 -80 -214q-81 -80 -219 -79q-174 0 -240 131q-57 112 -58 298t66 331q36 79 109 127t173 49q198 0 239 -199l-115 -31q-14 71 -48 99
q-35 28 -101 28t-115 -58t-65 -134t-19 -172q89 96 217 96z" />
    <glyph glyph-name="seveninferior" unicode="&#x2087;" horiz-adv-x="677" 
d="M45 496v108h592v-96l-377 -809h-137l377 797h-455z" />
    <glyph glyph-name="eightinferior" unicode="&#x2088;" horiz-adv-x="743" 
d="M539 406q0 117 -154 116q-74 0 -116 -33t-42 -92q0 -112 162 -178q150 76 150 187zM371 -213q88 0 133 41t45 91q0 89 -59 128t-138 66q-82 -37 -121 -79t-38 -108q0 -139 178 -139zM682 -73q0 -103 -86 -173t-232 -70t-223 64q-76 63 -75 168q0 162 194 242
q-74 31 -119 89t-45 134q0 115 82 177t210 62t202 -54q74 -56 74 -154q-1 -142 -181 -234q99 -43 149 -95t50 -156z" />
    <glyph glyph-name="nineinferior" unicode="&#x2089;" horiz-adv-x="790" 
d="M223 319q0 -176 146 -176q104 1 190 97q-14 206 -88 257q-35 23 -99 23t-106 -50q-43 -50 -43 -151zM358 -215q203 0 209 350q-35 -37 -96 -63t-131 -27q-120 0 -184 73q-64 72 -64 206t82 216t207 81q125 1 195 -63t92 -156q23 -92 22 -222q0 -496 -336 -495
q-227 -1 -266 204l117 31q31 -135 153 -135z" />
    <glyph glyph-name="parenleftinferior" unicode="&#x208d;" horiz-adv-x="493" 
d="M121 92q0 274 198 553h134q-197 -299 -197 -553q0 -156 47 -281t137 -262h-133q-186 269 -186 543z" />
    <glyph glyph-name="parenrightinferior" unicode="&#x208e;" horiz-adv-x="612" 
d="M244 92q0 254 -197 553h133q199 -279 199 -553t-186 -543h-134q89 137 137 263t48 280z" />
    <glyph glyph-name="Euro" unicode="&#x20ac;" horiz-adv-x="1226" 
d="M721 94q143 0 223 67t113 218l119 -31q-31 -192 -160 -282t-305 -91q-471 0 -533 551h-143l18 107h117q-2 27 -2 87t2 91h-104l18 107h96q39 317 194 454q156 137 360 137q421 0 452 -424l-131 -12q-23 172 -91 244q-69 72 -223 72q-369 0 -422 -471h488l-21 -107h-475
q-2 -31 -2 -90t2 -88h465l-20 -107h-437q27 -216 123 -324t279 -108z" />
    <glyph glyph-name="afii61352" unicode="&#x2116;" horiz-adv-x="2172" 
d="M1694 1393q-213 0 -213 -249t205 -249q204 0 204 249t-196 249zM1694 1497q321 0 321 -346q0 -164 -82 -260t-249 -96q-166 0 -246 95t-80 257t85 256t251 94zM1405 575v117h580v-117h-580zM1202 0h-174l-668 1335v-1335h-131v1483h197l647 -1317v1317h129v-1483z" />
    <glyph glyph-name="trademark" unicode="&#x2122;" horiz-adv-x="1685" 
d="M420 1386v-673h-107v673h-272v97h653v-97h-274zM1552 713h-98v573l-233 -573h-82l-230 575v-575h-100v770h129l246 -619l252 619h116v-770z" />
    <glyph glyph-name="Omega" unicode="&#x2126;" horiz-adv-x="1697" 
d="M1147 115h362v-115h-487v274q86 35 166 103q80 69 146 197t67 284q0 260 -139 395q-138 135 -390 135t-404 -146t-153 -421q1 -217 107 -351t270 -196v-274h-506v115h379v108q-188 74 -291 234q-102 160 -102 362q0 311 190 501t518 189q328 0 496 -176
q166 -176 166 -465q0 -209 -110 -379t-285 -266v-108z" />
    <glyph glyph-name="onethird" unicode="&#x2153;" horiz-adv-x="1751" 
d="M1328 90q78 0 126 41q47 41 47 127q0 164 -188 164h-84v100h59q94 0 148 46q53 46 53 122q0 125 -139 125q-76 0 -110 -30t-50 -95l-115 23q41 209 287 209q124 0 190 -58t66 -153t-53 -149t-127 -75v-2q197 -37 196 -231q0 -121 -83 -195t-220 -73q-251 0 -278 215
l118 22q11 -69 45 -101t112 -32zM522 -25h-131l729 1508h129zM449 571h-130v742q-29 -17 -95 -29t-105 -12l-8 100q176 12 260 105h78v-906z" />
    <glyph glyph-name="twothirds" unicode="&#x2154;" horiz-adv-x="1751" 
d="M348 1497q121 0 190 -57q68 -58 68 -162t-48 -183t-167 -214l-174 -191v-2h404v-113h-551v107l215 248q111 130 151 194t39 142q0 127 -141 127q-80 0 -116 -39t-48 -113l-111 21q35 235 289 235zM1369 90q79 0 126 41t47 127q0 164 -188 164h-84v100h59q94 0 148 46
q53 46 53 122q0 125 -139 125q-76 0 -110 -30t-50 -95l-115 23q41 209 287 209q123 0 189 -58t67 -153q0 -95 -53 -149t-127 -75v-2q197 -37 196 -231q0 -121 -83 -195t-220 -73q-251 0 -278 215l118 22q12 -69 45 -101t112 -32zM592 -25h-131l729 1508h129z" />
    <glyph glyph-name="partialdiff" unicode="&#x2202;" horiz-adv-x="1118" 
d="M520 723q-143 0 -210 -102q-66 -103 -66 -239t62 -214t188 -78t203 89t104 181q26 92 43 205q-141 158 -324 158zM856 831q0 166 -54 283q-30 66 -88 105t-141 38q-158 0 -313 -102l-61 94q190 127 381 127q414 0 413 -573q0 -238 -44 -390q-44 -153 -97 -238t-147 -142
t-220 -58q-190 -1 -286 105q-97 106 -97 300t110 328t300 134t338 -148q6 57 6 137z" />
    <glyph glyph-name="Delta" unicode="&#x2206;" horiz-adv-x="1335" 
d="M659 1370l-419 -1251h837zM1274 0h-1213l506 1483h189z" />
    <glyph glyph-name="product" unicode="&#x220f;" horiz-adv-x="1568" 
d="M1303 1483v-1813h-138v1698h-762v-1698h-137v1813h1037z" />
    <glyph glyph-name="summation" unicode="&#x2211;" horiz-adv-x="1284" 
d="M1163 -246v-114h-1106v94l484 841l-443 811v97h1061v-115h-895l426 -795l-475 -819h948z" />
    <glyph glyph-name="minus" unicode="&#x2212;" 
d="M967 598h-764v127h764v-127z" />
    <glyph glyph-name="uni2215" unicode="&#x2215;" horiz-adv-x="929" 
d="M211 -35h-131l641 1327h129z" />
    <glyph glyph-name="uni2219" unicode="&#x2219;" horiz-adv-x="591" 
d="M424 629q0 -127 -129 -127t-129 127t129 127t129 -127z" />
    <glyph glyph-name="radical" unicode="&#x221a;" 
d="M692 0h-149l-291 520l-146 -63l-38 92l258 117l280 -510l365 1366l119 -31z" />
    <glyph glyph-name="infinity" unicode="&#x221e;" horiz-adv-x="1374" 
d="M1139 660q0 64 -33 111q-33 46 -102 46q-36 0 -55 -9t-30 -14q-11 -4 -27 -18t-26 -20q-8 -6 -29 -28t-42 -45q-21 -24 -25 -28q25 -25 40 -43q16 -18 34 -38t27 -25t39 -27q30 -21 90 -22q60 0 100 48q39 48 39 112zM384 815q-66 0 -108 -46q-42 -45 -40 -109
q0 -64 34 -114t109 -50q91 0 214 133q28 31 30 33q-61 74 -117 114t-122 39zM367 385q-106 0 -186 69q-79 68 -79 194t80 203t203 77q68 0 130 -31t96 -61t89 -88q133 139 215 165q45 14 97 15q112 0 186 -70t74 -196t-78 -202t-194 -75q-116 0 -185 59q-70 59 -127 125
q-53 -55 -83 -84q-29 -29 -99 -65t-139 -35z" />
    <glyph glyph-name="integral" unicode="&#x222b;" horiz-adv-x="847" 
d="M291 -266q141 0 131 145l-113 1333q-12 141 68 209q79 68 181 68t194 -39v-129q-86 45 -164 45q-158 0 -146 -145l113 -1332q12 -145 -67 -211t-182 -66t-191 38v127q82 -43 176 -43z" />
    <glyph glyph-name="approxequal" unicode="&#x2248;" 
d="M327 539q73 -1 256 -49t226 -48t62 22t20 91l96 -4q14 -117 -36 -173t-124 -56t-259 48t-230 48q-80 0 -76 -117l-94 4q-14 117 36 175t123 59zM329 901q73 0 256 -48t226 -48q43 -1 62 21t20 92l96 -5q14 -117 -36 -173t-124 -56t-259 48t-230 48q-80 0 -76 -116l-94 4
q-14 117 36 175t123 58z" />
    <glyph glyph-name="notequal" unicode="&#x2260;" 
d="M207 477h260l98 199h-358v127h416l102 205h139l-102 -205h201v-127h-258l-99 -199h357v-127h-424l-101 -203h-139l100 203h-192v127z" />
    <glyph glyph-name="lessequal" unicode="&#x2264;" 
d="M948 0h-764v135h764v-135zM948 201l-766 303v160l766 325v-133l-635 -264l635 -252v-139z" />
    <glyph glyph-name="greaterequal" unicode="&#x2265;" 
d="M946 0h-764v135h764v-135zM948 516l-766 -303v127l635 250l-635 260v139l766 -325v-148z" />
    <glyph glyph-name="triangle" unicode="&#x25b3;" horiz-adv-x="870" 
d="M686 655l-379 -239v473z" />
    <glyph glyph-name="lozenge" unicode="&#x25ca;" 
d="M584 113l247 516l-247 514l-248 -514zM645 -35h-123l-321 664l321 663h123l322 -663z" />
    <glyph glyph-name="circle" unicode="&#x25cb;" horiz-adv-x="1249" 
d="M625 244q-174 0 -297 123t-123 297t123 297t297 123t297 -124q122 -122 122 -296t-122 -297t-297 -123z" />
    <glyph glyph-name="a.smcp" unicode="&#xf605;" horiz-adv-x="1093" 
d="M729 457l-188 553l-191 -553h379zM451 1126h182l401 -1126h-151l-119 342h-449l-116 -342h-138z" />
    <glyph glyph-name="b.smcp" unicode="&#xf606;" horiz-adv-x="1024" 
d="M293 629h176q119 0 206 46t87 162q0 115 -69 147t-247 32h-153v-387zM293 111h207q147 0 223 40t76 168t-104 168q-86 33 -238 33h-164v-409zM516 0h-358v1126h397q348 0 348 -274q1 -114 -65 -178t-172 -86v-4q276 -35 276 -279q0 -305 -426 -305z" />
    <glyph glyph-name="c.smcp" unicode="&#xf607;" horiz-adv-x="1105" 
d="M588 -18q-260 0 -383 150t-123 424t144 432t392 159q188 0 302 -93t127 -282l-127 -12q-18 137 -90 206t-212 68q-188 0 -292 -122t-105 -355q0 -465 375 -465q137 0 215 60t107 184l120 -25q-31 -172 -156 -251q-126 -78 -294 -78z" />
    <glyph glyph-name="d.smcp" unicode="&#xf608;" horiz-adv-x="1173" 
d="M295 113h190q223 1 339 117t116 348t-111 334q-111 101 -333 102h-201v-901zM481 0h-323v1126h350q293 0 433 -142t140 -407q1 -265 -149 -421t-451 -156z" />
    <glyph glyph-name="e.smcp" unicode="&#xf609;" horiz-adv-x="929" 
d="M295 512v-397h553v-115h-690v1126h671v-114h-534v-385h500v-115h-500z" />
    <glyph glyph-name="f.smcp" unicode="&#xf60a;" horiz-adv-x="874" 
d="M295 492v-492h-137v1126h669v-114h-532v-406h493v-114h-493z" />
    <glyph glyph-name="g.smcp" unicode="&#xf60b;" horiz-adv-x="1189" 
d="M575 -18q-253 0 -373 152t-120 426q0 276 143 432t396 155q397 0 426 -373l-129 -12q-14 141 -88 207t-214 65q-186 0 -289 -125t-104 -348q0 -471 379 -471q147 0 232 86q84 86 84 197v102h-318v109h447v-584h-101l-20 154q-31 -74 -130 -123t-221 -49z" />
    <glyph glyph-name="h.smcp" unicode="&#xf60c;" horiz-adv-x="1163" 
d="M1006 1126v-1126h-138v518h-573v-518h-137v1126h137v-491h573v491h138z" />
    <glyph glyph-name="i.smcp" unicode="&#xf60d;" horiz-adv-x="452" 
d="M295 1126v-1126h-137v1126h137z" />
    <glyph glyph-name="j.smcp" unicode="&#xf60e;" horiz-adv-x="792" 
d="M514 274v852h137v-845q0 -162 -81 -231q-81 -68 -228 -68t-220 62t-79 194l131 20q10 -86 44 -125t121 -39t131 37t44 143z" />
    <glyph glyph-name="k.smcp" unicode="&#xf60f;" horiz-adv-x="1024" 
d="M295 1126v-557l526 557h156l-459 -485l483 -641h-161l-416 541l-129 -135v-406h-137v1126h137z" />
    <glyph glyph-name="l.smcp" unicode="&#xf610;" horiz-adv-x="878" 
d="M295 1126v-1009h522v-117h-659v1126h137z" />
    <glyph glyph-name="m.smcp" unicode="&#xf611;" horiz-adv-x="1431" 
d="M1274 1126v-1126h-129v985h-2l-357 -985h-147l-352 987h-2v-987h-127v1126h209l350 -976h2l348 976h207z" />
    <glyph glyph-name="n.smcp" unicode="&#xf612;" horiz-adv-x="1191" 
d="M1034 0h-168l-579 965v-965h-129v1126h184l565 -954v954h127v-1126z" />
    <glyph glyph-name="o.smcp" unicode="&#xf613;" horiz-adv-x="1212" 
d="M606 96q174 0 279 121q104 121 104 348t-100 347q-99 120 -273 120t-282 -122t-109 -347t103 -346t278 -121zM600 -18q-258 0 -388 158t-130 420q0 263 142 425t396 162t382 -157t128 -421q0 -263 -136 -425t-394 -162z" />
    <glyph glyph-name="p.smcp" unicode="&#xf614;" horiz-adv-x="983" 
d="M293 530h172q151 0 229 52t78 196t-80 190t-266 46h-133v-484zM293 416v-416h-135v1126h370q385 0 385 -335q0 -375 -440 -375h-180z" />
    <glyph glyph-name="q.smcp" unicode="&#xf615;" horiz-adv-x="1212" 
d="M606 94q113 0 203 53l-211 224l84 78l207 -230q102 133 102 353t-100 340q-101 120 -275 120t-282 -122t-109 -347t103 -347t278 -122zM600 -18q-256 0 -387 158t-131 421q0 262 142 424t396 162t382 -157t128 -404q0 -297 -153 -457l143 -152l-82 -73l-147 153
q-121 -75 -291 -75z" />
    <glyph glyph-name="r.smcp" unicode="&#xf616;" horiz-adv-x="1032" 
d="M293 586h225q127 0 194 51q66 51 66 171t-69 163q-70 43 -209 43h-207v-428zM293 473v-473h-135v1126h391q199 0 286 -87t87 -218q-1 -237 -226 -313l285 -508h-147l-269 473h-272z" />
    <glyph glyph-name="s.smcp" unicode="&#xf617;" horiz-adv-x="966" 
d="M496 1034q-248 0 -248 -184q0 -74 47 -121t117 -67q169 -48 303 -100q71 -28 117 -92t47 -161q0 -166 -116 -247t-290 -80q-375 0 -418 321l133 19q23 -106 86 -168q64 -62 188 -62q277 -1 275 199q0 88 -64 137q-65 49 -158 73q-93 25 -186 53t-158 98t-65 200
q0 129 109 212t279 83q344 0 376 -316l-129 -16q-16 99 -69 159t-176 60z" />
    <glyph glyph-name="t.smcp" unicode="&#xf618;" horiz-adv-x="880" 
d="M510 0h-137v1012h-350v114h835v-114h-348v-1012z" />
    <glyph glyph-name="u.smcp" unicode="&#xf619;" horiz-adv-x="1140" 
d="M285 393q-1 -157 71 -225t216 -68t214 66t70 223v737h137v-751q0 -393 -430 -393q-217 0 -316 98t-100 297v749h138v-733z" />
    <glyph glyph-name="v.smcp" unicode="&#xf61a;" horiz-adv-x="985" 
d="M596 0h-186l-392 1126h154l334 -1001h2l319 1001h140z" />
    <glyph glyph-name="w.smcp" unicode="&#xf61b;" horiz-adv-x="1433" 
d="M1149 0h-174l-252 946h-2l-258 -946h-168l-254 1126h145l199 -970h2l260 970h154l260 -985h2l192 985h138z" />
    <glyph glyph-name="x.smcp" unicode="&#xf61c;" horiz-adv-x="993" 
d="M936 1126l-363 -548l396 -578h-156l-326 473l-313 -473h-149l381 571l-363 555h154l295 -454l299 454h145z" />
    <glyph glyph-name="y.smcp" unicode="&#xf61d;" horiz-adv-x="897" 
d="M526 0h-137v438l-395 688h151l314 -557h2l305 557h137l-377 -684v-442z" />
    <glyph glyph-name="z.smcp" unicode="&#xf61e;" horiz-adv-x="935" 
d="M870 115v-115h-815v96l625 916h-606v114h772v-100l-623 -911h647z" />
    <glyph glyph-name="germandbls.smcp" unicode="&#xf637;" horiz-adv-x="1900" 
d="M1430 1034q-248 0 -248 -184q0 -74 47 -121t117 -67q169 -48 303 -100q71 -28 117 -92t46 -161q0 -166 -116 -247t-289 -80q-375 0 -418 321l133 19q23 -106 86 -168q64 -62 188 -62q276 -1 275 199q0 88 -64 137q-65 49 -158 73q-93 25 -186 53t-158 98t-65 200
q0 129 109 212t278 83q344 0 377 -316l-129 -16q-16 99 -69 159t-176 60zM496 1034q-248 0 -248 -184q0 -74 47 -121t117 -67q169 -48 303 -100q71 -28 117 -92t47 -161q0 -166 -116 -247t-290 -80q-375 0 -418 321l133 19q23 -106 86 -168q64 -62 188 -62q277 -1 275 199
q0 88 -64 137q-65 49 -158 73q-93 25 -186 53t-158 98t-65 200q0 129 109 212t279 83q344 0 376 -316l-129 -16q-16 99 -69 159t-176 60z" />
    <glyph glyph-name="zero.tosf" unicode="&#xf81e;" 
d="M219 565q-1 -215 87 -345t277 -130t276 135t87 367q0 477 -352 477q-375 0 -375 -504zM578 -25q-500 0 -500 603q0 252 111 422q59 90 163 140t246 50q489 0 489 -584q0 -255 -104 -433q-55 -93 -159 -145t-246 -53z" />
    <glyph glyph-name="one.tosf" unicode="&#xf81f;" 
d="M272 0v113h308v854q-44 -31 -148 -51t-168 -19l-14 104q272 20 399 170h64v-1058h266v-113h-707z" />
    <glyph glyph-name="two.tosf" unicode="&#xf820;" 
d="M606 1190q172 0 272 -85t99 -246q0 -161 -81 -271t-267 -254l-262 -215h628v-119h-805v106l306 261q112 92 158 136q144 136 170 219q17 52 18 120q0 233 -246 233q-152 -1 -213 -69t-86 -199l-123 24q57 359 432 359z" />
    <glyph glyph-name="three.tosf" unicode="&#xf821;" 
d="M571 -51q285 0 285 258q0 133 -80 199t-219 65h-143v115h94q147 0 243 80q95 80 95 196q0 209 -244 209q-135 0 -193 -53t-92 -170l-127 29q63 313 420 313q178 0 276 -85t99 -231q0 -246 -278 -329v-4q293 -47 292 -336q0 -174 -114 -275q-115 -100 -318 -100
q-374 0 -413 328l133 24q23 -117 79 -175t205 -58z" />
    <glyph glyph-name="four.tosf" unicode="&#xf822;" 
d="M780 289v747l-528 -747h528zM911 -137h-133v309h-672v100l631 899h176v-882h179v-117h-181v-309z" />
    <glyph glyph-name="five.tosf" unicode="&#xf823;" 
d="M891 258q-1 302 -289 303q-142 0 -268 -121l-96 45l47 674h680v-121h-562l-43 -456q137 100 297 100t270 -100q109 -100 109 -299t-114 -326t-332 -127q-166 0 -284 83t-144 247l133 33q25 -109 89 -175t202 -66q137 0 221 78q84 76 84 228z" />
    <glyph glyph-name="six.tosf" unicode="&#xf824;" 
d="M629 88q131 0 208 80t77 230t-65 226q-65 77 -187 76q-189 1 -347 -196q8 -206 86 -310q33 -44 91 -75t137 -31zM666 1206q-350 0 -359 -575q61 76 161 132t212 56q182 1 276 -113t94 -302t-114 -308q-115 -121 -326 -121q-436 0 -436 664q0 200 45 327t99 196t148 115
t218 46q306 0 365 -303l-123 -33q-20 86 -58 135q-63 84 -202 84z" />
    <glyph glyph-name="seven.tosf" unicode="&#xf825;" 
d="M166 1038v121h876v-110l-610 -1186h-147l614 1175h-733z" />
    <glyph glyph-name="eight.tosf" unicode="&#xf826;" 
d="M881 1024q0 190 -277 190q-139 0 -216 -54t-77 -156t76 -160q76 -60 209 -111q143 69 214 135t71 156zM593 88q153 0 231 65t79 171q0 153 -212 248q-45 21 -113 46q-154 -68 -227 -136t-73 -175q0 -106 81 -163q81 -56 234 -56zM141 290q0 144 80 228t238 154
q-279 115 -279 325q0 152 121 239t311 87t294 -80t106 -206q0 -125 -72 -201t-227 -150q241 -101 300 -232q26 -58 25 -132q0 -168 -125 -257t-335 -89t-323 85q-114 85 -114 229z" />
    <glyph glyph-name="nine.tosf" unicode="&#xf827;" 
d="M549 1090q-131 0 -206 -80t-75 -230t64 -233q64 -82 184 -82q207 0 348 197q-8 195 -89 318q-32 46 -91 78t-135 32zM518 -55q92 0 159 37t103 89q66 95 84 291q6 70 8 166q-55 -76 -155 -127t-215 -51q-180 0 -276 118q-95 118 -95 304t115 308t321 122q438 0 439 -663
q0 -709 -498 -709q-150 0 -253 72t-134 231l123 33q55 -221 274 -221z" />
    <glyph glyph-name="s_t" unicode="&#xfb06;" horiz-adv-x="1673" 
d="M512 1067q168 0 252 -81t104 -234l-135 -17q-20 115 -67 165t-168 50q-225 0 -226 -170q0 -76 64 -118t153 -65q91 -21 181 -49t153 -96t63 -191q0 -124 -100 -205t-286 -81q-362 0 -406 318l131 22q25 -109 83 -165t198 -56q242 0 242 174q0 134 -218 182
q-90 19 -181 45q-91 27 -154 93t-63 194t106 207q106 78 274 78zM1398 -25q-155 0 -210 84t-55 297v992l137 20v-321h293v-115h-293v-658q0 -96 33 -141t129 -45t186 53l31 -100q-96 -66 -251 -66z" />
    <glyph glyph-name="CR" horiz-adv-x="1024" 
 />
    <glyph glyph-name="j.calt" horiz-adv-x="489" 
d="M369 1409q0 -109 -111 -109t-111 109t111 109t111 -109zM78 -457q-68 0 -119 19l12 106q47 -12 84 -12q129 0 129 174v1217h138v-1209q0 -295 -244 -295z" />
    <glyph glyph-name="zero.osf" horiz-adv-x="1234" 
d="M617 90q189 0 277 135q87 135 87 367q0 477 -352 477q-375 0 -375 -504q0 -215 87 -345t276 -130zM612 -25q-500 0 -499 603q0 252 111 422q58 90 162 140t247 50q489 0 489 -584q0 -255 -104 -433q-55 -93 -159 -145t-247 -53z" />
    <glyph glyph-name="one.osf" horiz-adv-x="804" 
d="M555 0h-133v967q-44 -31 -148 -51t-168 -19l-14 104q272 20 400 170h63v-1171z" />
    <glyph glyph-name="two.osf" horiz-adv-x="1054" 
d="M543 1190q172 0 271 -85t99 -246q-1 -161 -81 -271t-267 -254l-262 -215h629v-119h-805v106l305 261q111 92 158 136q142 133 171 219q17 52 17 120q0 233 -246 233q-152 -1 -213 -69t-86 -199l-122 24q57 359 432 359z" />
    <glyph glyph-name="three.osf" horiz-adv-x="1036" 
d="M475 -51q285 0 285 258q0 133 -80 199t-219 65h-144v115h95q147 0 242 80t96 196q0 209 -244 209q-136 0 -194 -53t-91 -170l-127 29q63 313 420 313q178 0 276 -85t99 -231q0 -246 -279 -329v-4q293 -47 293 -336q0 -175 -115 -275t-317 -100q-375 0 -414 328l133 24
q23 -117 79 -175t206 -58z" />
    <glyph glyph-name="four.osf" horiz-adv-x="1073" 
d="M713 289v747l-529 -747h529zM844 -137h-133v309h-672v100l631 899h176v-882h178v-117h-180v-309z" />
    <glyph glyph-name="five.osf" horiz-adv-x="1060" 
d="M793 258q-1 302 -289 303q-142 0 -268 -121l-97 45l47 674h680v-121h-561l-43 -456q137 100 297 100q159 0 269 -100t110 -299t-115 -326t-331 -127q-166 0 -284 83t-145 247l134 33q25 -109 89 -175t202 -66q137 0 221 78q84 76 84 228z" />
    <glyph glyph-name="six.osf" horiz-adv-x="1105" 
d="M578 88q132 0 208 80t76 230t-64 226q-65 77 -188 76q-188 1 -346 -196q8 -206 86 -310q33 -44 91 -75t137 -31zM614 1206q-350 0 -358 -575q62 76 162 132t211 56q182 1 276 -113t94 -302q-1 -188 -115 -308q-114 -121 -325 -121q-436 0 -436 664q0 200 45 327t99 196
q55 69 149 115t217 46q305 0 364 -303l-123 -33q-20 86 -57 135q-63 84 -203 84z" />
    <glyph glyph-name="seven.osf" horiz-adv-x="1019" 
d="M82 1038v121h876v-110l-610 -1186h-147l614 1175h-733z" />
    <glyph glyph-name="eight.osf" horiz-adv-x="1052" 
d="M817 1024q0 190 -276 190q-139 0 -216 -54t-77 -156t76 -160q76 -60 208 -111q143 69 214 135t71 156zM215 307q0 -107 81 -163q82 -56 234 -56t231 65t79 176t-112 186q-81 54 -214 103q-154 -68 -226 -136t-73 -175zM975 322q0 -168 -125 -257t-335 -89t-324 85
q-113 85 -113 229t80 228t237 154q-279 115 -278 325q0 152 121 239t311 87q191 0 295 -80t104 -206q0 -125 -72 -201t-227 -150q241 -101 300 -232q26 -58 26 -132z" />
    <glyph glyph-name="nine.osf" horiz-adv-x="1126" 
d="M541 1090q-131 0 -206 -80t-75 -230t64 -233q64 -82 184 -82q207 0 348 197q-8 195 -89 318q-32 46 -91 78t-135 32zM510 -55q92 0 159 37t103 89q63 90 84 291q6 70 8 166q-55 -76 -155 -127t-215 -51q-180 0 -276 118q-95 118 -95 304t115 308t321 122q438 0 438 -663
q0 -709 -497 -709q-150 0 -253 72t-134 231l123 33q55 -221 274 -221z" />
    <glyph glyph-name="dollar.osf" horiz-adv-x="1067" 
d="M803 342q0 90 -50 139t-159 80v-444q102 14 156 74q53 61 53 151zM262 946q0 -86 50 -139t167 -88v438q-104 -10 -161 -67q-56 -58 -56 -144zM479 -92v94q-174 6 -277 84t-126 258l127 27q27 -137 84 -193t192 -65v475q-176 43 -263 118q-87 76 -87 228t97 238t255 102
v153h113v-151q293 -23 340 -318l-129 -20q-19 106 -71 158t-140 61v-465q164 -40 256 -112t92 -220t-90 -243q-90 -94 -258 -111v-170h-113v72h-2z" />
    <glyph glyph-name="Euro.osf" horiz-adv-x="1206" 
d="M168 634q0 56 2 85h-104l20 106h98q40 233 182 365t345 131q203 1 321 -105t133 -319l-127 -12q-22 165 -92 239t-231 74q-330 0 -391 -373h450l-18 -106h-445q-2 -27 -2 -83t2 -85h432l-18 -107h-401q57 -350 376 -350q145 0 225 67q79 67 111 218l119 -31
q-31 -192 -160 -282t-305 -91q-438 0 -510 469h-145l18 107h117q-2 27 -2 83z" />
    <glyph glyph-name="cent.osf" horiz-adv-x="1001" 
d="M266 590q0 -358 240 -395v763q-240 -40 -240 -368zM506 1286h112v-203q136 -10 224 -93t96 -230l-127 -19q-10 107 -57 159t-136 63v-770q90 10 139 58q48 48 70 148l119 -24q-22 -139 -110 -214t-218 -89v-209h-112v209q-193 18 -288 152t-95 353t102 349t281 153v207z
" />
    <glyph glyph-name="sterling.osf" horiz-adv-x="1122" 
d="M51 123h109q141 145 141 293q0 76 -31 147h-223v115h166q-70 127 -70 244q0 178 125 288q126 110 318 111q192 0 294 -88t124 -285l-125 -12q-19 142 -81 204t-206 62t-227 -68q-84 -68 -84 -206q0 -94 73 -250h486v-115h-437q27 -70 27 -139q0 -162 -125 -301h408
q113 0 163 52t72 179l127 -26q-23 -172 -111 -250t-253 -78h-660v123z" />
    <glyph glyph-name="yen.osf" horiz-adv-x="1048" 
d="M881 367h-277v-367h-137v367h-277v108h277v133h-277v109h209l-344 577h154l330 -567l317 567h141l-331 -577h215v-109h-277v-133h277v-108z" />
    <glyph glyph-name="florin.osf" horiz-adv-x="987" 
d="M752 1204q-74 0 -120 -43t-67 -147l-47 -242h297l-22 -115h-297l-105 -522q-33 -163 -109 -233t-208 -70q-219 0 -283 197l123 49q49 -129 168 -129q70 0 113 42t63 148l100 518h-159l22 115h160l51 246q33 160 112 232t212 71q204 0 276 -197l-123 -49q-49 129 -157 129
z" />
    <glyph glyph-name="afii61352.osf" horiz-adv-x="2082" 
d="M1317 375v112h631v-112h-631zM1638 1188q-213 0 -213 -259t205 -259t205 259t-197 259zM1638 1282q322 0 322 -346q0 -164 -82 -260t-249 -96t-247 95t-80 257t86 256q84 94 250 94zM1176 0h-172l-664 1104v-1104h-137v1282h198l639 -1083v1083h136v-1282z" />
    <glyph glyph-name="percent.osf" horiz-adv-x="1753" 
d="M428 633q195 0 195 272q0 186 -95 236q-41 20 -94 20q-106 0 -152 -78t-46 -186q0 -190 98 -244q35 -20 94 -20zM1324 82q194 0 194 264t-189 264q-106 0 -152 -78t-47 -186q0 -264 194 -264zM1651 358q0 -172 -87 -278t-251 -105t-240 103t-76 266t88 269t248 106
q318 -1 318 -361zM420 -35q77 134 772 1307h133q-153 -267 -289 -490q-213 -364 -481 -817h-135zM756 910q0 -172 -87 -278t-251 -106t-240 102t-76 267q0 164 88 269t248 106q318 0 318 -360z" />
    <glyph glyph-name="perthousand.osf" horiz-adv-x="2168" 
d="M1618 305q0 -227 162 -227t162 229t-158 230q-90 0 -128 -69t-38 -163zM1768 -25q-146 1 -212 91t-66 238t78 243q77 94 218 94q281 0 280 -324q0 -158 -76 -250t-222 -92zM956 305q0 -227 162 -227t162 229t-158 230q-90 0 -128 -69t-38 -163zM1405 317q0 -158 -76 -250
q-77 -92 -223 -92q-146 1 -212 91t-65 238q0 148 77 243q77 94 218 94q281 0 281 -324zM389 707q164 0 164 229t-158 229q-90 -1 -128 -69t-38 -162q0 -166 80 -209q31 -18 80 -18zM1204 1272l-770 -1307h-135l772 1307h133zM380 604q-146 0 -212 90t-66 239t77 243t218 94
q281 0 281 -324q0 -158 -76 -250t-222 -92z" />
    <glyph glyph-name="zero.slash" 
d="M608 90q80 0 148 48q117 83 147 350q12 108 12 292t-23 318q-24 135 -93 211l-316 -1205q45 -14 125 -14zM377 170l313 1206q-44 12 -112 12t-130 -32q-62 -33 -100 -88q-98 -146 -98 -556q0 -411 127 -542zM592 -25q-241 0 -353 148q-96 127 -120 374q-10 103 -10 255
q0 549 244 697q99 60 243 60t240 -59q162 -100 204 -403q16 -119 16 -291q2 -576 -236 -722q-98 -60 -228 -59z" />
    <glyph glyph-name="zero.tf" 
d="M841 284q58 165 58 511q0 345 -81 470q-81 124 -243 124t-239 -115q-78 -115 -94 -329q-36 -420 50 -661q69 -194 276 -194q206 0 273 194zM575 -25q-241 0 -353 148q-96 127 -120 374q-10 103 -10 255q0 321 93 524q107 233 394 233t383 -231q46 -114 62 -232t16 -290
t-19 -303t-69 -245t-148 -174t-229 -59z" />
    <glyph glyph-name="one.tf" 
d="M281 0v113h286v1165q-49 -28 -154 -50t-165 -22l-15 105q147 12 241 52t163 120h63v-1370h267v-113h-686z" />
    <glyph glyph-name="two.tf" 
d="M569 1509q177 0 283 -89t106 -261t-76 -308t-247 -339l-326 -393h670v-119h-825v106l358 445q180 221 243 333q62 112 62 255q0 256 -262 256q-150 0 -211 -69t-84 -200l-123 25q57 358 432 358z" />
    <glyph glyph-name="three.tf" 
d="M825 416q0 311 -340 311h-127v119h95q162 0 257 83t95 216q0 246 -258 246q-135 1 -193 -53t-92 -171l-127 29q63 313 428 313q185 0 283 -94t98 -253t-87 -247t-206 -114v-4q317 -51 318 -381q0 -197 -124 -319t-333 -122q-375 0 -414 328l133 25q23 -117 79 -175
q56 -59 198 -59t229 80q88 80 88 242z" />
    <glyph glyph-name="four.tf" 
d="M762 498v850l-549 -850h549zM893 0h-133v381h-692v100l651 1002h176v-985h178v-117h-180v-381z" />
    <glyph glyph-name="five.tf" 
d="M913 1483v-119h-565l-45 -524q127 100 291 100t277 -91q61 -48 97 -141t36 -221q0 -227 -127 -369t-355 -143q-166 0 -284 83t-144 247l133 33q25 -108 89 -174t204 -66q138 0 236 96t98 277q0 182 -81 265t-227 83t-274 -121l-96 45l57 740h680z" />
    <glyph glyph-name="six.tf" 
d="M885 448q0 334 -258 334q-105 0 -203 -57t-166 -139q14 -283 94 -390q81 -108 222 -108t226 94t85 266zM624 1393q-102 0 -181 -67q-79 -66 -117 -176q-71 -203 -76 -435q58 74 164 130t219 56q195 0 292 -118q97 -117 97 -329t-120 -345t-327 -134q-272 0 -371 219
q-87 190 -87 494q0 402 153 627q56 84 154 139t223 55q295 0 354 -303l-122 -32q-31 125 -91 172q-62 47 -164 47z" />
    <glyph glyph-name="seven.tf" 
d="M117 1364v119h917v-103l-618 -1380h-148l619 1364h-770z" />
    <glyph glyph-name="eight.tf" 
d="M860 1169q0 111 -73 171t-211 60t-216 -68t-78 -186t82 -202q80 -84 201 -129q295 145 295 354zM558 88q163 0 244 83t81 198q0 147 -118 226q-60 40 -101 58t-117 47q-158 -70 -234 -144q-75 -74 -75 -198q0 -122 78 -196t242 -74zM543 -25q-219 -1 -331 103t-112 264
t88 252t240 160q-121 51 -201 150t-80 224q0 182 123 282q122 100 314 99q192 0 302 -89t109 -249q0 -247 -313 -403q135 -57 236 -141q100 -84 100 -259t-128 -284t-347 -109z" />
    <glyph glyph-name="nine.tf" 
d="M547 1397q-135 -1 -219 -97t-84 -288q0 -328 268 -328q100 0 195 56t163 141q-14 288 -95 402q-34 48 -92 81t-136 33zM508 88q211 0 294 201q69 165 79 463q-59 -72 -165 -129t-220 -58q-195 0 -292 123q-98 123 -98 339t120 349t327 133q271 0 372 -218
q85 -186 87 -494q0 -588 -253 -753q-105 -69 -259 -69q-339 1 -398 310l127 32q31 -127 101 -178t178 -51z" />
    <glyph glyph-name="dollar.tf" 
d="M870 391q0 105 -56 161t-163 93v-514q219 35 219 260zM313 1073q0 -101 48 -163t176 -103v522q-224 -27 -224 -256zM537 -164v178q-179 6 -285 94t-129 289l129 29q27 -154 87 -222t198 -77v551q-87 23 -137 43t-109 62q-117 83 -117 269q0 185 100 283t263 115v172h114
v-170q301 -25 348 -356l-131 -23q-23 113 -69 176q-47 63 -148 80v-551q173 -45 267 -129t94 -251t-96 -265t-265 -117v-180h-114z" />
    <glyph glyph-name="Euro.tf" 
d="M666 94q143 0 223 67t112 218l119 -31q-32 -192 -160 -282t-305 -91q-471 0 -532 551h-143l18 107h117q-2 27 -2 87t2 91h-105l19 107h96q39 317 193 454q156 137 360 137q421 0 452 -424l-131 -12q-23 172 -91 244q-69 72 -222 72q-369 0 -422 -471h488l-21 -107h-475
q-2 -31 -2 -90t2 -88h465l-21 -107h-436q27 -216 123 -324t279 -108z" />
    <glyph glyph-name="cent.tf" 
d="M313 727q0 -358 240 -395v764q-240 -41 -240 -369zM553 1423h113v-202q137 -9 224 -93t95 -231l-127 -18q-10 106 -57 158t-135 63v-770q90 10 138 58t70 149l119 -25q-23 -139 -111 -214t-216 -89v-209h-113v209q-193 18 -288 152q-95 133 -95 353t102 349t281 154v206z
" />
    <glyph glyph-name="sterling.tf" 
d="M72 123h108q180 166 180 346q0 98 -53 201h-219v114h168q-96 176 -96 312q0 182 127 298t319 116t294 -89q102 -88 124 -284l-125 -13q-19 142 -81 204t-204 62t-230 -72q-87 -73 -87 -202t96 -332h488v-114h-439q45 -102 45 -203q0 -190 -157 -344h403q113 0 163 52
t73 179l127 -26q-23 -172 -112 -250t-253 -78h-659v123z" />
    <glyph glyph-name="yen.tf" 
d="M926 506h-277v-506h-137v506h-276v108h276v146h-276v108h208l-344 615h154l330 -604l317 604h141l-331 -615h215v-108h-277v-146h277v-108z" />
    <glyph glyph-name="florin.tf" 
d="M895 1393q-74 0 -120 -43t-66 -148l-56 -293h297l-22 -114h-297l-135 -660q-33 -163 -109 -233t-209 -70q-219 0 -282 197l122 49q49 -129 168 -129q70 0 113 42t63 148l132 656h-160l22 114h160l59 297q33 160 112 232t212 71q205 1 277 -196l-123 -49q-49 129 -158 129
z" />
    <glyph glyph-name="zeroslash.tosf" 
d="M584 90q186 0 264 133t78 369q0 309 -125 414l-309 -908q39 -8 92 -8zM240 565q0 -309 143 -418l309 910q-49 12 -98 12q-194 0 -274 -130t-80 -374zM578 -25q-117 0 -204 35t-138 89q-135 143 -138 479q0 251 102 421q54 91 155 141t229 50t211 -32q84 -32 135 -85
q137 -142 137 -467q0 -631 -489 -631z" />
    <glyph glyph-name="dollar.tosf" 
d="M842 342q0 90 -50 139t-159 80v-444q101 15 155 75t54 150zM301 946q0 -86 50 -139t167 -88v438q-104 -10 -161 -67q-56 -58 -56 -144zM518 -92v94q-174 6 -277 84t-126 258l127 27q27 -137 84 -193t192 -65v475q-176 43 -263 118q-87 76 -87 228t97 238t255 102v153h113
v-151q293 -23 340 -318l-129 -20q-20 106 -72 158t-139 61v-465q164 -40 256 -112t92 -220t-90 -243q-90 -94 -258 -111v-170h-113v72h-2z" />
    <glyph glyph-name="Euro.tosf" 
d="M113 635q0 57 2 84h-105l21 106h96q41 233 183 365t346 131q204 1 320 -105q118 -106 134 -319l-127 -12q-23 165 -93 239t-231 74q-330 0 -391 -373h451l-19 -106h-444q-2 -27 -2 -83t2 -85h432l-18 -107h-404q55 -350 379 -350q145 0 224 67t112 218l119 -31
q-31 -192 -160 -282t-305 -91q-436 0 -508 469h-147l18 107h117q-2 27 -2 84z" />
    <glyph glyph-name="cent.tosf" 
d="M336 590q0 -358 239 -395v763q-239 -40 -239 -368zM575 1286h113v-203q137 -10 224 -93t96 -230l-127 -19q-9 107 -57 159t-136 63v-770q90 10 138 58t71 148l119 -24q-23 -139 -111 -214t-217 -89v-209h-113v209q-193 18 -287 152t-95 353q0 219 102 349t280 153v207z
" />
    <glyph glyph-name="sterling.tosf" 
d="M92 123h109q141 145 141 293q0 76 -31 147h-223v115h166q-70 127 -70 244q0 178 125 288t317 111q192 0 296 -88q102 -88 122 -285l-124 -12q-18 142 -80 204t-206 62t-228 -68t-84 -206q0 -94 73 -250h486v-115h-437q27 -70 27 -139q0 -162 -125 -301h408q112 0 162 52
t73 179l127 -26q-24 -172 -112 -250t-252 -78h-660v123z" />
    <glyph glyph-name="yen.tosf" 
d="M963 367h-277v-367h-137v367h-277v108h277v133h-277v109h209l-344 577h154l330 -567l317 567h141l-331 -577h215v-109h-277v-133h277v-108z" />
    <glyph glyph-name="florin.tosf" 
d="M915 1204q-73 0 -119 -43t-67 -147l-47 -242h297l-23 -115h-297l-104 -522q-33 -163 -109 -233t-208 -70q-219 0 -283 197l123 49q49 -129 168 -129q70 0 112 42t64 148l100 518h-160l23 115h160l51 246q33 160 112 232t212 71q204 0 276 -197l-123 -49q-49 129 -158 129
z" />
    <glyph glyph-name="hyphen.case" horiz-adv-x="649" 
d="M596 666h-555v137h555v-137z" />
    <glyph glyph-name="idotaccent" horiz-adv-x="495" 
d="M367 1409q0 -109 -111 -109t-111 109t111 109t111 -109zM322 1047v-1047h-138v1047h138z" />
    <glyph glyph-name="jcircumflex.calt" horiz-adv-x="489" 
d="M561 1196l-115 -12l-196 250l-189 -254l-112 16l233 338h137zM78 -457q-68 0 -119 19l12 106q47 -12 84 -12q129 0 129 174v1217h138v-1209q0 -295 -244 -295z" />
    <glyph glyph-name="s_p" horiz-adv-x="2125" 
d="M131 766q1 145 107 223t274 78t252 -81t104 -234l-135 -17q-20 115 -67 165t-168 50q-225 0 -226 -170q0 -84 56 -120t164 -62q261 -63 314 -118q81 -85 81 -214q-1 -129 -101 -210t-286 -81q-362 0 -406 318l131 22q25 -109 83 -165t198 -56q242 0 242 174q0 84 -55 120
t-230 79q-174 43 -210 71q-75 55 -87 83q-35 83 -35 145zM1571 92q303 0 303 463q0 213 -67 306t-208 93q-92 0 -183 -47t-150 -108v-582q164 -125 305 -125zM1128 -434v1481h121l8 -127q178 147 377 147q379 0 379 -518q0 -289 -125 -431t-317 -143q-154 0 -309 115v-524
h-134z" />
    <glyph glyph-name="c_t" horiz-adv-x="1783" 
d="M1522 -25q-141 0 -210 68t-69 213v1092l137 20v-321h293v-115h-293v-658q0 -98 33 -142t129 -44t187 53l30 -100q-96 -66 -237 -66zM584 -25q-474 0 -472 550q0 261 130 401q129 140 366 141q162 0 268 -90t113 -260l-137 -19q-27 250 -256 250q-144 0 -242 -95t-98 -325
t95 -330q95 -99 241 -100q236 0 276 232l129 -27q-25 -166 -140 -247t-273 -81z" />
    <glyph glyph-name="c_h" horiz-adv-x="2248" 
d="M1944 692q0 254 -206 254q-104 0 -202 -48t-158 -101v-797h-137v1546h137v-628q201 150 375 150t251 -91q77 -90 77 -270v-707h-137v692zM584 -25q-474 0 -472 550q0 261 130 401q129 140 366 141q162 0 268 -90t113 -260l-137 -19q-27 250 -256 250q-144 0 -242 -95
t-98 -325t95 -330q95 -99 241 -100q236 0 276 232l129 -27q-25 -166 -140 -247t-273 -81z" />
    <glyph glyph-name="c_k" horiz-adv-x="2117" 
d="M1378 1546v-1005l492 506h160l-369 -379l395 -668h-149l-344 569l-185 -188v-381h-137v1546h137zM584 -25q-474 0 -472 550q0 261 130 401q129 140 366 141q162 0 268 -90t113 -260l-137 -19q-27 250 -256 250q-144 0 -242 -95t-98 -325t95 -330q95 -99 241 -100
q236 0 276 232l129 -27q-25 -166 -140 -247t-273 -81z" />
    <glyph glyph-name="T_h" horiz-adv-x="2121" 
d="M1817 692q1 254 -205 254q-104 0 -203 -48q-98 -48 -158 -101v-797h-137v1364h-493v-1364h-138v1364h-452v119h1083v63h137v-628q201 150 375 150t251 -91q77 -90 77 -270v-707h-137v692z" />
    <glyph glyph-name="thorn.smcp" horiz-adv-x="983" 
d="M293 377h172q147 0 227 51q80 52 80 186t-81 180t-265 46h-133v-463zM293 262v-262h-135v1126h135v-174h235q207 0 296 -91t89 -234q0 -365 -440 -365h-180z" />
    <glyph glyph-name="agrave.smcp" horiz-adv-x="1093" 
d="M524 1243l-291 363h181l217 -336zM729 457l-188 553l-191 -553h379zM451 1126h182l401 -1126h-151l-119 342h-449l-116 -342h-138z" />
    <glyph glyph-name="aacute.smcp" horiz-adv-x="1093" 
d="M866 1606l-291 -363l-106 27l217 336h180zM729 457l-188 553l-191 -553h379zM451 1126h182l401 -1126h-151l-119 342h-449l-116 -342h-138z" />
    <glyph glyph-name="acircumflex.smcp" horiz-adv-x="1093" 
d="M852 1268l-115 -13l-196 250l-189 -254l-112 17l233 338h137zM729 457l-188 553l-191 -553h379zM451 1126h182l401 -1126h-151l-119 342h-449l-116 -342h-138z" />
    <glyph glyph-name="atilde.smcp" horiz-adv-x="1093" 
d="M378 1522q73 0 174 -48t144 -48t63 21q19 22 19 91l96 -4q14 -117 -36 -173t-123 -56q-74 0 -177 48t-149 48q-80 0 -76 -117l-94 4q-14 118 36 176t123 58zM729 457l-188 553l-191 -553h379zM451 1126h182l401 -1126h-151l-119 342h-449l-116 -342h-138z" />
    <glyph glyph-name="adieresis.smcp" horiz-adv-x="1093" 
d="M850 1439q0 -48 -29 -76t-78 -28t-79 28t-29 76q0 48 30 77q29 28 77 28t78 -28t30 -77zM442 1439q0 -48 -28 -76t-78 -28q-49 0 -79 28t-30 76t30 77q30 28 78 28t78 -28q29 -29 29 -77zM729 457l-188 553l-191 -553h379zM451 1126h182l401 -1126h-151l-119 342h-449
l-116 -342h-138z" />
    <glyph glyph-name="aring.smcp" horiz-adv-x="1093" 
d="M541 1169q45 0 69 27t23 72q0 90 -92 90q-43 0 -69 -25t-26 -71q1 -93 95 -93zM729 457l-188 553l-191 -553h379zM729 1268q0 -119 -90 -160l395 -1108h-151l-119 342h-449l-116 -342h-138l383 1106q-90 42 -90 142t54 147t134 47q81 0 134 -44t53 -130z" />
    <glyph glyph-name="aringacute.smcp" horiz-adv-x="1093" 
d="M541 1169q45 0 69 27t23 72q0 90 -92 90q-43 0 -69 -25t-26 -71q1 -93 95 -93zM754 1817l-281 -297l-111 26l209 271h183zM729 457l-188 553l-191 -553h379zM729 1268q0 -119 -90 -160l395 -1108h-151l-119 342h-449l-116 -342h-138l383 1106q-90 42 -90 142t54 147
t134 47q81 0 134 -44t53 -130z" />
    <glyph glyph-name="ccedilla.smcp" horiz-adv-x="1105" 
d="M662 -260q0 47 -35 72t-121 26l20 148q-229 16 -337 162q-107 146 -107 414t144 426t392 159q188 0 302 -93t127 -282l-127 -12q-18 137 -90 206t-212 68q-188 0 -292 -122t-105 -355q0 -465 375 -465q137 0 215 60t107 184l120 -25q-30 -161 -140 -239t-263 -88l-10 -74
q156 -31 155 -176q0 -84 -59 -138t-151 -54t-154 42l30 88q56 -34 110 -34t80 28t26 74z" />
    <glyph glyph-name="egrave.smcp" horiz-adv-x="929" 
d="M528 1243l-290 363h180l217 -336zM295 512v-397h553v-115h-690v1126h671v-114h-534v-385h500v-115h-500z" />
    <glyph glyph-name="eacute.smcp" horiz-adv-x="929" 
d="M768 1606l-291 -363l-106 27l217 336h180zM295 512v-397h553v-115h-690v1126h671v-114h-534v-385h500v-115h-500z" />
    <glyph glyph-name="ecircumflex.smcp" horiz-adv-x="929" 
d="M813 1268l-115 -13l-196 250l-189 -254l-112 17l233 338h137zM295 512v-397h553v-115h-690v1126h671v-114h-534v-385h500v-115h-500z" />
    <glyph glyph-name="edieresis.smcp" horiz-adv-x="929" 
d="M811 1439q0 -48 -29 -76q-30 -28 -78 -28t-78 28t-30 76t30 77q30 28 78 28t78 -28t29 -77zM403 1439q-1 -48 -29 -76t-77 -28t-79 28t-30 76t30 77q30 28 78 28t78 -28q29 -29 29 -77zM295 512v-397h553v-115h-690v1126h671v-114h-534v-385h500v-115h-500z" />
    <glyph glyph-name="igrave.smcp" horiz-adv-x="452" 
d="M195 1243l-291 363h180l217 -336zM295 1126v-1126h-137v1126h137z" />
    <glyph glyph-name="iacute.smcp" horiz-adv-x="452" 
d="M553 1606l-291 -363l-106 27l217 336h180zM295 1126v-1126h-137v1126h137z" />
    <glyph glyph-name="icircumflex.smcp" horiz-adv-x="452" 
d="M537 1268l-115 -13l-197 250l-188 -254l-113 17l234 338h137zM295 1126v-1126h-137v1126h137z" />
    <glyph glyph-name="idieresis.smcp" horiz-adv-x="452" 
d="M535 1439q0 -48 -29 -76t-78 -28t-79 28t-30 76t30 77q30 28 78 28t78 -28t30 -77zM127 1439q0 -48 -29 -76t-78 -28q-48 0 -78 28t-30 76t30 77q30 28 78 28t77 -28q30 -28 30 -77zM295 1126v-1126h-137v1126h137z" />
    <glyph glyph-name="eth.smcp" horiz-adv-x="1200" 
d="M322 113h190q223 1 339 117t116 348t-111 334q-111 101 -334 102h-200v-381h346v-109h-346v-411zM508 0h-324v524h-121v109h121v493h351q293 0 433 -142t140 -407t-150 -421t-450 -156z" />
    <glyph glyph-name="ntilde.smcp" horiz-adv-x="1191" 
d="M425 1522q73 0 174 -48t144 -48t63 21q19 22 19 91l97 -4q14 -117 -36 -173t-124 -56t-177 48t-149 48q-80 0 -76 -117l-94 4q-14 118 36 176t123 58zM1034 0h-168l-579 965v-965h-129v1126h184l565 -954v954h127v-1126z" />
    <glyph glyph-name="ograve.smcp" horiz-adv-x="1212" 
d="M651 1243l-291 363h181l217 -336zM606 96q174 0 279 121q104 121 104 348t-100 347q-99 120 -273 120t-282 -122t-109 -347t103 -346t278 -121zM600 -18q-258 0 -388 158t-130 420q0 263 142 425t396 162t382 -157t128 -421q0 -263 -136 -425t-394 -162z" />
    <glyph glyph-name="oacute.smcp" horiz-adv-x="1212" 
d="M905 1606l-291 -363l-106 27l217 336h180zM606 96q174 0 279 121q104 121 104 348t-100 347q-99 120 -273 120t-282 -122t-109 -347t103 -346t278 -121zM600 -18q-258 0 -388 158t-130 420q0 263 142 425t396 162t382 -157t128 -421q0 -263 -136 -425t-394 -162z" />
    <glyph glyph-name="ocircumflex.smcp" horiz-adv-x="1212" 
d="M928 1268l-115 -13l-197 250l-188 -254l-113 17l234 338h137zM606 96q174 0 279 121q104 121 104 348t-100 347q-99 120 -273 120t-282 -122t-109 -347t103 -346t278 -121zM600 -18q-258 0 -388 158t-130 420q0 263 142 425t396 162t382 -157t128 -421q0 -263 -136 -425
t-394 -162z" />
    <glyph glyph-name="otilde.smcp" horiz-adv-x="1212" 
d="M454 1522q73 0 174 -48t144 -48t63 21q19 22 19 91l96 -4q14 -117 -36 -173t-124 -56t-177 48t-148 48q-80 0 -76 -117l-94 4q-14 118 36 176t123 58zM606 96q174 0 279 121q104 121 104 348t-100 347q-99 120 -273 120t-282 -122t-109 -347t103 -346t278 -121zM600 -18
q-258 0 -388 158t-130 420q0 263 142 425t396 162t382 -157t128 -421q0 -263 -136 -425t-394 -162z" />
    <glyph glyph-name="odieresis.smcp" horiz-adv-x="1212" 
d="M926 1439q0 -48 -29 -76t-78 -28t-79 28t-30 76t30 77q30 28 78 28t78 -28t30 -77zM518 1439q0 -48 -29 -76t-77 -28t-79 28q-30 28 -30 76t30 77q30 28 78 28q47 0 77 -28t30 -77zM606 96q174 0 279 121q104 121 104 348t-100 347q-99 120 -273 120t-282 -122t-109 -347
t103 -346t278 -121zM600 -18q-258 0 -388 158t-130 420q0 263 142 425t396 162t382 -157t128 -421q0 -263 -136 -425t-394 -162z" />
    <glyph glyph-name="oslash.smcp" horiz-adv-x="1212" 
d="M606 96q174 0 279 121q104 121 104 357t-117 358l-411 -811q65 -25 145 -25zM618 1032q-176 0 -284 -122t-109 -364q0 -242 135 -364l416 817q-76 33 -158 33zM600 -18q-106 0 -197 28l-73 -147h-131l100 198q-217 145 -217 502q0 260 142 422t399 162q115 0 211 -39
l77 154h129l-106 -209q197 -147 196 -467q0 -280 -136 -442t-394 -162z" />
    <glyph glyph-name="oslashacute.smcp" horiz-adv-x="1212" 
d="M606 96q174 0 279 121q104 121 104 357t-117 358l-411 -811q65 -25 145 -25zM618 1032q-176 0 -284 -122t-109 -364q0 -242 135 -364l416 817q-76 33 -158 33zM600 -18q-106 0 -197 28l-73 -147h-131l100 198q-217 145 -217 502q0 260 142 422t399 162q115 0 211 -39
l77 154h129l-106 -209q197 -147 196 -467q0 -280 -136 -442t-394 -162zM936 1606l-291 -363l-106 27l217 336h180z" />
    <glyph glyph-name="ugrave.smcp" horiz-adv-x="1140" 
d="M596 1243l-291 363h180l217 -336zM285 393q-1 -157 71 -225t216 -68t214 66t70 223v737h137v-751q0 -393 -430 -393q-217 0 -316 98t-100 297v749h138v-733z" />
    <glyph glyph-name="uacute.smcp" horiz-adv-x="1140" 
d="M858 1606l-291 -363l-106 27l217 336h180zM285 393q-1 -157 71 -225t216 -68t214 66t70 223v737h137v-751q0 -393 -430 -393q-217 0 -316 98t-100 297v749h138v-733z" />
    <glyph glyph-name="ucircumflex.smcp" horiz-adv-x="1140" 
d="M881 1268l-115 -13l-197 250l-188 -254l-113 17l234 338h137zM285 393q-1 -157 71 -225t216 -68t214 66t70 223v737h137v-751q0 -393 -430 -393q-217 0 -316 98t-100 297v749h138v-733z" />
    <glyph glyph-name="udieresis.smcp" horiz-adv-x="1140" 
d="M879 1439q0 -48 -29 -76t-78 -28t-79 28q-29 28 -29 76t29 77q30 28 78 28t78 -28t30 -77zM471 1439q0 -48 -29 -76q-30 -28 -78 -28t-78 28t-30 76t30 77q30 28 78 28t78 -28t29 -77zM285 393q-1 -157 71 -225t216 -68t214 66t70 223v737h137v-751q0 -393 -430 -393
q-217 0 -316 98t-100 297v749h138v-733z" />
    <glyph glyph-name="yacute.smcp" horiz-adv-x="897" 
d="M756 1606l-291 -363l-107 27l217 336h181zM526 0h-137v438l-395 688h151l314 -557h2l305 557h137l-377 -684v-442z" />
    <glyph glyph-name="ydieresis.smcp" horiz-adv-x="897" 
d="M768 1439q0 -48 -29 -76t-77 -28t-79 28q-30 28 -30 76t30 77q30 28 78 28q47 0 77 -28t30 -77zM360 1439q0 -48 -28 -76t-78 -28q-49 0 -79 28t-30 76t30 77q30 28 78 28t78 -28q29 -29 29 -77zM526 0h-137v438l-395 688h151l314 -557h2l305 557h137l-377 -684v-442z
" />
    <glyph glyph-name="amacron.smcp" horiz-adv-x="1093" 
d="M831 1374h-579v117h579v-117zM729 457l-188 553l-191 -553h379zM451 1126h182l401 -1126h-151l-119 342h-449l-116 -342h-138z" />
    <glyph glyph-name="abreve.smcp" horiz-adv-x="1093" 
d="M537 1245q-279 0 -285 307l110 15q8 -121 50 -169t131 -48q90 0 136 49t50 168l109 -11q0 -145 -77 -228t-224 -83zM729 457l-188 553l-191 -553h379zM451 1126h182l401 -1126h-151l-119 342h-449l-116 -342h-138z" />
    <glyph glyph-name="aogonek.smcp" horiz-adv-x="1093" 
d="M729 457l-188 553l-191 -553h379zM846 -260q0 -84 82 -84q70 0 116 80l84 -45q-33 -72 -95 -109t-138 -37t-129 46t-53 126q0 147 170 283l-119 342h-449l-116 -342h-138l390 1126h182l401 -1126q-100 -82 -144 -136t-44 -124z" />
    <glyph glyph-name="cacute.smcp" horiz-adv-x="1105" 
d="M842 1606l-291 -363l-107 27l218 336h180zM588 -18q-260 0 -383 150t-123 424t144 432t392 159q188 0 302 -93t127 -282l-127 -12q-18 137 -90 206t-212 68q-188 0 -292 -122t-105 -355q0 -465 375 -465q137 0 215 60t107 184l120 -25q-31 -172 -156 -251
q-126 -78 -294 -78z" />
    <glyph glyph-name="ccircumflex.smcp" horiz-adv-x="1105" 
d="M918 1268l-115 -13l-197 250l-188 -254l-113 17l234 338h137zM588 -18q-260 0 -383 150t-123 424t144 432t392 159q188 0 302 -93t127 -282l-127 -12q-18 137 -90 206t-212 68q-188 0 -292 -122t-105 -355q0 -465 375 -465q137 0 215 60t107 184l120 -25
q-31 -172 -156 -251q-126 -78 -294 -78z" />
    <glyph glyph-name="cdotaccent.smcp" horiz-adv-x="1105" 
d="M717 1460q0 -108 -111 -108t-110 108q0 109 110 109t111 -109zM588 -18q-260 0 -383 150t-123 424t144 432t392 159q188 0 302 -93t127 -282l-127 -12q-18 137 -90 206t-212 68q-188 0 -292 -122t-105 -355q0 -465 375 -465q137 0 215 60t107 184l120 -25
q-31 -172 -156 -251q-126 -78 -294 -78z" />
    <glyph glyph-name="ccaron.smcp" horiz-adv-x="1105" 
d="M297 1581l123 12l188 -250l193 254l108 -16l-233 -338h-137zM588 -18q-260 0 -383 150t-123 424t144 432t392 159q188 0 302 -93t127 -282l-127 -12q-18 137 -90 206t-212 68q-188 0 -292 -122t-105 -355q0 -465 375 -465q137 0 215 60t107 184l120 -25
q-31 -172 -156 -251q-126 -78 -294 -78z" />
    <glyph glyph-name="dcaron.smcp" horiz-adv-x="1173" 
d="M213 1581l123 12l188 -250l193 254l108 -16l-233 -338h-137zM295 113h190q223 1 339 117t116 348t-111 334q-111 101 -333 102h-201v-901zM481 0h-323v1126h350q293 0 433 -142t140 -407q1 -265 -149 -421t-451 -156z" />
    <glyph glyph-name="dcroat.smcp" horiz-adv-x="1200" 
d="M322 113h190q223 1 339 117t116 348t-111 334q-111 101 -334 102h-200v-381h346v-109h-346v-411zM508 0h-324v524h-121v109h121v493h351q293 0 433 -142t140 -407t-150 -421t-450 -156z" />
    <glyph glyph-name="emacron.smcp" horiz-adv-x="929" 
d="M793 1374h-580v117h580v-117zM295 512v-397h553v-115h-690v1126h671v-114h-534v-385h500v-115h-500z" />
    <glyph glyph-name="ebreve.smcp" horiz-adv-x="929" 
d="M498 1245q-279 0 -285 307l111 15q8 -121 49 -169t131 -48t136 49t50 168l109 -11q0 -145 -77 -228t-224 -83zM295 512v-397h553v-115h-690v1126h671v-114h-534v-385h500v-115h-500z" />
    <glyph glyph-name="edotaccent.smcp" horiz-adv-x="929" 
d="M612 1460q0 -108 -110 -108t-111 108q1 108 111 109q110 0 110 -109zM295 512v-397h553v-115h-690v1126h671v-114h-534v-385h500v-115h-500z" />
    <glyph glyph-name="eogonek.smcp" horiz-adv-x="929" 
d="M621 -455q-76 0 -129 46t-54 126q0 141 168 283h-448v1126h671v-114h-534v-385h500v-115h-500v-397h553v-115h-103q-61 -55 -92 -87q-82 -85 -82 -171t82 -86q70 0 117 80l84 -45q-33 -72 -95 -109t-138 -37z" />
    <glyph glyph-name="ecaron.smcp" horiz-adv-x="929" 
d="M193 1581l122 12l189 -250l192 254l109 -16l-234 -338h-137zM295 512v-397h553v-115h-690v1126h671v-114h-534v-385h500v-115h-500z" />
    <glyph glyph-name="gcircumflex.smcp" horiz-adv-x="1189" 
d="M915 1268l-114 -13l-197 250l-188 -254l-113 17l234 338h137zM575 -18q-253 0 -373 152t-120 426q0 276 143 432t396 155q397 0 426 -373l-129 -12q-14 141 -88 207t-214 65q-186 0 -289 -125t-104 -348q0 -471 379 -471q147 0 232 86q84 86 84 197v102h-318v109h447
v-584h-101l-20 154q-31 -74 -130 -123t-221 -49z" />
    <glyph glyph-name="gbreve.smcp" horiz-adv-x="1189" 
d="M600 1245q-279 0 -285 307l111 15q8 -121 49 -169t131 -48t136 49t51 168l108 -11q0 -145 -77 -228t-224 -83zM575 -18q-253 0 -373 152t-120 426q0 276 143 432t396 155q397 0 426 -373l-129 -12q-14 141 -88 207t-214 65q-186 0 -289 -125t-104 -348q0 -471 379 -471
q147 0 232 86q84 86 84 197v102h-318v109h447v-584h-101l-20 154q-31 -74 -130 -123t-221 -49z" />
    <glyph glyph-name="gdotaccent.smcp" horiz-adv-x="1189" 
d="M715 1460q0 -108 -111 -108t-110 108q0 109 110 109t111 -109zM575 -18q-253 0 -373 152t-120 426q0 276 143 432t396 155q397 0 426 -373l-129 -12q-14 141 -88 207t-214 65q-186 0 -289 -125t-104 -348q0 -471 379 -471q147 0 232 86q84 86 84 197v102h-318v109h447
v-584h-101l-20 154q-31 -74 -130 -123t-221 -49z" />
    <glyph glyph-name="gcommaaccent.smcp" horiz-adv-x="1189" 
d="M475 -451l74 310h162l-127 -326zM575 -18q-253 0 -373 152t-120 426q0 276 143 432t396 155q397 0 426 -373l-129 -12q-14 141 -88 207t-214 65q-186 0 -289 -125t-104 -348q0 -471 379 -471q147 0 232 86q84 86 84 197v102h-318v109h447v-584h-101l-20 154
q-31 -74 -130 -123t-221 -49z" />
    <glyph glyph-name="hcircumflex.smcp" horiz-adv-x="1163" 
d="M893 1268l-115 -13l-196 250l-189 -254l-112 17l233 338h137zM1006 1126v-1126h-138v518h-573v-518h-137v1126h137v-491h573v491h138z" />
    <glyph glyph-name="hbar.smcp" horiz-adv-x="1216" 
d="M322 635h573v190h-573v-190zM1032 1126v-196h117v-105h-117v-825h-137v518h-573v-518h-138v825h-116v105h116v196h138v-196h573v196h137z" />
    <glyph glyph-name="itilde.smcp" horiz-adv-x="452" 
d="M63 1522q73 0 174 -48t144 -48t62 21q19 22 20 91l96 -4q14 -117 -36 -173t-124 -56t-177 48t-148 48q-80 0 -76 -117l-94 4q-14 118 36 176t123 58zM295 1126v-1126h-137v1126h137z" />
    <glyph glyph-name="imacron.smcp" horiz-adv-x="452" 
d="M516 1374h-579v117h579v-117zM295 1126v-1126h-137v1126h137z" />
    <glyph glyph-name="ibreve.smcp" horiz-adv-x="452" 
d="M221 1245q-279 0 -284 307l110 15q8 -121 49 -169t131 -48t137 49q46 49 50 168l108 -11q0 -145 -77 -228t-224 -83zM295 1126v-1126h-137v1126h137z" />
    <glyph glyph-name="iogonek.smcp" horiz-adv-x="452" 
d="M295 1126v-1126q-69 -61 -95 -89q-83 -88 -82 -171q1 -84 83 -84q70 0 116 80l84 -45q-33 -72 -95 -109t-138 -37t-129 46t-53 126q0 145 172 287v1122h137z" />
    <glyph glyph-name="idotaccent.smcp" horiz-adv-x="452" 
d="M336 1460q0 -108 -111 -108t-110 108q1 109 111 109t110 -109zM295 1126v-1126h-137v1126h137z" />
    <glyph glyph-name="dotlessi.smcp" horiz-adv-x="452" 
d="M295 1126v-1126h-137v1126h137z" />
    <glyph glyph-name="jcircumflex.smcp" horiz-adv-x="792" 
d="M893 1268l-115 -13l-196 250l-189 -254l-112 17l233 338h137zM514 274v852h137v-845q0 -162 -81 -231q-81 -68 -228 -68t-220 62t-79 194l131 20q10 -86 44 -125t121 -39t131 37t44 143z" />
    <glyph glyph-name="kcommaaccent.smcp" horiz-adv-x="1024" 
d="M399 -451l74 310h162l-127 -326zM295 1126v-557l526 557h156l-459 -485l483 -641h-161l-416 541l-129 -135v-406h-137v1126h137z" />
    <glyph glyph-name="kgreenlandic.smcp" horiz-adv-x="1024" 
d="M295 1126v-557l526 557h156l-459 -485l483 -641h-161l-416 541l-129 -135v-406h-137v1126h137z" />
    <glyph glyph-name="lacute.smcp" horiz-adv-x="878" 
d="M549 1606l-291 -363l-106 27l217 336h180zM295 1126v-1009h522v-117h-659v1126h137z" />
    <glyph glyph-name="lcommaaccent.smcp" horiz-adv-x="878" 
d="M352 -451l74 310h162l-127 -326zM295 1126v-1009h522v-117h-659v1126h137z" />
    <glyph glyph-name="lcaron.smcp" horiz-adv-x="878" 
d="M473 737l68 389h157l-123 -405zM295 1126v-1009h522v-117h-659v1126h137z" />
    <glyph glyph-name="ldot.smcp" horiz-adv-x="878" 
d="M801 649q0 -109 -111 -109t-110 109q0 109 110 109t111 -109zM295 1126v-1009h522v-117h-659v1126h137z" />
    <glyph glyph-name="nacute.smcp" horiz-adv-x="1191" 
d="M901 1606l-291 -363l-106 27l217 336h180zM1034 0h-168l-579 965v-965h-129v1126h184l565 -954v954h127v-1126z" />
    <glyph glyph-name="ncommaaccent.smcp" horiz-adv-x="1191" 
d="M444 -451l74 310h162l-127 -326zM1034 0h-168l-579 965v-965h-129v1126h184l565 -954v954h127v-1126z" />
    <glyph glyph-name="ncaron.smcp" horiz-adv-x="1191" 
d="M279 1581l122 12l189 -250l192 254l109 -16l-234 -338h-137zM1034 0h-168l-579 965v-965h-129v1126h184l565 -954v954h127v-1126z" />
    <glyph glyph-name="napostrophe.smcp" horiz-adv-x="1255" 
d="M-18 1100l73 309h162l-127 -326zM1098 0h-168l-580 965v-965h-129v1126h185l565 -954v954h127v-1126z" />
    <glyph glyph-name="eng.smcp" horiz-adv-x="1191" 
d="M756 -457q-61 1 -135 15t-101 30l27 111q106 -39 201 -39q150 0 149 170v158l-610 977v-965h-129v1126h184l565 -913v913h127v-1288q0 -147 -74 -221t-204 -74z" />
    <glyph glyph-name="omacron.smcp" horiz-adv-x="1212" 
d="M907 1374h-579v117h579v-117zM606 96q174 0 279 121q104 121 104 348t-100 347q-99 120 -273 120t-282 -122t-109 -347t103 -346t278 -121zM600 -18q-258 0 -388 158t-130 420q0 263 142 425t396 162t382 -157t128 -421q0 -263 -136 -425t-394 -162z" />
    <glyph glyph-name="obreve.smcp" horiz-adv-x="1212" 
d="M612 1245q-279 0 -284 307l110 15q8 -121 49 -169t131 -48t137 49q46 49 50 168l108 -11q-1 -145 -77 -228t-224 -83zM606 96q174 0 279 121q104 121 104 348t-100 347q-99 120 -273 120t-282 -122t-109 -347t103 -346t278 -121zM600 -18q-258 0 -388 158t-130 420
q0 263 142 425t396 162t382 -157t128 -421q0 -263 -136 -425t-394 -162z" />
    <glyph glyph-name="ohungarumlaut.smcp" horiz-adv-x="1212" 
d="M1057 1606l-291 -363l-107 27l218 336h180zM764 1604l-248 -361l-106 27l174 334h180zM606 96q174 0 279 121q104 121 104 348t-100 347q-99 120 -273 120t-282 -122t-109 -347t103 -346t278 -121zM600 -18q-258 0 -388 158t-130 420q0 263 142 425t396 162t382 -157
t128 -421q0 -263 -136 -425t-394 -162z" />
    <glyph glyph-name="racute.smcp" horiz-adv-x="1032" 
d="M745 1606l-290 -363l-107 27l217 336h180zM293 586h225q127 0 194 51q66 51 66 171t-69 163q-70 43 -209 43h-207v-428zM293 473v-473h-135v1126h391q199 0 286 -87t87 -218q-1 -237 -226 -313l285 -508h-147l-269 473h-272z" />
    <glyph glyph-name="rcommaaccent.smcp" horiz-adv-x="1032" 
d="M403 -451l74 310h162l-127 -326zM293 586h225q127 0 194 51q66 51 66 171t-69 163q-70 43 -209 43h-207v-428zM293 473v-473h-135v1126h391q199 0 286 -87t87 -218q-1 -237 -226 -313l285 -508h-147l-269 473h-272z" />
    <glyph glyph-name="rcaron.smcp" horiz-adv-x="1032" 
d="M201 1581l123 12l188 -250l193 254l108 -16l-233 -338h-138zM293 586h225q127 0 194 51q66 51 66 171t-69 163q-70 43 -209 43h-207v-428zM293 473v-473h-135v1126h391q199 0 286 -87t87 -218q-1 -237 -226 -313l285 -508h-147l-269 473h-272z" />
    <glyph glyph-name="sacute.smcp" horiz-adv-x="966" 
d="M725 1606l-291 -363l-106 27l217 336h180zM496 1034q-248 0 -248 -184q0 -74 47 -121t117 -67q169 -48 303 -100q71 -28 117 -92t47 -161q0 -166 -116 -247t-290 -80q-375 0 -418 321l133 19q23 -106 86 -168q64 -62 188 -62q277 -1 275 199q0 88 -64 137q-65 49 -158 73
q-93 25 -186 53t-158 98t-65 200q0 129 109 212t279 83q344 0 376 -316l-129 -16q-16 99 -69 159t-176 60z" />
    <glyph glyph-name="scircumflex.smcp" horiz-adv-x="966" 
d="M801 1268l-115 -13l-197 250l-188 -254l-113 17l234 338h137zM496 1034q-248 0 -248 -184q0 -74 47 -121t117 -67q169 -48 303 -100q71 -28 117 -92t47 -161q0 -166 -116 -247t-290 -80q-375 0 -418 321l133 19q23 -106 86 -168q64 -62 188 -62q277 -1 275 199
q0 88 -64 137q-65 49 -158 73q-93 25 -186 53t-158 98t-65 200q0 129 109 212t279 83q344 0 376 -316l-129 -16q-16 99 -69 159t-176 60z" />
    <glyph glyph-name="scedilla.smcp" horiz-adv-x="966" 
d="M553 -260q0 47 -35 72t-121 26l21 146q-322 23 -363 319l133 19q23 -106 86 -168q64 -62 188 -62q277 -1 275 199q0 88 -64 137q-65 49 -158 73q-93 25 -186 53t-158 98t-65 200q0 129 109 212t279 83q344 0 376 -316l-129 -16q-16 99 -69 159t-176 60q-248 0 -248 -184
q0 -74 47 -121t117 -67q169 -48 303 -100q71 -28 117 -92t47 -161q-1 -153 -99 -233t-254 -92l-10 -74q156 -31 156 -176q0 -84 -60 -138t-152 -54t-153 42l31 88q56 -34 110 -34t80 28t25 74z" />
    <glyph glyph-name="tcaron.smcp" horiz-adv-x="880" 
d="M131 1581l123 12l188 -250l193 254l108 -16l-233 -338h-137zM510 0h-137v1012h-350v114h835v-114h-348v-1012z" />
    <glyph glyph-name="tbar.smcp" horiz-adv-x="880" 
d="M127 492v104h246v416h-350v114h835v-114h-348v-416h233v-104h-233v-492h-137v492h-246z" />
    <glyph glyph-name="utilde.smcp" horiz-adv-x="1140" 
d="M407 1522q73 0 174 -48t144 -48t62 21q19 22 20 91l96 -4q14 -117 -36 -173t-124 -56t-177 48t-148 48q-80 0 -76 -117l-94 4q-14 118 36 176t123 58zM285 393q-1 -157 71 -225t216 -68t214 66t70 223v737h137v-751q0 -393 -430 -393q-217 0 -316 98t-100 297v749h138
v-733z" />
    <glyph glyph-name="umacron.smcp" horiz-adv-x="1140" 
d="M860 1374h-579v117h579v-117zM285 393q-1 -157 71 -225t216 -68t214 66t70 223v737h137v-751q0 -393 -430 -393q-217 0 -316 98t-100 297v749h138v-733z" />
    <glyph glyph-name="ubreve.smcp" horiz-adv-x="1140" 
d="M565 1245q-279 0 -284 307l110 15q8 -121 49 -169t131 -48t137 49q46 49 50 168l108 -11q0 -145 -76 -228t-225 -83zM285 393q-1 -157 71 -225t216 -68t214 66t70 223v737h137v-751q0 -393 -430 -393q-217 0 -316 98t-100 297v749h138v-733z" />
    <glyph glyph-name="uring.smcp" horiz-adv-x="1140" 
d="M569 1341q51 0 78 30t27 81q0 102 -105 102q-47 0 -77 -28t-29 -80q0 -105 106 -105zM782 1454q0 -96 -57 -150t-155 -54t-154 50q-58 50 -58 146t60 149t153 53q91 0 151 -48q60 -50 60 -146zM285 393q-1 -157 71 -225t216 -68t214 66t70 223v737h137v-751
q0 -393 -430 -393q-217 0 -316 98t-100 297v749h138v-733z" />
    <glyph glyph-name="uhungarumlaut.smcp" horiz-adv-x="1140" 
d="M1010 1606l-291 -363l-107 27l217 336h181zM717 1604l-248 -361l-107 27l175 334h180zM285 393q-1 -157 71 -225t216 -68t214 66t70 223v737h137v-751q0 -393 -430 -393q-217 0 -316 98t-100 297v749h138v-733z" />
    <glyph glyph-name="uogonek.smcp" horiz-adv-x="1140" 
d="M692 -455q-76 0 -129 46t-53 126q0 137 154 271q-49 -6 -101 -6q-217 0 -316 98t-100 297v749h138v-733q-1 -157 71 -225t216 -68t214 66t70 223v737h137v-751q0 -207 -129 -316q-221 -184 -221 -319q0 -84 82 -84q70 0 117 80l84 -45q-34 -72 -96 -109t-138 -37z" />
    <glyph glyph-name="wcircumflex.smcp" horiz-adv-x="1433" 
d="M1028 1268l-115 -13l-196 250l-189 -254l-112 17l233 338h137zM1149 0h-174l-252 946h-2l-258 -946h-168l-254 1126h145l199 -970h2l260 970h154l260 -985h2l192 985h138z" />
    <glyph glyph-name="ycircumflex.smcp" horiz-adv-x="897" 
d="M760 1268l-115 -13l-196 250l-189 -254l-113 17l234 338h137zM526 0h-137v438l-395 688h151l314 -557h2l305 557h137l-377 -684v-442z" />
    <glyph glyph-name="zacute.smcp" horiz-adv-x="935" 
d="M729 1606l-291 -363l-106 27l217 336h180zM870 115v-115h-815v96l625 916h-606v114h772v-100l-623 -911h647z" />
    <glyph glyph-name="zdotaccent.smcp" horiz-adv-x="935" 
d="M565 1460q-1 -108 -111 -108t-110 108t110 109q110 0 111 -109zM870 115v-115h-815v96l625 916h-606v114h772v-100l-623 -911h647z" />
    <glyph glyph-name="scommaaccent.smcp" horiz-adv-x="966" 
d="M354 -451l74 310h162l-127 -326zM496 1034q-248 0 -248 -184q0 -74 47 -121t117 -67q169 -48 303 -100q71 -28 117 -92t47 -161q0 -166 -116 -247t-290 -80q-375 0 -418 321l133 19q23 -106 86 -168q64 -62 188 -62q277 -1 275 199q0 88 -64 137q-65 49 -158 73
q-93 25 -186 53t-158 98t-65 200q0 129 109 212t279 83q344 0 376 -316l-129 -16q-16 99 -69 159t-176 60z" />
    <glyph glyph-name="uni021B.smcp" horiz-adv-x="880" 
d="M301 -451l74 310h162l-127 -326zM510 0h-137v1012h-350v114h835v-114h-348v-1012z" />
    <glyph glyph-name="wgrave.smcp" horiz-adv-x="1433" 
d="M784 1243l-290 363h180l217 -336zM1149 0h-174l-252 946h-2l-258 -946h-168l-254 1126h145l199 -970h2l260 970h154l260 -985h2l192 985h138z" />
    <glyph glyph-name="wacute.smcp" horiz-adv-x="1433" 
d="M995 1606l-290 -363l-107 27l217 336h180zM1149 0h-174l-252 946h-2l-258 -946h-168l-254 1126h145l199 -970h2l260 970h154l260 -985h2l192 985h138z" />
    <glyph glyph-name="wdieresis.smcp" horiz-adv-x="1433" 
d="M1030 1439q0 -48 -29 -76t-77 -28t-79 28q-30 28 -30 76t30 77q30 28 78 28q47 0 77 -28t30 -77zM623 1439q0 -48 -29 -76t-78 -28t-79 28q-29 28 -29 76t29 77q30 28 78 28t78 -28t30 -77zM1149 0h-174l-252 946h-2l-258 -946h-168l-254 1126h145l199 -970h2l260 970
h154l260 -985h2l192 985h138z" />
    <glyph glyph-name="ygrave.smcp" horiz-adv-x="897" 
d="M477 1243l-291 363h181l217 -336zM526 0h-137v438l-395 688h151l314 -557h2l305 557h137l-377 -684v-442z" />
    <glyph glyph-name="uni0163.smcp" horiz-adv-x="880" 
d="M373 0v1012h-350v114h835v-114h-348v-1012h-14l-13 -90q156 -31 156 -176q0 -84 -59 -138t-152 -54t-154 42l31 88q55 -34 109 -34t81 28q25 28 25 74q-1 96 -155 98l22 162h-14z" />
    <glyph glyph-name="lslash.smcp" horiz-adv-x="878" 
d="M295 1126v-501l346 139v-115l-346 -139v-393h522v-117h-659v457l-148 -60v115l148 59v555h137z" />
    <glyph glyph-name="scaron.smcp" horiz-adv-x="966" 
d="M174 1581l123 12l188 -250l193 254l108 -16l-233 -338h-137zM496 1034q-248 0 -248 -184q0 -74 47 -121t117 -67q169 -48 303 -100q71 -28 117 -92t47 -161q0 -166 -116 -247t-290 -80q-375 0 -418 321l133 19q23 -106 86 -168q64 -62 188 -62q277 -1 275 199
q0 88 -64 137q-65 49 -158 73q-93 25 -186 53t-158 98t-65 200q0 129 109 212t279 83q344 0 376 -316l-129 -16q-16 99 -69 159t-176 60z" />
    <glyph glyph-name="zcaron.smcp" horiz-adv-x="935" 
d="M141 1581l123 12l189 -250l192 254l109 -16l-234 -338h-137zM870 115v-115h-815v96l625 916h-606v114h772v-100l-623 -911h647z" />
    <glyph glyph-name="oe.smcp" horiz-adv-x="1755" 
d="M606 96q174 0 279 120q104 120 104 348t-99 348q-100 120 -274 120t-282 -122t-109 -347t103 -346t278 -121zM1673 0h-674v178q-129 -196 -393 -196t-394 158t-130 420q0 263 142 425t396 162t379 -180v159h656v-114h-535v-385h500v-115h-500v-397h553v-115z" />
    <glyph glyph-name="ae.smcp" horiz-adv-x="1593" 
d="M821 610v406h-63l-230 -406h293zM958 498v-385h553v-113h-690v498h-348l-283 -498h-139l635 1126h807v-114h-535v-402h500v-112h-500z" />
    <glyph glyph-name="aeacute.smcp" horiz-adv-x="1593" 
d="M1331 1606l-291 -363l-106 27l217 336h180zM821 610v406h-63l-230 -406h293zM958 498v-385h553v-113h-690v498h-348l-283 -498h-139l635 1126h807v-114h-535v-402h500v-112h-500z" />
    <glyph glyph-name="question.smcp" horiz-adv-x="815" 
d="M412 79q0 -97 -104 -97t-103 97q-1 97 103 97t104 -97zM377 289h-133v284q158 15 246 73t90 194q0 195 -199 194q-88 0 -144 -42t-79 -144l-127 24q20 119 107 197q86 78 242 78t250 -73t95 -230q0 -293 -348 -359v-196z" />
    <glyph glyph-name="exclam.smcp" horiz-adv-x="452" 
d="M330 79q0 -97 -104 -97t-103 97q-1 97 103 97t104 -97zM276 291h-100l-29 835h154z" />
    <glyph glyph-name="questiondown.smcp" horiz-adv-x="815" 
d="M403 1050q-1 97 103 97t104 -97t-104 -97t-103 97zM438 840h133v-285q-159 -15 -247 -73t-88 -193q0 -195 198 -195q88 0 145 42q56 42 78 145l127 -25q-20 -119 -107 -197q-87 -77 -243 -77t-250 72q-94 73 -94 231q0 293 348 358v197z" />
    <glyph glyph-name="exclamdown.smcp" horiz-adv-x="452" 
d="M226 953q-104 0 -103 97q0 97 103 97t104 -96q0 -98 -104 -98zM176 838h100l29 -836h-153z" />
    <glyph glyph-name="ordmasculine.smcp" horiz-adv-x="802" 
d="M401 602q199 0 199 251t-190 251q-96 0 -152 -62t-55 -186q-1 -254 198 -254zM397 502q-319 0 -319 350q0 166 87 259t248 93t237 -90t75 -246q0 -366 -328 -366z" />
    <glyph glyph-name="ordfeminine.smcp" horiz-adv-x="757" 
d="M211 698q0 -102 119 -102q98 0 180 86v139q-18 2 -94 1t-121 -14q-84 -24 -84 -110zM508 971q0 69 -30 103t-104 34t-109 -27q-34 -27 -44 -86l-104 19q31 190 262 190q131 0 189 -52t59 -177v-328q0 -29 9 -40q10 -11 30 -11t45 6l6 -76q-39 -20 -94 -20q-96 0 -103 86
q-84 -90 -213 -90t-174 57t-45 125q0 219 334 227l86 -2v62z" />
    <glyph glyph-name="at.smcp" horiz-adv-x="1341" 
d="M688 762q-72 0 -119 -64t-47 -192q0 -211 135 -211q103 0 162 100v320q-59 47 -131 47zM696 -78q-267 0 -440 151q-172 151 -172 437t176 461q176 176 448 176t432 -142q159 -142 158 -411q0 -188 -79 -288q-80 -99 -211 -99t-177 88q-71 -94 -193 -94t-181 82
q-59 83 -59 227t77 245q78 101 203 101q86 0 147 -55l9 45h100v-418q0 -103 32 -121q17 -10 46 -10q76 0 120 75t44 214q0 225 -119 341t-330 115q-248 0 -382 -148t-134 -386t136 -358t350 -119q214 0 339 94l60 -84q-133 -119 -400 -119z" />
    <glyph glyph-name="copyright.smcp" horiz-adv-x="1554" 
d="M416 582q0 180 98 290t274 109q283 0 297 -258l-110 -16q-8 92 -52 133q-45 41 -143 41t-167 -73t-69 -214t61 -225q59 -84 167 -84t155 41q46 41 66 135l103 -17q-14 -100 -68 -161t-112 -79q-60 -18 -130 -20q-188 0 -279 109t-91 289zM217 570q-1 -260 149 -408
t412 -148t413 152t151 416t-155 410t-405 146t-408 -153q-158 -154 -157 -415zM100 574q0 298 195 482t495 183q300 0 482 -175t182 -475q0 -299 -188 -487t-502 -188t-489 181t-175 479z" />
    <glyph glyph-name="ampersand.smcp" horiz-adv-x="1130" 
d="M397 891q0 -78 49 -176l58 24q164 70 164 187q0 53 -32 85q-32 31 -95 31t-104 -36q-40 -37 -40 -115zM490 88q117 0 190 49q-158 168 -305 441q-145 -80 -146 -240q0 -118 72 -184t189 -66zM534 1147q122 1 189 -53q68 -54 68 -153t-65 -166t-237 -142
q100 -195 277 -412q78 129 84 371h121q-4 -276 -119 -445q80 -59 130 -59t89 16l27 -94q-43 -27 -115 -26q-111 0 -219 82q-115 -84 -290 -84t-278 94t-104 250q0 219 236 336q-62 110 -62 220t73 188t195 77z" />
    <glyph glyph-name="parenleft.smcp" horiz-adv-x="530" 
d="M109 538q0 336 243 683h142q-244 -369 -244 -689q0 -193 57 -347t168 -328h-137q-229 345 -229 681z" />
    <glyph glyph-name="parenright.smcp" horiz-adv-x="530" 
d="M422 538q0 -337 -229 -681h-138q111 175 168 329t58 346q0 319 -244 689h141q244 -346 244 -683z" />
    <glyph glyph-name="bracketleft.smcp" horiz-adv-x="442" 
d="M381 -162h-258v1419h258v-83l-131 -11v-1226l131 -13v-86z" />
    <glyph glyph-name="bracketright.smcp" horiz-adv-x="442" 
d="M319 -162h-258v86l132 13v1226l-132 11v83h258v-1419z" />
    <glyph glyph-name="braceleft.smcp" horiz-adv-x="509" 
d="M412 -70h47v-98h-84q-113 0 -161 45t-48 143l20 328q0 80 -30 112q-31 32 -90 32h-29v98h26q61 0 93 34q31 34 30 113l-20 340q0 93 50 139t159 46h84v-103h-64q-55 1 -77 -21t-21 -75l20 -336q-1 -88 -29 -125t-87 -61q61 -23 89 -61t27 -126l-20 -317q0 -57 25 -82
t90 -25z" />
    <glyph glyph-name="braceright.smcp" horiz-adv-x="509" 
d="M135 -168h-84v98h47q66 0 90 25t25 82l-20 317q0 88 27 126q28 38 89 61q-59 25 -88 61t-28 125l20 336q0 53 -22 75t-76 21h-64v103h84q109 0 159 -45t50 -140l-20 -340q0 -79 30 -113t92 -34h27v-98h-29q-59 0 -90 -32t-30 -112l20 -328q0 -98 -48 -143t-161 -45z" />
    <glyph glyph-name="quoteleft.smcp" horiz-adv-x="391" 
d="M330 1198l-97 -395h-161l149 411z" />
    <glyph glyph-name="quoteright.smcp" horiz-adv-x="391" 
d="M82 813l96 395h162l-150 -411z" />
    <glyph glyph-name="quotedblleft.smcp" horiz-adv-x="681" 
d="M330 1198l-97 -395h-161l149 411zM621 1198l-97 -395h-162l150 411z" />
    <glyph glyph-name="quotedblright.smcp" horiz-adv-x="681" 
d="M373 813l96 395h162l-150 -411zM82 813l96 395h162l-150 -411z" />
    <glyph glyph-name="asterisk.smcp" horiz-adv-x="960" 
d="M514 1298l35 -297l272 70l21 -61l-254 -127l168 -258l-51 -39l-226 213l-221 -217l-51 41l166 258l-258 127l22 61l277 -68l39 297h61z" />
    <glyph glyph-name="hyphen.smcp" horiz-adv-x="661" 
d="M608 487h-555v138h555v-138z" />
    <glyph glyph-name="endash.smcp" horiz-adv-x="1024" 
d="M1022 502h-1022v110h1022v-110z" />
    <glyph glyph-name="emdash.smcp" horiz-adv-x="2048" 
d="M2046 502h-2046v110h2046v-110z" />
    <glyph glyph-name="slash.smcp" horiz-adv-x="677" 
d="M190 -72h-124l413 1250h123z" />
    <glyph glyph-name="backslash.smcp" horiz-adv-x="681" 
d="M612 -72h-125l-411 1250h123z" />
    <glyph glyph-name="zero.smcp" horiz-adv-x="962" 
d="M481 92q156 0 211 141q45 117 45 363q0 247 -64 341q-64 95 -184 93q-151 0 -207 -126t-57 -349q0 -346 123 -427q53 -36 133 -36zM477 -20q-119 0 -199 45q-194 108 -194 534q0 588 410 588q265 0 344 -248q39 -121 40 -287q2 -166 -16 -266t-60 -187t-124 -133
t-201 -46z" />
    <glyph glyph-name="one.smcp" horiz-adv-x="720" 
d="M485 0h-133v940q-39 -25 -125 -41t-135 -16l-12 104q229 18 334 137h71v-1124z" />
    <glyph glyph-name="two.smcp" horiz-adv-x="903" 
d="M457 1147q151 0 239 -72q88 -71 88 -189t-66 -229t-202 -262l-250 -278v-2h539v-115h-692v106l288 334q98 115 141 168q105 132 105 262q0 76 -52 122q-51 46 -155 46t-154 -51t-69 -147l-119 22q46 285 359 285z" />
    <glyph glyph-name="three.smcp" horiz-adv-x="940" 
d="M113 883q57 266 365 266q146 0 230 -74q85 -75 85 -189t-72 -184t-166 -90v-4q119 -18 189 -92t69 -192q0 -152 -105 -248t-264 -96q-330 0 -362 270l127 22q14 -84 60 -133t157 -49q112 0 180 60t68 174q0 221 -266 221h-107v104h78q129 -1 204 61t74 160
q0 168 -202 168q-103 0 -149 -44t-73 -138z" />
    <glyph glyph-name="four.smcp" horiz-adv-x="909" 
d="M592 385v612l-418 -612h418zM721 0h-131v272h-553v99l516 753h170v-739h145v-113h-147v-272z" />
    <glyph glyph-name="five.smcp" horiz-adv-x="927" 
d="M748 1124v-114h-467l-31 -369q104 82 240 82t234 -84t97 -259q1 -175 -107 -288t-294 -112q-139 0 -238 67q-98 68 -121 205l127 29q18 -83 70 -135t160 -52t184 72t76 198t-62 186t-159 60q-133 0 -234 -94l-92 41l41 567h576z" />
    <glyph glyph-name="six.smcp" horiz-adv-x="983" 
d="M737 340q0 239 -198 242q-148 -1 -275 -146q7 -189 68 -269q61 -81 171 -81q109 0 172 67q62 67 62 187zM555 1038q-291 0 -299 -493q133 145 311 145q147 0 227 -94t80 -254t-101 -261t-273 -101q-375 0 -375 522q0 239 81 423q44 101 135 161t220 61q248 0 297 -244
l-121 -33q-20 94 -65 131t-117 37z" />
    <glyph glyph-name="seven.smcp" horiz-adv-x="851" 
d="M68 1010v114h751v-100l-491 -1024h-146l494 1010h-608z" />
    <glyph glyph-name="eight.smcp" horiz-adv-x="911" 
d="M472 1042q-104 0 -168 -45t-64 -122t58 -131t169 -105q100 49 165 115q64 66 64 136t-60 110q-60 42 -164 42zM203 280q0 -80 63 -136q64 -56 186 -56t188 60t67 143q0 41 -21 77q-20 36 -42 56t-70 45t-64 31t-66 24q-121 -55 -181 -109t-60 -135zM840 293
q0 -139 -108 -225t-290 -86t-276 80t-94 206q0 197 270 312q-231 109 -231 284q0 131 104 208t262 77t250 -68t92 -184q0 -180 -246 -305q59 -27 97 -47q112 -58 148 -139q22 -49 22 -113z" />
    <glyph glyph-name="nine.smcp" horiz-adv-x="974" 
d="M244 766q0 -236 205 -236q147 1 270 146q-14 205 -74 285q-60 79 -167 78t-171 -69q-63 -69 -63 -204zM444 86q154 0 216 123t69 348q-47 -55 -130 -95t-173 -40q-158 0 -238 90t-80 260t101 272q100 102 270 103q225 0 306 -165q73 -144 73 -378q0 -346 -120 -495
q-46 -57 -123 -93t-181 -36q-279 -1 -330 253l123 33q25 -98 77 -139t140 -41z" />
    <glyph glyph-name="dollar.smcp" horiz-adv-x="851" 
d="M227 827q0 -69 34 -109t104 -65v353q-138 -29 -138 -179zM633 288q0 142 -152 193v-368q152 33 152 175zM365 -133v135q-283 14 -314 295l125 25q16 -100 58 -152t131 -61v405q-198 50 -250 170q-25 55 -25 127q0 131 75 208t200 97v129h120v-125q240 -20 273 -274
l-127 -21q-31 160 -150 183v-390q204 -52 262 -177q27 -56 27 -132q0 -127 -78 -209t-211 -98v-135h-116z" />
    <glyph glyph-name="Euro.smcp" horiz-adv-x="993" 
d="M303 410q35 -314 277 -314q120 0 178 49q57 49 80 158l116 -27q-25 -156 -128 -226t-248 -68q-369 0 -414 428h-133l18 104h109v29q0 57 2 86h-101l19 104h94q70 414 438 414q326 0 351 -332l-125 -12q-16 123 -66 176t-158 53q-258 0 -305 -299h365l-19 -104h-356
q-2 -25 -2 -76v-39h348l-18 -104h-322z" />
    <glyph glyph-name="cent.smcp" horiz-adv-x="821" 
d="M231 582q0 -256 160 -299v589q-160 -34 -160 -290zM393 1147h113v-156q110 -10 176 -76t74 -180l-127 -18q-8 77 -37 113t-88 47v-601q111 18 139 150l119 -20q-18 -106 -88 -168t-170 -76v-162h-113v162q-147 18 -222 129t-75 287t80 280t219 129v160z" />
    <glyph glyph-name="sterling.smcp" horiz-adv-x="917" 
d="M72 111h86q135 123 135 249q0 66 -39 144h-168v106h125q-72 127 -72 228q-1 139 101 224t270 85q291 0 324 -285l-123 -16q-11 96 -57 144t-150 48t-166 -50q-128 -104 10 -378h367v-106h-326q31 -70 31 -139q0 -141 -119 -254h285q90 0 129 39t55 135l121 -25
q-16 -136 -89 -198t-212 -62h-518v111z" />
    <glyph glyph-name="yen.smcp" horiz-adv-x="837" 
d="M709 305h-213v-305h-138v305h-213v107h213v116h-213v105h158l-266 493h149l244 -467l236 467h137l-256 -493h162v-105h-213v-116h213v-107z" />
    <glyph glyph-name="florin.smcp" horiz-adv-x="847" 
d="M659 1147q172 0 230 -162l-115 -41q-37 98 -117 98q-111 0 -135 -135l-41 -215h228l-21 -100h-225l-129 -639q-27 -127 -88 -183t-174 -57q-186 0 -236 162l117 43q37 -98 123 -98q51 0 82 30t45 105l127 637h-129l18 100h129l43 213q27 125 91 184q65 58 177 58z" />
    <glyph glyph-name="afii61352.smcp" horiz-adv-x="1662" 
d="M942 0h-168l-477 965v-965h-129v1126h184l463 -954v954h127v-1126zM1182 866q0 -176 136 -176t136 174t-131 174q-69 0 -105 -45t-36 -127zM1316 598q-126 0 -187 73q-60 73 -60 193t69 193q68 73 188 73t180 -70t60 -193q0 -125 -62 -197t-188 -72zM1104 418v102h440
v-102h-440z" />
    <glyph glyph-name="percent.smcp" horiz-adv-x="1476" 
d="M1112 74q148 0 148 203t-146 202q-80 0 -116 -58t-35 -142q1 -205 149 -205zM1382 291q0 -141 -72 -226t-209 -85q-136 0 -199 81q-62 82 -62 214t71 217q72 84 207 83q264 0 264 -284zM366 516q148 0 148 202t-145 202q-80 0 -116 -58t-36 -143q1 -203 149 -203z
M483 -29h-129l633 1047h129zM355 422q-136 0 -198 81q-63 81 -63 213t72 216t207 84q264 0 264 -285q0 -141 -73 -225t-209 -84z" />
    <glyph glyph-name="perthousand.smcp" horiz-adv-x="2086" 
d="M1573 279q1 -205 149 -205t148 203t-146 202q-80 0 -116 -58t-35 -142zM1711 -20q-136 0 -199 81q-62 82 -62 214q0 133 72 217t207 83q264 0 264 -284q0 -141 -73 -226t-209 -85zM1112 74q148 0 148 203t-146 202q-80 0 -116 -58t-35 -142q1 -205 149 -205zM1382 291
q0 -141 -72 -226t-209 -85q-136 0 -199 81q-62 82 -62 214t71 217q72 84 207 83q264 0 264 -284zM366 516q148 0 148 202t-145 202q-80 0 -116 -58t-36 -143q1 -203 149 -203zM483 -29h-129l633 1047h129zM355 422q-136 0 -198 81q-63 81 -63 213t72 216t207 84
q264 0 264 -285q0 -141 -73 -225t-209 -84z" />
    <glyph glyph-name="hyphensuperior" horiz-adv-x="444" 
d="M391 1036h-350v115h350v-115z" />
    <glyph glyph-name="commasuperior" horiz-adv-x="370" 
d="M45 565l74 285h141l-110 -297z" />
    <glyph glyph-name="periodsuperior" horiz-adv-x="389" 
d="M194 874q92 0 93 -87q0 -87 -92 -87t-93 86q0 88 92 88z" />
    <glyph glyph-name="a.sup" horiz-adv-x="757" 
d="M211 897q0 -102 119 -102q98 0 180 86v139q-18 2 -94 1t-121 -14q-84 -24 -84 -110zM508 1169q0 70 -30 104t-104 34t-109 -27q-34 -27 -44 -86l-104 18q31 190 262 191q131 0 189 -52t59 -177v-328q0 -29 9 -40q10 -11 30 -11t45 6l6 -76q-39 -20 -94 -20q-96 0 -103 86
q-84 -91 -213 -91t-174 58t-45 125q0 219 334 227l86 -2v61z" />
    <glyph glyph-name="b.sup" horiz-adv-x="804" 
d="M428 799q176 0 176 272q0 123 -40 180t-138 57t-186 -87v-338q84 -84 188 -84zM121 717v989h119v-387q100 84 235 84q252 0 252 -334q0 -186 -81 -277q-80 -92 -198 -92t-215 76h-2l-6 -59h-104z" />
    <glyph glyph-name="c.sup" horiz-adv-x="747" 
d="M395 700q-317 0 -317 354q0 167 87 258t247 91q116 -1 186 -63t78 -177l-115 -16q-16 155 -155 153q-203 0 -203 -248t200 -247q147 0 170 143l107 -20q-16 -112 -95 -170t-190 -58z" />
    <glyph glyph-name="d.sup" horiz-adv-x="798" 
d="M201 1050q0 -256 172 -255q106 0 192 98v352q-82 61 -178 62q-186 -1 -186 -257zM684 1706v-989h-100l-11 74q-104 -90 -229 -91q-266 0 -266 344q0 184 83 272t204 87q121 0 202 -62v365h117z" />
    <glyph glyph-name="e.sup" horiz-adv-x="759" 
d="M395 1311q-76 1 -129 -49t-59 -150h348q6 199 -160 199zM397 700q-171 0 -245 98t-74 264q0 165 91 253t233 88t210 -80t68 -213q0 -49 -6 -88h-469q6 -123 56 -170t138 -47q135 0 166 127l107 -23q-20 -97 -96 -153t-179 -56z" />
    <glyph glyph-name="f.sup" horiz-adv-x="460" 
d="M256 1499v-108h193v-97h-193v-577h-121v577h-102v97h102v110q0 217 205 217q82 1 127 -22l-6 -97q-47 19 -98 19t-79 -26t-28 -93z" />
    <glyph glyph-name="g.sup" horiz-adv-x="765" 
d="M598 623q0 37 -26 55t-93 24l-225 17q-80 -55 -80 -111q0 -92 212 -92t212 107zM541 1165q0 145 -169 145t-169 -147q0 -143 172 -143q78 0 122 38t44 107zM80 1147q0 125 80 191t216 65q136 0 199 -62q37 86 109 86q27 0 61 -10v-92q-68 4 -137 -16q51 -53 51 -155
q-1 -102 -79 -168t-201 -64q-74 0 -117 16q-47 -43 -47 -68q0 -39 84 -47l195 -16q119 -10 172 -45q53 -34 53 -138q1 -104 -101 -154t-253 -50q-311 0 -312 168q0 100 111 153v2q-70 18 -70 86t90 138q-104 55 -104 180z" />
    <glyph glyph-name="h.sup" horiz-adv-x="806" 
d="M696 1174v-457h-118v440q0 147 -132 148q-55 0 -112 -27t-92 -57v-504h-121v989h119v-389q117 86 245 86q211 0 211 -229z" />
    <glyph glyph-name="i.sup" horiz-adv-x="356" 
d="M268 1606q0 -39 -22 -61t-64 -21q-86 0 -86 83t86 83t86 -84zM240 1391v-674h-119v674h119z" />
    <glyph glyph-name="j.sup" horiz-adv-x="354" 
d="M270 1618q0 -84 -86 -84t-86 83t86 83q42 0 64 -22t22 -60zM45 424q-84 0 -129 27l12 94q47 -20 103 -21q90 0 90 107v760h121v-764q0 -203 -197 -203z" />
    <glyph glyph-name="k.sup" horiz-adv-x="737" 
d="M242 1706v-623l299 308h137l-240 -244l258 -430h-131l-217 350l-106 -104v-246h-121v989h121z" />
    <glyph glyph-name="l.sup" horiz-adv-x="356" 
d="M242 1706v-989h-121v989h121z" />
    <glyph glyph-name="m.sup" horiz-adv-x="1191" 
d="M242 717h-121v674h104l6 -78q123 90 248 90t164 -92q121 92 235 92t158 -56q45 -56 45 -173v-457h-120v442q0 76 -22 111q-21 35 -101 35t-176 -78q4 -41 4 -68v-442h-121v442q0 76 -22 111t-79 35q-57 -1 -113 -27t-89 -57v-504z" />
    <glyph glyph-name="n.sup" horiz-adv-x="806" 
d="M696 1174v-457h-118v440q0 147 -132 148q-55 0 -112 -27t-92 -57v-504h-121v674h106l6 -78q119 90 250 90q213 0 213 -229z" />
    <glyph glyph-name="o.sup" horiz-adv-x="802" 
d="M401 801q199 0 199 251t-190 251q-96 -1 -152 -63t-55 -185q-1 -254 198 -254zM397 700q-319 0 -319 351q0 166 87 259t248 93t237 -90t75 -246q0 -367 -328 -367z" />
    <glyph glyph-name="p.sup" horiz-adv-x="804" 
d="M428 799q176 0 176 272q0 125 -40 181t-138 56t-186 -87v-342q86 -80 188 -80zM121 438v953h104l6 -76q104 88 242 88q254 0 254 -334q0 -186 -82 -277q-83 -92 -197 -92t-210 72v-334h-117z" />
    <glyph glyph-name="q.sup" horiz-adv-x="796" 
d="M385 1307q-184 1 -184 -255t168 -255q104 0 196 88v352q-92 70 -180 70zM684 1391v-953h-115v348q-100 -86 -227 -86q-264 0 -264 344q0 184 83 272t203 87q120 0 205 -72l11 60h104z" />
    <glyph glyph-name="r.sup" horiz-adv-x="512" 
d="M487 1403v-119q-63 8 -133 -12t-112 -62v-493h-121v674h100l10 -99q86 113 232 111h24z" />
    <glyph glyph-name="s.sup" horiz-adv-x="675" 
d="M344 1403q219 0 252 -197l-107 -20q-14 66 -44 96t-103 31q-135 0 -135 -96q0 -49 36 -69q37 -20 105 -36q173 -39 216 -84q44 -45 44 -132t-70 -141t-198 -55q-248 0 -277 197l107 27q16 -64 53 -98t121 -33q145 0 145 98q0 49 -32 68q-33 19 -80 31t-77 18
q-30 8 -40 11t-37 11t-37 14l-30 18q-20 11 -29 24q-7 13 -23 38t-16 78q0 96 74 148t182 53z" />
    <glyph glyph-name="t.sup" horiz-adv-x="530" 
d="M336 700q-195 0 -195 191v403h-106v97h106v194l121 17v-211h193v-97h-193v-383q0 -59 20 -86t82 -27t119 33l23 -86q-66 -45 -170 -45z" />
    <glyph glyph-name="u.sup" horiz-adv-x="806" 
d="M119 934v457h121v-441q0 -74 28 -110t97 -37q111 0 204 94v494h121v-674h-104l-8 82q-123 -96 -250 -97q-209 1 -209 232z" />
    <glyph glyph-name="v.sup" horiz-adv-x="700" 
d="M420 717h-135l-267 674h132l204 -560h2l205 560h121z" />
    <glyph glyph-name="w.sup" horiz-adv-x="1042" 
d="M379 717h-143l-218 674h123l168 -555h2l154 555h125l151 -551l168 551h115l-215 -674h-141l-146 538z" />
    <glyph glyph-name="x.sup" horiz-adv-x="684" 
d="M639 1391l-233 -324l245 -350h-131l-184 268l-178 -268h-123l233 348l-233 326h131l174 -248l180 248h119z" />
    <glyph glyph-name="y.sup" horiz-adv-x="673" 
d="M140 424q-81 0 -144 25l14 92q74 -19 116 -19t73 29t59 102l21 56l-256 682h129l186 -543h2l192 543h123q-66 -179 -293 -758q-40 -101 -90 -155t-132 -54z" />
    <glyph glyph-name="z.sup" horiz-adv-x="641" 
d="M596 815v-98h-545v86l393 491h-387v97h523v-86l-392 -490h408z" />
    <glyph glyph-name="hypheninferior" horiz-adv-x="444" 
d="M391 20h-350v115h350v-115z" />
    <glyph glyph-name="commainferior" horiz-adv-x="370" 
d="M45 -451l74 285h141l-110 -297z" />
    <glyph glyph-name="periodinferior" horiz-adv-x="389" 
d="M194 -141q92 0 93 -87q0 -87 -92 -87t-93 86q0 88 92 88z" />
    <glyph glyph-name="minusinferior" horiz-adv-x="890" 
d="M690 98h-487v109h487v-109z" />
    <glyph glyph-name="plusinferior" horiz-adv-x="890" 
d="M502 -102h-115v190h-186v109h186v184h115v-184h186v-109h-186v-190z" />
    <glyph glyph-name="equalinferior" horiz-adv-x="897" 
d="M692 156h-485v112h485v-112zM692 -51h-485v110h485v-110z" />
    <glyph glyph-name="a.sinf" horiz-adv-x="757" 
d="M211 -119q0 -102 119 -102q98 0 180 86v139q-18 2 -94 1t-121 -14q-84 -24 -84 -110zM508 154q0 70 -30 104t-104 33q-74 0 -109 -27q-34 -27 -44 -86l-104 19q31 190 262 190q131 0 189 -52t59 -177v-328q0 -29 9 -40q10 -11 30 -11t45 6l6 -76q-39 -20 -94 -20
q-96 0 -103 86q-84 -90 -213 -90t-174 57t-45 125q0 219 334 227l86 -2v62z" />
    <glyph glyph-name="b.sinf" horiz-adv-x="804" 
d="M428 -217q176 0 176 272q0 123 -40 181t-138 57q-98 0 -186 -88v-338q84 -84 188 -84zM121 -299v989h119v-387q100 84 235 84q252 0 252 -334q0 -186 -81 -277q-80 -91 -198 -91t-215 75h-2l-6 -59h-104z" />
    <glyph glyph-name="c.sinf" horiz-adv-x="747" 
d="M395 -315q-317 0 -317 353q0 167 87 258t247 91q116 0 186 -62t78 -178l-115 -16q-8 78 -45 116t-110 38q-203 0 -203 -248t200 -248q147 0 170 143l107 -20q-16 -111 -95 -169t-190 -58z" />
    <glyph glyph-name="d.sinf" horiz-adv-x="798" 
d="M201 35q0 -256 172 -256q106 0 192 98v352q-82 61 -178 62q-186 0 -186 -256zM684 690v-989h-100l-11 74q-104 -90 -229 -90q-266 0 -266 344q0 184 83 271t204 87t202 -61v364h117z" />
    <glyph glyph-name="e.sinf" horiz-adv-x="759" 
d="M395 295q-76 1 -129 -49t-59 -150h348q6 199 -160 199zM397 -315q-171 0 -245 98t-74 263t91 253t233 88t210 -80t68 -213q0 -49 -6 -88h-469q6 -123 56 -170t138 -47q135 0 166 127l107 -22q-20 -96 -95 -153q-76 -56 -180 -56z" />
    <glyph glyph-name="f.sinf" horiz-adv-x="460" 
d="M363 602q-51 0 -79 -26t-28 -93v-108h193v-96h-193v-578h-121v578h-102v96h102v110q0 217 205 217q82 1 127 -22l-6 -96q-47 18 -98 18z" />
    <glyph glyph-name="g.sinf" horiz-adv-x="765" 
d="M598 -393q0 37 -26 55t-93 25l-225 16q-80 -55 -80 -111q0 -92 212 -92t212 107zM541 150q0 145 -169 145t-169 -148q0 -143 172 -143q78 0 122 38t44 108zM80 131q0 125 80 191t216 65q136 0 199 -61q37 86 109 86q27 0 61 -11v-92q-68 4 -137 -16q51 -53 51 -155
q-1 -102 -79 -168t-201 -64q-74 0 -117 16q-47 -43 -47 -67q0 -39 84 -48l195 -16q119 -10 172 -45q53 -34 53 -138q1 -104 -101 -154t-253 -50q-311 0 -312 168q0 100 111 154v2q-70 18 -70 86t90 137q-104 55 -104 180z" />
    <glyph glyph-name="h.sinf" horiz-adv-x="806" 
d="M696 158v-457h-118v440q0 147 -132 148q-55 0 -112 -27t-92 -57v-504h-121v989h119v-389q117 86 245 86q211 0 211 -229z" />
    <glyph glyph-name="i.sinf" horiz-adv-x="356" 
d="M268 590q0 -39 -22 -61t-64 -21q-86 0 -86 83t86 83t86 -84zM240 375v-674h-119v674h119z" />
    <glyph glyph-name="j.sinf" horiz-adv-x="354" 
d="M184 684q86 0 86 -83t-86 -83t-86 83t86 83zM45 -592q-84 0 -129 27l12 94q47 -20 103 -21q90 0 90 107v760h121v-764q0 -203 -197 -203z" />
    <glyph glyph-name="k.sinf" horiz-adv-x="737" 
d="M242 690v-622l299 307h137l-240 -244l258 -430h-131l-217 350l-106 -104v-246h-121v989h121z" />
    <glyph glyph-name="l.sinf" horiz-adv-x="356" 
d="M242 690v-989h-121v989h121z" />
    <glyph glyph-name="m.sinf" horiz-adv-x="1191" 
d="M242 -299h-121v674h104l6 -78q123 90 248 90t164 -92q121 92 235 92t158 -56q45 -56 45 -173v-457h-120v442q0 76 -22 111q-21 35 -101 35t-176 -78q4 -41 4 -68v-442h-121v442q0 76 -22 111t-79 35q-57 -1 -113 -27t-89 -57v-504z" />
    <glyph glyph-name="n.sinf" horiz-adv-x="806" 
d="M696 158v-457h-118v440q0 147 -132 148q-55 0 -112 -27t-92 -57v-504h-121v674h106l6 -78q119 90 250 90q213 0 213 -229z" />
    <glyph glyph-name="o.sinf" horiz-adv-x="802" 
d="M401 -215q199 0 199 251t-190 251q-96 -1 -152 -63t-55 -185q-1 -254 198 -254zM397 -315q-319 0 -319 350q0 166 87 259t248 93t237 -90t75 -246q0 -366 -328 -366z" />
    <glyph glyph-name="p.sinf" horiz-adv-x="804" 
d="M428 -217q176 0 176 272q0 125 -40 181t-138 57q-98 0 -186 -88v-342q86 -80 188 -80zM121 -578v953h104l6 -76q104 88 242 88q254 0 254 -334q0 -186 -82 -277q-83 -91 -197 -91t-210 71v-334h-117z" />
    <glyph glyph-name="q.sinf" horiz-adv-x="796" 
d="M385 291q-184 0 -184 -255t168 -255q104 0 196 88v352q-92 70 -180 70zM684 375v-953h-115v349q-100 -86 -227 -86q-264 0 -264 344q0 184 83 271t203 87t205 -72l11 60h104z" />
    <glyph glyph-name="r.sinf" horiz-adv-x="512" 
d="M487 387v-119q-63 8 -133 -12t-112 -61v-494h-121v674h100l10 -99q86 113 232 111h24z" />
    <glyph glyph-name="s.sinf" horiz-adv-x="675" 
d="M344 387q219 0 252 -197l-107 -20q-14 66 -44 96t-103 31q-135 0 -135 -96q0 -49 36 -69q37 -20 105 -36q173 -39 216 -84q44 -45 44 -132t-70 -141t-198 -54q-248 0 -277 196l107 27q16 -63 53 -97t121 -34q145 0 145 98q0 49 -34 69t-110 38q-75 18 -85 21t-37 11
t-37 14l-30 18q-20 10 -28 24t-24 38t-16 78q0 96 74 148t182 53z" />
    <glyph glyph-name="t.sinf" horiz-adv-x="530" 
d="M336 -315q-195 0 -195 190v404h-106v96h106v194l121 17v-211h193v-96h-193v-383q0 -59 20 -86t82 -27t119 33l23 -86q-66 -45 -170 -45z" />
    <glyph glyph-name="u.sinf" horiz-adv-x="806" 
d="M119 -82v457h121v-441q0 -74 28 -110t97 -37q111 0 204 94v494h121v-674h-104l-8 82q-123 -96 -250 -96q-209 0 -209 231z" />
    <glyph glyph-name="v.sinf" horiz-adv-x="700" 
d="M420 -299h-135l-267 674h132l204 -559h2l205 559h121z" />
    <glyph glyph-name="w.sinf" horiz-adv-x="1042" 
d="M379 -299h-143l-218 674h123l168 -555h2l154 555h125l151 -551l168 551h115l-215 -674h-141l-146 539z" />
    <glyph glyph-name="x.sinf" horiz-adv-x="684" 
d="M639 375l-233 -324l245 -350h-131l-184 268l-178 -268h-123l233 348l-233 326h131l174 -248l180 248h119z" />
    <glyph glyph-name="y.sinf" horiz-adv-x="673" 
d="M140 -592q-81 0 -144 25l14 92q74 -19 116 -19t73 29t59 103l21 55l-256 682h129l186 -543h2l192 543h123q-49 -133 -151 -394t-142 -363t-90 -156t-132 -54z" />
    <glyph glyph-name="z.sinf" horiz-adv-x="641" 
d="M596 -201v-98h-545v86l393 492h-387v96h523v-86l-392 -490h408z" />
    <glyph glyph-name="zero.num" horiz-adv-x="813" 
d="M586 1031q0 187 -34 271t-140 84t-146 -87t-39 -272q-1 -185 37 -272t143 -87t142 88t37 275zM403 561q-179 0 -245 119t-66 345t73 349t250 123t241 -119t65 -345q0 -226 -70 -349t-248 -123z" />
    <glyph glyph-name="one.num" horiz-adv-x="571" 
d="M406 571h-130v742q-30 -17 -96 -29t-104 -12l-8 100q176 12 260 105h78v-906z" />
    <glyph glyph-name="two.num" horiz-adv-x="706" 
d="M365 1497q121 0 189 -57q68 -58 69 -162q-1 -104 -49 -183t-166 -214l-175 -191v-2h404v-113h-551v107l215 248q111 130 151 194t40 142q0 127 -142 127q-80 0 -116 -39t-48 -113l-110 21q35 235 289 235z" />
    <glyph glyph-name="three.num" horiz-adv-x="739" 
d="M508 834q0 164 -189 163h-83v101h59q94 0 147 46t54 122q0 125 -140 125q-76 0 -110 -30t-49 -95l-115 22q41 209 287 209q123 0 189 -58q66 -59 67 -153t-53 -148t-128 -75v-2q197 -37 197 -232q0 -121 -83 -195t-220 -73q-252 0 -279 215l119 23q12 -68 45 -101
q33 -32 112 -32t126 41t47 127z" />
    <glyph glyph-name="four.num" horiz-adv-x="753" 
d="M471 899v463l-307 -463h307zM596 575h-127v220h-428v92l395 594h160v-582h109v-104h-109v-220z" />
    <glyph glyph-name="five.num" horiz-adv-x="749" 
d="M612 1481v-109h-352l-24 -260l-3 -22q80 61 186 61q107 0 179 -66t72 -209t-86 -229t-214 -86q-268 0 -300 213l116 27q27 -135 168 -135q76 0 128 51t53 153q0 176 -162 177q-88 0 -162 -68l-86 37l35 465h452z" />
    <glyph glyph-name="six.num" horiz-adv-x="780" 
d="M412 664q72 0 114 49t43 145q0 170 -141 170q-52 0 -106 -28t-89 -66q3 -82 15 -133t52 -94t112 -43zM444 1126q258 0 256 -272q0 -133 -80 -213t-219 -80q-173 0 -240 131q-57 112 -58 298q-1 185 66 332q36 79 109 127t173 48q198 0 239 -199l-115 -30q-14 72 -48 100
q-35 28 -101 27t-115 -59t-65 -134t-19 -172q89 96 217 96z" />
    <glyph glyph-name="seven.num" horiz-adv-x="677" 
d="M45 1372v109h592v-97l-377 -809h-137l377 797h-455z" />
    <glyph glyph-name="eight.num" horiz-adv-x="743" 
d="M539 1282q0 117 -154 117q-74 0 -116 -33t-42 -92q0 -112 162 -178q150 76 150 186zM371 664q88 0 133 41t45 91q0 89 -66 131q-50 33 -131 62q-82 -37 -121 -79t-38 -107q0 -139 178 -139zM682 804q0 -104 -86 -174t-232 -69q-146 -1 -223 63q-76 64 -75 169
q0 162 194 241q-74 31 -119 89t-45 134q0 115 82 177t210 63q128 0 202 -55t74 -154q-1 -141 -181 -233q99 -43 149 -95t50 -156z" />
    <glyph glyph-name="nine.num" horiz-adv-x="790" 
d="M223 1196q0 -176 146 -176q104 0 190 96q-8 118 -36 189q-35 92 -151 92q-64 0 -106 -50q-43 -50 -43 -151zM358 662q203 0 209 350q-35 -37 -96 -64t-131 -26q-120 0 -184 72t-64 207q0 134 82 215t207 81t195 -63q70 -62 92 -154q23 -92 22 -223q0 -496 -336 -496
q-227 0 -266 205l117 31q31 -135 153 -135z" />
    <glyph glyph-name="parenleft.ordn" horiz-adv-x="493" 
d="M121 968q0 274 198 554h134q-197 -299 -197 -553q0 -156 47 -281t137 -262h-133q-186 268 -186 542z" />
    <glyph glyph-name="parenright.ordn" horiz-adv-x="612" 
d="M244 969q0 254 -197 553h133q199 -280 199 -554t-186 -542h-134q90 137 138 262q47 125 47 281z" />
    <glyph glyph-name="hyphen.ordn" horiz-adv-x="444" 
d="M391 897h-350v115h350v-115z" />
    <glyph glyph-name="comma.ordn" horiz-adv-x="370" 
d="M45 426l74 285h141l-110 -297z" />
    <glyph glyph-name="period.ordn" horiz-adv-x="389" 
d="M194 735q92 0 93 -87q0 -87 -92 -87t-93 86q0 88 92 88z" />
    <glyph glyph-name="minus.ordn" horiz-adv-x="890" 
d="M690 975h-487v108h487v-108z" />
    <glyph glyph-name="plus.ordn" horiz-adv-x="890" 
d="M502 774h-115v191h-186v108h186v184h115v-184h186v-108h-186v-191z" />
    <glyph glyph-name="equal.ordn" horiz-adv-x="897" 
d="M692 1032h-485v113h485v-113zM692 825h-485v111h485v-111z" />
    <glyph glyph-name="a.ordn" horiz-adv-x="757" 
d="M211 758q0 -102 119 -103q98 0 180 86v140q-18 2 -94 1t-121 -15q-84 -24 -84 -109zM508 1030q0 70 -30 104t-104 34t-109 -28q-34 -26 -44 -85l-104 18q31 190 262 191q131 0 189 -52t59 -178v-327q0 -29 13 -45t71 0l6 -76q-39 -20 -94 -21q-96 0 -103 86
q-84 -90 -213 -90t-174 57t-45 125q0 219 334 228l86 -2v61z" />
    <glyph glyph-name="b.ordn" horiz-adv-x="804" 
d="M428 659q176 0 176 273q0 123 -40 180t-138 57t-186 -88v-338q84 -84 188 -84zM121 578v989h119v-387q100 84 235 84q252 0 252 -334q0 -186 -81 -278q-80 -92 -198 -91q-118 0 -215 76h-2l-6 -59h-104z" />
    <glyph glyph-name="c.ordn" horiz-adv-x="747" 
d="M395 561q-317 0 -317 353q0 167 87 258t247 92q116 0 186 -62t78 -178l-115 -16q-16 153 -155 153q-203 1 -203 -247t200 -248q147 0 170 143l107 -21q-16 -111 -95 -169t-190 -58z" />
    <glyph glyph-name="d.ordn" horiz-adv-x="798" 
d="M387 1167q-186 0 -186 -256t172 -256q106 1 192 99v352q-82 61 -178 61zM684 1567v-989h-100l-11 73q-104 -90 -229 -90q-266 0 -266 344q0 183 83 271t204 88t202 -62v365h117z" />
    <glyph glyph-name="e.ordn" horiz-adv-x="759" 
d="M207 973h348q6 199 -160 198q-76 0 -129 -49t-59 -149zM397 561q-171 0 -245 98t-74 263q0 166 91 254t233 88t210 -80t68 -213q0 -49 -6 -88h-469q6 -123 56 -170t138 -47q135 0 166 127l107 -23q-20 -96 -95 -153q-76 -56 -180 -56z" />
    <glyph glyph-name="f.ordn" horiz-adv-x="460" 
d="M256 1360v-109h193v-96h-193v-577h-121v577h-102v96h102v111q0 217 205 217q82 0 127 -23l-6 -96q-47 18 -98 18t-79 -25q-28 -26 -28 -93z" />
    <glyph glyph-name="g.ordn" horiz-adv-x="765" 
d="M598 483q0 37 -26 55t-93 25l-225 17q-80 -55 -80 -111q0 -92 212 -92t212 106zM541 1026q0 145 -169 145t-169 -145t172 -145q78 -1 122 37t44 108zM80 1008q0 126 80 190q80 66 216 66t199 -62q37 86 109 86q27 0 61 -10v-92q-68 4 -137 -17q51 -53 51 -155
q-1 -102 -79 -166q-78 -66 -201 -66q-74 0 -117 17q-47 -43 -47 -68q0 -39 84 -47l195 -16q119 -10 172 -45t53 -139q1 -104 -101 -153q-102 -50 -253 -50q-311 0 -312 168q0 100 111 153v2q-70 18 -70 86t90 137q-104 55 -104 181z" />
    <glyph glyph-name="h.ordn" horiz-adv-x="806" 
d="M696 1034v-456h-118v440q0 147 -132 147q-55 -1 -112 -27t-92 -57v-503h-121v989h119v-389q117 86 245 86q211 -1 211 -230z" />
    <glyph glyph-name="i.ordn" horiz-adv-x="356" 
d="M268 1466q0 -38 -22 -60t-64 -22q-86 0 -86 83t86 83t86 -84zM240 1251v-673h-119v673h119z" />
    <glyph glyph-name="j.ordn" horiz-adv-x="354" 
d="M270 1479q0 -84 -86 -84t-86 83t86 83q42 1 64 -21t22 -61zM45 285q-84 0 -129 26l12 95q47 -20 103 -21q90 0 90 107v759h121v-764q0 -202 -197 -202z" />
    <glyph glyph-name="k.ordn" horiz-adv-x="737" 
d="M242 1567v-623l299 307h137l-240 -243l258 -430h-131l-217 350l-106 -105v-245h-121v989h121z" />
    <glyph glyph-name="l.ordn" horiz-adv-x="356" 
d="M242 1567v-989h-121v989h121z" />
    <glyph glyph-name="m.ordn" horiz-adv-x="1191" 
d="M242 578h-121v673h104l6 -77q123 90 248 90t164 -93q121 93 235 93t158 -56q45 -56 45 -174v-456h-120v442q0 76 -22 110q-21 34 -101 35q-80 0 -176 -78q4 -41 4 -67v-442h-121v442q0 76 -22 110t-79 35q-57 -1 -113 -27t-89 -57v-503z" />
    <glyph glyph-name="n.ordn" horiz-adv-x="806" 
d="M696 1034v-456h-118v440q0 147 -132 147q-55 -1 -112 -27t-92 -57v-503h-121v673h106l6 -77q119 90 250 90q213 -1 213 -230z" />
    <glyph glyph-name="o.ordn" horiz-adv-x="802" 
d="M401 662q199 0 199 251t-190 250q-96 0 -152 -62t-55 -186q-1 -253 198 -253zM397 561q-319 0 -319 350q0 166 87 259q87 94 248 94t237 -90t75 -246q0 -367 -328 -367z" />
    <glyph glyph-name="p.ordn" horiz-adv-x="804" 
d="M428 659q176 0 176 273q0 125 -40 181t-138 56t-186 -88v-342q86 -80 188 -80zM121 299v952h104l6 -75q104 88 242 88q254 0 254 -334q0 -186 -82 -278q-83 -92 -197 -91q-114 0 -210 72v-334h-117z" />
    <glyph glyph-name="q.ordn" horiz-adv-x="796" 
d="M201 912q0 -255 168 -255q104 0 196 88v353q-92 70 -180 69q-184 0 -184 -255zM684 1251v-952h-115v348q-100 -86 -227 -86q-264 0 -264 344q0 183 83 271t203 88t205 -72l11 59h104z" />
    <glyph glyph-name="r.ordn" horiz-adv-x="512" 
d="M487 1264v-119q-63 8 -133 -12t-112 -62v-493h-121v673h100l10 -98q86 113 232 111h24z" />
    </font>
</defs>
</svg>
