<?xml version="1.0" encoding="UTF-8"?>
<svg width="65px" height="40px" viewBox="0 0 65 40" version="1.1" xmlns="http://www.w3.org/2000/svg" xmlns:xlink="http://www.w3.org/1999/xlink">
    <!-- Generator: Sketch 41.2 (35397) - http://www.bohemiancoding.com/sketch -->
    <title>thebull</title>
    <desc>Created with Sketch.</desc>
    <defs></defs>
    <g id="Page-1" stroke="none" stroke-width="1" fill="none" fill-rule="evenodd">
        <g id="thebull" fill="#E40446">
            <g id="Page-1">
                <path d="M64.9579776,29.333896 C64.9579776,28.533346 64.5577026,27.972961 64.5577026,27.972961 C63.9172625,27.252466 62.7164374,27.892906 62.7164374,27.892906 C61.6757223,27.332521 58.3934671,26.9322459 58.3934671,26.9322459 C56.3120369,26.6120259 55.5915419,25.6513658 55.5915419,25.6513658 C54.7909919,24.4505407 52.2292317,22.1289456 52.2292317,22.1289456 C51.3486266,20.0475154 47.8262064,15.0841051 47.8262064,15.0841051 C47.1057113,11.9619599 43.9035111,10.8411898 43.9035111,10.8411898 C42.222356,10.2007497 42.382466,9.56030968 42.382466,9.56030968 C42.302411,8.27942959 41.8220809,7.15865951 41.8220809,7.15865951 C41.2616959,5.95783442 41.7420259,5.23733938 41.7420259,5.23733938 C41.9021359,4.99717436 41.9821909,4.1165693 41.9821909,4.1165693 C42.142301,3.31601924 42.942851,2.99579922 42.942851,2.99579922 C43.183016,2.91574421 43.3431261,2.51546918 43.3431261,2.51546918 C43.4231811,2.03513915 41.5819159,2.11519416 41.5819159,2.11519416 C40.3010358,2.11519416 40.6212558,2.99579922 40.6212558,2.99579922 C40.7813658,3.23596424 40.3010358,3.55618426 40.3010358,3.55618426 C40.7013108,4.51684432 40.2209808,6.27805445 40.2209808,6.27805445 C39.9007608,7.87915456 39.3403758,8.91986964 39.3403758,8.91986964 C38.2196057,7.15865951 38.9401008,4.99717436 38.9401008,4.99717436 C38.9401008,4.83706435 40.0608708,3.95645928 40.0608708,3.95645928 C40.1409258,3.87640428 40.2209808,3.39607424 40.2209808,3.39607424 C39.4204308,2.75563421 37.8993857,3.47612925 37.8993857,3.47612925 C38.1395507,4.03651429 37.2589456,4.1165693 37.2589456,4.1165693 L37.3390006,4.43678932 C37.7392757,6.03788943 37.2589456,7.71904455 37.2589456,7.71904455 C36.5384505,9.48025468 36.6985606,11.6417399 36.4583955,12.2821799 C36.2182305,13.0026749 31.4149302,13.5630599 31.4149302,13.5630599 C29.65372,13.88328 25.2506947,12.6023999 25.2506947,12.6023999 C24.5301997,12.1220699 24.6102547,10.1206947 24.6102547,10.1206947 C24.5301997,10.2808047 24.1299246,10.6010248 24.1299246,10.6010248 C24.2099796,10.9212448 23.8897597,12.2021249 23.8897597,12.2021249 C23.8097047,12.2021249 23.2493197,12.6023999 23.2493197,12.6023999 C23.1692646,12.6824549 21.9684395,13.0026749 21.9684395,13.0026749 C20.8476694,13.2428399 16.8449192,14.84394 16.8449192,14.84394 C14.1230489,15.8846551 12.6820589,15.8046001 12.6820589,15.8046001 C10.6006287,15.8046001 10.8407937,14.52372 10.8407937,14.52372 C10.8407937,13.72317 9.63996867,10.6010248 9.63996867,10.6010248 C8.5992536,6.51821946 11.9615638,2.99579922 11.9615638,2.99579922 C12.2017289,2.8356892 12.2017289,2.43541418 12.2017289,2.43541418 C11.2410688,2.03513915 10.2003537,2.51546918 10.2003537,2.51546918 C10.3604637,3.15590923 9.55991366,3.07585422 9.55991366,3.07585422 C9.63996867,3.55618426 8.91947361,5.5575594 8.91947361,5.5575594 C8.6793086,6.35810946 6.59787846,9.32014466 6.59787846,9.32014466 C6.59787846,8.99992465 5.71727339,7.95920957 5.71727339,7.95920957 C5.39705337,7.23871452 5.39705337,4.67695434 5.39705337,4.67695434 C5.47710838,2.27530416 6.67793345,1.3146441 6.67793345,1.3146441 C6.83804347,1.15453409 6.75798846,0.914369072 6.75798846,0.914369072 C5.39705337,0.834314066 4.67655831,1.39469911 4.67655831,1.39469911 C4.91672334,2.19524917 4.03611827,2.03513915 4.03611827,2.03513915 C4.4363933,4.59689933 3.39567823,8.11931958 3.39567823,8.11931958 C2.43501816,9.64036468 3.15551321,10.2808047 3.15551321,10.2808047 C4.91672334,12.4422898 3.55578823,14.52372 3.55578823,14.52372 C2.51507316,16.6852052 2.43501816,28.933621 2.43501816,28.933621 C2.27490815,28.373236 2.03474313,13.4830049 2.03474313,13.4830049 C2.67518317,4.91711935 1.39430309,4.1165693 1.39430309,4.1165693 C1.47435809,5.07722936 1.31424808,6.51821946 1.31424808,6.51821946 C0.833918046,7.63898954 0.913973052,10.3608597 0.913973052,10.3608597 C0.833918046,11.3215198 1.23419307,12.4422898 1.23419307,12.4422898 C1.39430309,12.7625099 1.5544131,15.1641601 1.5544131,15.1641601 C1.71452311,15.4043251 1.95468812,31.0150512 1.95468812,31.0150512 C2.27490815,35.8984065 6.51782345,35.0978565 6.51782345,35.0978565 C7.3183735,34.9377465 11.8815088,34.8576914 11.8815088,34.8576914 C15.4039291,35.0978565 23.4894847,34.9377465 24.6903097,34.8576914 C25.8911348,34.7776364 32.2154803,35.5781865 32.2154803,35.5781865 C33.1761403,35.6582415 37.8993857,36.5388466 37.8993857,36.5388466 C38.6999357,36.7790116 43.5832911,37.0191766 43.5832911,37.0191766 C47.8262064,38.2200017 52.2292317,37.4995067 52.2292317,37.4995067 C55.2713219,37.0992316 55.5915419,37.2593417 55.5915419,37.2593417 C56.632257,38.6202767 57.9931921,39.1806617 57.9931921,39.1806617 C57.9931921,38.9404967 57.112587,38.0598917 57.112587,38.0598917 C57.032532,37.8997817 57.192642,37.8997817 57.192642,37.8997817 C58.8737971,38.6202767 61.3555023,37.9798367 61.3555023,37.9798367 C62.6363824,38.1399467 63.0366574,39.5008818 63.0366574,39.5008818 L63.1967674,39.3407717 C63.2768224,37.4995067 61.6757223,37.0992316 61.6757223,37.0992316 C61.1953923,36.8590666 61.5956673,36.5388466 61.5956673,36.5388466 C62.8765474,35.7382965 62.9566024,34.6975814 62.9566024,34.6975814 C63.2768224,30.6948312 64.3175375,30.6948312 64.3175375,30.6948312 C65.1981426,30.4546661 64.9579776,29.333896 64.9579776,29.333896 Z M58.5535771,33.9770864 C58.2333571,33.9770864 57.9931921,33.7369213 57.9931921,33.4167013 C57.9931921,33.0964814 58.2333571,32.8563164 58.5535771,32.8563164 C58.8737971,32.8563164 59.1139622,33.0964814 59.1139622,33.4167013 C59.1139622,33.7369213 58.8737971,33.9770864 58.5535771,33.9770864 Z" id="Shape"></path>
            </g>
        </g>
    </g>
</svg>